<svg xmlns="http://www.w3.org/2000/svg" xmlns:xlink="http://www.w3.org/1999/xlink" width="40" zoomAndPan="magnify" viewBox="0 0 30 431.999984" height="576" preserveAspectRatio="xMidYMid meet" version="1.0"><path fill="#000000" d="M 27.269531 3.945312 L 27.269531 6.195312 L 26.523438 6.195312 L 26.523438 3.945312 Z M 27.269531 6.949219 L 27.269531 9.199219 L 26.523438 9.199219 L 26.523438 6.949219 Z M 27.269531 9.949219 L 27.269531 12.199219 L 26.523438 12.199219 L 26.523438 9.949219 Z M 27.269531 12.949219 L 27.269531 15.203125 L 26.523438 15.203125 L 26.523438 12.949219 Z M 27.269531 15.953125 L 27.269531 18.203125 L 26.523438 18.203125 L 26.523438 15.953125 Z M 27.269531 18.953125 L 27.269531 21.203125 L 26.523438 21.203125 L 26.523438 18.953125 Z M 27.269531 21.953125 L 27.269531 24.207031 L 26.523438 24.207031 L 26.523438 21.953125 Z M 27.269531 24.957031 L 27.269531 27.207031 L 26.523438 27.207031 L 26.523438 24.957031 Z M 27.269531 27.957031 L 27.269531 30.207031 L 26.523438 30.207031 L 26.523438 27.957031 Z M 27.269531 30.957031 L 27.269531 33.210938 L 26.523438 33.210938 L 26.523438 30.957031 Z M 27.269531 33.960938 L 27.269531 36.210938 L 26.523438 36.210938 L 26.523438 33.960938 Z M 27.269531 36.960938 L 27.269531 39.210938 L 26.523438 39.210938 L 26.523438 36.960938 Z M 27.269531 39.960938 L 27.269531 42.214844 L 26.523438 42.214844 L 26.523438 39.960938 Z M 27.269531 42.964844 L 27.269531 45.214844 L 26.523438 45.214844 L 26.523438 42.964844 Z M 27.269531 45.964844 L 27.269531 48.214844 L 26.523438 48.214844 L 26.523438 45.964844 Z M 27.269531 48.96875 L 27.269531 51.21875 L 26.523438 51.21875 L 26.523438 48.96875 Z M 27.269531 51.96875 L 27.269531 54.21875 L 26.523438 54.21875 L 26.523438 51.96875 Z M 27.269531 54.96875 L 27.269531 57.222656 L 26.523438 57.222656 L 26.523438 54.96875 Z M 27.269531 57.972656 L 27.269531 60.222656 L 26.523438 60.222656 L 26.523438 57.972656 Z M 27.269531 60.972656 L 27.269531 63.222656 L 26.523438 63.222656 L 26.523438 60.972656 Z M 27.269531 63.972656 L 27.269531 66.226562 L 26.523438 66.226562 L 26.523438 63.972656 Z M 27.269531 66.976562 L 27.269531 69.226562 L 26.523438 69.226562 L 26.523438 66.976562 Z M 27.269531 69.976562 L 27.269531 72.226562 L 26.523438 72.226562 L 26.523438 69.976562 Z M 27.269531 72.976562 L 27.269531 75.230469 L 26.523438 75.230469 L 26.523438 72.976562 Z M 27.269531 75.980469 L 27.269531 78.230469 L 26.523438 78.230469 L 26.523438 75.980469 Z M 27.269531 78.980469 L 27.269531 81.230469 L 26.523438 81.230469 L 26.523438 78.980469 Z M 27.269531 81.984375 L 27.269531 84.234375 L 26.523438 84.234375 L 26.523438 81.984375 Z M 27.269531 84.984375 L 27.269531 87.234375 L 26.523438 87.234375 L 26.523438 84.984375 Z M 27.269531 87.984375 L 27.269531 90.238281 L 26.523438 90.238281 L 26.523438 87.984375 Z M 27.269531 90.988281 L 27.269531 93.238281 L 26.523438 93.238281 L 26.523438 90.988281 Z M 27.269531 93.988281 L 27.269531 96.238281 L 26.523438 96.238281 L 26.523438 93.988281 Z M 27.269531 96.988281 L 27.269531 99.242188 L 26.523438 99.242188 L 26.523438 96.988281 Z M 27.269531 99.992188 L 27.269531 102.242188 L 26.523438 102.242188 L 26.523438 99.992188 Z M 27.269531 102.992188 L 27.269531 105.242188 L 26.523438 105.242188 L 26.523438 102.992188 Z M 27.269531 105.992188 L 27.269531 108.246094 L 26.523438 108.246094 L 26.523438 105.992188 Z M 27.269531 108.996094 L 27.269531 111.246094 L 26.523438 111.246094 L 26.523438 108.996094 Z M 27.269531 111.996094 L 27.269531 114.246094 L 26.523438 114.246094 L 26.523438 111.996094 Z M 27.269531 114.996094 L 27.269531 117.25 L 26.523438 117.25 L 26.523438 114.996094 Z M 27.269531 118 L 27.269531 120.25 L 26.523438 120.25 L 26.523438 118 Z M 27.269531 121 L 27.269531 123.25 L 26.523438 123.25 L 26.523438 121 Z M 27.269531 124.003906 L 27.269531 126.253906 L 26.523438 126.253906 L 26.523438 124.003906 Z M 27.269531 127.003906 L 27.269531 129.253906 L 26.523438 129.253906 L 26.523438 127.003906 Z M 27.269531 130.003906 L 27.269531 132.257812 L 26.523438 132.257812 L 26.523438 130.003906 Z M 27.269531 133.007812 L 27.269531 135.257812 L 26.523438 135.257812 L 26.523438 133.007812 Z M 27.269531 136.007812 L 27.269531 138.257812 L 26.523438 138.257812 L 26.523438 136.007812 Z M 27.269531 139.007812 L 27.269531 141.261719 L 26.523438 141.261719 L 26.523438 139.007812 Z M 27.269531 142.011719 L 27.269531 144.261719 L 26.523438 144.261719 L 26.523438 142.011719 Z M 27.269531 145.011719 L 27.269531 147.261719 L 26.523438 147.261719 L 26.523438 145.011719 Z M 27.269531 148.011719 L 27.269531 150.265625 L 26.523438 150.265625 L 26.523438 148.011719 Z M 27.269531 151.015625 L 27.269531 153.265625 L 26.523438 153.265625 L 26.523438 151.015625 Z M 27.269531 154.015625 L 27.269531 156.265625 L 26.523438 156.265625 L 26.523438 154.015625 Z M 27.269531 157.019531 L 27.269531 159.269531 L 26.523438 159.269531 L 26.523438 157.019531 Z M 27.269531 160.019531 L 27.269531 162.269531 L 26.523438 162.269531 L 26.523438 160.019531 Z M 27.269531 163.019531 L 27.269531 165.273438 L 26.523438 165.273438 L 26.523438 163.019531 Z M 27.269531 166.023438 L 27.269531 168.273438 L 26.523438 168.273438 L 26.523438 166.023438 Z M 27.269531 169.023438 L 27.269531 171.273438 L 26.523438 171.273438 L 26.523438 169.023438 Z M 27.269531 172.023438 L 27.269531 174.277344 L 26.523438 174.277344 L 26.523438 172.023438 Z M 27.269531 175.027344 L 27.269531 177.277344 L 26.523438 177.277344 L 26.523438 175.027344 Z M 27.269531 178.027344 L 27.269531 180.277344 L 26.523438 180.277344 L 26.523438 178.027344 Z M 27.269531 181.027344 L 27.269531 183.28125 L 26.523438 183.28125 L 26.523438 181.027344 Z M 27.269531 184.03125 L 27.269531 186.28125 L 26.523438 186.28125 L 26.523438 184.03125 Z M 27.269531 187.03125 L 27.269531 189.28125 L 26.523438 189.28125 L 26.523438 187.03125 Z M 27.269531 190.035156 L 27.269531 192.285156 L 26.523438 192.285156 L 26.523438 190.035156 Z M 27.269531 193.035156 L 27.269531 195.285156 L 26.523438 195.285156 L 26.523438 193.035156 Z M 27.269531 196.035156 L 27.269531 198.285156 L 26.523438 198.285156 L 26.523438 196.035156 Z M 27.269531 199.039062 L 27.269531 201.289062 L 26.523438 201.289062 L 26.523438 199.039062 Z M 27.269531 202.039062 L 27.269531 203.761719 C 27.269531 203.949219 27.265625 204.132812 27.257812 204.316406 L 26.511719 204.28125 C 26.519531 204.109375 26.523438 203.9375 26.523438 203.761719 L 26.523438 202.039062 Z M 27.199219 205.09375 C 27.121094 205.871094 26.96875 206.632812 26.75 207.378906 L 26.035156 207.167969 C 26.242188 206.464844 26.382812 205.746094 26.457031 205.019531 Z M 26.511719 208.113281 C 26.25 208.84375 25.921875 209.542969 25.535156 210.214844 L 24.890625 209.835938 C 25.253906 209.207031 25.5625 208.546875 25.808594 207.859375 Z M 25.125 210.871094 C 24.691406 211.523438 24.207031 212.128906 23.660156 212.691406 L 23.125 212.167969 C 23.636719 211.640625 24.097656 211.070312 24.503906 210.457031 Z M 23.097656 213.238281 C 22.523438 213.765625 21.90625 214.234375 21.242188 214.644531 L 20.851562 214.007812 C 21.472656 213.621094 22.054688 213.179688 22.597656 212.683594 Z M 20.578125 215.035156 C 19.898438 215.402344 19.191406 215.707031 18.457031 215.945312 L 18.226562 215.234375 C 18.917969 215.007812 19.582031 214.722656 20.222656 214.375 Z M 17.714844 216.164062 C 16.964844 216.359375 16.199219 216.484375 15.425781 216.539062 L 15.371094 215.792969 C 16.101562 215.738281 16.820312 215.621094 17.53125 215.4375 Z M 14.644531 216.570312 L 14.519531 216.574219 C 13.824219 216.574219 13.132812 216.632812 12.449219 216.753906 L 12.320312 216.015625 C 13.046875 215.886719 13.78125 215.824219 14.515625 215.824219 L 14.640625 215.820312 Z M 11.734375 216.902344 C 11.027344 217.070312 10.34375 217.300781 9.675781 217.597656 L 9.375 216.910156 C 10.082031 216.597656 10.8125 216.351562 11.5625 216.171875 Z M 9.023438 217.910156 C 8.375 218.246094 7.761719 218.636719 7.183594 219.085938 L 6.726562 218.492188 C 7.339844 218.015625 7.992188 217.601562 8.679688 217.242188 Z M 6.617188 219.554688 C 6.417969 219.730469 6.222656 219.914062 6.03125 220.105469 C 5.699219 220.4375 5.390625 220.789062 5.101562 221.15625 L 4.515625 220.691406 C 4.820312 220.300781 5.152344 219.925781 5.503906 219.574219 C 5.703125 219.371094 5.914062 219.175781 6.125 218.988281 Z M 4.664062 221.746094 C 4.25 222.34375 3.890625 222.976562 3.589844 223.644531 L 2.910156 223.332031 C 3.230469 222.625 3.609375 221.953125 4.050781 221.316406 Z M 3.3125 224.316406 C 3.050781 225 2.851562 225.699219 2.71875 226.417969 L 1.984375 226.28125 C 2.128906 225.515625 2.335938 224.773438 2.613281 224.046875 Z M 2.605469 227.140625 C 2.546875 227.636719 2.515625 228.132812 2.515625 228.632812 L 2.515625 229.363281 L 1.769531 229.363281 L 1.769531 228.632812 C 1.769531 228.101562 1.800781 227.574219 1.867188 227.050781 Z M 2.515625 230.113281 L 2.515625 232.367188 L 1.769531 232.367188 L 1.769531 230.113281 Z M 2.515625 233.117188 L 2.515625 235.367188 L 1.769531 235.367188 L 1.769531 233.117188 Z M 2.515625 236.117188 L 2.515625 238.367188 L 1.769531 238.367188 L 1.769531 236.117188 Z M 2.515625 239.117188 L 2.515625 241.371094 L 1.769531 241.371094 L 1.769531 239.117188 Z M 2.515625 242.121094 L 2.515625 244.371094 L 1.769531 244.371094 L 1.769531 242.121094 Z M 2.515625 245.121094 L 2.515625 247.371094 L 1.769531 247.371094 L 1.769531 245.121094 Z M 2.515625 248.121094 L 2.515625 250.375 L 1.769531 250.375 L 1.769531 248.121094 Z M 2.515625 251.125 L 2.515625 253.375 L 1.769531 253.375 L 1.769531 251.125 Z M 2.515625 254.125 L 2.515625 256.375 L 1.769531 256.375 L 1.769531 254.125 Z M 2.515625 257.128906 L 2.515625 259.378906 L 1.769531 259.378906 L 1.769531 257.128906 Z M 2.515625 260.128906 L 2.515625 262.378906 L 1.769531 262.378906 L 1.769531 260.128906 Z M 2.515625 263.128906 L 2.515625 265.382812 L 1.769531 265.382812 L 1.769531 263.128906 Z M 2.515625 266.132812 L 2.515625 268.382812 L 1.769531 268.382812 L 1.769531 266.132812 Z M 2.515625 269.132812 L 2.515625 271.382812 L 1.769531 271.382812 L 1.769531 269.132812 Z M 2.515625 272.132812 L 2.515625 274.386719 L 1.769531 274.386719 L 1.769531 272.132812 Z M 2.515625 275.136719 L 2.515625 277.386719 L 1.769531 277.386719 L 1.769531 275.136719 Z M 2.515625 278.136719 L 2.515625 280.386719 L 1.769531 280.386719 L 1.769531 278.136719 Z M 2.515625 281.136719 L 2.515625 283.390625 L 1.769531 283.390625 L 1.769531 281.136719 Z M 2.515625 284.140625 L 2.515625 286.390625 L 1.769531 286.390625 L 1.769531 284.140625 Z M 2.515625 287.140625 L 2.515625 289.390625 L 1.769531 289.390625 L 1.769531 287.140625 Z M 2.515625 290.144531 L 2.515625 292.394531 L 1.769531 292.394531 L 1.769531 290.144531 Z M 2.515625 293.144531 L 2.515625 295.394531 L 1.769531 295.394531 L 1.769531 293.144531 Z M 2.515625 296.144531 L 2.515625 298.398438 L 1.769531 298.398438 L 1.769531 296.144531 Z M 2.515625 299.148438 L 2.515625 301.398438 L 1.769531 301.398438 L 1.769531 299.148438 Z M 2.515625 302.148438 L 2.515625 304.398438 L 1.769531 304.398438 L 1.769531 302.148438 Z M 2.515625 305.148438 L 2.515625 307.402344 L 1.769531 307.402344 L 1.769531 305.148438 Z M 2.515625 308.152344 L 2.515625 310.402344 L 1.769531 310.402344 L 1.769531 308.152344 Z M 2.515625 311.152344 L 2.515625 313.402344 L 1.769531 313.402344 L 1.769531 311.152344 Z M 2.515625 314.152344 L 2.515625 316.40625 L 1.769531 316.40625 L 1.769531 314.152344 Z M 2.515625 317.15625 L 2.515625 319.40625 L 1.769531 319.40625 L 1.769531 317.15625 Z M 2.515625 320.15625 L 2.515625 322.40625 L 1.769531 322.40625 L 1.769531 320.15625 Z M 2.515625 323.15625 L 2.515625 325.410156 L 1.769531 325.410156 L 1.769531 323.15625 Z M 2.515625 326.160156 L 2.515625 328.410156 L 1.769531 328.410156 L 1.769531 326.160156 Z M 2.515625 329.160156 L 2.515625 331.410156 L 1.769531 331.410156 L 1.769531 329.160156 Z M 2.515625 332.164062 L 2.515625 334.414062 L 1.769531 334.414062 L 1.769531 332.164062 Z M 2.515625 335.164062 L 2.515625 337.414062 L 1.769531 337.414062 L 1.769531 335.164062 Z M 2.515625 338.164062 L 2.515625 340.417969 L 1.769531 340.417969 L 1.769531 338.164062 Z M 2.515625 341.167969 L 2.515625 343.417969 L 1.769531 343.417969 L 1.769531 341.167969 Z M 2.515625 344.167969 L 2.515625 346.417969 L 1.769531 346.417969 L 1.769531 344.167969 Z M 2.515625 347.167969 L 2.515625 349.421875 L 1.769531 349.421875 L 1.769531 347.167969 Z M 2.515625 350.171875 L 2.515625 352.421875 L 1.769531 352.421875 L 1.769531 350.171875 Z M 2.515625 353.171875 L 2.515625 355.421875 L 1.769531 355.421875 L 1.769531 353.171875 Z M 2.515625 356.171875 L 2.515625 358.425781 L 1.769531 358.425781 L 1.769531 356.171875 Z M 2.515625 359.175781 L 2.515625 361.425781 L 1.769531 361.425781 L 1.769531 359.175781 Z M 2.515625 362.175781 L 2.515625 364.425781 L 1.769531 364.425781 L 1.769531 362.175781 Z M 2.515625 365.179688 L 2.515625 367.429688 L 1.769531 367.429688 L 1.769531 365.179688 Z M 2.515625 368.179688 L 2.515625 370.429688 L 1.769531 370.429688 L 1.769531 368.179688 Z M 2.515625 371.179688 L 2.515625 373.433594 L 1.769531 373.433594 L 1.769531 371.179688 Z M 2.515625 374.183594 L 2.515625 376.433594 L 1.769531 376.433594 L 1.769531 374.183594 Z M 2.515625 377.183594 L 2.515625 379.433594 L 1.769531 379.433594 L 1.769531 377.183594 Z M 2.515625 380.183594 L 2.515625 382.4375 L 1.769531 382.4375 L 1.769531 380.183594 Z M 2.515625 383.1875 L 2.515625 385.4375 L 1.769531 385.4375 L 1.769531 383.1875 Z M 2.515625 386.1875 L 2.515625 388.4375 L 1.769531 388.4375 L 1.769531 386.1875 Z M 2.515625 389.1875 L 2.515625 391.441406 L 1.769531 391.441406 L 1.769531 389.1875 Z M 2.515625 392.191406 L 2.515625 394.441406 L 1.769531 394.441406 L 1.769531 392.191406 Z M 2.515625 395.191406 L 2.515625 397.441406 L 1.769531 397.441406 L 1.769531 395.191406 Z M 2.515625 398.195312 L 2.515625 400.445312 L 1.769531 400.445312 L 1.769531 398.195312 Z M 2.515625 401.195312 L 2.515625 403.445312 L 1.769531 403.445312 L 1.769531 401.195312 Z M 2.515625 404.195312 L 2.515625 406.445312 L 1.769531 406.445312 L 1.769531 404.195312 Z M 2.515625 407.199219 L 2.515625 409.449219 L 1.769531 409.449219 L 1.769531 407.199219 Z M 2.515625 410.199219 L 2.515625 412.449219 L 1.769531 412.449219 L 1.769531 410.199219 Z M 2.515625 413.199219 L 2.515625 415.453125 L 1.769531 415.453125 L 1.769531 413.199219 Z M 2.515625 416.203125 L 2.515625 418.453125 L 1.769531 418.453125 L 1.769531 416.203125 Z M 2.515625 419.203125 L 2.515625 421.453125 L 1.769531 421.453125 L 1.769531 419.203125 Z M 2.515625 422.203125 L 2.515625 424.457031 L 1.769531 424.457031 L 1.769531 422.203125 Z M 2.515625 425.207031 L 2.515625 427.457031 L 1.769531 427.457031 L 1.769531 425.207031 Z M 2.515625 428.207031 L 2.515625 428.449219 L 1.769531 428.449219 L 1.769531 428.207031 Z M 2.515625 428.207031 " fill-opacity="1" fill-rule="nonzero"/></svg>