<svg xmlns="http://www.w3.org/2000/svg" xmlns:xlink="http://www.w3.org/1999/xlink" width="40" zoomAndPan="magnify" viewBox="0 0 30 187.499995" height="250" preserveAspectRatio="xMidYMid meet" version="1.0"><path fill="#000000" d="M 3.894531 0.761719 L 3.894531 1.511719 L 3.136719 1.511719 L 3.136719 0.761719 Z M 3.894531 2.257812 L 3.894531 3.007812 L 3.136719 3.007812 L 3.136719 2.257812 Z M 3.894531 3.753906 L 3.894531 4.503906 L 3.136719 4.503906 L 3.136719 3.753906 Z M 3.894531 5.25 L 3.894531 6 L 3.136719 6 L 3.136719 5.25 Z M 3.894531 6.746094 L 3.894531 7.496094 L 3.136719 7.496094 L 3.136719 6.746094 Z M 3.894531 8.242188 L 3.894531 8.992188 L 3.136719 8.992188 L 3.136719 8.242188 Z M 3.894531 9.742188 L 3.894531 10.488281 L 3.136719 10.488281 L 3.136719 9.742188 Z M 3.894531 11.238281 L 3.894531 11.984375 L 3.136719 11.984375 L 3.136719 11.238281 Z M 3.894531 12.734375 L 3.894531 13.480469 L 3.136719 13.480469 L 3.136719 12.734375 Z M 3.894531 14.230469 L 3.894531 14.976562 L 3.136719 14.976562 L 3.136719 14.230469 Z M 3.894531 15.726562 L 3.894531 16.472656 L 3.136719 16.472656 L 3.136719 15.726562 Z M 3.894531 17.222656 L 3.894531 17.96875 L 3.136719 17.96875 L 3.136719 17.222656 Z M 3.894531 18.71875 L 3.894531 19.464844 L 3.136719 19.464844 L 3.136719 18.71875 Z M 3.894531 20.214844 L 3.894531 20.960938 L 3.136719 20.960938 L 3.136719 20.214844 Z M 3.894531 21.710938 L 3.894531 22.457031 L 3.136719 22.457031 L 3.136719 21.710938 Z M 3.894531 23.207031 L 3.894531 23.953125 L 3.136719 23.953125 L 3.136719 23.207031 Z M 3.894531 24.703125 L 3.894531 25.449219 L 3.136719 25.449219 L 3.136719 24.703125 Z M 3.894531 26.199219 L 3.894531 26.945312 L 3.136719 26.945312 L 3.136719 26.199219 Z M 3.894531 27.695312 L 3.894531 28.441406 L 3.136719 28.441406 L 3.136719 27.695312 Z M 3.894531 29.191406 L 3.894531 29.9375 L 3.136719 29.9375 L 3.136719 29.191406 Z M 3.894531 30.6875 L 3.894531 31.433594 L 3.136719 31.433594 L 3.136719 30.6875 Z M 3.894531 32.183594 L 3.894531 32.929688 L 3.136719 32.929688 L 3.136719 32.183594 Z M 3.894531 33.679688 L 3.894531 34.425781 L 3.136719 34.425781 L 3.136719 33.679688 Z M 3.894531 35.175781 L 3.894531 35.925781 L 3.136719 35.925781 L 3.136719 35.175781 Z M 3.894531 36.671875 L 3.894531 37.421875 L 3.136719 37.421875 L 3.136719 36.671875 Z M 3.894531 38.167969 L 3.894531 38.917969 L 3.136719 38.917969 L 3.136719 38.167969 Z M 3.894531 39.664062 L 3.894531 40.414062 L 3.136719 40.414062 L 3.136719 39.664062 Z M 3.894531 41.160156 L 3.894531 41.910156 L 3.136719 41.910156 L 3.136719 41.160156 Z M 3.894531 42.65625 L 3.894531 43.40625 L 3.136719 43.40625 L 3.136719 42.65625 Z M 3.894531 44.152344 L 3.894531 44.902344 L 3.136719 44.902344 L 3.136719 44.152344 Z M 3.894531 45.648438 L 3.894531 46.398438 L 3.136719 46.398438 L 3.136719 45.648438 Z M 3.894531 47.144531 L 3.894531 47.894531 L 3.136719 47.894531 L 3.136719 47.144531 Z M 3.894531 48.640625 L 3.894531 49.390625 L 3.136719 49.390625 L 3.136719 48.640625 Z M 3.894531 50.136719 L 3.894531 50.886719 L 3.136719 50.886719 L 3.136719 50.136719 Z M 3.894531 51.632812 L 3.894531 52.382812 L 3.136719 52.382812 L 3.136719 51.632812 Z M 3.894531 53.128906 L 3.894531 53.878906 L 3.136719 53.878906 L 3.136719 53.128906 Z M 3.894531 54.625 L 3.894531 55.375 L 3.136719 55.375 L 3.136719 54.625 Z M 3.894531 56.121094 L 3.894531 56.871094 L 3.136719 56.871094 L 3.136719 56.121094 Z M 3.894531 57.617188 L 3.894531 58.367188 L 3.136719 58.367188 L 3.136719 57.617188 Z M 3.894531 59.113281 L 3.894531 59.863281 L 3.136719 59.863281 L 3.136719 59.113281 Z M 3.894531 60.609375 L 3.894531 61.359375 L 3.136719 61.359375 L 3.136719 60.609375 Z M 3.894531 62.105469 L 3.894531 62.855469 L 3.136719 62.855469 L 3.136719 62.105469 Z M 3.894531 63.605469 L 3.894531 64.351562 L 3.136719 64.351562 L 3.136719 63.605469 Z M 3.894531 65.101562 L 3.894531 65.847656 L 3.136719 65.847656 L 3.136719 65.101562 Z M 3.894531 66.597656 L 3.894531 67.34375 L 3.136719 67.34375 L 3.136719 66.597656 Z M 3.894531 68.09375 L 3.894531 68.839844 L 3.136719 68.839844 L 3.136719 68.09375 Z M 3.894531 69.589844 L 3.894531 70.335938 L 3.136719 70.335938 L 3.136719 69.589844 Z M 3.894531 71.085938 L 3.894531 71.832031 L 3.136719 71.832031 L 3.136719 71.085938 Z M 3.894531 72.582031 L 3.894531 73.328125 L 3.136719 73.328125 L 3.136719 72.582031 Z M 3.894531 74.078125 L 3.894531 74.824219 L 3.136719 74.824219 L 3.136719 74.078125 Z M 3.894531 75.574219 L 3.894531 76.320312 L 3.136719 76.320312 L 3.136719 75.574219 Z M 3.894531 77.070312 L 3.894531 77.816406 L 3.136719 77.816406 L 3.136719 77.070312 Z M 3.894531 78.566406 L 3.894531 79.3125 L 3.136719 79.3125 L 3.136719 78.566406 Z M 3.894531 80.0625 L 3.894531 80.808594 L 3.136719 80.808594 L 3.136719 80.0625 Z M 3.894531 81.558594 L 3.894531 82.304688 L 3.136719 82.304688 L 3.136719 81.558594 Z M 3.894531 83.054688 L 3.894531 83.800781 L 3.136719 83.800781 L 3.136719 83.054688 Z M 3.894531 84.550781 L 3.894531 85.296875 L 3.136719 85.296875 L 3.136719 84.550781 Z M 3.894531 86.046875 L 3.894531 86.792969 L 3.136719 86.792969 L 3.136719 86.046875 Z M 3.894531 87.542969 L 3.894531 88.289062 L 3.136719 88.289062 L 3.136719 87.542969 Z M 3.894531 89.039062 L 3.894531 89.789062 L 3.136719 89.789062 L 3.136719 89.039062 Z M 3.894531 90.535156 L 3.894531 91.285156 L 3.136719 91.285156 L 3.136719 90.535156 Z M 3.894531 92.03125 L 3.894531 92.78125 L 3.136719 92.78125 L 3.136719 92.03125 Z M 3.894531 93.527344 L 3.894531 94.277344 L 3.136719 94.277344 L 3.136719 93.527344 Z M 3.894531 95.023438 L 3.894531 95.773438 L 3.136719 95.773438 L 3.136719 95.023438 Z M 3.894531 96.519531 L 3.894531 97.269531 L 3.136719 97.269531 L 3.136719 96.519531 Z M 3.894531 98.015625 L 3.894531 98.765625 L 3.136719 98.765625 L 3.136719 98.015625 Z M 3.894531 99.511719 L 3.894531 100.261719 L 3.136719 100.261719 L 3.136719 99.511719 Z M 3.894531 101.007812 L 3.894531 101.757812 L 3.136719 101.757812 L 3.136719 101.007812 Z M 3.894531 102.503906 L 3.894531 103.253906 L 3.136719 103.253906 L 3.136719 102.503906 Z M 3.894531 104 L 3.894531 104.75 L 3.136719 104.75 L 3.136719 104 Z M 3.894531 105.496094 L 3.894531 106.246094 L 3.136719 106.246094 L 3.136719 105.496094 Z M 3.894531 106.992188 L 3.894531 107.742188 L 3.136719 107.742188 L 3.136719 106.992188 Z M 3.894531 108.488281 L 3.894531 109.238281 L 3.136719 109.238281 L 3.136719 108.488281 Z M 3.894531 109.984375 L 3.894531 110.734375 L 3.136719 110.734375 L 3.136719 109.984375 Z M 3.894531 111.480469 L 3.894531 112.230469 L 3.136719 112.230469 L 3.136719 111.480469 Z M 3.894531 112.976562 L 3.894531 113.726562 L 3.136719 113.726562 L 3.136719 112.976562 Z M 3.894531 114.472656 L 3.894531 115.222656 L 3.136719 115.222656 L 3.136719 114.472656 Z M 3.894531 115.96875 L 3.894531 116.71875 L 3.136719 116.71875 L 3.136719 115.96875 Z M 3.894531 117.46875 L 3.894531 118.214844 L 3.136719 118.214844 L 3.136719 117.46875 Z M 3.894531 118.964844 L 3.894531 119.710938 L 3.136719 119.710938 L 3.136719 118.964844 Z M 3.894531 120.460938 L 3.894531 121.207031 L 3.136719 121.207031 L 3.136719 120.460938 Z M 3.894531 121.957031 L 3.894531 122.703125 L 3.136719 122.703125 L 3.136719 121.957031 Z M 3.894531 123.453125 L 3.894531 124.199219 L 3.136719 124.199219 L 3.136719 123.453125 Z M 3.894531 124.949219 L 3.894531 125.695312 L 3.136719 125.695312 L 3.136719 124.949219 Z M 3.894531 126.445312 L 3.894531 127.191406 L 3.136719 127.191406 L 3.136719 126.445312 Z M 3.894531 127.941406 L 3.894531 128.6875 L 3.136719 128.6875 L 3.136719 127.941406 Z M 3.894531 129.4375 L 3.894531 130.183594 L 3.136719 130.183594 L 3.136719 129.4375 Z M 3.894531 130.933594 L 3.894531 131.679688 L 3.136719 131.679688 L 3.136719 130.933594 Z M 3.894531 132.429688 L 3.894531 133.175781 L 3.136719 133.175781 L 3.136719 132.429688 Z M 3.894531 133.925781 L 3.894531 134.671875 L 3.136719 134.671875 L 3.136719 133.925781 Z M 3.894531 135.421875 L 3.894531 136.167969 L 3.136719 136.167969 L 3.136719 135.421875 Z M 3.894531 136.917969 L 3.894531 137.664062 L 3.136719 137.664062 L 3.136719 136.917969 Z M 3.894531 138.414062 L 3.894531 139.160156 L 3.136719 139.160156 L 3.136719 138.414062 Z M 3.894531 139.910156 L 3.894531 140.65625 L 3.136719 140.65625 L 3.136719 139.910156 Z M 3.894531 141.40625 L 3.894531 142.152344 L 3.136719 142.152344 L 3.136719 141.40625 Z M 3.894531 142.902344 L 3.894531 143.652344 L 3.136719 143.652344 L 3.136719 142.902344 Z M 3.894531 144.398438 L 3.894531 145.148438 L 3.136719 145.148438 L 3.136719 144.398438 Z M 3.894531 145.894531 L 3.894531 146.644531 L 3.136719 146.644531 L 3.136719 145.894531 Z M 3.894531 147.390625 L 3.894531 148.140625 L 3.136719 148.140625 L 3.136719 147.390625 Z M 3.894531 148.886719 L 3.894531 149.636719 L 3.136719 149.636719 L 3.136719 148.886719 Z M 3.894531 150.382812 L 3.894531 151.132812 L 3.136719 151.132812 L 3.136719 150.382812 Z M 3.894531 151.878906 L 3.894531 152.628906 L 3.136719 152.628906 L 3.136719 151.878906 Z M 3.894531 153.375 L 3.894531 154.125 L 3.136719 154.125 L 3.136719 153.375 Z M 3.894531 154.871094 L 3.894531 155.621094 L 3.136719 155.621094 L 3.136719 154.871094 Z M 3.894531 156.367188 L 3.894531 157.117188 L 3.136719 157.117188 L 3.136719 156.367188 Z M 3.894531 157.863281 L 3.894531 158.613281 L 3.136719 158.613281 L 3.136719 157.863281 Z M 3.894531 159.359375 L 3.894531 160.109375 L 3.136719 160.109375 L 3.136719 159.359375 Z M 3.894531 160.855469 L 3.894531 161.605469 L 3.136719 161.605469 L 3.136719 160.855469 Z M 3.894531 162.351562 L 3.894531 163.101562 L 3.136719 163.101562 L 3.136719 162.351562 Z M 3.894531 163.847656 L 3.894531 164.597656 L 3.136719 164.597656 L 3.136719 163.847656 Z M 3.894531 165.34375 L 3.894531 166.09375 L 3.136719 166.09375 L 3.136719 165.34375 Z M 3.894531 166.839844 L 3.894531 167.589844 L 3.136719 167.589844 L 3.136719 166.839844 Z M 3.894531 168.335938 L 3.894531 169.085938 L 3.136719 169.085938 L 3.136719 168.335938 Z M 3.894531 169.835938 L 3.894531 170.582031 L 3.136719 170.582031 L 3.136719 169.835938 Z M 3.894531 171.332031 L 3.894531 172.078125 L 3.136719 172.078125 L 3.136719 171.332031 Z M 3.894531 172.828125 L 3.894531 173.574219 L 3.136719 173.574219 L 3.136719 172.828125 Z M 3.894531 174.324219 L 3.894531 175.070312 L 3.136719 175.070312 L 3.136719 174.324219 Z M 3.894531 175.820312 L 3.894531 176.566406 L 3.136719 176.566406 L 3.136719 175.820312 Z M 3.894531 177.316406 L 3.894531 177.675781 C 3.894531 177.796875 3.902344 177.921875 3.914062 178.042969 L 3.15625 178.109375 C 3.140625 177.964844 3.136719 177.820312 3.136719 177.675781 L 3.136719 177.316406 Z M 4.03125 178.722656 C 4.089844 178.941406 4.167969 179.15625 4.261719 179.363281 L 3.570312 179.671875 C 3.457031 179.425781 3.367188 179.171875 3.296875 178.914062 Z M 4.605469 179.96875 C 4.734375 180.15625 4.878906 180.335938 5.039062 180.503906 L 4.488281 181.019531 C 4.300781 180.820312 4.128906 180.609375 3.972656 180.382812 Z M 5.5625 180.960938 C 5.746094 181.101562 5.945312 181.222656 6.152344 181.328125 L 5.804688 181.992188 C 5.558594 181.867188 5.324219 181.722656 5.101562 181.558594 Z M 6.792969 181.589844 C 7.015625 181.660156 7.242188 181.714844 7.472656 181.746094 L 7.363281 182.488281 C 7.089844 182.449219 6.824219 182.386719 6.5625 182.304688 Z M 8.191406 181.789062 L 8.953125 181.789062 L 8.953125 182.535156 L 8.191406 182.535156 Z M 9.710938 181.789062 L 10.472656 181.789062 L 10.472656 182.535156 L 9.710938 182.535156 Z M 11.230469 181.789062 L 11.992188 181.789062 L 11.992188 182.535156 L 11.230469 182.535156 Z M 12.75 181.789062 L 13.511719 181.789062 L 13.511719 182.535156 L 12.75 182.535156 Z M 14.273438 181.789062 L 15.03125 181.789062 L 15.03125 182.535156 L 14.273438 182.535156 Z M 15.792969 181.789062 L 16.550781 181.789062 L 16.550781 182.535156 L 15.792969 182.535156 Z M 17.3125 181.789062 L 18.070312 181.789062 L 18.070312 182.535156 L 17.3125 182.535156 Z M 18.832031 181.789062 L 19.589844 181.789062 L 19.589844 182.535156 L 18.832031 182.535156 Z M 20.351562 181.789062 L 21.109375 181.789062 L 21.109375 182.535156 L 20.351562 182.535156 Z M 21.871094 181.789062 L 22.628906 181.789062 L 22.628906 182.535156 L 21.871094 182.535156 Z M 23.390625 181.789062 L 24.148438 181.789062 L 24.148438 182.535156 L 23.390625 182.535156 Z M 23.390625 181.789062 " fill-opacity="1" fill-rule="nonzero"/></svg>