<svg xmlns="http://www.w3.org/2000/svg" xmlns:xlink="http://www.w3.org/1999/xlink" version="1.1" xml:space="preserve" width="400" height="1000" viewBox="0 1000 40 1000">
    <rect x="0" y="0" width="10" height="20" fill="black" />
    <rect x="0" y="30" width="10" height="20" fill="black" />
    <rect x="0" y="60" width="10" height="20" fill="black" />
    <rect x="0" y="90" width="10" height="20" fill="black" />
    <rect x="0" y="120" width="10" height="20" fill="black" />
    <rect x="0" y="150" width="10" height="20" fill="black" />
    <rect x="0" y="180" width="10" height="20" fill="black" />
    <rect x="0" y="210" width="10" height="20" fill="black" />
    <rect x="0" y="240" width="10" height="20" fill="black" />
    <rect x="0" y="270" width="10" height="20" fill="black" />
    <rect x="0" y="300" width="10" height="20" fill="black" />
    <rect x="0" y="330" width="10" height="20" fill="black" />
    <rect x="0" y="360" width="10" height="20" fill="black" />
    <rect x="0" y="390" width="10" height="20" fill="black" />
    <rect x="0" y="420" width="10" height="20" fill="black" />
    <rect x="0" y="450" width="10" height="20" fill="black" />
    <rect x="0" y="480" width="10" height="20" fill="black" />
    <rect x="0" y="510" width="10" height="20" fill="black" />
    <rect x="0" y="540" width="10" height="20" fill="black" />
    <rect x="0" y="570" width="10" height="20" fill="black" />
    <rect x="0" y="600" width="10" height="20" fill="black" />
    <rect x="0" y="630" width="10" height="20" fill="black" />
    <rect x="0" y="660" width="10" height="20" fill="black" />
    <rect x="0" y="690" width="10" height="20" fill="black" />
    <rect x="0" y="720" width="10" height="20" fill="black" />
    <rect x="0" y="750" width="10" height="20" fill="black" />
    <rect x="0" y="780" width="10" height="20" fill="black" />
    <rect x="0" y="810" width="10" height="20" fill="black" />
    <rect x="0" y="840" width="10" height="20" fill="black" />
    <rect x="0" y="870" width="10" height="20" fill="black" />
    <rect x="0" y="900" width="10" height="20" fill="black" />
    <rect x="0" y="930" width="10" height="20" fill="black" />
</svg>