<svg xmlns="http://www.w3.org/2000/svg" xmlns:xlink="http://www.w3.org/1999/xlink" width="100" zoomAndPan="magnify" viewBox="0 0 75 74.999997" height="100" preserveAspectRatio="xMidYMid meet" version="1.0"><defs><clipPath id="7e2f04b1b2"><path d="M 0 12 L 75 12 L 75 62.863281 L 0 62.863281 Z M 0 12 " clip-rule="nonzero"/></clipPath></defs><g clip-path="url(#7e2f04b1b2)"><path fill="#000000" d="M 37.5 62.296875 C 12.90625 62.296875 0.726562 39.234375 0.21875 38.25 C -0.09375 37.652344 -0.09375 37.054688 0.21875 36.457031 C 0.726562 35.476562 12.90625 12.429688 37.5 12.429688 C 62.09375 12.429688 74.277344 35.476562 74.78125 36.457031 C 75.09375 37.054688 75.09375 37.652344 74.78125 38.25 C 74.277344 39.234375 62.097656 62.296875 37.5 62.296875 Z M 4.238281 37.351562 C 6.710938 41.488281 17.953125 58.371094 37.5 58.371094 C 57.046875 58.371094 68.3125 41.488281 70.761719 37.375 C 68.289062 33.242188 57.046875 16.355469 37.5 16.355469 C 17.953125 16.355469 6.6875 33.242188 4.238281 37.351562 Z M 37.5 54.546875 C 36.933594 54.546875 36.371094 54.519531 35.804688 54.464844 C 35.242188 54.410156 34.683594 54.324219 34.128906 54.214844 C 33.574219 54.105469 33.023438 53.96875 32.484375 53.804688 C 31.941406 53.644531 31.410156 53.453125 30.886719 53.238281 C 30.363281 53.023438 29.851562 52.78125 29.355469 52.515625 C 28.855469 52.25 28.371094 51.960938 27.898438 51.648438 C 27.429688 51.335938 26.972656 51 26.535156 50.644531 C 26.097656 50.289062 25.679688 49.910156 25.28125 49.511719 C 24.878906 49.113281 24.5 48.695312 24.140625 48.261719 C 23.78125 47.828125 23.445312 47.375 23.132812 46.90625 C 22.816406 46.4375 22.527344 45.957031 22.257812 45.460938 C 21.992188 44.964844 21.75 44.453125 21.535156 43.933594 C 21.316406 43.414062 21.125 42.882812 20.960938 42.347656 C 20.796875 41.808594 20.660156 41.261719 20.550781 40.710938 C 20.441406 40.15625 20.355469 39.601562 20.300781 39.039062 C 20.246094 38.480469 20.21875 37.917969 20.21875 37.355469 C 20.21875 36.792969 20.246094 36.230469 20.300781 35.671875 C 20.355469 35.109375 20.441406 34.554688 20.550781 34.003906 C 20.660156 33.449219 20.796875 32.90625 20.960938 32.367188 C 21.125 31.828125 21.316406 31.296875 21.535156 30.777344 C 21.75 30.257812 21.992188 29.75 22.257812 29.253906 C 22.527344 28.753906 22.816406 28.273438 23.132812 27.804688 C 23.445312 27.335938 23.78125 26.886719 24.140625 26.449219 C 24.5 26.015625 24.878906 25.597656 25.28125 25.199219 C 25.679688 24.800781 26.097656 24.425781 26.535156 24.066406 C 26.972656 23.710938 27.429688 23.375 27.898438 23.0625 C 28.371094 22.75 28.855469 22.460938 29.355469 22.195312 C 29.851562 21.929688 30.363281 21.6875 30.886719 21.472656 C 31.410156 21.257812 31.941406 21.070312 32.484375 20.90625 C 33.023438 20.742188 33.574219 20.605469 34.128906 20.496094 C 34.683594 20.386719 35.242188 20.304688 35.804688 20.246094 C 36.371094 20.191406 36.933594 20.164062 37.5 20.164062 C 38.066406 20.164062 38.628906 20.191406 39.195312 20.246094 C 39.757812 20.304688 40.316406 20.386719 40.871094 20.496094 C 41.425781 20.605469 41.976562 20.742188 42.515625 20.90625 C 43.058594 21.070312 43.589844 21.257812 44.113281 21.472656 C 44.636719 21.6875 45.148438 21.929688 45.644531 22.195312 C 46.144531 22.460938 46.628906 22.75 47.101562 23.0625 C 47.570312 23.375 48.027344 23.710938 48.464844 24.066406 C 48.902344 24.425781 49.320312 24.800781 49.71875 25.199219 C 50.121094 25.597656 50.5 26.015625 50.859375 26.449219 C 51.21875 26.886719 51.554688 27.335938 51.867188 27.804688 C 52.183594 28.273438 52.472656 28.753906 52.742188 29.253906 C 53.007812 29.75 53.25 30.257812 53.464844 30.777344 C 53.683594 31.296875 53.875 31.828125 54.039062 32.367188 C 54.203125 32.90625 54.339844 33.449219 54.449219 34.003906 C 54.558594 34.554688 54.644531 35.109375 54.699219 35.671875 C 54.753906 36.230469 54.78125 36.792969 54.78125 37.355469 C 54.78125 37.917969 54.753906 38.480469 54.695312 39.039062 C 54.640625 39.601562 54.558594 40.15625 54.445312 40.707031 C 54.335938 41.261719 54.199219 41.804688 54.03125 42.34375 C 53.867188 42.882812 53.675781 43.410156 53.460938 43.929688 C 53.242188 44.453125 53.003906 44.960938 52.734375 45.457031 C 52.46875 45.953125 52.175781 46.433594 51.863281 46.902344 C 51.546875 47.371094 51.210938 47.820312 50.851562 48.257812 C 50.492188 48.691406 50.113281 49.109375 49.714844 49.503906 C 49.3125 49.902344 48.894531 50.28125 48.457031 50.636719 C 48.019531 50.996094 47.566406 51.332031 47.097656 51.644531 C 46.625 51.957031 46.140625 52.246094 45.644531 52.511719 C 45.144531 52.777344 44.632812 53.015625 44.109375 53.234375 C 43.585938 53.449219 43.054688 53.636719 42.515625 53.800781 C 41.972656 53.964844 41.425781 54.101562 40.871094 54.214844 C 40.316406 54.324219 39.757812 54.40625 39.191406 54.460938 C 38.628906 54.519531 38.066406 54.546875 37.5 54.546875 Z M 37.5 24.089844 C 36.625 24.089844 35.757812 24.175781 34.898438 24.347656 C 34.039062 24.515625 33.207031 24.769531 32.398438 25.101562 C 31.589844 25.433594 30.820312 25.84375 30.09375 26.328125 C 29.363281 26.8125 28.691406 27.359375 28.070312 27.976562 C 27.453125 28.59375 26.898438 29.261719 26.414062 29.988281 C 25.925781 30.710938 25.515625 31.476562 25.179688 32.28125 C 24.847656 33.085938 24.59375 33.914062 24.421875 34.769531 C 24.25 35.621094 24.164062 36.484375 24.164062 37.355469 C 24.164062 38.226562 24.25 39.089844 24.421875 39.945312 C 24.59375 40.796875 24.847656 41.628906 25.179688 42.433594 C 25.515625 43.238281 25.925781 44 26.414062 44.726562 C 26.898438 45.449219 27.453125 46.117188 28.070312 46.734375 C 28.691406 47.351562 29.363281 47.902344 30.09375 48.382812 C 30.820312 48.867188 31.589844 49.277344 32.398438 49.609375 C 33.207031 49.945312 34.039062 50.195312 34.898438 50.363281 C 35.757812 50.535156 36.625 50.621094 37.5 50.621094 C 38.375 50.621094 39.242188 50.535156 40.101562 50.363281 C 40.960938 50.195312 41.792969 49.945312 42.601562 49.609375 C 43.410156 49.277344 44.179688 48.867188 44.90625 48.382812 C 45.636719 47.902344 46.308594 47.351562 46.929688 46.734375 C 47.546875 46.117188 48.101562 45.449219 48.585938 44.726562 C 49.074219 44 49.484375 43.238281 49.820312 42.433594 C 50.152344 41.628906 50.40625 40.796875 50.578125 39.945312 C 50.75 39.089844 50.835938 38.226562 50.835938 37.355469 C 50.832031 36.484375 50.746094 35.621094 50.574219 34.769531 C 50.40625 33.914062 50.152344 33.085938 49.816406 32.28125 C 49.480469 31.476562 49.070312 30.714844 48.582031 29.988281 C 48.097656 29.265625 47.542969 28.597656 46.925781 27.980469 C 46.304688 27.363281 45.632812 26.816406 44.90625 26.332031 C 44.175781 25.847656 43.410156 25.4375 42.601562 25.105469 C 41.792969 24.769531 40.957031 24.519531 40.101562 24.347656 C 39.242188 24.179688 38.375 24.09375 37.5 24.089844 Z M 37.5 24.089844 " fill-opacity="1" fill-rule="nonzero"/></g></svg>