<svg xmlns="http://www.w3.org/2000/svg" xmlns:xlink="http://www.w3.org/1999/xlink" version="1.1" xml:space="preserve" viewBox="431.91 417.23 130.39 185.67">
<desc>Created with Fabric.js 3.5.0</desc>
<defs>
</defs>
<rect x="0" y="0" width="100%" height="100%" fill="none"/>
<g transform="matrix(0.4103 0 0 0.4103 500.0189 500.0052)" id="260666">
<g style="" vector-effect="non-scaling-stroke">
		<g transform="matrix(0.1333 0 0 -0.1333 -7.1077 -16.0563)">
<path style="stroke: none; stroke-width: 1; stroke-dasharray: none; stroke-linecap: butt; stroke-dashoffset: 0; stroke-linejoin: miter; stroke-miterlimit: 4; is-custom-font: none; font-file-url: none; fill: rgb(0,0,0); fill-rule: nonzero; opacity: 1;" transform=" translate(-9086.9908, -2620.0756)" d="M 9034 3999 c -18 -5 -46 -25 -63 -44 c -29 -34 -33 -45 -33 -95 c 0 -51 5 -63 42 -100 l 40 -40 l 0 -94 l 0 -93 l -212 -6 c -248 -6 -319 -20 -463 -92 c -210 -104 -359 -286 -427 -520 c -23 -78 -23 -89 -23 -540 c 0 -416 2 -466 18 -525 c 83 -293 304 -514 597 -597 c 59 -16 110 -18 580 -18 l 515 0 l 95 32 c 278 95 473 303 552 589 c 20 73 22 108 26 458 c 4 416 -3 522 -44 645 c -42 127 -99 216 -204 321 c -192 192 -360 250 -722 250 l -158 0 l 0 99 c 0 93 2 101 24 118 c 32 26 56 75 56 118 c 0 96 -96 161 -196 134 z m 597 -911 c 93 -46 168 -122 212 -215 l 32 -68 l 3 -398 c 3 -435 0 -473 -55 -566 c -40 -69 -116 -139 -186 -172 c -96 -45 -186 -51 -621 -47 c -371 4 -383 5 -441 27 c -131 51 -215 136 -265 266 c -23 58 -24 74 -28 395 c -5 395 3 484 50 580 c 35 72 101 143 169 183 c 92 54 115 56 605 54 l 450 -2 l 75 -37 z" stroke-linecap="round"/>
</g>
		<g transform="matrix(0.1333 0 0 -0.1333 -56.6761 -2.2357)">
<path style="stroke: none; stroke-width: 1; stroke-dasharray: none; stroke-linecap: butt; stroke-dashoffset: 0; stroke-linejoin: miter; stroke-miterlimit: 4; is-custom-font: none; font-file-url: none; fill: rgb(0,0,0); fill-rule: nonzero; opacity: 1;" transform=" translate(-8715, -2516.7279)" d="M 8650 2667 c -98 -27 -160 -88 -200 -193 c -11 -30 -20 -68 -20 -85 l 0 -30 l 31 22 c 58 41 157 69 249 69 c 95 0 156 -15 236 -59 c 30 -16 54 -25 54 -21 c 0 33 -26 122 -45 156 c -28 49 -95 111 -139 129 c -49 21 -117 25 -166 12 z" stroke-linecap="round"/>
</g>
		<g transform="matrix(0.1333 0 0 -0.1333 40.6571 -2.054)">
<path style="stroke: none; stroke-width: 1; stroke-dasharray: none; stroke-linecap: butt; stroke-dashoffset: 0; stroke-linejoin: miter; stroke-miterlimit: 4; is-custom-font: none; font-file-url: none; fill: rgb(0,0,0); fill-rule: nonzero; opacity: 1;" transform=" translate(-9445, -2515.3644)" d="M 9392 2670 c -115 -24 -202 -128 -228 -273 l -7 -39 l 55 31 c 79 45 142 61 238 61 c 93 0 191 -28 251 -71 l 32 -23 l -6 51 c -12 101 -77 197 -160 237 c -62 29 -117 37 -175 26 z" stroke-linecap="round"/>
</g>
		<g transform="matrix(0.1333 0 0 -0.1333 -8.0166 213.3906)">
<path style="stroke: none; stroke-width: 1; stroke-dasharray: none; stroke-linecap: butt; stroke-dashoffset: 0; stroke-linejoin: miter; stroke-miterlimit: 4; is-custom-font: none; font-file-url: none; fill: rgb(230,82,67); fill-rule: nonzero; opacity: 1;" transform=" translate(-9080, -899.5)" d="M 8580 900 l 0 -279 l 87 40 c 48 22 92 44 98 48 c 5 5 79 44 164 86 l 153 76 l 249 -126 l 249 -126 l 0 281 c 0 154 -3 280 -7 280 c -5 0 -116 -55 -248 -122 l -241 -122 l -242 122 c -133 67 -246 122 -252 122 c -6 0 -10 -96 -10 -280 z" stroke-linecap="round"/>
</g>
</g>
</g>
<g transform="matrix(0.0905 0 0 0.0902 496.8475 425.594)" id="74527">
<path style="stroke: rgb(230,82,67); stroke-width: 5; stroke-dasharray: none; stroke-linecap: butt; stroke-dashoffset: 0; stroke-linejoin: miter; stroke-miterlimit: 4; is-custom-font: none; font-file-url: none; fill: rgb(230,82,67); fill-rule: nonzero; opacity: 1;" vector-effect="non-scaling-stroke" transform=" translate(-67.5, -67.5)" d="M 132.5 67.5 C 132.5 103.399 103.399 132.5 67.5 132.5 C 31.6015 132.5 2.5 103.399 2.5 67.5 C 2.5 31.6015 31.6015 2.5 67.5 2.5 C 103.399 2.5 132.5 31.6015 132.5 67.5 Z" stroke-linecap="round"/>
</g>
</svg>