<svg xmlns="http://www.w3.org/2000/svg" xmlns:xlink="http://www.w3.org/1999/xlink" width="800" zoomAndPan="magnify" viewBox="0 0 600 187.499995" height="250" preserveAspectRatio="xMidYMid meet" version="1.0"><path fill="#000000" d="M 15.179688 18.269531 C 8.4375 20.363281 4.765625 27.195312 6.730469 33.941406 C 7.5 36.71875 10.445312 40.261719 12.960938 41.542969 C 16.804688 43.507812 23.335938 43.378906 26.875 41.328125 C 30.25 39.367188 32.210938 36.460938 32.980469 32.363281 C 34.515625 24.207031 28.457031 17.542969 19.621094 17.671875 C 18.167969 17.671875 16.207031 17.929688 15.179688 18.269531 Z M 15.179688 18.269531 " fill-opacity="1" fill-rule="nonzero"/><path fill="#000000" d="M 143.175781 85.957031 L 143.175781 149.15625 L 164.476562 149.15625 L 164.644531 122.550781 C 164.773438 98.597656 164.859375 95.734375 165.542969 93.429688 C 168.1875 84.503906 173.78125 78.953125 182.445312 76.6875 C 188.121094 75.238281 196.65625 75.921875 201.222656 78.269531 C 205.664062 80.53125 209.078125 85.316406 210.613281 91.335938 C 211.425781 94.453125 211.46875 96.164062 211.46875 121.914062 L 211.46875 149.15625 L 232.851562 149.15625 L 232.679688 118.921875 C 232.511719 87.195312 232.511719 87.109375 230.546875 80.832031 C 228.796875 75.367188 224.828125 69.257812 220.773438 65.800781 C 216.589844 62.296875 212.535156 60.25 206.558594 58.625 C 202.207031 57.429688 192.089844 57.003906 187.226562 57.730469 C 178.730469 59.097656 171.519531 62.296875 166.351562 67.082031 L 164.519531 68.789062 L 164.519531 22.753906 L 143.175781 22.753906 Z M 143.175781 85.957031 " fill-opacity="1" fill-rule="nonzero"/><path fill="#000000" d="M 83.4375 58.035156 C 69.441406 60.597656 58.597656 67.515625 51.257812 78.578125 C 44.984375 88.015625 42.765625 101.125 45.238281 114.019531 C 47.972656 128.453125 58.214844 140.625 72.386719 146.390625 C 82.289062 150.445312 94.152344 151.472656 104.953125 149.207031 C 115.878906 146.945312 125.566406 140.582031 130.347656 132.597656 C 131.285156 130.972656 132.054688 129.566406 132.054688 129.394531 C 132.054688 129.179688 119.675781 121.664062 116.859375 120.210938 C 116.089844 119.785156 115.792969 120.042969 114.128906 122.304688 C 109.390625 128.796875 102.132812 132.253906 93.214844 132.210938 C 85.316406 132.210938 79.257812 129.90625 74.007812 124.996094 C 69.226562 120.425781 66.75 115.214844 65.898438 107.699219 C 64.402344 94.589844 69.953125 83.359375 80.496094 78.019531 C 87.324219 74.5625 97.226562 74.433594 104.738281 77.765625 C 107.769531 79.089844 111.824219 82.292969 114 85.109375 C 115.367188 86.902344 116.21875 87.628906 116.644531 87.457031 C 118.480469 86.773438 132.054688 78.449219 132.054688 78.019531 C 132.054688 77.125 128.554688 72.171875 126.164062 69.609375 C 120.445312 63.628906 112.546875 59.660156 102.902344 57.949219 C 98.546875 57.226562 87.792969 57.226562 83.4375 58.035156 Z M 83.4375 58.035156 " fill-opacity="1" fill-rule="nonzero"/><path fill="#000000" d="M 407.859375 57.992188 C 398.171875 59.703125 391.085938 63.757812 386.21875 70.378906 L 385.28125 71.660156 L 385.238281 64.910156 L 385.238281 58.207031 L 365.179688 58.207031 L 365.179688 149.164062 L 386.007812 149.164062 L 386.21875 124.054688 C 386.390625 101.808594 386.476562 98.648438 387.160156 96 C 388.609375 90.277344 391.386719 85.621094 395.183594 82.589844 C 399.835938 78.832031 407.304688 76.699219 414.175781 77.125 L 417.675781 77.339844 L 417.675781 57.351562 L 414.390625 57.394531 C 412.554688 57.4375 409.609375 57.695312 407.859375 57.992188 Z M 407.859375 57.992188 " fill-opacity="1" fill-rule="nonzero"/><path fill="#000000" d="M 457.984375 57.992188 C 443.554688 60.640625 431.605469 69.308594 425.375 81.695312 C 419.058594 94.25 418.671875 111.375 424.433594 123.671875 C 430.921875 137.550781 442.914062 146.476562 459.09375 149.421875 C 465.28125 150.574219 477.617188 150.488281 483.078125 149.292969 C 492.042969 147.285156 498.742188 143.914062 504.164062 138.746094 L 507.324219 135.714844 L 501.6875 129.265625 L 496.054688 122.816406 L 493.324219 125.082031 C 489.824219 127.941406 485.8125 130.078125 481.5 131.316406 C 476.933594 132.597656 466.007812 132.722656 461.695312 131.527344 C 451.878906 128.753906 444.921875 122.21875 442.277344 113.335938 C 441.890625 112.054688 441.59375 110.945312 441.59375 110.859375 C 441.59375 110.816406 457.683594 110.6875 477.359375 110.648438 L 513.085938 110.519531 L 513.214844 104.539062 C 513.726562 80.328125 499.511719 62.222656 476.636719 57.992188 C 472.324219 57.226562 462.335938 57.226562 457.984375 57.992188 Z M 476.636719 75.800781 C 482.054688 77.808594 485.640625 80.5 488.714844 84.8125 C 490.71875 87.671875 492.554688 91.941406 493.023438 94.804688 L 493.324219 96.640625 L 467.457031 96.640625 C 443.984375 96.640625 441.59375 96.597656 441.59375 95.957031 C 441.59375 95.570312 441.890625 94.078125 442.277344 92.625 C 443.898438 86.390625 448.636719 80.457031 454.3125 77.507812 C 457.214844 76.058594 458.410156 75.628906 462.292969 74.691406 C 462.761719 74.5625 465.539062 74.5625 468.484375 74.605469 C 472.878906 74.734375 474.332031 74.945312 476.636719 75.800781 Z M 476.636719 75.800781 " fill-opacity="1" fill-rule="nonzero"/><path fill="#000000" d="M 552.589844 57.566406 C 552.25 57.652344 550.5 57.949219 548.75 58.207031 C 536.753906 60.171875 526.851562 66.449219 522.96875 74.734375 C 520.707031 79.429688 519.9375 85.921875 521.007812 91.558594 C 522.203125 97.921875 526.894531 103.6875 533.46875 106.804688 C 539.1875 109.492188 542.519531 110.347656 556.859375 112.867188 C 567.488281 114.703125 570.261719 115.429688 572.992188 116.96875 C 577.472656 119.570312 577.984375 125.039062 574.144531 128.882812 C 567.445312 135.585938 544.140625 134.175781 529.242188 126.105469 C 527.453125 125.164062 525.957031 124.441406 525.914062 124.484375 C 524.890625 125.890625 518.019531 139.984375 518.1875 140.410156 C 518.488281 141.222656 526.382812 145.023438 530.609375 146.390625 C 539.828125 149.335938 545.71875 150.234375 556.433594 150.234375 C 563.089844 150.234375 566.121094 150.019531 569.023438 149.464844 C 588.1875 145.664062 598.046875 135.671875 597.277344 120.765625 C 597.023438 115.6875 595.996094 112.441406 593.734375 109.152344 C 589.125 102.449219 580.632812 98.859375 562.621094 96 C 546.445312 93.394531 541.28125 90.703125 541.320312 84.894531 C 541.363281 77.082031 551.4375 73.109375 566.886719 74.859375 C 572.863281 75.542969 577.601562 76.867188 582.296875 79.089844 L 586.609375 81.136719 L 590.535156 73.238281 L 594.503906 65.296875 L 593.480469 64.570312 C 590.449219 62.261719 580.375 59.230469 571.839844 58.035156 C 567.742188 57.4375 554.765625 57.136719 552.589844 57.566406 Z M 552.589844 57.566406 " fill-opacity="1" fill-rule="nonzero"/><path fill="#000000" d="M 9.121094 103.6875 L 9.121094 149.164062 L 30.460938 149.164062 L 30.460938 58.207031 L 9.121094 58.207031 Z M 9.121094 103.6875 " fill-opacity="1" fill-rule="nonzero"/><path fill="#e75142" d="M 321.875 178.265625 C 314.707031 174.953125 307.945312 171.34375 300.90625 167.824219 L 279.945312 178.28125 L 279.914062 154.460938 C 280.140625 154.414062 298.242188 163.757812 300.875 165.097656 L 321.871094 154.46875 C 321.871094 154.566406 321.875 175.851562 321.875 178.265625 Z M 321.875 178.265625 " fill-opacity="1" fill-rule="nonzero"/><path fill="#000000" d="M 303.230469 46.949219 C 299.527344 46.972656 300.726562 46.933594 297.816406 46.949219 C 297.839844 49.671875 297.800781 52.382812 297.816406 55.101562 C 277.742188 55.246094 259.40625 58.03125 252.132812 80.386719 C 249.9375 89.027344 249.460938 121.238281 252.34375 130.441406 C 256.429688 143.507812 265.25 152.070312 280.144531 151.964844 C 292.710938 151.878906 306.390625 153 322.21875 151.929688 C 338.042969 150.859375 345.0625 141.714844 348.796875 130.53125 C 351.253906 123.171875 351.371094 86.265625 349.621094 78.890625 C 342.070312 54.738281 324.578125 55.585938 303.238281 55.105469 Z M 303.230469 46.949219 " fill-opacity="1" fill-rule="nonzero"/><path stroke-linecap="butt" transform="matrix(0.0364843, 0, 0, 0.0365027, -25.564113, 6.054868)" fill-opacity="1" fill="#e75142" fill-rule="evenodd" stroke-linejoin="miter" d="M 8939.023459 800.129437 C 8842.128307 800.129437 8763.541521 873.112136 8763.541521 963.109863 C 8763.541521 1053.10759 8842.128307 1126.090289 8939.023459 1126.090289 C 9035.918611 1126.090289 9114.505397 1053.10759 9114.505397 963.109863 C 9114.505397 873.112136 9035.918611 800.129437 8939.023459 800.129437 Z M 8939.023459 800.129437 " stroke="#e75142" stroke-width="20" stroke-opacity="1" stroke-miterlimit="22.926001"/><path fill="#efefef" d="M 281.304688 71.460938 L 320.625 71.460938 C 328.507812 71.460938 334.957031 77.914062 334.957031 85.800781 L 334.957031 122.75 C 334.957031 130.636719 328.507812 137.089844 320.625 137.089844 L 281.304688 137.089844 C 273.425781 137.089844 266.976562 130.636719 266.976562 122.75 L 266.976562 85.800781 C 266.976562 77.914062 273.425781 71.460938 281.304688 71.460938 Z M 281.304688 71.460938 " fill-opacity="1" fill-rule="evenodd"/><path fill="#000000" d="M 297.769531 102.25 C 293.449219 100.085938 291.234375 99.285156 286.078125 99.285156 C 280.878906 99.285156 278.152344 101.027344 274.011719 103.515625 C 276.445312 86.457031 293.933594 83.074219 297.769531 102.25 Z M 297.769531 102.25 " fill-opacity="1" fill-rule="nonzero"/><path fill="#000000" d="M 304.160156 102.25 C 308.484375 100.085938 310.695312 99.285156 315.851562 99.285156 C 321.050781 99.285156 323.777344 101.027344 327.917969 103.515625 C 325.484375 86.457031 307.996094 83.074219 304.160156 102.25 Z M 304.160156 102.25 " fill-opacity="1" fill-rule="nonzero"/></svg>