<svg xmlns="http://www.w3.org/2000/svg" xmlns:xlink="http://www.w3.org/1999/xlink" width="100" zoomAndPan="magnify" viewBox="0 0 75 74.999997" height="100" preserveAspectRatio="xMidYMid meet" version="1.0"><defs><clipPath id="f191937093"><path d="M 1.433594 0 L 73.433594 0 L 73.433594 75 L 1.433594 75 Z M 1.433594 0 " clip-rule="nonzero"/></clipPath></defs><g clip-path="url(#f191937093)"><path fill="#000000" d="M 32.46875 12.230469 L 48.632812 12.230469 C 48.816406 12.238281 48.988281 12.277344 49.152344 12.351562 C 49.320312 12.425781 49.464844 12.527344 49.589844 12.65625 C 49.714844 12.789062 49.8125 12.9375 49.878906 13.105469 C 49.945312 13.273438 49.980469 13.449219 49.980469 13.628906 C 49.980469 13.8125 49.945312 13.984375 49.878906 14.152344 C 49.8125 14.320312 49.714844 14.46875 49.589844 14.601562 C 49.464844 14.730469 49.320312 14.832031 49.152344 14.90625 C 48.988281 14.980469 48.816406 15.023438 48.632812 15.027344 L 32.46875 15.027344 C 32.289062 15.023438 32.117188 14.980469 31.949219 14.90625 C 31.785156 14.832031 31.640625 14.730469 31.515625 14.601562 C 31.390625 14.46875 31.292969 14.320312 31.226562 14.152344 C 31.15625 13.984375 31.125 13.8125 31.125 13.628906 C 31.125 13.449219 31.15625 13.273438 31.226562 13.105469 C 31.292969 12.9375 31.390625 12.789062 31.515625 12.65625 C 31.640625 12.527344 31.785156 12.425781 31.949219 12.351562 C 32.117188 12.277344 32.289062 12.238281 32.46875 12.230469 Z M 64.714844 19.738281 L 32.359375 19.738281 C 32.175781 19.746094 32.003906 19.785156 31.839844 19.859375 C 31.675781 19.933594 31.527344 20.035156 31.402344 20.167969 C 31.277344 20.296875 31.179688 20.445312 31.113281 20.613281 C 31.046875 20.78125 31.011719 20.957031 31.011719 21.140625 C 31.011719 21.320312 31.046875 21.496094 31.113281 21.664062 C 31.179688 21.832031 31.277344 21.980469 31.402344 22.109375 C 31.527344 22.242188 31.675781 22.34375 31.839844 22.417969 C 32.003906 22.492188 32.175781 22.53125 32.359375 22.539062 L 64.71875 22.539062 C 64.898438 22.53125 65.070312 22.492188 65.234375 22.417969 C 65.402344 22.34375 65.546875 22.242188 65.671875 22.109375 C 65.796875 21.980469 65.894531 21.832031 65.960938 21.664062 C 66.027344 21.496094 66.0625 21.320312 66.0625 21.140625 C 66.0625 20.957031 66.027344 20.78125 65.960938 20.613281 C 65.894531 20.445312 65.796875 20.296875 65.671875 20.167969 C 65.546875 20.035156 65.402344 19.933594 65.234375 19.859375 C 65.070312 19.785156 64.898438 19.746094 64.71875 19.738281 Z M 70.683594 20.238281 C 70.683594 19.386719 70.695312 18.527344 70.695312 17.671875 L 70.675781 17.671875 C 70.675781 18.53125 70.683594 19.378906 70.683594 20.238281 Z M 73.257812 18.015625 L 73.257812 22.433594 C 73.269531 24.308594 73.269531 26.203125 73.25 28.082031 C 73.214844 32.449219 70.519531 35.546875 66.441406 36.105469 C 66.199219 39.132812 65.503906 42.054688 64.351562 44.863281 L 64.027344 45.65625 C 62.773438 48.773438 61.453125 51.992188 60.253906 55.183594 C 58.371094 60.152344 57.792969 64.285156 58.421875 68.214844 C 58.636719 69.394531 58.925781 70.554688 59.289062 71.699219 C 59.402344 72.082031 59.511719 72.464844 59.613281 72.835938 C 59.691406 73 59.730469 73.167969 59.738281 73.347656 C 59.742188 73.523438 59.710938 73.695312 59.644531 73.863281 C 59.578125 74.027344 59.480469 74.171875 59.351562 74.296875 C 59.222656 74.417969 59.074219 74.511719 58.90625 74.574219 C 58.78125 74.617188 58.648438 74.652344 58.515625 74.671875 C 58.304688 74.792969 58.074219 74.851562 57.828125 74.847656 L 29.488281 74.847656 C 29.050781 74.960938 28.613281 74.972656 28.171875 74.878906 C 27.730469 74.789062 27.332031 74.601562 26.976562 74.324219 C 26.351562 73.554688 25.914062 72.6875 25.664062 71.730469 C 25.589844 71.535156 25.535156 71.382812 25.496094 71.28125 C 22.433594 72.414062 19.285156 72.75 16.054688 72.289062 C 14.304688 72.15625 12.660156 71.679688 11.113281 70.847656 C 10.429688 70.375 9.867188 69.785156 9.425781 69.078125 C 8.984375 68.371094 8.703125 67.605469 8.578125 66.78125 C 8.417969 65.035156 8.34375 63.285156 8.355469 61.535156 C 8.15625 59.648438 7.484375 57.953125 6.332031 56.449219 C 6.238281 56.3125 6.171875 56.167969 6.128906 56.007812 C 6.070312 55.941406 6.015625 55.867188 5.960938 55.804688 C 5.832031 55.582031 5.769531 55.347656 5.773438 55.09375 L 5.773438 54.011719 C 5.765625 53.945312 5.773438 53.875 5.792969 53.808594 C 5.535156 53.378906 5.410156 52.910156 5.417969 52.410156 C 5.464844 51.8125 5.339844 51.253906 5.050781 50.730469 C 4.761719 50.210938 4.355469 49.808594 3.824219 49.53125 C 3.597656 49.414062 3.382812 49.273438 3.179688 49.109375 C 2.980469 48.945312 2.796875 48.765625 2.628906 48.566406 C 2.464844 48.367188 2.320312 48.15625 2.195312 47.925781 C 2.074219 47.699219 1.972656 47.460938 1.894531 47.214844 C 1.820312 46.964844 1.769531 46.714844 1.742188 46.457031 C 1.714844 46.199219 1.714844 45.941406 1.738281 45.683594 C 1.761719 45.425781 1.8125 45.171875 1.886719 44.921875 C 1.960938 44.675781 2.058594 44.4375 2.179688 44.207031 C 2.695312 43.097656 3.34375 42.074219 4.125 41.136719 C 5.710938 39.253906 6.703125 37.097656 7.109375 34.667969 C 7.339844 33.175781 7.433594 31.636719 7.527344 30.144531 C 7.59375 29.117188 7.65625 28.0625 7.769531 27.015625 C 8.757812 17.714844 13.460938 11.179688 21.753906 7.578125 C 22.546875 7.230469 23.367188 6.902344 24.214844 6.613281 C 24.425781 5.816406 24.738281 5.066406 25.15625 4.359375 C 25.574219 3.652344 26.078125 3.015625 26.675781 2.449219 C 27.269531 1.882812 27.929688 1.410156 28.65625 1.027344 C 29.382812 0.644531 30.148438 0.371094 30.949219 0.203125 C 35.890625 0.195312 40.824219 0.179688 45.753906 0.15625 C 48.792969 0.0546875 62.144531 0.109375 65.183594 0.128906 C 65.71875 0.105469 66.253906 0.136719 66.78125 0.226562 C 67.3125 0.316406 67.828125 0.457031 68.328125 0.652344 C 68.832031 0.847656 69.304688 1.09375 69.753906 1.386719 C 70.203125 1.683594 70.621094 2.019531 71 2.402344 C 71.378906 2.785156 71.714844 3.199219 72.007812 3.652344 C 72.300781 4.101562 72.542969 4.578125 72.738281 5.082031 C 72.929688 5.585938 73.070312 6.101562 73.15625 6.632812 C 73.246094 7.164062 73.277344 7.699219 73.25 8.238281 C 73.269531 10.117188 73.269531 16.144531 73.261719 18.019531 Z M 63.832031 36.203125 C 59.945312 36.222656 52.53125 36.261719 49.753906 36.15625 C 48.996094 36.128906 48.269531 36.261719 47.574219 36.558594 C 47.226562 36.699219 46.558594 37.015625 44.007812 39.683594 C 43.449219 40.265625 43.394531 40.339844 42.210938 41.589844 C 40.8125 43.082031 39.683594 44.242188 37.375 46.511719 C 36.636719 47.230469 35.699219 48.144531 34.597656 49.191406 C 34.542969 46.90625 34.476562 44.617188 34.421875 42.335938 L 34.421875 36.195312 L 32.265625 36.195312 C 30.894531 36.1875 29.589844 35.886719 28.351562 35.292969 C 27.0625 34.792969 26.011719 33.980469 25.203125 32.855469 C 24.648438 32.011719 24.316406 31.085938 24.207031 30.082031 L 24.207031 9.351562 C 22.921875 9.882812 21.636719 10.488281 20.351562 11.171875 C 19.183594 11.777344 18.09375 12.503906 17.085938 13.351562 C 16.074219 14.199219 15.171875 15.148438 14.371094 16.195312 C 13.574219 17.246094 12.898438 18.367188 12.34375 19.566406 C 11.792969 20.761719 11.378906 22.007812 11.101562 23.296875 C 10.535156 25.792969 10.222656 28.324219 10.164062 30.886719 C 10.152344 33.128906 9.773438 35.304688 9.027344 37.414062 C 8.28125 39.523438 7.210938 41.457031 5.8125 43.203125 C 5.386719 43.714844 5.011719 44.261719 4.683594 44.84375 C 4.042969 46.070312 4.230469 46.757812 5.394531 47.476562 C 6.199219 47.914062 6.832031 48.53125 7.292969 49.320312 C 7.753906 50.113281 7.976562 50.964844 7.964844 51.882812 C 7.933594 52.101562 7.988281 52.296875 8.125 52.472656 C 8.308594 52.609375 8.511719 52.660156 8.738281 52.621094 C 10.050781 52.59375 11.421875 52.59375 12.800781 52.621094 C 13.222656 52.601562 13.585938 52.738281 13.890625 53.03125 C 14.136719 53.300781 14.238281 53.621094 14.199219 53.984375 C 14.171875 54.753906 13.667969 55.195312 12.78125 55.195312 L 11.507812 55.195312 C 10.640625 55.207031 9.746094 55.207031 8.859375 55.1875 C 9.691406 56.433594 10.304688 57.777344 10.699219 59.21875 C 11.09375 60.664062 11.253906 62.132812 11.175781 63.628906 C 11.167969 65.007812 11.078125 66.605469 11.910156 67.808594 C 12.746094 69.011719 14.609375 69.238281 15.964844 69.460938 C 21.667969 70.429688 28.085938 68.59375 30.628906 62.984375 C 31.375 61.34375 33.78125 62.769531 33.039062 64.394531 C 31.910156 66.851562 30.179688 68.765625 27.847656 70.132812 C 28.164062 70.808594 28.445312 71.457031 28.679688 72.046875 L 56.59375 72.046875 C 55.851562 69.554688 55.515625 67.007812 55.589844 64.40625 C 55.660156 61.804688 56.132812 59.28125 57.011719 56.832031 C 58.390625 52.800781 59.972656 48.757812 61.511719 44.855469 L 62.109375 43.34375 C 63.011719 41.042969 63.585938 38.664062 63.832031 36.203125 Z M 70.6875 20.234375 C 70.6875 19.382812 70.699219 18.527344 70.699219 17.667969 C 70.699219 15.902344 70.699219 9.996094 70.679688 8.238281 C 70.707031 7.496094 70.59375 6.777344 70.335938 6.082031 C 70.078125 5.386719 69.695312 4.769531 69.1875 4.226562 C 68.035156 3.214844 66.695312 2.707031 65.164062 2.703125 C 62.882812 2.496094 53.882812 2.507812 47.386719 2.816406 C 42.328125 3.058594 37.25 2.816406 32.179688 2.84375 C 31.691406 2.824219 31.210938 2.875 30.738281 2.992188 C 30.261719 3.109375 29.8125 3.292969 29.390625 3.539062 C 28.96875 3.785156 28.589844 4.085938 28.253906 4.441406 C 27.914062 4.796875 27.636719 5.191406 27.410156 5.625 C 26.988281 6.496094 26.777344 7.417969 26.785156 8.390625 L 26.785156 8.40625 C 26.757812 13.605469 26.757812 22.941406 26.785156 28.121094 C 26.765625 28.484375 26.785156 28.84375 26.839844 29.207031 C 26.894531 29.566406 26.988281 29.914062 27.117188 30.253906 C 27.246094 30.59375 27.410156 30.917969 27.605469 31.226562 C 27.800781 31.53125 28.027344 31.8125 28.28125 32.074219 C 28.539062 32.332031 28.816406 32.5625 29.121094 32.761719 C 29.421875 32.960938 29.742188 33.128906 30.082031 33.261719 C 30.417969 33.394531 30.765625 33.492188 31.125 33.554688 C 31.484375 33.613281 31.84375 33.636719 32.207031 33.621094 C 33.171875 33.640625 34.132812 33.660156 35.097656 33.621094 C 35.625 33.554688 36.097656 33.683594 36.515625 34.007812 C 36.898438 34.460938 37.0625 34.984375 36.996094 35.578125 C 36.949219 39.328125 36.847656 42.765625 36.820312 43.492188 C 38.484375 42.097656 40.011719 40.5625 41.402344 38.890625 C 42.636719 37.398438 44.128906 36.15625 45.46875 34.777344 C 45.824219 34.375 46.246094 34.074219 46.742188 33.867188 C 47.234375 33.660156 47.746094 33.570312 48.28125 33.601562 C 51.570312 33.65625 59.722656 33.648438 63.953125 33.628906 C 64.410156 33.628906 64.808594 33.617188 65.164062 33.617188 C 65.628906 33.613281 66.089844 33.5625 66.542969 33.46875 C 69.105469 32.957031 70.660156 30.984375 70.679688 28.089844 C 70.699219 26.324219 70.699219 24.570312 70.699219 22.804688 C 70.699219 21.941406 70.6875 21.09375 70.6875 20.234375 Z M 70.695312 22.804688 C 70.695312 21.945312 70.683594 21.097656 70.683594 20.238281 C 70.683594 21.097656 70.675781 21.945312 70.675781 22.804688 Z M 70.695312 22.804688 " fill-opacity="1" fill-rule="nonzero"/></g></svg>