<svg xmlns="http://www.w3.org/2000/svg" xmlns:xlink="http://www.w3.org/1999/xlink" version="1.1" xml:space="preserve" viewBox="50 0 954.53 376.62">
<desc>Created with Fabric.js 3.5.0</desc>
<defs>
</defs>
<rect x="0" y="0" width="100%" height="100%" fill="none"/>
<g transform="matrix(1.2146 0 0 1.2146 499.9943 204.4755)" id="119313">
<g style="" vector-effect="non-scaling-stroke">
		<g transform="matrix(1 0 0 1 -234.765 -0.95)" id="Vordergrund">
<rect style="stroke: rgb(29,29,27); stroke-width: 1; stroke-dasharray: none; stroke-linecap: butt; stroke-dashoffset: 0; stroke-linejoin: miter; stroke-miterlimit: 4; is-custom-font: none; font-file-url: none; fill: rgb(0,0,0); fill-rule: nonzero; opacity: 1;" x="-125.675" y="-121.31" rx="0" ry="0" width="251.35" height="242.62"/>
</g>
		<g transform="matrix(1 0 0 1 355.695 1.36)" id="Vordergrund">
<polygon style="stroke: none; stroke-width: 1; stroke-dasharray: none; stroke-linecap: butt; stroke-dashoffset: 0; stroke-linejoin: miter; stroke-miterlimit: 4; is-custom-font: none; font-file-url: none; fill: rgb(255,255,255); fill-rule: evenodd; opacity: 1;" points="17.475,-18.1 17.475,-24.88 -17.475,-24.88 -17.475,-18.1 -3.775,-18.1 -3.775,24.88 3.775,24.88 3.775,-18.1 "/>
</g>
		<g transform="matrix(1 0 0 1 318.47 1.36)" id="Vordergrund">
<path style="stroke: none; stroke-width: 1; stroke-dasharray: none; stroke-linecap: butt; stroke-dashoffset: 0; stroke-linejoin: miter; stroke-miterlimit: 4; is-custom-font: none; font-file-url: none; fill: rgb(255,255,255); fill-rule: evenodd; opacity: 1;" transform=" translate(-692.7, -143.09)" d="M 700.43 151.55 h -15.31 l 7.76 -22.09 L 700.43 151.55 z M 713.98 167.97 l -18.24 -49.76 h -6.08 l -18.24 49.76 h 8.04 l 3.42 -9.99 h 19.64 l 3.42 9.99 H 713.98 z" stroke-linecap="round"/>
</g>
		<g transform="matrix(1 0 0 1 281.27 1.36)" id="Vordergrund">
<polygon style="stroke: none; stroke-width: 1; stroke-dasharray: none; stroke-linecap: butt; stroke-dashoffset: 0; stroke-linejoin: miter; stroke-miterlimit: 4; is-custom-font: none; font-file-url: none; fill: rgb(255,255,255); fill-rule: evenodd; opacity: 1;" points="17.47,-18.1 17.47,-24.88 -17.47,-24.88 -17.47,-18.1 -3.77,-18.1 -3.77,24.88 3.78,24.88 3.78,-18.1 "/>
</g>
		<g transform="matrix(1 0 0 1 251.425 1.36)" id="Vordergrund">
<rect style="stroke: none; stroke-width: 1; stroke-dasharray: none; stroke-linecap: butt; stroke-dashoffset: 0; stroke-linejoin: miter; stroke-miterlimit: 4; is-custom-font: none; font-file-url: none; fill: rgb(255,255,255); fill-rule: evenodd; opacity: 1;" x="-3.775" y="-24.88" rx="0" ry="0" width="7.55" height="49.76"/>
</g>
		<g transform="matrix(1 0 0 1 219.775 1.365)" id="Vordergrund">
<path style="stroke: none; stroke-width: 1; stroke-dasharray: none; stroke-linecap: butt; stroke-dashoffset: 0; stroke-linejoin: miter; stroke-miterlimit: 4; is-custom-font: none; font-file-url: none; fill: rgb(255,255,255); fill-rule: evenodd; opacity: 1;" transform=" translate(-594.005, -143.095)" d="M 611.75 153.78 c 0 -4.26 -1.33 -7.83 -4.05 -10.2 c -2.09 -1.89 -4.68 -3 -9.29 -3.7 l -5.66 -0.84 c -2.31 -0.35 -4.33 -1.19 -5.59 -2.31 c -1.33 -1.19 -1.88 -2.79 -1.88 -4.61 c 0 -4.4 3.21 -7.76 9.08 -7.76 c 4.19 0 7.76 0.91 10.83 3.84 l 4.82 -4.75 c -4.26 -3.99 -8.87 -5.66 -15.44 -5.66 c -10.34 0 -16.63 5.94 -16.63 14.61 c 0 4.06 1.19 7.2 3.63 9.51 c 2.17 2.03 5.38 3.42 9.44 3.98 l 5.87 0.84 c 2.94 0.42 4.19 0.91 5.45 2.1 c 1.33 1.19 1.96 3 1.96 5.17 c 0 4.82 -3.78 7.62 -10.28 7.62 c -5.1 0 -9.08 -1.12 -12.72 -4.75 l -5.03 4.96 c 4.75 4.82 10.13 6.57 17.61 6.57 C 604.28 168.39 611.75 162.94 611.75 153.78 z" stroke-linecap="round"/>
</g>
		<g transform="matrix(1 0 0 1 178.795 1.355)" id="Vordergrund">
<path style="stroke: none; stroke-width: 1; stroke-dasharray: none; stroke-linecap: butt; stroke-dashoffset: 0; stroke-linejoin: miter; stroke-miterlimit: 4; is-custom-font: none; font-file-url: none; fill: rgb(255,255,255); fill-rule: evenodd; opacity: 1;" transform=" translate(-553.025, -143.085)" d="M 562.07 132.81 c 0 4.89 -3.42 7.76 -8.45 7.76 h -11.18 v -15.59 h 11.18 C 558.65 124.99 562.07 127.92 562.07 132.81 z M 571.16 167.97 l -11.46 -22.02 c 5.59 -1.54 9.92 -6.08 9.92 -13.21 c 0 -8.46 -6.01 -14.54 -15.44 -14.54 h -19.29 v 49.76 h 7.55 V 147 h 9.44 l 10.48 20.97 H 571.16 z" stroke-linecap="round"/>
</g>
		<g transform="matrix(1 0 0 1 134.43 1.36)" id="Vordergrund">
<polygon style="stroke: none; stroke-width: 1; stroke-dasharray: none; stroke-linecap: butt; stroke-dashoffset: 0; stroke-linejoin: miter; stroke-miterlimit: 4; is-custom-font: none; font-file-url: none; fill: rgb(255,255,255); fill-rule: evenodd; opacity: 1;" points="15.9,24.88 15.9,18.1 -8.35,18.1 -8.35,3.14 12.34,3.14 12.34,-3.56 -8.35,-3.56 -8.35,-18.1 15.9,-18.1 15.9,-24.88 -15.9,-24.88 -15.9,24.88 "/>
</g>
		<g transform="matrix(1 0 0 1 92.32 1.36)" id="Vordergrund">
<polygon style="stroke: none; stroke-width: 1; stroke-dasharray: none; stroke-linecap: butt; stroke-dashoffset: 0; stroke-linejoin: miter; stroke-miterlimit: 4; is-custom-font: none; font-file-url: none; fill: rgb(255,255,255); fill-rule: evenodd; opacity: 1;" points="19.36,-24.88 11.39,-24.88 -0.07,11.32 -11.53,-24.88 -19.36,-24.88 -3,24.88 2.87,24.88 "/>
</g>
		<g transform="matrix(1 0 0 1 62.345 1.36)" id="Vordergrund">
<rect style="stroke: none; stroke-width: 1; stroke-dasharray: none; stroke-linecap: butt; stroke-dashoffset: 0; stroke-linejoin: miter; stroke-miterlimit: 4; is-custom-font: none; font-file-url: none; fill: rgb(255,255,255); fill-rule: evenodd; opacity: 1;" x="-3.775" y="-24.88" rx="0" ry="0" width="7.55" height="49.76"/>
</g>
		<g transform="matrix(1 0 0 1 26.84 1.36)" id="Vordergrund">
<polygon style="stroke: none; stroke-width: 1; stroke-dasharray: none; stroke-linecap: butt; stroke-dashoffset: 0; stroke-linejoin: miter; stroke-miterlimit: 4; is-custom-font: none; font-file-url: none; fill: rgb(255,255,255); fill-rule: evenodd; opacity: 1;" points="18.73,24.88 18.73,-24.88 11.18,-24.88 11.18,10.06 -11.81,-24.88 -18.73,-24.88 -18.73,24.88 -11.18,24.88 -11.18,-10.14 11.81,24.88 "/>
</g>
		<g transform="matrix(1 0 0 1 -21.965 1.57)" id="Vordergrund">
<path style="stroke: none; stroke-width: 1; stroke-dasharray: none; stroke-linecap: butt; stroke-dashoffset: 0; stroke-linejoin: miter; stroke-miterlimit: 4; is-custom-font: none; font-file-url: none; fill: rgb(255,255,255); fill-rule: evenodd; opacity: 1;" transform=" translate(-352.265, -143.3)" d="M 370.12 151.2 v -32.99 h -7.55 v 32.64 c 0 6.64 -4.12 10.76 -10.34 10.76 c -6.22 0 -10.27 -4.12 -10.27 -10.76 v -32.64 h -7.55 v 32.99 c 0 10.28 7.69 17.19 17.82 17.19 C 362.36 168.39 370.12 161.47 370.12 151.2 z" stroke-linecap="round"/>
</g>
		<g transform="matrix(1 0 0 1 310.745 -32.465)" id="Vordergrund">
<rect style="stroke: none; stroke-width: 1; stroke-dasharray: none; stroke-linecap: butt; stroke-dashoffset: 0; stroke-linejoin: miter; stroke-miterlimit: 4; is-custom-font: none; font-file-url: none; fill: rgb(255,255,255); fill-rule: evenodd; opacity: 1;" x="-3.215" y="-3.775" rx="0" ry="0" width="6.43" height="7.55"/>
</g>
		<g transform="matrix(1 0 0 1 325.845 -32.465)" id="Vordergrund">
<rect style="stroke: none; stroke-width: 1; stroke-dasharray: none; stroke-linecap: butt; stroke-dashoffset: 0; stroke-linejoin: miter; stroke-miterlimit: 4; is-custom-font: none; font-file-url: none; fill: rgb(255,255,255); fill-rule: evenodd; opacity: 1;" x="-3.215" y="-3.775" rx="0" ry="0" width="6.43" height="7.55"/>
</g>
		<g transform="matrix(1 0 0 1 311.78 -88.32)" id="Vordergrund">
<polygon style="stroke: none; stroke-width: 1; stroke-dasharray: none; stroke-linecap: butt; stroke-dashoffset: 0; stroke-linejoin: miter; stroke-miterlimit: 4; is-custom-font: none; font-file-url: none; fill: rgb(255,255,255); fill-rule: evenodd; opacity: 1;" points="17.65,24.88 17.65,-24.88 10.1,-24.88 10.1,-3.63 -10.1,-3.63 -10.1,-24.88 -17.65,-24.88 -17.65,24.88 -10.1,24.88 -10.1,3.15 10.1,3.15 10.1,24.88 "/>
</g>
		<g transform="matrix(1 0 0 1 266.2599 -88.32)" id="Vordergrund">
<path style="stroke: none; stroke-width: 1; stroke-dasharray: none; stroke-linecap: butt; stroke-dashoffset: 0; stroke-linejoin: miter; stroke-miterlimit: 4; is-custom-font: none; font-file-url: none; fill: rgb(255,255,255); fill-rule: evenodd; opacity: 1;" transform=" translate(-640.49, -53.41)" d="M 658.3 63.41 h -7.61 c -1.19 5.03 -4.61 8.52 -10.13 8.52 c -2.93 0 -5.59 -1.12 -7.34 -3 c -2.45 -2.66 -3.01 -5.52 -3.01 -15.52 s 0.56 -12.86 3.01 -15.52 c 1.75 -1.89 4.4 -3 7.34 -3 c 5.52 0 8.87 3.49 10.06 8.53 h 7.69 c -1.74 -9.93 -8.6 -15.31 -17.75 -15.31 c -5.17 0 -9.65 1.89 -13.07 5.31 c -4.89 4.89 -4.82 10.41 -4.82 19.99 c 0 9.58 -0.07 15.1 4.82 19.99 c 3.43 3.43 7.9 5.31 13.07 5.31 C 649.56 78.71 656.62 73.33 658.3 63.41 z" stroke-linecap="round"/>
</g>
		<g transform="matrix(1 0 0 1 222.37 -88.3)" id="Vordergrund">
<path style="stroke: none; stroke-width: 1; stroke-dasharray: none; stroke-linecap: butt; stroke-dashoffset: 0; stroke-linejoin: miter; stroke-miterlimit: 4; is-custom-font: none; font-file-url: none; fill: rgb(255,255,255); fill-rule: evenodd; opacity: 1;" transform=" translate(-596.6, -53.43)" d="M 614.34 64.11 c 0 -4.26 -1.33 -7.83 -4.05 -10.2 c -2.1 -1.89 -4.68 -3 -9.3 -3.7 l -5.66 -0.84 c -2.3 -0.35 -4.34 -1.19 -5.59 -2.31 c -1.33 -1.19 -1.88 -2.79 -1.88 -4.61 c 0 -4.4 3.22 -7.76 9.08 -7.76 c 4.19 0 7.76 0.91 10.84 3.84 l 4.82 -4.75 c -4.27 -3.99 -8.87 -5.66 -15.45 -5.66 c -10.34 0 -16.63 5.94 -16.63 14.61 c 0 4.05 1.19 7.2 3.64 9.51 c 2.17 2.03 5.38 3.42 9.44 3.99 l 5.87 0.84 c 2.94 0.42 4.19 0.91 5.45 2.1 c 1.33 1.19 1.96 3 1.96 5.17 c 0 4.82 -3.77 7.62 -10.27 7.62 c -5.1 0 -9.08 -1.12 -12.72 -4.75 l -5.03 4.96 c 4.75 4.82 10.14 6.57 17.61 6.57 C 606.87 78.71 614.34 73.26 614.34 64.11 z" stroke-linecap="round"/>
</g>
		<g transform="matrix(1 0 0 1 192.245 -88.32)" id="Vordergrund">
<rect style="stroke: none; stroke-width: 1; stroke-dasharray: none; stroke-linecap: butt; stroke-dashoffset: 0; stroke-linejoin: miter; stroke-miterlimit: 4; is-custom-font: none; font-file-url: none; fill: rgb(255,255,255); fill-rule: evenodd; opacity: 1;" x="-3.775" y="-24.88" rx="0" ry="0" width="7.55" height="49.76"/>
</g>
		<g transform="matrix(1 0 0 1 156.745 -88.32)" id="Vordergrund">
<polygon style="stroke: none; stroke-width: 1; stroke-dasharray: none; stroke-linecap: butt; stroke-dashoffset: 0; stroke-linejoin: miter; stroke-miterlimit: 4; is-custom-font: none; font-file-url: none; fill: rgb(255,255,255); fill-rule: evenodd; opacity: 1;" points="18.735,24.88 18.735,-24.88 11.185,-24.88 11.185,10.07 -11.815,-24.88 -18.735,-24.88 -18.735,24.88 -11.185,24.88 -11.185,-10.13 11.815,24.88 "/>
</g>
		<g transform="matrix(1 0 0 1 107.365 -88.32)" id="Vordergrund">
<polygon style="stroke: none; stroke-width: 1; stroke-dasharray: none; stroke-linecap: butt; stroke-dashoffset: 0; stroke-linejoin: miter; stroke-miterlimit: 4; is-custom-font: none; font-file-url: none; fill: rgb(255,255,255); fill-rule: evenodd; opacity: 1;" points="17.645,24.88 17.645,-24.88 10.105,-24.88 10.105,-3.63 -10.095,-3.63 -10.095,-24.88 -17.645,-24.88 -17.645,24.88 -10.095,24.88 -10.095,3.15 10.105,3.15 10.105,24.88 "/>
</g>
		<g transform="matrix(1 0 0 1 61.8399 -88.32)" id="Vordergrund">
<path style="stroke: none; stroke-width: 1; stroke-dasharray: none; stroke-linecap: butt; stroke-dashoffset: 0; stroke-linejoin: miter; stroke-miterlimit: 4; is-custom-font: none; font-file-url: none; fill: rgb(255,255,255); fill-rule: evenodd; opacity: 1;" transform=" translate(-436.07, -53.41)" d="M 453.89 63.41 h -7.62 c -1.19 5.03 -4.61 8.52 -10.13 8.52 c -2.93 0 -5.59 -1.12 -7.34 -3 c -2.45 -2.66 -3 -5.52 -3 -15.52 s 0.56 -12.86 3 -15.52 c 1.75 -1.89 4.4 -3 7.34 -3 c 5.52 0 8.88 3.49 10.06 8.53 h 7.69 c -1.75 -9.93 -8.6 -15.31 -17.75 -15.31 c -5.17 0 -9.64 1.89 -13.07 5.31 c -4.89 4.89 -4.82 10.41 -4.82 19.99 c 0 9.58 -0.07 15.1 4.82 19.99 c 3.42 3.43 7.9 5.31 13.07 5.31 C 445.15 78.71 452.21 73.33 453.89 63.41 z" stroke-linecap="round"/>
</g>
		<g transform="matrix(1 0 0 1 19.6 -88.32)" id="Vordergrund">
<polygon style="stroke: none; stroke-width: 1; stroke-dasharray: none; stroke-linecap: butt; stroke-dashoffset: 0; stroke-linejoin: miter; stroke-miterlimit: 4; is-custom-font: none; font-file-url: none; fill: rgb(255,255,255); fill-rule: evenodd; opacity: 1;" points="15.9,24.88 15.9,18.11 -8.35,18.11 -8.35,3.15 12.34,3.15 12.34,-3.56 -8.35,-3.56 -8.35,-18.1 15.9,-18.1 15.9,-24.88 -15.9,-24.88 -15.9,24.88 "/>
</g>
		<g transform="matrix(1 0 0 1 -22.35 -88.32)" id="Vordergrund">
<polygon style="stroke: none; stroke-width: 1; stroke-dasharray: none; stroke-linecap: butt; stroke-dashoffset: 0; stroke-linejoin: miter; stroke-miterlimit: 4; is-custom-font: none; font-file-url: none; fill: rgb(255,255,255); fill-rule: evenodd; opacity: 1;" points="17.47,-18.1 17.47,-24.88 -17.47,-24.88 -17.47,-18.1 -3.78,-18.1 -3.78,24.88 3.77,24.88 3.77,-18.1 "/>
</g>
		<g transform="matrix(1 0 0 1 358.33 -88.32)" id="Vordergrund">
<polygon style="stroke: none; stroke-width: 1; stroke-dasharray: none; stroke-linecap: butt; stroke-dashoffset: 0; stroke-linejoin: miter; stroke-miterlimit: 4; is-custom-font: none; font-file-url: none; fill: rgb(255,255,255); fill-rule: evenodd; opacity: 1;" points="15.9,24.88 15.9,18.11 -8.35,18.11 -8.35,3.15 12.33,3.15 12.33,-3.56 -8.35,-3.56 -8.35,-18.1 15.9,-18.1 15.9,-24.88 -15.9,-24.88 -15.9,24.88 "/>
</g>
		<g transform="matrix(1 0 0 1 -10.155 87.68)" id="Vordergrund">
<polygon style="stroke: none; stroke-width: 1; stroke-dasharray: none; stroke-linecap: butt; stroke-dashoffset: 0; stroke-linejoin: miter; stroke-miterlimit: 4; is-custom-font: none; font-file-url: none; fill: rgb(255,255,255); fill-rule: evenodd; opacity: 1;" points="29.665,-24.88 21.695,-24.88 13.035,10.7 3.035,-24.88 -3.045,-24.88 -13.035,10.7 -21.705,-24.88 -29.665,-24.88 -16.665,24.88 -10.105,24.88 -0.035,-9.99 10.095,24.88 16.665,24.88 "/>
</g>
		<g transform="matrix(1 0 0 1 108.17 87.68)" id="Vordergrund">
<polygon style="stroke: none; stroke-width: 1; stroke-dasharray: none; stroke-linecap: butt; stroke-dashoffset: 0; stroke-linejoin: miter; stroke-miterlimit: 4; is-custom-font: none; font-file-url: none; fill: rgb(255,255,255); fill-rule: evenodd; opacity: 1;" points="18.73,24.88 18.73,-24.88 11.19,-24.88 11.19,10.07 -11.81,-24.88 -18.73,-24.88 -18.73,24.88 -11.18,24.88 -11.18,-10.13 11.82,24.88 "/>
</g>
		<g transform="matrix(1 0 0 1 63.22 87.68)" id="Vordergrund">
<polygon style="stroke: none; stroke-width: 1; stroke-dasharray: none; stroke-linecap: butt; stroke-dashoffset: 0; stroke-linejoin: miter; stroke-miterlimit: 4; is-custom-font: none; font-file-url: none; fill: rgb(255,255,255); fill-rule: evenodd; opacity: 1;" points="15.9,24.88 15.9,18.11 -8.35,18.11 -8.35,3.15 12.33,3.15 12.33,-3.56 -8.35,-3.56 -8.35,-18.1 15.9,-18.1 15.9,-24.88 -15.9,-24.88 -15.9,24.88 "/>
</g>
		<g transform="matrix(1 0 0 1 30.545 87.68)" id="Vordergrund">
<rect style="stroke: none; stroke-width: 1; stroke-dasharray: none; stroke-linecap: butt; stroke-dashoffset: 0; stroke-linejoin: miter; stroke-miterlimit: 4; is-custom-font: none; font-file-url: none; fill: rgb(255,255,255); fill-rule: evenodd; opacity: 1;" x="-3.775" y="-24.88" rx="0" ry="0" width="7.55" height="49.76"/>
</g>
		<g transform="matrix(1 0 0 1 -232.5 0)" id="Vordergrund">
<path style="stroke: none; stroke-width: 1; stroke-dasharray: none; stroke-linecap: butt; stroke-dashoffset: 0; stroke-linejoin: miter; stroke-miterlimit: 4; is-custom-font: none; font-file-url: none; fill: rgb(255,255,255); fill-rule: evenodd; opacity: 1;" transform=" translate(-141.73, -141.73)" d="M 202.75 138.27 c 0.46 -0.08 0.8 -0.14 1.25 -0.25 c 11.39 -2.89 19.88 -13.87 19.88 -26.08 l -0.26 -83.47 h 30.87 v 83.91 c 0.03 29.16 -22.11 53.41 -50.49 56.41 l -1.25 0.13 L 202.75 138.27 z M 193.57 168.92 l -1.6 -0.13 c -28.37 -2.96 -50.31 -26.94 -50.31 -56.1 V 28.48 h 30.67 l -0.05 83.47 c 0 12.21 8.49 23.19 19.88 26.08 c 0.5 0.12 0.89 0.2 1.4 0.29 L 193.57 168.92 z M 118.64 254.45 v -49.89 h -9.74 v 49.89 H 118.64 z M 184.86 254.45 v -8.69 h -23.12 v -12.12 h 19.69 v -8.69 h -19.69 v -11.7 h 23.12 v -8.69 H 152 v 49.89 H 184.86 z M 254.63 254.45 v -49.89 h -9.74 v 30.55 l -19.76 -30.55 h -8.69 v 49.89 h 9.74 v -30.62 l 19.76 30.62 H 254.63 z M 85.72 204.56 H 75.56 l -7.78 31.46 l -9.11 -31.46 h -7.29 l -9.11 31.46 l -7.71 -31.46 H 24.42 l 13.31 49.89 h 8.13 l 9.18 -30.27 l 9.18 30.27 h 8.13 L 85.72 204.56 z M 21.79 28.48 h 105.86 v 30.27 H 21.79 V 28.48 z M 60.1 168.12 V 67.55 h 30.27 v 100.58 H 60.1 z M 255.11 0 c 15.65 0 28.29 12.7 28.29 28.36 l 0.06 226.74 c 0 15.66 -12.74 28.36 -28.39 28.36 H 28.34 C 12.7 283.46 0 270.77 0 255.11 L 0.02 28.36 C 0.02 12.7 12.68 0 28.32 0 H 255.11 z" stroke-linecap="round"/>
</g>
</g>
</g>
</svg>