<svg xmlns="http://www.w3.org/2000/svg" xmlns:xlink="http://www.w3.org/1999/xlink" width="40" zoomAndPan="magnify" viewBox="0 0 30 127.500001" height="170" preserveAspectRatio="xMidYMid meet" version="1.0"><defs><clipPath id="a9deec4fb2"><path d="M 3 0 L 4 0 L 4 127.003906 L 3 127.003906 Z M 3 0 " clip-rule="nonzero"/></clipPath></defs><path fill="#000000" d="M 24.503906 107.609375 L 24.503906 105.375 L 25.253906 105.375 L 25.253906 107.609375 M 24.503906 104.628906 L 24.503906 102.394531 L 25.253906 102.394531 L 25.253906 104.628906 M 24.503906 101.648438 L 24.503906 99.414062 L 25.253906 99.414062 L 25.253906 101.648438 M 24.503906 98.671875 L 24.503906 96.433594 L 25.253906 96.433594 L 25.253906 98.671875 M 24.503906 95.691406 L 24.503906 93.453125 L 25.253906 93.453125 L 25.253906 95.691406 M 24.503906 92.710938 L 24.503906 90.476562 L 25.253906 90.476562 L 25.253906 92.710938 M 24.503906 89.730469 L 24.503906 87.496094 L 25.253906 87.496094 L 25.253906 89.730469 M 24.503906 86.75 L 24.503906 84.515625 L 25.253906 84.515625 L 25.253906 86.75 M 24.503906 83.769531 L 24.503906 81.535156 L 25.253906 81.535156 L 25.253906 83.769531 M 24.503906 80.789062 L 24.503906 78.554688 L 25.253906 78.554688 L 25.253906 80.789062 M 24.503906 77.808594 L 24.503906 75.574219 L 25.253906 75.574219 L 25.253906 77.808594 M 24.503906 74.828125 L 24.503906 72.59375 L 25.253906 72.59375 L 25.253906 74.828125 M 24.503906 71.847656 L 24.503906 69.613281 L 25.253906 69.613281 L 25.253906 71.847656 M 24.503906 68.867188 L 24.503906 66.632812 L 25.253906 66.632812 L 25.253906 68.867188 M 24.503906 65.886719 L 24.503906 63.652344 L 25.253906 63.652344 L 25.253906 65.886719 M 24.503906 62.90625 L 24.503906 60.671875 L 25.253906 60.671875 L 25.253906 62.90625 M 24.503906 59.925781 L 24.503906 57.691406 L 25.253906 57.691406 L 25.253906 59.925781 M 24.503906 56.949219 L 24.503906 54.710938 L 25.253906 54.710938 L 25.253906 56.949219 M 24.503906 53.96875 L 24.503906 51.730469 L 25.253906 51.730469 L 25.253906 53.96875 M 24.503906 50.988281 L 24.503906 48.75 L 25.253906 48.75 L 25.253906 50.988281 M 24.503906 48.007812 L 24.503906 45.773438 L 25.253906 45.773438 L 25.253906 48.007812 M 24.503906 45.027344 L 24.503906 42.792969 L 25.253906 42.792969 L 25.253906 45.027344 M 24.503906 42.046875 L 24.503906 39.8125 L 25.253906 39.8125 L 25.253906 42.046875 M 24.503906 39.066406 L 24.503906 36.832031 L 25.253906 36.832031 L 25.253906 39.066406 M 24.503906 36.085938 L 24.503906 33.851562 L 25.253906 33.851562 L 25.253906 36.085938 M 24.503906 33.105469 L 24.503906 30.871094 L 25.253906 30.871094 L 25.253906 33.105469 M 24.503906 30.125 L 24.503906 27.890625 L 25.253906 27.890625 L 25.253906 30.125 M 24.503906 27.144531 L 24.503906 24.910156 L 25.253906 24.910156 L 25.253906 27.144531 M 24.503906 24.164062 L 24.503906 21.929688 L 25.253906 21.929688 L 25.253906 24.164062 M 24.503906 21.183594 L 24.503906 18.949219 L 25.253906 18.949219 L 25.253906 21.183594 M 24.503906 18.203125 L 24.503906 15.96875 L 25.253906 15.96875 L 25.253906 18.203125 M 24.503906 15.226562 L 24.503906 12.988281 L 25.253906 12.988281 L 25.253906 15.226562 M 24.503906 12.246094 L 24.503906 10.007812 L 25.253906 10.007812 L 25.253906 12.246094 M 24.503906 9.265625 L 24.503906 7.027344 L 25.253906 7.027344 L 25.253906 9.265625 M 24.503906 6.285156 L 24.503906 4.050781 L 25.253906 4.050781 L 25.253906 6.285156 M 24.503906 3.304688 L 24.503906 1.070312 L 25.253906 1.070312 L 25.253906 3.304688 M 24.503906 0.324219 L 24.503906 0.0273438 L 25.253906 0.0273438 L 25.253906 0.324219 " fill-opacity="1" fill-rule="nonzero"/><g clip-path="url(#a9deec4fb2)"><path stroke-linecap="butt" transform="matrix(0.74707, 0, 0, 0.747276, 0.0585936, -0.00000244306)" fill="none" stroke-linejoin="miter" d="M 4.501961 169.997556 L 4.501961 0.0365945 " stroke="#000000" stroke-width="1" stroke-opacity="1" stroke-miterlimit="4"/></g></svg>