<svg xmlns="http://www.w3.org/2000/svg" xmlns:xlink="http://www.w3.org/1999/xlink" version="1.1" width="1640" height="856" viewBox="0 0 1640 856" xml:space="preserve">
<desc>Created with Fabric.js 3.5.0</desc>
<defs>
</defs>
<rect x="0" y="0" width="100%" height="100%" fill="none"/>
<g transform="matrix(2.3953 0 0 2.3953 818.1904 433.2714)" id="616189">
<g style="" vector-effect="non-scaling-stroke">
		<g transform="matrix(0.0378 0 0 0.0378 -219.2095 73.4922)" id="path108">
<path style="stroke: none; stroke-width: 1; stroke-dasharray: none; stroke-linecap: butt; stroke-dashoffset: 0; stroke-linejoin: miter; stroke-miterlimit: 4; is-custom-font: none; font-file-url: none; fill: rgb(255,255,255); fill-rule: evenodd; opacity: 1;" vector-effect="non-scaling-stroke" transform=" translate(-4700.045, -6944.4451)" d="M 4651.81 6659.41 l 329.66 399.28 c 0 0 -231.33 171.05 -231.56 170.79 l -331.29 -398.69 l 233.19 -171.38 z" stroke-linecap="round"/>
</g>
		<g transform="matrix(0.0378 0 0 0.0378 -294.538 -15.6105)" id="path110">
<path style="stroke: none; stroke-width: 1; stroke-dasharray: none; stroke-linecap: butt; stroke-dashoffset: 0; stroke-linejoin: miter; stroke-miterlimit: 4; is-custom-font: none; font-file-url: none; fill: rgb(255,255,255); fill-rule: evenodd; opacity: 1;" vector-effect="non-scaling-stroke" transform=" translate(-2706.9678, -4586.925)" d="M 2693.51 4821.29 c -65.26 -20.77 -152.69 -13.07 -216.6 29.76 c -8.32 5.84 -24.19 4.61 -29.89 0 c -2.54 -1.9 -133.23 -101.16 -133.23 -101.16 l 712.96 -526.48 l 71.76 146.46 c 3.58 7.19 1.24 21.1 -6.6 27.87 c -47.39 40.5 -80.81 96.6 -82.08 188.76 c -0.65 96.92 66.22 161.82 90.07 192.05 c -42.84 31.59 -189.14 140.04 -232.13 171.89 c -56.28 -76.87 -101.58 -112.08 -174.26 -129.13 l 0 -0.02 z" stroke-linecap="round"/>
</g>
		<g transform="matrix(0.0378 0 0 0.0378 -208.8213 86.1329)" id="path112">
<path style="stroke: none; stroke-width: 1; stroke-dasharray: none; stroke-linecap: butt; stroke-dashoffset: 0; stroke-linejoin: miter; stroke-miterlimit: 4; is-custom-font: none; font-file-url: none; fill: rgb(255,255,255); fill-rule: evenodd; opacity: 1;" vector-effect="non-scaling-stroke" transform=" translate(-4974.9059, -7278.9082)" d="M 4789.17 7445.73 c 39.78 44.88 110.95 51.06 152.68 20.83 l 232.44 -171.39 c 41.49 -30.6 56.32 -94.66 16.81 -142.46 l -33.6 -40.59 c -40.44 -48.83 -108.96 -49.56 -150.6 -17.82 l -232.22 170.78 c -42.15 31.52 -52.32 98.61 -20.05 138.93 l 34.54 41.72 z" stroke-linecap="round"/>
</g>
		<g transform="matrix(0.0378 0 0 0.0378 -255.0056 30.2048)" id="path114">
<path style="stroke: none; stroke-width: 1; stroke-dasharray: none; stroke-linecap: butt; stroke-dashoffset: 0; stroke-linejoin: miter; stroke-miterlimit: 4; is-custom-font: none; font-file-url: none; fill: rgb(255,255,255); fill-rule: evenodd; opacity: 1;" vector-effect="non-scaling-stroke" transform=" translate(-3752.885, -5799.065)" d="M 4103.71 6000.36 l 380.62 457.31 l -231.05 170.39 l -336.06 -402.58 l 186.49 -225.12 z m -849.69 -1030.29 l 606.46 733.29 l -186.51 225.51 l -652.53 -787.57 l 232.58 -171.23 z" stroke-linecap="round"/>
</g>
		<g transform="matrix(0.0378 0 0 0.0378 -228.5843 62.1765)" id="path116">
<path style="stroke: none; stroke-width: 1; stroke-dasharray: none; stroke-linecap: butt; stroke-dashoffset: 0; stroke-linejoin: miter; stroke-miterlimit: 4; is-custom-font: none; font-file-url: none; fill: rgb(255,255,255); fill-rule: evenodd; opacity: 1;" vector-effect="non-scaling-stroke" transform=" translate(-4452.0151, -6645.0664)" d="M 4539.83 6483.66 l -274.59 202.46 c -63.9 46.21 32.74 167.82 99.16 119.8 l 275.05 -201.91 c 63.48 -46.8 -36.76 -166.71 -99.63 -120.36 l 0.01 0.01 z" stroke-linecap="round"/>
</g>
		<g transform="matrix(0.0378 0 0 0.0378 -281.2309 -1.4594)" id="path118">
<path style="stroke: none; stroke-width: 1; stroke-dasharray: none; stroke-linecap: butt; stroke-dashoffset: 0; stroke-linejoin: miter; stroke-miterlimit: 4; is-custom-font: none; font-file-url: none; fill: rgb(255,255,255); fill-rule: evenodd; opacity: 1;" vector-effect="non-scaling-stroke" transform=" translate(-3059.073, -4961.3661)" d="M 3146.88 4799.97 l -274.58 202.46 c -63.91 46.21 32.72 167.8 99.16 119.78 l 275.05 -201.9 c 63.48 -46.81 -36.74 -166.72 -99.63 -120.34 z" stroke-linecap="round"/>
</g>
		<g transform="matrix(0.0378 0 0 0.0378 -303.8341 -28.4038)" id="path120">
<path style="stroke: none; stroke-width: 1; stroke-dasharray: none; stroke-linecap: butt; stroke-dashoffset: 0; stroke-linejoin: miter; stroke-miterlimit: 4; is-custom-font: none; font-file-url: none; fill: rgb(255,255,255); fill-rule: evenodd; opacity: 1;" vector-effect="non-scaling-stroke" transform=" translate(-2460.9874, -4248.4249)" d="M 2272.57 4716.31 l -355.56 -259.72 c -5.47 -4.05 -3.97 -24.12 16 -20.34 c 3.32 0.61 222.4 19.53 222.4 19.53 l -1.56 -149.43 c -0.65 -9.6 14.49 -22.45 25.04 -19.3 c 1.5 0 152.63 39.76 152.63 39.76 l -74.09 -318.28 c -3.45 -12.36 14.29 -25.72 26.92 -20.16 c 0 0.02 307.9 146.19 307.9 146.19 l -2.34 -148.61 c -1.04 -10.08 13.31 -23.76 27.17 -20.02 c 1.89 0.61 150.83 39.11 150.83 39.11 l 34.15 -209.67 c 0.91 -17.26 17.38 -16.08 20.41 -13.02 c 0.65 1.11 185.23 389.12 185.23 389.12 l -735.16 544.85 l 0.03 -0.01 z" stroke-linecap="round"/>
</g>
		<g transform="matrix(0.0378 0 0 0.0378 -280.0841 73.0361)" id="path122">
<path style="stroke: none; stroke-width: 1; stroke-dasharray: none; stroke-linecap: butt; stroke-dashoffset: 0; stroke-linejoin: miter; stroke-miterlimit: 4; is-custom-font: none; font-file-url: none; fill: rgb(255,255,255); fill-rule: evenodd; opacity: 1;" vector-effect="non-scaling-stroke" transform=" translate(-3089.405, -6932.3801)" d="M 3137.64 6647.35 l -329.66 399.27 c 0 0 231.34 171.05 231.56 170.79 l 331.29 -398.68 l -233.19 -171.38 z" stroke-linecap="round"/>
</g>
		<g transform="matrix(0.0378 0 0 0.0378 -205.2262 -15.5946)" id="path124">
<path style="stroke: none; stroke-width: 1; stroke-dasharray: none; stroke-linecap: butt; stroke-dashoffset: 0; stroke-linejoin: miter; stroke-miterlimit: 4; is-custom-font: none; font-file-url: none; fill: rgb(255,255,255); fill-rule: evenodd; opacity: 1;" vector-effect="non-scaling-stroke" transform=" translate(-5070.0075, -4587.35)" d="M 5085.95 4821.29 c 65.28 -20.77 152.7 -13.07 216.6 29.76 c 8.31 5.84 24.2 4.61 29.9 0 c 2.54 -1.9 128.26 -96.98 128.26 -96.98 l -711.56 -529.79 l -68.21 145.57 c -3.58 7.19 -1.24 21.1 6.62 27.87 c 47.38 40.5 80.8 96.6 82.06 188.76 c 0.65 96.92 -66.21 161.82 -90.06 192.05 c 42.84 31.59 189.12 140.04 232.12 171.89 c 56.29 -76.87 101.59 -112.08 174.26 -129.13 l 0.01 0 z" stroke-linecap="round"/>
</g>
		<g transform="matrix(0.0378 0 0 0.0378 -290.473 85.6775)" id="path126">
<path style="stroke: none; stroke-width: 1; stroke-dasharray: none; stroke-linecap: butt; stroke-dashoffset: 0; stroke-linejoin: miter; stroke-miterlimit: 4; is-custom-font: none; font-file-url: none; fill: rgb(255,255,255); fill-rule: evenodd; opacity: 1;" vector-effect="non-scaling-stroke" transform=" translate(-2814.5384, -7266.8587)" d="M 3000.27 7433.68 c -39.78 44.87 -110.95 51.06 -152.69 20.83 l -232.42 -171.39 c -41.49 -30.6 -56.33 -94.66 -16.81 -142.46 l 33.6 -40.59 c 40.43 -48.83 108.95 -49.55 150.59 -17.82 l 232.21 170.78 c 42.15 31.53 52.34 98.62 20.07 138.93 l -34.55 41.72 z" stroke-linecap="round"/>
</g>
		<g transform="matrix(0.0378 0 0 0.0378 -244.6622 30.2046)" id="path128">
<polygon style="stroke: none; stroke-width: 1; stroke-dasharray: none; stroke-linecap: butt; stroke-dashoffset: 0; stroke-linejoin: miter; stroke-miterlimit: 4; is-custom-font: none; font-file-url: none; fill: rgb(255,255,255); fill-rule: evenodd; opacity: 1;" vector-effect="non-scaling-stroke" points="498.865,-828.99 -731.445,658.6 -500.375,828.99 731.445,-657.76 "/>
</g>
		<g transform="matrix(0.0378 0 0 0.0378 -270.8601 61.9012)" id="path130">
<path style="stroke: none; stroke-width: 1; stroke-dasharray: none; stroke-linecap: butt; stroke-dashoffset: 0; stroke-linejoin: miter; stroke-miterlimit: 4; is-custom-font: none; font-file-url: none; fill: rgb(255,255,255); fill-rule: evenodd; opacity: 1;" vector-effect="non-scaling-stroke" transform=" translate(-3333.4659, -6637.7814)" d="M 3245.67 6476.37 l 274.57 202.46 c 63.9 46.21 -32.72 167.82 -99.16 119.8 l -275.04 -201.9 c -63.5 -46.8 36.74 -166.71 99.63 -120.36 z" stroke-linecap="round"/>
</g>
		<g transform="matrix(0.0378 0 0 0.0378 -218.4403 -1.4589)" id="path132">
<path style="stroke: none; stroke-width: 1; stroke-dasharray: none; stroke-linecap: butt; stroke-dashoffset: 0; stroke-linejoin: miter; stroke-miterlimit: 4; is-custom-font: none; font-file-url: none; fill: rgb(255,255,255); fill-rule: evenodd; opacity: 1;" vector-effect="non-scaling-stroke" transform=" translate(-4720.4085, -4961.3778)" d="M 4632.6 4799.98 l 274.59 202.46 c 63.89 46.21 -32.73 167.81 -99.17 119.78 l -275.05 -201.9 c -63.48 -46.81 36.76 -166.72 99.64 -120.34 l -0.01 0 z" stroke-linecap="round"/>
</g>
		<g transform="matrix(0.0378 0 0 0.0378 -195.8689 -28.2935)" id="path134">
<path style="stroke: none; stroke-width: 1; stroke-dasharray: none; stroke-linecap: butt; stroke-dashoffset: 0; stroke-linejoin: miter; stroke-miterlimit: 4; is-custom-font: none; font-file-url: none; fill: rgb(255,255,255); fill-rule: evenodd; opacity: 1;" vector-effect="non-scaling-stroke" transform=" translate(-5317.5674, -4251.3427)" d="M 5500.72 4722.16 l 361.73 -265.57 c 5.47 -4.05 3.97 -24.12 -16.01 -20.35 c -3.32 0.61 -222.39 19.54 -222.39 19.54 l 1.56 -149.43 c 0.65 -9.6 -14.51 -22.45 -25.05 -19.3 c -1.5 0 -152.64 39.76 -152.64 39.76 l 74.09 -318.28 c 3.45 -12.37 -14.29 -25.72 -26.93 -20.16 c 0 0.02 -307.89 146.19 -307.89 146.19 l 2.34 -148.61 c 1.04 -10.08 -13.3 -23.76 -27.16 -20.02 c -1.89 0.61 -150.84 39.11 -150.84 39.11 l -34.15 -209.67 c -0.91 -17.28 -17.37 -16.08 -20.4 -13.02 c -0.65 1.11 -187.03 399.93 -187.03 399.93 l 730.79 539.88 l -0.02 0 z" stroke-linecap="round"/>
</g>
		<g transform="matrix(0.0378 0 0 0.0378 -250.2671 31.0526)" id="path136">
<path style="stroke: none; stroke-width: 1; stroke-dasharray: none; stroke-linecap: butt; stroke-dashoffset: 0; stroke-linejoin: miter; stroke-miterlimit: 4; is-custom-font: none; font-file-url: none; fill: rgb(255,255,255); fill-rule: nonzero; opacity: 1;" vector-effect="non-scaling-stroke" transform=" translate(-3878.065, -5821.305)" d="M 3878.11 8184.8 c -1264.38 0.06 -2289.29 -967.18 -2289.25 -2160.4 l 0 -2566.82 l 60.88 0 l 4456.6 0 l 60.88 0 l 0.05 2566.89 c -0.05 1193.21 -1025.02 2160.51 -2289.4 2160.56 l 0.24 -0.23 z m -0.01 -114.92 c 1197.16 -0.04 2167.61 -915.9 2167.66 -2045.64 l -0.05 -2452.08 l -4334.85 0 l 0 2452.07 c -0.04 1129.74 970.34 2045.52 2167.48 2045.48 l -0.24 0.17 z" stroke-linecap="round"/>
</g>
		<g transform="matrix(0.0378 0 0 0.0378 -250.2204 -106.4266)" id="path138">
<path style="stroke: none; stroke-width: 1; stroke-dasharray: none; stroke-linecap: butt; stroke-dashoffset: 0; stroke-linejoin: miter; stroke-miterlimit: 4; is-custom-font: none; font-file-url: none; fill: rgb(255,255,255); fill-rule: nonzero; opacity: 1;" vector-effect="non-scaling-stroke" transform=" translate(-3879.3404, -2184)" d="M 2566.52 3223.28 c 0 0 -648.55 -1652.7 -649.64 -1654.31 c -3.45 -39.09 19.28 -33.14 42.31 -25.05 l 25.79 12.16 c 78.35 37.37 157.64 62.03 240.47 83.07 c 87.42 18.63 157.57 28.75 210.06 107.36 c 26.18 47.57 23.84 84.07 9.77 138.28 c -3.91 16.06 12.89 4.42 20.49 -12.43 c 64.11 -94.45 111.45 -133.6 247.51 -141.29 c 114.77 -6.48 209.63 30.37 259.5 143.79 c 35.38 94.36 -2.34 182.19 -92.35 254.69 c -15.45 21.7 -18.55 29.57 -14.16 56.06 c 1.63 18.69 50.47 40.6 68.62 42.16 c 16.16 1.35 -122.77 169.06 -258.61 51.76 c -23.69 -55.33 -26.15 -81.89 -16.21 -151.13 c 5.27 -47.11 -87.12 -69.47 -109.22 26 c -30.05 162.3 54.56 302.97 163.54 374.57 c 97.17 46.79 227.37 40.53 304.22 -17.78 c 41.6 -33.85 60.49 -48.03 67.6 -125.77 c -40.93 -21 -69.44 -40.36 -82.45 -86.18 c -25.17 -88.67 15.52 -165.17 109.45 -188.91 c 93.94 -23.76 182.02 44.21 182.02 135.98 c 0 42.57 -27.18 87.93 -55.03 117.33 c 40.97 112.56 120.17 109.61 206.35 112.9 c 115.36 6.02 290.68 -65.5 294.65 -331.42 c -2.6 -48 -43.47 -216.48 -116.2 -220.17 c -47.03 0 -59.64 35.61 -40.92 68.69 c 14.46 22.48 27.7 30.58 26.91 84.26 c -27.37 124.79 -225.72 113.76 -227.55 108.6 c 112.57 -157.79 -197.77 -187.76 -186.23 -375.32 c 8.34 -134.34 95.62 -182.79 169.88 -205.08 c 80.13 -18.85 150.35 -11.94 218 22.33 c 20.58 9.9 32.13 19.74 58.1 44.24 c 2.67 3.38 14.04 6.62 8.43 -5.28 c -1.95 -4.91 -6.18 -13.05 -14.13 -29.76 c -27.9 -59.98 -16.05 -138.25 25.34 -193.72 c 49.62 -62.77 121.66 -129.44 155.94 -201.35 c 9.22 -19.36 30.25 -74.23 43.23 -89.78 c 5.01 -4.24 10.28 -7.09 15.72 -8.11 c 5.99 1.11 11.81 4.48 17.36 9.46 c 12.92 15.63 34.16 69.38 44.68 91.28 c 34.48 71.84 104.18 135.73 153.81 198.5 c 41.39 55.47 53.24 133.75 25.35 193.72 c -5.27 12.33 -14.42 22.92 -16.39 27.85 c -3.71 8.15 3.71 7.75 6.83 3.93 c 36.47 -28.71 34.22 -26.03 61.95 -40.94 c 67.64 -34.27 137.87 -41.18 218 -22.33 c 74.26 22.29 161.53 70.74 169.89 205.08 c 11.54 187.56 -298.81 217.53 -186.23 375.32 c -1.82 5.16 -200.17 16.19 -227.55 -108.6 c -0.78 -53.68 12.46 -61.78 26.91 -84.26 c 18.71 -33.09 6.12 -68.39 -40.93 -68.69 c -72.74 3.69 -113.57 172.17 -116.2 220.17 c 3.97 265.92 179.29 337.44 294.65 331.42 c 86.18 -3.32 165.39 -0.61 206.37 -112.9 c -27.88 -29.39 -55.05 -74.76 -55.05 -117.33 c 0 -91.77 88.09 -159.74 182.02 -135.98 c 93.93 23.74 134.62 100.24 109.45 188.91 c -13 45.82 -41.52 65.18 -82.45 86.18 c 7.11 77.75 26 91.93 67.61 125.77 c 76.84 58.31 207.06 64.58 304.2 17.78 c 108.99 -71.6 193.6 -212.28 163.56 -374.57 c -22.09 -95.48 -114.51 -73.12 -109.22 -26 c 9.93 69.25 7.48 95.8 -16.21 151.13 c -135.86 117.31 -274.77 -50.39 -258.6 -51.76 c 18.13 -1.54 66.95 -23.47 68.6 -42.16 c 4.43 -26.49 1.3 -34.36 -14.16 -56.06 c -89.98 -72.5 -127.73 -160.33 -92.35 -254.69 c 49.85 -113.41 144.72 -150.27 259.49 -143.79 c 136.06 7.69 183.4 46.84 247.52 141.29 c 4.75 6.9 20.72 45.32 31.13 26.65 c -8.38 -58.1 -32.38 -114.8 7.28 -171.96 c 52.49 -78.61 114.47 -69.26 201.9 -87.89 c 82.82 -21.04 154.95 -42.77 233.31 -80.15 l 33.31 -13.75 c 27.07 -17.69 53.1 -17.69 41.94 23.71 c -1.11 1.6 -649.64 1654.31 -649.64 1654.31 l -2623.34 0.01 l 0 -0.05 z" stroke-linecap="round"/>
</g>
		<g transform="matrix(0.0378 0 0 0.0378 -100.4417 85.1473)" id="path140">
<path style="stroke: none; stroke-width: 1; stroke-dasharray: none; stroke-linecap: butt; stroke-dashoffset: 0; stroke-linejoin: miter; stroke-miterlimit: 4; is-custom-font: none; font-file-url: none; fill: rgb(255,255,255); fill-rule: evenodd; opacity: 1;" vector-effect="non-scaling-stroke" transform=" translate(-7842.385, -7252.795)" d="M 7491.11 7693.16 c 10.73 32.9 17.43 46.82 30.83 46.82 c 16.09 0 22.8 -15.19 48.27 -67.06 c 57.66 -116.42 235.98 -564.39 261.46 -628.92 l 2.68 0 l 278.89 633.98 c 20.11 46.82 28.16 62 41.56 62 c 17.44 0 24.14 -15.19 38.89 -59.47 c 65.7 -189.82 206.48 -592.23 268.16 -751.66 c 28.16 -72.13 42.91 -122.75 75.09 -134.14 c 14.75 -5.04 33.52 -6.33 46.92 -6.33 c 12.07 0 18.78 -3.81 18.78 -12.65 c 0 -7.6 -9.39 -10.12 -24.14 -10.12 c -44.23 0 -101.9 3.81 -111.28 3.81 c -12.07 0 -68.38 -3.81 -139.44 -3.81 c -20.11 0 -30.84 2.52 -30.84 11.39 c 0 7.59 9.39 11.38 22.8 11.38 c 52.29 0 64.35 17.72 64.35 37.96 c 0 17.72 -4.04 44.29 -13.41 73.39 c -46.93 148.06 -154.19 482.13 -178.33 566.91 l -4.05 0 l -278.89 -636.5 c -17.43 -40.5 -24.13 -59.47 -38.88 -59.47 c -10.73 0 -18.77 10.12 -33.51 45.55 l -260.12 659.29 l -4.03 -0.01 c -24.14 -70.86 -148.83 -454.29 -171.62 -537.8 c -16.09 -56.95 -29.51 -99.97 -29.51 -116.42 c 0 -13.91 2.67 -22.78 14.76 -27.84 c 9.39 -5.04 22.79 -5.04 33.51 -5.04 c 13.41 0 24.14 -1.29 24.14 -11.38 c 0 -7.6 -9.38 -11.39 -28.16 -11.39 c -77.76 0 -136.75 3.81 -148.83 3.81 c -12.07 0 -85.81 -3.81 -155.53 -3.81 c -18.77 0 -29.5 2.52 -29.5 11.39 c 0 10.12 8.05 11.38 21.45 11.38 c 12.07 0 38.89 2.52 53.63 11.39 c 18.78 12.66 33.52 43.03 49.61 89.84 l 284.25 803.55 l 0.04 -0.02 z" stroke-linecap="round"/>
</g>
		<g transform="matrix(0.0378 0 0 0.0378 -16.9775 84.8113)" id="path142">
<path style="stroke: none; stroke-width: 1; stroke-dasharray: none; stroke-linecap: butt; stroke-dashoffset: 0; stroke-linejoin: miter; stroke-miterlimit: 4; is-custom-font: none; font-file-url: none; fill: rgb(255,255,255); fill-rule: evenodd; opacity: 1;" vector-effect="non-scaling-stroke" transform=" translate(-10050.735, -7243.905)" d="M 9810.09 7132.56 c 0 -192.34 0 -227.77 2.67 -268.26 c 2.67 -44.29 13.41 -65.81 49.6 -72.13 c 16.09 -2.52 24.14 -3.81 37.54 -3.81 c 10.73 0 18.78 -2.52 18.78 -11.38 c 0 -8.86 -9.39 -11.39 -28.16 -11.39 c -45.58 0 -130.06 3.81 -162.24 3.81 c -32.18 0 -116.65 -3.81 -187.71 -3.81 c -20.11 0 -29.49 2.52 -29.49 11.39 c 0 8.86 8.04 11.38 22.79 11.38 c 18.77 0 41.56 1.29 52.29 3.81 c 44.25 8.85 54.97 29.1 57.66 72.13 c 2.67 40.49 2.67 75.92 2.67 268.26 l 0 222.72 c 0 116.42 0 216.4 -6.7 269.54 c -5.34 36.7 -12.07 64.53 -38.88 69.6 c -12.07 2.52 -28.16 5.04 -48.27 5.04 c -16.09 0 -21.45 3.81 -21.45 10.12 c 0 8.86 9.39 12.66 26.82 12.66 c 53.63 0 138.1 -3.81 168.95 -3.81 c 33.51 0 117.99 3.81 193.07 3.81 c 14.75 0 25.47 -3.81 25.47 -12.66 c 0 -6.32 -6.7 -10.12 -17.43 -10.12 c -17.43 0 -46.92 -2.52 -65.7 -5.04 c -33.52 -5.04 -45.58 -32.9 -48.27 -68.33 c -4.04 -54.41 -4.04 -154.39 -4.04 -270.81 l 0 -115.15 l 6.69 0 l 14.75 18.98 c 28.16 36.7 292.3 329.01 351.28 378.37 c 57.66 48.08 93.87 75.92 166.27 82.24 c 28.15 2.52 52.29 2.52 92.51 2.52 l 116.65 0 c 25.48 0 32.18 -3.81 32.18 -12.66 c 0 -7.59 -8.05 -10.12 -17.42 -10.12 c -16.09 0 -42.91 -3.81 -83.14 -18.98 c -72.4 -26.58 -132.74 -83.52 -191.73 -136.67 c -52.29 -46.82 -315.08 -313.83 -363.35 -373.3 c 45.58 -45.56 248.04 -235.37 289.61 -273.33 c 57.66 -53.15 103.24 -79.72 144.8 -94.91 c 25.48 -8.86 59 -13.93 77.76 -13.93 c 13.41 0 20.12 -2.52 20.12 -11.38 c 0 -8.86 -9.39 -11.39 -22.79 -11.39 c -41.56 0 -115.31 3.81 -156.87 3.81 c -36.2 0 -109.94 -3.81 -138.1 -3.81 c -14.75 0 -21.45 2.52 -21.45 11.39 c 0 7.59 5.34 10.12 17.43 12.65 c 13.4 2.52 18.77 11.39 18.77 25.31 c 0 21.51 -29.49 53.15 -67.04 94.91 c -38.88 43.03 -234.64 231.57 -280.22 278.39 l -6.72 0 l 0 -55.68 l 0.04 0.02 z" stroke-linecap="round"/>
</g>
		<g transform="matrix(0.0378 0 0 0.0378 31.9344 84.8117)" id="path144">
<path style="stroke: none; stroke-width: 1; stroke-dasharray: none; stroke-linecap: butt; stroke-dashoffset: 0; stroke-linejoin: miter; stroke-miterlimit: 4; is-custom-font: none; font-file-url: none; fill: rgb(255,255,255); fill-rule: evenodd; opacity: 1;" vector-effect="non-scaling-stroke" transform=" translate(-11344.865, -7243.915)" d="M 10951.35 7355.28 c 0 116.42 0 216.4 -6.7 269.54 c -5.34 36.7 -12.07 64.53 -38.88 69.6 c -12.07 2.52 -28.16 5.04 -48.27 5.04 c -16.09 0 -21.45 3.81 -21.45 10.12 c 0 8.86 9.39 12.66 26.82 12.66 c 53.63 0 138.1 -3.81 163.58 -3.81 c 20.11 0 119.32 3.81 197.09 3.81 c 17.44 0 26.82 -3.81 26.82 -12.66 c 0 -6.32 -5.34 -10.12 -16.09 -10.12 c -16.09 0 -45.59 -2.52 -65.7 -5.04 c -40.22 -5.04 -48.26 -32.9 -52.29 -69.6 c -6.7 -53.14 -6.7 -153.12 -6.7 -270.8 l 0 -17.72 c 0 -7.59 4.04 -10.12 10.73 -10.12 l 116.65 2.52 c 9.39 0 17.43 1.23 24.14 8.86 c 17.44 18.98 79.11 105.03 132.74 174.62 c 75.09 97.44 126.04 156.91 183.7 186.03 c 34.86 17.72 68.38 24.04 143.46 24.04 l 127.34 0 c 16.09 0 25.48 -2.52 25.48 -12.66 c 0 -6.32 -5.34 -10.12 -16.09 -10.12 c -10.73 0 -22.79 -1.29 -37.54 -3.81 c -20.12 -3.81 -75.09 -12.65 -150.17 -86.05 c -79.12 -78.45 -171.63 -191.08 -290.96 -332.81 c 135.42 -103.77 176.98 -189.82 176.98 -283.45 c 0 -84.78 -53.63 -149.32 -91.18 -173.36 c -72.41 -46.82 -162.24 -54.41 -246.71 -54.41 c -41.56 0 -143.46 3.81 -189.05 3.81 c -28.16 0 -112.62 -3.81 -183.69 -3.81 c -20.11 0 -29.5 2.52 -29.5 11.39 c 0 8.86 8.05 11.38 22.8 11.38 c 18.77 0 41.56 1.29 52.29 3.81 c 44.25 8.85 54.97 29.1 57.65 72.13 c 2.67 40.49 2.67 75.92 2.67 268.26 l 0 222.72 l 0.03 0.01 z m 158.22 -507.42 c 0 -10.12 2.67 -15.19 12.07 -17.72 c 13.4 -3.81 37.54 -5.04 71.06 -5.04 c 79.1 0 205.14 51.88 205.14 231.58 c 0 103.76 -38.88 161.97 -79.1 189.81 c -24.14 16.45 -41.57 21.51 -95.2 21.51 c -33.52 0 -73.74 -3.81 -101.9 -12.65 c -9.39 -3.81 -12.07 -8.86 -12.07 -22.77 l 0 -384.68 l 0 -0.04 z" stroke-linecap="round"/>
</g>
		<g transform="matrix(0.0378 0 0 0.0378 75.0261 84.2858)" id="path146">
<path style="stroke: none; stroke-width: 1; stroke-dasharray: none; stroke-linecap: butt; stroke-dashoffset: 0; stroke-linejoin: miter; stroke-miterlimit: 4; is-custom-font: none; font-file-url: none; fill: rgb(255,255,255); fill-rule: evenodd; opacity: 1;" vector-effect="non-scaling-stroke" transform=" translate(-12484.995, -7230)" d="M 12591.58 7391.98 c 6.71 0 10.73 2.52 13.41 8.86 l 107.26 268.27 c 6.7 15.19 -2.67 26.58 -12.06 29.11 c -13.41 1.29 -18.77 3.81 -18.77 11.38 c 0 8.86 16.08 8.86 40.23 10.12 c 107.26 2.52 205.14 2.52 253.41 2.52 c 49.6 0 61.67 -2.52 61.67 -12.66 c 0 -8.85 -6.7 -10.12 -17.43 -10.12 c -16.09 0 -36.2 -1.29 -56.31 -5.04 c -28.16 -6.32 -67.04 -24.04 -117.99 -137.93 c -85.81 -192.35 -300.34 -708.64 -332.52 -778.24 c -13.41 -29.11 -21.45 -40.5 -33.52 -40.5 c -13.41 0 -21.45 13.93 -37.54 50.62 l -336.54 794.69 c -26.82 63.27 -52.29 106.29 -113.97 113.89 c -10.73 1.29 -29.5 2.52 -41.56 2.52 c -10.73 0 -16.09 2.52 -16.09 10.12 c 0 10.12 8.04 12.66 25.47 12.66 c 69.72 0 143.46 -3.81 158.22 -3.81 c 41.57 0 99.22 3.81 142.12 3.81 c 14.74 0 22.79 -2.52 22.79 -12.66 c 0 -7.59 -4.04 -10.12 -20.12 -10.12 l -20.11 0.01 c -41.57 0 -53.63 -16.45 -53.63 -39.22 c 0 -15.19 6.7 -45.56 20.11 -77.19 l 72.41 -180.96 c 2.67 -7.59 5.34 -10.12 12.07 -10.12 l 298.99 -0.01 z m -272.18 -63.27 c -5.34 0 -6.7 -3.81 -5.34 -8.86 l 123.35 -311.29 c 1.37 -5.04 4.04 -11.39 8.05 -11.39 c 4.04 0 5.34 6.33 6.7 11.39 l 120.67 312.56 c 1.37 3.81 0 7.59 -6.7 7.59 l -246.7 0 l -0.03 0 z" stroke-linecap="round"/>
</g>
		<g transform="matrix(0.0378 0 0 0.0378 124.8526 84.8113)" id="path148">
<path style="stroke: none; stroke-width: 1; stroke-dasharray: none; stroke-linecap: butt; stroke-dashoffset: 0; stroke-linejoin: miter; stroke-miterlimit: 4; is-custom-font: none; font-file-url: none; fill: rgb(255,255,255); fill-rule: evenodd; opacity: 1;" vector-effect="non-scaling-stroke" transform=" translate(-13803.325, -7243.905)" d="M 13562.68 7132.56 c 0 -192.34 0 -227.77 2.67 -268.26 c 2.67 -44.29 13.41 -65.81 49.61 -72.13 c 16.09 -2.52 24.14 -3.81 37.54 -3.81 c 10.73 0 18.77 -2.52 18.77 -11.38 c 0 -8.86 -9.38 -11.39 -28.16 -11.39 c -45.58 0 -130.05 3.81 -162.23 3.81 c -32.18 0 -116.65 -3.81 -187.71 -3.81 c -20.12 0 -29.51 2.52 -29.51 11.39 c 0 8.86 8.05 11.38 22.8 11.38 c 18.77 0 41.56 1.29 52.29 3.81 c 44.25 8.85 54.97 29.1 57.65 72.13 c 2.67 40.49 2.67 75.92 2.67 268.26 l 0 222.72 c 0 116.42 0 216.4 -6.7 269.54 c -5.34 36.7 -12.07 64.53 -38.88 69.6 c -12.06 2.52 -28.15 5.04 -48.27 5.04 c -16.09 0 -21.45 3.81 -21.45 10.12 c 0 8.86 9.39 12.66 26.82 12.66 c 53.63 0 138.11 -3.81 168.95 -3.81 c 33.52 0 117.99 3.81 193.07 3.81 c 14.74 0 25.47 -3.81 25.47 -12.66 c 0 -6.32 -6.7 -10.12 -17.43 -10.12 c -17.42 0 -46.92 -2.52 -65.69 -5.04 c -33.52 -5.04 -45.59 -32.9 -48.26 -68.33 c -4.04 -54.41 -4.04 -154.39 -4.04 -270.81 l 0 -115.15 l 6.69 0 l 14.75 18.98 c 28.16 36.7 292.3 329.01 351.29 378.37 c 57.65 48.08 93.85 75.92 166.26 82.24 c 28.16 2.52 52.29 2.52 92.52 2.52 l 116.64 0 c 25.47 0 32.18 -3.81 32.18 -12.66 c 0 -7.59 -8.05 -10.12 -17.44 -10.12 c -16.09 0 -42.9 -3.81 -83.13 -18.98 c -72.41 -26.58 -132.74 -83.52 -191.74 -136.67 c -52.29 -46.82 -315.08 -313.83 -363.36 -373.3 c 45.6 -45.56 248.06 -235.37 289.62 -273.33 c 57.65 -53.15 103.24 -79.72 144.8 -94.91 c 25.48 -8.86 59 -13.93 77.78 -13.93 c 13.4 0 20.11 -2.52 20.11 -11.38 c 0 -8.86 -9.38 -11.39 -22.79 -11.39 c -41.56 0 -115.31 3.81 -156.88 3.81 c -36.2 0 -109.94 -3.81 -138.1 -3.81 c -14.74 0 -21.45 2.52 -21.45 11.39 c 0 7.59 5.34 10.12 17.43 12.65 c 13.4 2.52 18.77 11.39 18.77 25.31 c 0 21.51 -29.49 53.15 -67.04 94.91 c -38.88 43.03 -234.64 231.57 -280.23 278.39 l -6.7 0 l 0 -55.68 l 0.04 0.02 z" stroke-linecap="round"/>
</g>
		<g transform="matrix(0.0378 0 0 0.0378 172.0419 84.8123)" id="path150">
<path style="stroke: none; stroke-width: 1; stroke-dasharray: none; stroke-linecap: butt; stroke-dashoffset: 0; stroke-linejoin: miter; stroke-miterlimit: 4; is-custom-font: none; font-file-url: none; fill: rgb(255,255,255); fill-rule: evenodd; opacity: 1;" vector-effect="non-scaling-stroke" transform=" translate(-15051.875, -7243.93)" d="M 15044.51 7739.98 c 340.55 0 555.08 -229.04 555.08 -518.83 c 0 -289.78 -207.82 -473.27 -541.68 -473.27 c -402.24 0 -553.75 279.67 -553.75 496.05 c 0 223.98 155.54 496.05 540.35 496.05 z m 56.31 -63.27 c -257.44 0 -411.63 -208.8 -411.63 -472.01 c 0 -315.09 175.64 -396.07 329.83 -396.07 c 219.9 0 392.85 175.9 392.85 459.35 c 0 365.71 -217.2 408.74 -311.06 408.74 l 0.01 -0.01 z" stroke-linecap="round"/>
</g>
		<g transform="matrix(0.0378 0 0 0.0378 231.7268 85.1473)" id="path152">
<path style="stroke: none; stroke-width: 1; stroke-dasharray: none; stroke-linecap: butt; stroke-dashoffset: 0; stroke-linejoin: miter; stroke-miterlimit: 4; is-custom-font: none; font-file-url: none; fill: rgb(255,255,255); fill-rule: evenodd; opacity: 1;" vector-effect="non-scaling-stroke" transform=" translate(-16631.01, -7252.795)" d="M 16279.75 7693.16 c 10.73 32.9 17.44 46.82 30.84 46.82 c 16.1 0 22.79 -15.19 48.28 -67.06 c 57.65 -116.42 235.98 -564.39 261.45 -628.92 l 2.66 0 l 278.89 633.98 c 20.11 46.82 28.16 62 41.55 62 c 17.43 0 24.14 -15.19 38.88 -59.47 c 65.7 -189.82 206.49 -592.23 268.16 -751.66 c 28.16 -72.13 42.91 -122.75 75.09 -134.14 c 14.74 -5.04 33.52 -6.33 46.92 -6.33 c 12.07 0 18.78 -3.81 18.78 -12.65 c 0 -7.6 -9.39 -10.12 -24.14 -10.12 c -44.25 0 -101.91 3.81 -111.29 3.81 c -12.07 0 -68.38 -3.81 -139.45 -3.81 c -20.11 0 -30.83 2.52 -30.83 11.39 c 0 7.59 9.39 11.38 22.79 11.38 c 52.29 0 64.36 17.72 64.36 37.96 c 0 17.72 -4.04 44.29 -13.41 73.39 c -46.92 148.06 -154.19 482.13 -178.32 566.91 l -4.02 0 l -278.88 -636.5 c -17.42 -40.5 -24.13 -59.47 -38.87 -59.47 c -10.73 0 -18.78 10.12 -33.53 45.55 l -260.12 659.29 l -4.03 -0.01 c -24.13 -70.86 -148.83 -454.29 -171.62 -537.8 c -16.09 -56.95 -29.5 -99.97 -29.5 -116.42 c 0 -13.91 2.67 -22.78 14.76 -27.84 c 9.38 -5.04 22.79 -5.04 33.52 -5.04 c 13.4 0 24.13 -1.29 24.13 -11.38 c 0 -7.6 -9.39 -11.39 -28.16 -11.39 c -77.76 0 -136.76 3.81 -148.83 3.81 c -12.07 0 -85.81 -3.81 -155.53 -3.81 c -18.78 0 -29.51 2.52 -29.51 11.39 c 0 10.12 8.05 11.38 21.45 11.38 c 12.07 0 38.88 2.52 53.63 11.39 c 18.77 12.66 33.52 43.03 49.61 89.84 l 284.25 803.55 l 0.04 -0.02 z" stroke-linecap="round"/>
</g>
		<g transform="matrix(0.0378 0 0 0.0378 279.3139 84.8117)" id="path154">
<path style="stroke: none; stroke-width: 1; stroke-dasharray: none; stroke-linecap: butt; stroke-dashoffset: 0; stroke-linejoin: miter; stroke-miterlimit: 4; is-custom-font: none; font-file-url: none; fill: rgb(255,255,255); fill-rule: evenodd; opacity: 1;" vector-effect="non-scaling-stroke" transform=" translate(-17890.155, -7243.915)" d="M 17791.61 7355.28 c 0 122.75 0 222.72 -6.71 275.87 c -4.04 36.7 -12.07 58.21 -38.88 63.27 c -12.07 2.52 -28.16 5.04 -48.28 5.04 c -16.08 0 -21.45 3.81 -21.45 10.12 c 0 8.86 9.39 12.66 26.83 12.66 c 53.63 0 138.1 -3.81 168.93 -3.81 c 36.2 0 120.68 3.81 209.16 3.81 c 14.75 0 25.48 -3.81 25.48 -12.66 c 0 -6.32 -6.7 -10.12 -21.45 -10.12 c -20.11 0 -49.6 -2.52 -68.38 -5.04 c -40.23 -5.04 -49.61 -27.83 -53.63 -62 c -5.34 -54.42 -5.34 -154.39 -5.34 -277.14 l 0 -222.72 c 0 -192.34 0 -227.77 2.67 -268.26 c 2.67 -44.29 13.41 -65.81 49.6 -72.13 c 16.09 -2.52 26.82 -3.81 40.23 -3.81 c 13.4 0 21.45 -2.52 21.45 -12.65 c 0 -7.6 -10.73 -10.12 -28.16 -10.12 c -50.95 0 -130.06 3.81 -163.58 3.81 c -38.87 0 -123.34 -3.81 -174.3 -3.81 c -21.45 0 -32.18 2.52 -32.18 10.12 c 0 10.12 8.05 12.65 21.45 12.65 c 16.09 0 33.52 1.29 48.27 5.04 c 29.49 6.33 42.91 27.84 45.59 70.87 c 2.67 40.49 2.67 75.92 2.67 268.26 l 0 222.72 l 0.01 0.03 z" stroke-linecap="round"/>
</g>
		<g transform="matrix(0.0378 0 0 0.0378 314.5377 84.6917)" id="path156">
<path style="stroke: none; stroke-width: 1; stroke-dasharray: none; stroke-linecap: butt; stroke-dashoffset: 0; stroke-linejoin: miter; stroke-miterlimit: 4; is-custom-font: none; font-file-url: none; fill: rgb(255,255,255); fill-rule: evenodd; opacity: 1;" vector-effect="non-scaling-stroke" transform=" translate(-18822.1, -7240.74)" d="M 18618.97 7355.28 c 0 116.42 0 216.4 -6.7 269.54 c -5.34 36.7 -12.07 64.53 -38.88 69.6 c -12.07 2.52 -28.16 5.04 -48.27 5.04 c -16.09 0 -21.45 3.81 -21.45 10.12 c 0 8.86 9.39 12.66 26.82 12.66 c 53.63 0 138.1 -3.81 168.94 -3.81 c 79.1 0 168.93 7.59 371.4 7.59 c 50.95 0 63.03 0 72.4 -32.9 c 6.7 -25.31 17.43 -111.36 17.43 -140.47 c 0 -12.65 0 -22.77 -10.73 -22.77 c -9.37 0 -12.06 5.04 -14.74 18.98 c -9.39 51.88 -25.48 78.47 -60.34 93.65 c -34.87 15.18 -91.17 15.18 -126.03 15.18 c -136.76 0 -158.21 -18.98 -160.89 -106.29 c -1.37 -36.7 0 -153.12 0 -196.15 l 0 -99.97 c 0 -7.59 1.37 -12.65 8.04 -12.65 c 32.18 0 164.92 1.29 190.39 3.81 c 49.61 5.04 68.39 24.04 75.08 49.35 c 4.04 16.45 4.04 32.9 5.34 45.55 c 0 6.33 2.67 11.4 12.06 11.4 c 12.08 0 12.08 -13.92 12.08 -24.04 c 0 -8.86 2.67 -59.48 5.34 -84.79 c 4.04 -64.54 10.73 -84.79 10.73 -92.37 c 0 -7.6 -4.04 -10.12 -9.38 -10.12 c -6.7 0 -12.07 6.32 -21.45 16.45 c -12.07 12.66 -32.18 16.45 -64.35 18.99 c -30.85 2.52 -185.04 2.52 -214.53 2.52 c -8.06 0 -9.39 -5.04 -9.39 -13.91 l 0 -320.15 c 0 -8.86 2.67 -12.65 9.39 -12.65 c 26.8 0 167.59 2.52 190.39 5.04 c 67.04 7.59 80.44 22.77 89.83 45.55 c 6.71 15.19 8.05 36.69 8.05 45.56 c 0 11.38 2.67 17.71 12.07 17.71 c 9.38 0 12.06 -7.59 13.4 -13.91 c 2.67 -15.19 5.34 -70.87 6.71 -83.52 c 4.04 -58.21 10.72 -73.39 10.72 -82.25 c 0 -6.33 -1.37 -11.39 -8.04 -11.39 c -6.7 0 -14.74 3.81 -21.45 5.04 c -10.73 2.52 -32.18 5.04 -57.65 7.59 c -25.48 1.29 -292.3 1.29 -335.2 1.29 c -37.54 0 -122.01 -3.81 -193.07 -3.81 c -20.11 0 -29.5 2.52 -29.5 11.39 c 0 8.86 8.05 11.38 22.79 11.38 c 18.78 0 41.57 1.29 52.3 3.81 c 44.24 8.85 54.97 29.1 57.66 72.13 c 2.67 40.49 2.67 75.92 2.67 268.26 l 0 222.72 l 0.01 0.02 z" stroke-linecap="round"/>
</g>
		<g transform="matrix(0.0378 0 0 0.0378 -120.2017 28.2369)" id="path158">
<path style="stroke: none; stroke-width: 1; stroke-dasharray: none; stroke-linecap: butt; stroke-dashoffset: 0; stroke-linejoin: miter; stroke-miterlimit: 4; is-custom-font: none; font-file-url: none; fill: rgb(255,255,255); fill-rule: evenodd; opacity: 1;" vector-effect="non-scaling-stroke" transform=" translate(-7319.635, -5747.02)" d="M 7276.06 5835.62 c 0 248.03 1.37 374.58 -100.56 472.01 c -26.82 25.31 -46.93 39.23 -64.36 48.09 c -22.79 11.38 -29.49 16.45 -29.49 22.77 c 0 6.33 5.34 10.12 10.73 10.12 c 6.7 0 17.42 -2.52 26.82 -7.6 c 28.15 -12.65 49.6 -22.77 67.04 -32.9 c 128.71 -74.66 199.78 -161.98 227.94 -239.17 c 26.82 -70.87 32.18 -151.85 32.18 -223.98 c 0 -63.27 -4.04 -124.01 -4.04 -178.42 l 0 -234.11 c 0 -192.35 0 -227.78 2.67 -268.28 c 2.67 -44.29 13.4 -65.81 49.61 -72.13 c 16.09 -2.52 24.13 -3.81 38.88 -3.81 c 16.09 0 24.14 -2.52 24.14 -11.38 c 0 -8.86 -9.38 -11.4 -28.16 -11.4 c -52.29 0 -136.75 3.81 -168.93 3.81 c -34.87 0 -119.33 -3.81 -190.4 -3.81 c -20.11 0 -29.49 2.52 -29.49 11.4 c 0 8.85 8.04 11.38 22.79 11.38 c 18.77 0 41.57 1.29 52.29 3.81 c 44.24 8.86 54.97 29.11 57.66 72.13 c 2.67 40.5 2.67 75.93 2.67 268.28 l 0 363.18 l 0.01 0.01 z" stroke-linecap="round"/>
</g>
		<g transform="matrix(0.0378 0 0 0.0378 -86.1506 21.5413)" id="path160">
<path style="stroke: none; stroke-width: 1; stroke-dasharray: none; stroke-linecap: butt; stroke-dashoffset: 0; stroke-linejoin: miter; stroke-miterlimit: 4; is-custom-font: none; font-file-url: none; fill: rgb(255,255,255); fill-rule: evenodd; opacity: 1;" vector-effect="non-scaling-stroke" transform=" translate(-8220.53, -5569.885)" d="M 8327.13 5731.86 c 6.7 0 10.73 2.52 13.4 8.85 l 107.26 268.28 c 6.71 15.19 -2.67 26.58 -12.07 29.1 c -13.4 1.29 -18.77 3.81 -18.77 11.4 c 0 8.85 16.09 8.85 40.22 10.12 c 107.27 2.52 205.14 2.52 253.41 2.52 c 49.61 0 61.69 -2.52 61.69 -12.65 c 0 -8.86 -6.71 -10.12 -17.44 -10.12 c -16.09 0 -36.2 -1.29 -56.32 -5.04 c -28.15 -6.33 -67.04 -24.04 -117.99 -137.94 c -85.81 -192.35 -300.34 -708.65 -332.52 -778.25 c -13.4 -29.11 -21.45 -40.49 -33.51 -40.49 c -13.41 0 -21.45 13.91 -37.54 50.61 l -336.54 794.7 c -26.82 63.27 -52.29 106.3 -113.96 113.89 c -10.73 1.29 -29.51 2.52 -41.57 2.52 c -10.73 0 -16.09 2.52 -16.09 10.12 c 0 10.12 8.05 12.65 25.48 12.65 c 69.72 0 143.46 -3.81 158.21 -3.81 c 41.57 0 99.22 3.81 142.13 3.81 c 14.75 0 22.79 -2.52 22.79 -12.65 c 0 -7.59 -4.04 -10.12 -20.11 -10.12 l -20.11 -0.01 c -41.56 0 -53.63 -16.46 -53.63 -39.23 c 0 -15.19 6.71 -45.56 20.11 -77.19 l 72.41 -180.95 c 2.67 -7.6 5.34 -10.12 12.06 -10.12 l 299 -0.01 l 0 0.01 z m -272.19 -63.28 c -5.34 0 -6.7 -3.81 -5.34 -8.85 l 123.35 -311.3 c 1.37 -5.04 4.04 -11.38 8.05 -11.38 c 4.04 0 5.34 6.33 6.7 11.38 l 120.67 312.57 c 1.37 3.81 0 7.59 -6.7 7.59 l -246.71 -0.01 l -0.02 0 z" stroke-linecap="round"/>
</g>
		<g transform="matrix(0.0378 0 0 0.0378 -40.0204 22.0673)" id="path162">
<path style="stroke: none; stroke-width: 1; stroke-dasharray: none; stroke-linecap: butt; stroke-dashoffset: 0; stroke-linejoin: miter; stroke-miterlimit: 4; is-custom-font: none; font-file-url: none; fill: rgb(255,255,255); fill-rule: evenodd; opacity: 1;" vector-effect="non-scaling-stroke" transform=" translate(-9441.06, -5583.8)" d="M 9868.08 5838.16 c 0 -63.27 0 -113.89 1.37 -151.85 c 1.37 -44.3 14.75 -65.81 50.95 -72.13 c 16.09 -2.52 25.48 -3.81 36.21 -3.81 c 9.39 0 17.42 -2.52 17.42 -10.12 c 0 -10.12 -9.39 -12.65 -26.82 -12.65 c -44.24 0 -115.31 3.81 -156.87 3.81 c -40.22 0 -124.69 -3.81 -194.41 -3.81 c -18.78 0 -28.16 2.52 -28.16 12.65 c 0 7.59 8.05 10.12 20.11 10.12 c 18.77 0 41.56 1.29 52.29 3.81 c 44.25 8.86 56.32 29.1 57.66 72.13 c 1.37 37.96 1.37 86.05 1.37 149.31 l 0 118.96 c 0 21.51 -5.34 37.96 -25.48 46.83 c -32.18 13.91 -79.11 13.91 -113.97 13.91 c -282.92 0 -466.61 -203.74 -466.61 -475.8 c 0 -155.65 48.28 -250.57 123.36 -310.04 c 93.85 -73.4 191.73 -78.45 265.47 -78.45 c 151.51 0 258.78 58.21 298.99 98.7 c 34.86 35.43 41.57 75.92 45.59 105.03 c 1.37 10.12 4.04 16.45 13.41 16.45 c 10.73 0 14.74 -6.33 14.74 -26.58 c 0 -158.19 9.39 -193.61 9.39 -207.53 c 0 -8.86 -2.67 -13.91 -18.77 -15.19 c -30.84 -1.23 -77.76 -8.86 -105.92 -13.92 c -26.82 -5.04 -144.81 -20.25 -237.33 -20.25 c -112.62 0 -231.95 8.86 -360.67 82.26 c -122.02 69.6 -233.31 211.33 -233.31 413.8 c 0 349.26 290.96 496.06 619.46 496.06 c 104.58 0 235.98 -13.92 323.13 -56.95 c 16.09 -8.85 17.43 -11.38 17.43 -45.55 l 0 -139.2 l -0.03 0 z" stroke-linecap="round"/>
</g>
		<g transform="matrix(0.0378 0 0 0.0378 -0.678 22.067)" id="path164">
<path style="stroke: none; stroke-width: 1; stroke-dasharray: none; stroke-linecap: butt; stroke-dashoffset: 0; stroke-linejoin: miter; stroke-miterlimit: 4; is-custom-font: none; font-file-url: none; fill: rgb(255,255,255); fill-rule: evenodd; opacity: 1;" vector-effect="non-scaling-stroke" transform=" translate(-10482.035, -5583.795)" d="M 10383.49 5695.16 c 0 122.75 0 222.72 -6.7 275.88 c -4.04 36.69 -12.07 58.21 -38.88 63.27 c -12.07 2.52 -28.16 5.04 -48.28 5.04 c -16.08 0 -21.45 3.81 -21.45 10.12 c 0 8.85 9.39 12.65 26.82 12.65 c 53.63 0 138.1 -3.81 168.93 -3.81 c 36.2 0 120.68 3.81 209.16 3.81 c 14.75 0 25.48 -3.81 25.48 -12.65 c 0 -6.33 -6.7 -10.12 -21.45 -10.12 c -20.11 0 -49.6 -2.52 -68.38 -5.04 c -40.23 -5.04 -49.61 -27.85 -53.63 -62.01 c -5.34 -54.42 -5.34 -154.38 -5.34 -277.13 l 0 -222.71 c 0 -192.35 0 -227.78 2.67 -268.28 c 2.67 -44.29 13.4 -65.81 49.6 -72.13 c 16.08 -2.52 26.81 -3.81 40.23 -3.81 c 13.4 0 21.45 -2.52 21.45 -12.65 c 0 -7.59 -10.73 -10.12 -28.16 -10.12 c -50.95 0 -130.06 3.81 -163.58 3.81 c -38.88 0 -123.34 -3.81 -174.3 -3.81 c -21.45 0 -32.18 2.52 -32.18 10.12 c 0 10.12 8.05 12.65 21.45 12.65 c 16.09 0 33.52 1.29 48.27 5.04 c 29.49 6.33 42.91 27.85 45.59 70.87 c 2.67 40.5 2.67 75.93 2.67 268.28 l 0 222.71 l 0.01 0.02 z" stroke-linecap="round"/>
</g>
		<g transform="matrix(0.0378 0 0 0.0378 31.5061 21.946)" id="path166">
<path style="stroke: none; stroke-width: 1; stroke-dasharray: none; stroke-linecap: butt; stroke-dashoffset: 0; stroke-linejoin: miter; stroke-miterlimit: 4; is-custom-font: none; font-file-url: none; fill: rgb(255,255,255); fill-rule: evenodd; opacity: 1;" vector-effect="non-scaling-stroke" transform=" translate(-11333.555, -5580.595)" d="M 11130.42 5695.16 c 0 116.42 0 216.39 -6.7 269.54 c -5.34 36.71 -12.07 64.54 -38.88 69.6 c -12.07 2.52 -28.16 5.04 -48.27 5.04 c -16.09 0 -21.45 3.81 -21.45 10.12 c 0 8.85 9.39 12.65 26.82 12.65 c 53.63 0 138.1 -3.81 168.95 -3.81 c 79.1 0 168.93 7.6 371.39 7.6 c 50.95 0 63.03 0 72.41 -32.91 c 6.71 -25.3 17.43 -111.36 17.43 -140.46 c 0 -12.65 0 -22.77 -10.72 -22.77 c -9.39 0 -12.07 5.04 -14.76 18.98 c -9.39 51.88 -25.48 78.45 -60.33 93.64 c -34.87 15.19 -91.18 15.19 -126.04 15.19 c -136.76 0 -158.21 -18.98 -160.89 -106.3 c -1.37 -36.7 0 -153.11 0 -196.14 l 0 -99.97 c 0 -7.59 1.37 -12.65 8.05 -12.65 c 32.18 0 164.92 1.29 190.39 3.81 c 49.61 5.04 68.38 24.04 75.08 49.35 c 4.04 16.45 4.04 32.9 5.34 45.56 c 0 6.33 2.67 11.38 12.07 11.38 c 12.07 0 12.07 -13.92 12.07 -24.04 c 0 -8.85 2.67 -59.47 5.34 -84.78 c 4.04 -64.53 10.73 -84.78 10.73 -92.38 c 0 -7.59 -4.04 -10.12 -9.39 -10.12 c -6.7 0 -12.06 6.33 -21.45 16.45 c -12.06 12.65 -32.18 16.46 -64.36 18.98 c -30.83 2.52 -185.02 2.52 -214.53 2.52 c -8.04 0 -9.38 -5.04 -9.38 -13.92 l 0 -320.16 c 0 -8.86 2.67 -12.65 9.38 -12.65 c 26.82 0 167.61 2.52 190.4 5.04 c 67.04 7.59 80.45 22.78 89.83 45.56 c 6.71 15.18 8.05 36.7 8.05 45.55 c 0 11.4 2.67 17.72 12.06 17.72 c 9.39 0 12.07 -7.6 13.41 -13.92 c 2.67 -15.19 5.34 -70.86 6.71 -83.52 c 4.04 -58.21 10.73 -73.4 10.73 -82.25 c 0 -6.33 -1.37 -11.4 -8.05 -11.4 c -6.7 0 -14.75 3.81 -21.45 5.04 c -10.73 2.52 -32.18 5.04 -57.65 7.59 c -25.48 1.29 -292.3 1.29 -335.2 1.29 c -37.54 0 -122.01 -3.81 -193.07 -3.81 c -20.11 0 -29.5 2.52 -29.5 11.4 c 0 8.85 8.05 11.38 22.8 11.38 c 18.77 0 41.56 1.29 52.29 3.81 c 44.25 8.86 54.97 29.11 57.65 72.13 c 2.67 40.5 2.67 75.93 2.67 268.28 l 0 222.71 l 0.02 0.05 z" stroke-linecap="round"/>
</g>
		<g transform="matrix(0.0378 0 0 0.0378 69.6493 22.1376)" id="path168">
<path style="stroke: none; stroke-width: 1; stroke-dasharray: none; stroke-linecap: butt; stroke-dashoffset: 0; stroke-linejoin: miter; stroke-miterlimit: 4; is-custom-font: none; font-file-url: none; fill: rgb(255,255,255); fill-rule: evenodd; opacity: 1;" vector-effect="non-scaling-stroke" transform=" translate(-12342.76, -5585.665)" d="M 12286.46 5472.44 c 0 -192.35 0 -227.78 2.67 -268.28 c 2.67 -44.29 13.41 -65.81 49.61 -72.13 c 16.09 -2.52 37.54 -3.81 52.3 -3.81 c 16.08 0 24.13 -2.52 24.13 -11.38 c 0 -8.86 -9.38 -11.4 -28.16 -11.4 c -52.29 0 -150.17 3.81 -182.35 3.81 c -36.2 0 -120.67 -3.81 -183.7 -3.81 c -20.11 0 -29.49 2.52 -29.49 11.4 c 0 8.85 8.05 11.38 22.79 11.38 c 17.42 0 33.53 1.29 44.25 3.81 c 44.24 8.86 54.97 29.11 57.66 72.13 c 2.67 40.5 2.67 75.93 2.67 268.28 l 0 222.71 c 0 116.42 0 216.39 -6.7 269.54 c -5.4 36.71 -12.07 64.54 -38.88 69.6 c -12.07 2.52 -28.16 5.04 -48.27 5.04 c -16.09 0 -21.45 3.81 -21.45 10.12 c 0 8.85 9.39 12.65 26.82 12.65 c 53.63 0 138.1 -3.81 168.94 -3.81 c 108.61 0 197.1 7.6 390.17 7.6 c 69.73 0 76.43 -6.33 84.47 -34.17 c 10.73 -36.7 20.11 -131.6 20.11 -145.53 c 0 -15.19 -1.37 -21.51 -10.73 -21.51 c -10.73 0 -13.4 7.6 -14.75 18.99 c -2.67 24.04 -18.77 59.47 -34.86 75.92 c -33.52 34.17 -85.81 35.43 -156.87 35.43 c -104.59 0 -139.45 -8.86 -162.24 -27.84 c -28.16 -22.77 -28.16 -110.09 -28.16 -272.07 l 0 -222.71 l 0.02 0.04 z" stroke-linecap="round"/>
</g>
		<g transform="matrix(0.0378 0 0 0.0378 105.6452 22.1376)" id="path170">
<path style="stroke: none; stroke-width: 1; stroke-dasharray: none; stroke-linecap: butt; stroke-dashoffset: 0; stroke-linejoin: miter; stroke-miterlimit: 4; is-custom-font: none; font-file-url: none; fill: rgb(255,255,255); fill-rule: evenodd; opacity: 1;" vector-effect="non-scaling-stroke" transform=" translate(-13295.15, -5585.665)" d="M 13238.86 5472.44 c 0 -192.35 0 -227.78 2.67 -268.28 c 2.67 -44.29 13.4 -65.81 49.61 -72.13 c 16.08 -2.52 37.53 -3.81 52.29 -3.81 c 16.09 0 24.13 -2.52 24.13 -11.38 c 0 -8.86 -9.38 -11.4 -28.16 -11.4 c -52.29 0 -150.17 3.81 -182.35 3.81 c -36.2 0 -120.67 -3.81 -183.68 -3.81 c -20.12 0 -29.51 2.52 -29.51 11.4 c 0 8.85 8.05 11.38 22.8 11.38 c 17.43 0 33.52 1.29 44.25 3.81 c 44.25 8.86 54.97 29.11 57.65 72.13 c 2.67 40.5 2.67 75.93 2.67 268.28 l 0 222.71 c 0 116.42 0 216.39 -6.7 269.54 c -5.34 36.71 -12.07 64.54 -38.88 69.6 c -12.07 2.52 -28.16 5.04 -48.27 5.04 c -16.08 0 -21.45 3.81 -21.45 10.12 c 0 8.85 9.38 12.65 26.81 12.65 c 53.63 0 138.11 -3.81 168.95 -3.81 c 108.6 0 197.1 7.6 390.17 7.6 c 69.72 0 76.42 -6.33 84.47 -34.17 c 10.73 -36.7 20.11 -131.6 20.11 -145.53 c 0 -15.19 -1.37 -21.51 -10.73 -21.51 c -10.73 0 -13.4 7.6 -14.75 18.99 c -2.67 24.04 -18.77 59.47 -34.86 75.92 c -33.51 34.17 -85.81 35.43 -156.87 35.43 c -104.59 0 -139.45 -8.86 -162.24 -27.84 c -28.16 -22.77 -28.16 -110.09 -28.16 -272.07 l 0 -222.71 l 0.03 0.04 z" stroke-linecap="round"/>
</g>
		<g transform="matrix(0.0378 0 0 0.0378 148.3575 22.0673)" id="path172">
<path style="stroke: none; stroke-width: 1; stroke-dasharray: none; stroke-linecap: butt; stroke-dashoffset: 0; stroke-linejoin: miter; stroke-miterlimit: 4; is-custom-font: none; font-file-url: none; fill: rgb(255,255,255); fill-rule: evenodd; opacity: 1;" vector-effect="non-scaling-stroke" transform=" translate(-14425.225, -5583.8)" d="M 14417.84 6079.86 c 340.57 0 555.1 -229.05 555.1 -518.84 c 0 -289.78 -207.83 -473.28 -541.68 -473.28 c -402.24 0 -553.75 279.67 -553.75 496.06 c 0 223.98 155.53 496.06 540.34 496.06 l -0.01 0 z m 56.32 -63.28 c -257.44 0 -411.63 -208.79 -411.63 -472 c 0 -315.1 175.64 -396.09 329.83 -396.09 c 219.89 0 392.85 175.9 392.85 459.36 c 0 365.71 -217.21 408.73 -311.06 408.73 l 0.01 0 z" stroke-linecap="round"/>
</g>
		<g transform="matrix(0.0378 0 0 0.0378 200.8734 16.8306)" id="path174">
<path style="stroke: none; stroke-width: 1; stroke-dasharray: none; stroke-linecap: butt; stroke-dashoffset: 0; stroke-linejoin: miter; stroke-miterlimit: 4; is-custom-font: none; font-file-url: none; fill: rgb(255,255,255); fill-rule: evenodd; opacity: 1;" vector-effect="non-scaling-stroke" transform=" translate(-15814.705, -5445.23)" d="M 15992.34 4828.32 c -6.7 -11.38 -9.39 -15.17 -18.77 -15.17 c -4.04 0 -13.4 2.52 -26.82 11.38 c -21.45 12.65 -162.23 111.36 -215.86 159.44 c -6.7 6.33 -12.07 11.4 -12.07 16.46 c 0 5.04 5.34 7.59 8.04 7.59 c 2.67 0 12.07 -5.04 22.79 -10.12 c 49.61 -25.3 155.54 -65.79 229.28 -74.66 c 26.82 -2.52 38.88 0 45.59 0 c 6.71 0 14.75 -3.81 6.71 -18.98 c -16.1 -34.18 -28.16 -58.22 -38.89 -75.94 z m -524.26 530.22 l 4.04 0 c 24.13 24.04 172.96 182.22 319.11 318.9 c 139.44 130.34 311.06 296.11 395.54 372.04 c 14.75 13.91 30.84 27.83 45.59 27.83 c 12.07 0 17.43 -11.38 17.43 -39.23 l 14.75 -798.49 c 1.37 -70.87 12.07 -97.44 49.61 -107.57 c 16.09 -3.81 26.82 -3.81 40.22 -3.81 c 16.09 0 24.14 -3.81 24.14 -11.38 c 0 -10.12 -13.41 -11.4 -30.85 -11.4 c -65.69 0 -116.65 3.81 -131.4 3.81 c -28.16 0 -92.52 -3.81 -162.24 -3.81 c -20.11 0 -34.86 1.29 -34.86 11.4 c 0 7.59 5.34 11.38 21.45 11.38 c 18.77 0 50.95 0 71.06 7.59 c 32.18 12.65 44.25 36.7 45.59 113.89 l 13.41 568.18 l -6.69 0.02 c -22.8 -20.25 -203.8 -202.47 -294.98 -288.52 c -195.76 -183.49 -399.56 -389.76 -415.65 -406.2 c -22.79 -22.78 -34.86 -39.24 -49.61 -39.24 c -13.4 0 -17.42 17.71 -17.42 43.03 l -12.07 749.13 c -1.37 110.09 -6.7 146.79 -41.56 156.91 c -18.78 5.04 -42.91 6.33 -60.34 6.33 c -13.41 0 -21.45 2.52 -21.45 10.12 c 0 11.39 12.07 12.65 29.5 12.65 c 69.72 0 132.74 -3.81 144.8 -3.81 c 25.48 0 79.12 3.81 166.27 3.81 c 18.77 0 30.83 -2.52 30.83 -12.65 c 0 -7.59 -8.05 -10.12 -22.79 -10.12 c -21.45 0 -46.93 -1.29 -69.72 -8.86 c -26.82 -8.86 -44.25 -41.76 -46.92 -140.46 l -14.76 -531.49 l -0.03 0.02 z" stroke-linecap="round"/>
</g>
		<g transform="matrix(0.0378 0 0 0.0378 245.6591 22.0673)" id="path176">
<path style="stroke: none; stroke-width: 1; stroke-dasharray: none; stroke-linecap: butt; stroke-dashoffset: 0; stroke-linejoin: miter; stroke-miterlimit: 4; is-custom-font: none; font-file-url: none; fill: rgb(255,255,255); fill-rule: evenodd; opacity: 1;" vector-effect="non-scaling-stroke" transform=" translate(-16999.695, -5583.8)" d="M 16940.71 6079.86 c 71.06 0 146.15 -11.4 213.18 -51.89 c 96.54 -59.47 126.04 -146.79 126.04 -220.18 c 0 -120.21 -59 -205 -219.9 -322.69 l -37.53 -26.58 c -111.29 -79.73 -142.12 -124.02 -142.12 -182.22 c 0 -75.93 60.33 -130.34 159.54 -130.34 c 87.15 0 126.04 37.96 146.15 62.01 c 28.16 32.9 34.86 72.13 34.86 83.52 c 0 15.19 4.04 22.77 13.41 22.77 c 10.73 0 14.75 -10.12 14.75 -37.96 c 0 -98.71 5.34 -135.4 5.34 -151.85 c 0 -8.86 -6.7 -12.66 -18.77 -15.2 c -34.86 -8.85 -91.17 -21.51 -178.33 -21.51 c -186.36 0 -309.71 99.97 -309.71 239.18 c 0 102.49 50.95 191.08 198.43 299.91 l 61.67 45.55 c 111.29 80.99 131.4 140.47 131.4 202.47 c 0 67.07 -59 144.26 -179.67 144.26 c -83.12 0 -162.22 -34.17 -191.72 -127.81 c -6.7 -21.51 -12.07 -48.08 -12.07 -64.53 c 0 -10.12 -1.37 -21.51 -13.4 -21.51 c -10.73 0 -14.76 13.92 -16.09 32.9 c -1.37 20.25 -6.71 96.18 -6.71 165.77 c 0 27.84 4.04 34.16 25.48 43.02 c 57.65 24.05 117.99 32.91 195.75 32.91 l 0.02 0 z" stroke-linecap="round"/>
</g>
		<g transform="matrix(0.0378 0 0 0.0378 288.9134 22.0665)" id="path178">
<path style="stroke: none; stroke-width: 1; stroke-dasharray: none; stroke-linecap: butt; stroke-dashoffset: 0; stroke-linejoin: miter; stroke-miterlimit: 4; is-custom-font: none; font-file-url: none; fill: rgb(255,255,255); fill-rule: evenodd; opacity: 1;" vector-effect="non-scaling-stroke" transform=" translate(-18144.1, -5583.785)" d="M 17903.45 5472.44 c 0 -192.35 0 -227.78 2.67 -268.28 c 2.67 -44.29 13.41 -65.81 49.61 -72.13 c 16.09 -2.52 24.13 -3.81 37.54 -3.81 c 10.73 0 18.77 -2.52 18.77 -11.38 c 0 -8.86 -9.39 -11.4 -28.15 -11.4 c -45.59 0 -130.06 3.81 -162.24 3.81 c -32.17 0 -116.65 -3.81 -187.71 -3.81 c -20.11 0 -29.5 2.52 -29.5 11.4 c 0 8.85 8.05 11.38 22.79 11.38 c 18.78 0 41.57 1.29 52.29 3.81 c 44.25 8.86 54.97 29.11 57.66 72.13 c 2.67 40.5 2.67 75.93 2.67 268.28 l 0 222.71 c 0 116.42 0 216.39 -6.71 269.54 c -5.34 36.71 -12.06 64.54 -38.88 69.6 c -12.07 2.52 -28.16 5.04 -48.26 5.04 c -16.09 0 -21.45 3.81 -21.45 10.12 c 0 8.85 9.38 12.65 26.82 12.65 c 53.63 0 138.1 -3.81 168.93 -3.81 c 33.52 0 117.99 3.81 193.07 3.81 c 14.76 0 25.48 -3.81 25.48 -12.65 c 0 -6.33 -6.7 -10.12 -17.43 -10.12 c -17.43 0 -46.93 -2.52 -65.7 -5.04 c -33.52 -5.04 -45.58 -32.9 -48.27 -68.34 c -4.04 -54.41 -4.04 -154.38 -4.04 -270.8 l 0 -115.15 l 6.71 0 l 14.74 18.98 c 28.16 36.7 292.29 329.01 351.29 378.37 c 57.65 48.09 93.86 75.92 166.26 82.26 c 28.16 2.52 52.29 2.52 92.52 2.52 l 116.65 0 c 25.48 0 32.18 -3.81 32.18 -12.65 c 0 -7.59 -8.04 -10.12 -17.43 -10.12 c -16.08 0 -42.91 -3.81 -83.13 -18.98 c -72.4 -26.58 -132.74 -83.52 -191.73 -136.67 c -52.29 -46.82 -315.09 -313.83 -363.36 -373.31 c 45.58 -45.55 248.04 -235.37 289.62 -273.34 c 57.65 -53.14 103.23 -79.72 144.8 -94.91 c 25.48 -8.86 59 -13.92 77.77 -13.92 c 13.41 0 20.11 -2.52 20.11 -11.38 c 0 -8.86 -9.39 -11.4 -22.8 -11.4 c -41.56 0 -115.3 3.81 -156.87 3.81 c -36.21 0 -109.95 -3.81 -138.1 -3.81 c -14.76 0 -21.45 2.52 -21.45 11.4 c 0 7.59 5.34 10.12 17.42 12.65 c 13.41 2.52 18.78 11.39 18.78 25.3 c 0 21.51 -29.51 53.15 -67.05 94.91 c -38.88 43.03 -234.63 231.57 -280.22 278.39 l -6.71 0 l 0 -55.68 l 0.04 0.02 z" stroke-linecap="round"/>
</g>
		<g transform="matrix(0.0378 0 0 0.0378 321.6075 22.067)" id="path180">
<path style="stroke: none; stroke-width: 1; stroke-dasharray: none; stroke-linecap: butt; stroke-dashoffset: 0; stroke-linejoin: miter; stroke-miterlimit: 4; is-custom-font: none; font-file-url: none; fill: rgb(255,255,255); fill-rule: evenodd; opacity: 1;" vector-effect="non-scaling-stroke" transform=" translate(-19009.17, -5583.795)" d="M 18910.62 5695.16 c 0 122.75 0 222.72 -6.69 275.88 c -4.04 36.69 -12.07 58.21 -38.88 63.27 c -12.08 2.52 -28.16 5.04 -48.28 5.04 c -16.08 0 -21.45 3.81 -21.45 10.12 c 0 8.85 9.39 12.65 26.82 12.65 c 53.63 0 138.09 -3.81 168.94 -3.81 c 36.2 0 120.68 3.81 209.15 3.81 c 14.77 0 25.49 -3.81 25.49 -12.65 c 0 -6.33 -6.7 -10.12 -21.45 -10.12 c -20.12 0 -49.62 -2.52 -68.4 -5.04 c -40.22 -5.04 -49.6 -27.85 -53.63 -62.01 c -5.34 -54.42 -5.34 -154.38 -5.34 -277.13 l 0 -222.71 c 0 -192.35 0 -227.78 2.67 -268.28 c 2.67 -44.29 13.4 -65.81 49.61 -72.13 c 16.08 -2.52 26.81 -3.81 40.22 -3.81 c 13.41 0 21.45 -2.52 21.45 -12.65 c 0 -7.59 -10.73 -10.12 -28.16 -10.12 c -50.95 0 -130.06 3.81 -163.58 3.81 c -38.88 0 -123.34 -3.81 -174.31 -3.81 c -21.45 0 -32.18 2.52 -32.18 10.12 c 0 10.12 8.06 12.65 21.45 12.65 c 16.1 0 33.53 1.29 48.28 5.04 c 29.5 6.33 42.91 27.85 45.6 70.87 c 2.67 40.5 2.67 75.93 2.67 268.28 l 0 222.71 l 0 0.02 z" stroke-linecap="round"/>
</g>
		<g transform="matrix(0.0378 0 0 0.0378 -107.5986 -40.3434)" id="path182">
<path style="stroke: none; stroke-width: 1; stroke-dasharray: none; stroke-linecap: butt; stroke-dashoffset: 0; stroke-linejoin: miter; stroke-miterlimit: 4; is-custom-font: none; font-file-url: none; fill: rgb(255,255,255); fill-rule: evenodd; opacity: 1;" vector-effect="non-scaling-stroke" transform=" translate(-7653.055, -3932.52)" d="M 7251.53 3997.06 c 0 183.49 50.95 277.13 119.33 335.34 c 97.88 83.52 226.6 87.32 297.66 87.32 c 87.15 0 183.68 -13.92 278.89 -91.11 c 112.62 -91.11 127.37 -240.43 127.37 -380.9 l 0 -135.4 c 0 -192.35 0 -227.77 2.67 -268.27 c 2.67 -44.29 13.41 -65.81 49.61 -72.14 c 16.09 -2.52 24.14 -3.81 38.88 -3.81 c 16.09 0 24.14 -2.52 24.14 -11.38 c 0 -8.86 -9.39 -11.38 -28.15 -11.38 c -52.3 0 -136.77 3.81 -152.86 3.81 c -1.37 0 -85.81 -3.81 -154.19 -3.81 c -18.78 0 -28.16 2.52 -28.16 11.38 c 0 8.86 8.04 11.38 22.79 11.38 c 14.74 0 37.54 1.29 48.27 3.81 c 44.24 8.86 54.96 29.11 57.65 72.14 c 2.67 40.5 2.67 75.92 2.67 268.27 l 0 158.18 c 0 130.35 -4.04 244.24 -77.78 313.83 c -53.63 50.61 -126.03 68.33 -185.03 68.33 c -45.59 0 -107.27 -5.04 -167.6 -51.88 c -65.7 -50.62 -104.59 -127.81 -104.59 -311.3 l 0 -177.17 c 0 -192.35 0 -227.77 2.67 -268.27 c 2.67 -44.29 13.4 -65.81 49.61 -72.14 c 16.08 -2.52 24.13 -3.81 38.88 -3.81 c 13.41 0 21.45 -2.52 21.45 -11.38 c 0 -8.86 -9.39 -11.38 -29.5 -11.38 c -48.26 0 -132.74 3.81 -164.92 3.81 c -40.22 0 -124.69 -3.81 -195.75 -3.81 c -20.11 0 -29.51 2.52 -29.51 11.38 c 0 8.86 8.05 11.38 22.8 11.38 c 18.77 0 41.56 1.29 52.29 3.81 c 44.25 8.86 54.97 29.11 57.66 72.14 c 2.67 40.5 2.67 75.92 2.67 268.27 l 0 184.75 l 0.08 0.01 z" stroke-linecap="round"/>
</g>
		<g transform="matrix(0.0378 0 0 0.0378 -56.706 -40.7976)" id="path184">
<path style="stroke: none; stroke-width: 1; stroke-dasharray: none; stroke-linecap: butt; stroke-dashoffset: 0; stroke-linejoin: miter; stroke-miterlimit: 4; is-custom-font: none; font-file-url: none; fill: rgb(255,255,255); fill-rule: evenodd; opacity: 1;" vector-effect="non-scaling-stroke" transform=" translate(-8999.585, -3920.5)" d="M 8652.96 3698.41 l 4.04 0 c 24.14 24.06 172.97 182.22 319.12 318.9 c 139.44 130.35 311.06 296.12 395.53 372.04 c 14.75 13.91 30.84 27.85 45.6 27.85 c 12.06 0 17.42 -11.4 17.42 -39.24 l 14.76 -798.5 c 1.37 -70.87 12.06 -97.44 49.6 -107.57 c 16.08 -3.81 26.81 -3.81 40.23 -3.81 c 16.09 0 24.13 -3.81 24.13 -11.38 c 0 -10.12 -13.4 -11.38 -30.83 -11.38 c -65.7 0 -116.65 3.81 -131.4 3.81 c -28.16 0 -92.52 -3.81 -162.24 -3.81 c -20.11 0 -34.86 1.29 -34.86 11.38 c 0 7.59 5.34 11.38 21.45 11.38 c 18.77 0 50.95 0 71.06 7.59 c 32.18 12.65 44.25 36.7 45.59 113.89 l 13.4 568.2 l -6.71 0.01 c -22.79 -20.25 -203.8 -202.47 -294.97 -288.53 c -195.76 -183.48 -399.56 -389.75 -415.65 -406.2 c -22.79 -22.78 -34.86 -39.24 -49.61 -39.24 c -13.4 0 -17.43 17.71 -17.43 43.03 l -12.06 749.15 c -1.37 110.08 -6.7 146.78 -41.57 156.91 c -18.77 5.04 -42.91 6.33 -60.33 6.33 c -13.41 0 -21.45 2.52 -21.45 10.12 c 0 11.4 12.06 12.65 29.5 12.65 c 69.72 0 132.74 -3.81 144.8 -3.81 c 25.48 0 79.1 3.81 166.26 3.81 c 18.78 0 30.84 -2.52 30.84 -12.65 c 0 -7.59 -8.05 -10.12 -22.79 -10.12 c -21.45 0 -46.94 -1.29 -69.72 -8.85 c -26.82 -8.86 -44.25 -41.77 -46.94 -140.47 l -14.74 -531.49 l -0.03 0 z" stroke-linecap="round"/>
</g>
		<g transform="matrix(0.0378 0 0 0.0378 -15.0368 -40.6785)" id="path186">
<path style="stroke: none; stroke-width: 1; stroke-dasharray: none; stroke-linecap: butt; stroke-dashoffset: 0; stroke-linejoin: miter; stroke-miterlimit: 4; is-custom-font: none; font-file-url: none; fill: rgb(255,255,255); fill-rule: evenodd; opacity: 1;" vector-effect="non-scaling-stroke" transform=" translate(-10102.125, -3923.655)" d="M 10003.57 4035.03 c 0 122.76 0 222.72 -6.7 275.87 c -4.04 36.7 -12.06 58.21 -38.88 63.27 c -12.07 2.52 -28.16 5.04 -48.27 5.04 c -16.09 0 -21.45 3.81 -21.45 10.12 c 0 8.86 9.39 12.65 26.82 12.65 c 53.63 0 138.1 -3.81 168.94 -3.81 c 36.2 0 120.68 3.81 209.16 3.81 c 14.74 0 25.47 -3.81 25.47 -12.65 c 0 -6.33 -6.7 -10.12 -21.45 -10.12 c -20.11 0 -49.6 -2.52 -68.38 -5.04 c -40.22 -5.04 -49.61 -27.85 -53.63 -62.01 c -5.34 -54.41 -5.34 -154.37 -5.34 -277.13 l 0 -222.72 c 0 -192.35 0 -227.77 2.67 -268.27 c 2.67 -44.29 13.4 -65.81 49.6 -72.14 c 16.09 -2.52 26.82 -3.81 40.23 -3.81 c 13.41 0 21.45 -2.52 21.45 -12.65 c 0 -7.59 -10.73 -10.11 -28.16 -10.11 c -50.95 0 -130.06 3.81 -163.58 3.81 c -38.88 0 -123.35 -3.81 -174.3 -3.81 c -21.45 0 -32.18 2.52 -32.18 10.11 c 0 10.14 8.05 12.65 21.45 12.65 c 16.09 0 33.52 1.29 48.26 5.1 c 29.51 6.33 42.91 27.83 45.6 70.86 c 2.67 40.5 2.67 75.92 2.67 268.27 l 0 222.72 l 0 -0.01 z" stroke-linecap="round"/>
</g>
		<g transform="matrix(0.0378 0 0 0.0378 28.9801 -40.3436)" id="path188">
<path style="stroke: none; stroke-width: 1; stroke-dasharray: none; stroke-linecap: butt; stroke-dashoffset: 0; stroke-linejoin: miter; stroke-miterlimit: 4; is-custom-font: none; font-file-url: none; fill: rgb(255,255,255); fill-rule: evenodd; opacity: 1;" vector-effect="non-scaling-stroke" transform=" translate(-11266.67, -3932.515)" d="M 10915.42 4372.89 c 10.73 32.9 17.43 46.82 30.84 46.82 c 16.09 0 22.79 -15.18 48.27 -67.07 c 57.65 -116.41 235.98 -564.39 261.45 -628.92 l 2.67 0 l 278.88 633.99 c 20.11 46.82 28.16 62 41.57 62 c 17.43 0 24.14 -15.18 38.88 -59.47 c 65.7 -189.83 206.48 -592.24 268.16 -751.68 c 28.16 -72.14 42.9 -122.75 75.08 -134.14 c 14.75 -5.04 33.52 -6.33 46.93 -6.33 c 12.07 0 18.77 -3.81 18.77 -12.65 c 0 -7.59 -9.39 -10.11 -24.14 -10.11 c -44.24 0 -101.9 3.81 -111.28 3.81 c -12.07 0 -68.38 -3.81 -139.45 -3.81 c -20.11 0 -30.83 2.52 -30.83 11.38 c 0 7.59 9.38 11.38 22.79 11.38 c 52.29 0 64.36 17.73 64.36 37.98 c 0 17.71 -4.04 44.29 -13.41 73.39 c -46.92 148.06 -154.19 482.14 -178.33 566.92 l -4.02 0 l -278.89 -636.51 c -17.43 -40.5 -24.14 -59.48 -38.88 -59.48 c -10.73 0 -18.77 10.12 -33.51 45.55 l -260.12 659.3 l -4.04 0 c -24.14 -70.87 -148.83 -454.3 -171.62 -537.82 c -16.09 -56.93 -29.5 -99.96 -29.5 -116.41 c 0 -13.92 2.67 -22.78 14.75 -27.83 c 9.39 -5.1 22.79 -5.1 33.51 -5.1 c 13.41 0 24.14 -1.29 24.14 -11.38 c 0 -7.59 -9.39 -11.38 -28.16 -11.38 c -77.78 0 -136.76 3.81 -148.83 3.81 c -12.07 0 -85.81 -3.81 -155.54 -3.81 c -18.77 0 -29.5 2.52 -29.5 11.38 c 0 10.12 8.05 11.38 21.45 11.38 c 12.07 0 38.88 2.52 53.63 11.4 c 18.77 12.64 33.52 43.01 49.61 89.84 l 284.25 803.56 l 0.06 0.01 z" stroke-linecap="round"/>
</g>
		<g transform="matrix(0.0378 0 0 0.0378 77.4811 -40.8)" id="path190">
<path style="stroke: none; stroke-width: 1; stroke-dasharray: none; stroke-linecap: butt; stroke-dashoffset: 0; stroke-linejoin: miter; stroke-miterlimit: 4; is-custom-font: none; font-file-url: none; fill: rgb(255,255,255); fill-rule: evenodd; opacity: 1;" vector-effect="non-scaling-stroke" transform=" translate(-12549.98, -3920.44)" d="M 12346.85 4035.03 c 0 116.42 0 216.39 -6.7 269.54 c -5.34 36.7 -12.06 64.53 -38.88 69.6 c -12.06 2.52 -28.15 5.04 -48.26 5.04 c -16.1 0 -21.45 3.81 -21.45 10.12 c 0 8.86 9.39 12.65 26.81 12.65 c 53.63 0 138.11 -3.81 168.95 -3.81 c 79.1 0 168.94 7.59 371.4 7.59 c 50.95 0 63.01 0 72.4 -32.9 c 6.7 -25.3 17.43 -111.36 17.43 -140.46 c 0 -12.66 0 -22.78 -10.73 -22.78 c -9.38 0 -12.07 5.1 -14.74 18.99 c -9.39 51.88 -25.48 78.45 -60.34 93.63 c -34.86 15.19 -91.18 15.19 -126.04 15.19 c -136.76 0 -158.21 -18.99 -160.89 -106.31 c -1.37 -36.68 0 -153.11 0 -196.14 l 0 -99.96 c 0 -7.61 1.37 -12.66 8.05 -12.66 c 32.18 0 164.92 1.29 190.4 3.81 c 49.6 5.04 68.38 24.04 75.08 49.35 c 4.04 16.46 4.04 32.89 5.34 45.55 c 0 6.33 2.67 11.4 12.07 11.4 c 12.07 0 12.07 -13.93 12.07 -24.06 c 0 -8.85 2.67 -59.47 5.34 -84.78 c 4.04 -64.53 10.73 -84.78 10.73 -92.37 c 0 -7.59 -4.04 -10.12 -9.39 -10.12 c -6.7 0 -12.07 6.33 -21.45 16.45 c -12.07 12.65 -32.18 16.45 -64.36 18.97 c -30.84 2.52 -185.03 2.52 -214.53 2.52 c -8.05 0 -9.39 -5.04 -9.39 -13.92 l 0 -320.16 c 0 -8.86 2.67 -12.65 9.39 -12.65 c 26.82 0 167.61 2.52 190.39 5.04 c 67.04 7.59 80.44 22.78 89.83 45.55 c 6.7 15.19 8.05 36.7 8.05 45.56 c 0 11.38 2.67 17.71 12.07 17.71 c 9.39 0 12.06 -7.59 13.4 -13.92 c 2.67 -15.19 5.34 -70.86 6.71 -83.52 c 4.04 -58.21 10.73 -73.4 10.73 -82.25 c 0 -6.33 -1.37 -11.4 -8.05 -11.4 c -6.7 0 -14.75 3.81 -21.45 5.04 c -10.73 2.52 -32.18 5.04 -57.65 7.59 c -25.48 1.29 -292.29 1.29 -335.2 1.29 c -37.54 0 -122.02 -3.81 -193.07 -3.81 c -20.11 0 -29.51 2.52 -29.51 11.38 c 0 8.86 8.05 11.38 22.79 11.38 c 18.78 0 41.57 1.29 52.29 3.81 c 44.25 8.86 54.97 29.11 57.65 72.14 c 2.67 40.5 2.67 75.92 2.67 268.27 l 0 222.72 l 0.04 0.1 z" stroke-linecap="round"/>
</g>
		<g transform="matrix(0.0378 0 0 0.0378 122.0363 -40.6783)" id="path192">
<path style="stroke: none; stroke-width: 1; stroke-dasharray: none; stroke-linecap: butt; stroke-dashoffset: 0; stroke-linejoin: miter; stroke-miterlimit: 4; is-custom-font: none; font-file-url: none; fill: rgb(255,255,255); fill-rule: evenodd; opacity: 1;" vector-effect="non-scaling-stroke" transform=" translate(-13728.81, -3923.66)" d="M 13335.29 4035.02 c 0 116.42 0 216.39 -6.7 269.54 c -5.34 36.7 -12.07 64.53 -38.88 69.6 c -12.07 2.52 -28.16 5.04 -48.27 5.04 c -16.09 0 -21.45 3.81 -21.45 10.12 c 0 8.86 9.39 12.65 26.82 12.65 c 53.63 0 138.1 -3.81 163.58 -3.81 c 20.11 0 119.33 3.81 197.1 3.81 c 17.43 0 26.82 -3.81 26.82 -12.65 c 0 -6.33 -5.34 -10.12 -16.09 -10.12 c -16.09 0 -45.6 -2.52 -65.7 -5.04 c -40.22 -5.04 -48.27 -32.9 -52.29 -69.6 c -6.7 -53.16 -6.7 -153.12 -6.7 -270.8 l 0 -17.72 c 0 -7.61 4.04 -10.12 10.73 -10.12 l 116.65 2.52 c 9.39 0 17.43 1.29 24.14 8.86 c 17.43 18.99 79.1 105.03 132.74 174.64 c 75.08 97.44 126.04 156.91 183.69 186.02 c 34.86 17.71 68.38 24.04 143.46 24.04 l 127.34 0 c 16.09 0 25.48 -2.52 25.48 -12.65 c 0 -6.33 -5.34 -10.12 -16.09 -10.12 c -10.73 0 -22.79 -1.29 -37.54 -3.81 c -20.12 -3.81 -75.08 -12.65 -150.17 -86.04 c -79.12 -78.47 -171.62 -191.09 -290.96 -332.82 c 135.43 -103.77 176.98 -189.82 176.98 -283.46 c 0 -84.78 -53.63 -149.32 -91.17 -173.36 c -72.41 -46.82 -162.24 -54.42 -246.71 -54.42 c -41.57 0 -143.46 3.81 -189.06 3.81 c -28.16 0 -112.62 -3.81 -183.69 -3.81 c -20.11 0 -29.49 2.52 -29.49 11.38 c 0 8.86 8.04 11.38 22.79 11.38 c 18.77 0 41.56 1.29 52.29 3.81 c 44.25 8.86 54.97 29.11 57.66 72.14 c 2.67 40.5 2.67 75.92 2.67 268.27 l 0 222.72 l 0.02 0 z m 158.21 -507.44 c 0 -10.12 2.67 -15.19 12.07 -17.71 c 13.41 -3.81 37.54 -5.04 71.06 -5.04 c 79.11 0 205.14 51.87 205.14 231.58 c 0 103.76 -38.88 161.98 -79.1 189.82 c -24.13 16.45 -41.56 21.51 -95.19 21.51 c -33.52 0 -73.75 -3.81 -101.9 -12.64 c -9.38 -3.81 -12.07 -8.86 -12.07 -22.78 l 0 -384.69 l -0.01 -0.05 z" stroke-linecap="round"/>
</g>
		<g transform="matrix(0.0378 0 0 0.0378 157.6004 -40.678)" id="path194">
<path style="stroke: none; stroke-width: 1; stroke-dasharray: none; stroke-linecap: butt; stroke-dashoffset: 0; stroke-linejoin: miter; stroke-miterlimit: 4; is-custom-font: none; font-file-url: none; fill: rgb(255,255,255); fill-rule: evenodd; opacity: 1;" vector-effect="non-scaling-stroke" transform=" translate(-14669.81, -3923.665)" d="M 14610.82 4419.72 c 71.06 0 146.15 -11.38 213.19 -51.88 c 96.54 -59.48 126.03 -146.8 126.03 -220.18 c 0 -120.23 -59 -205.01 -219.89 -322.7 l -37.54 -26.58 c -111.28 -79.73 -142.12 -124.02 -142.12 -182.22 c 0 -75.92 60.34 -130.33 159.55 -130.33 c 87.15 0 126.04 37.96 146.15 62 c 28.15 32.9 34.86 72.13 34.86 83.52 c 0 15.18 4.04 22.77 13.41 22.77 c 10.73 0 14.74 -10.12 14.74 -37.96 c 0 -98.7 5.34 -135.4 5.34 -151.85 c 0 -8.86 -6.7 -12.66 -18.77 -15.18 c -34.86 -8.86 -91.17 -21.52 -178.33 -21.52 c -186.38 0 -309.72 99.97 -309.72 239.17 c 0 102.51 50.95 191.09 198.43 299.91 l 61.68 45.56 c 111.29 80.98 131.4 140.45 131.4 202.47 c 0 67.05 -58.98 144.25 -179.66 144.25 c -83.13 0 -162.24 -34.17 -191.73 -127.81 c -6.7 -21.51 -12.07 -48.08 -12.07 -64.53 c 0 -10.12 -1.37 -21.51 -13.41 -21.51 c -10.73 0 -14.75 13.92 -16.08 32.9 c -1.37 20.25 -6.7 96.17 -6.7 165.77 c 0 27.84 4.04 34.17 25.48 43.01 c 57.65 24.06 117.99 32.91 195.76 32.91 l 0 0.01 z" stroke-linecap="round"/>
</g>
		<g transform="matrix(0.0378 0 0 0.0378 194.3933 -40.6783)" id="path196">
<path style="stroke: none; stroke-width: 1; stroke-dasharray: none; stroke-linecap: butt; stroke-dashoffset: 0; stroke-linejoin: miter; stroke-miterlimit: 4; is-custom-font: none; font-file-url: none; fill: rgb(255,255,255); fill-rule: evenodd; opacity: 1;" vector-effect="non-scaling-stroke" transform=" translate(-15643.26, -3923.66)" d="M 15560.15 4178.03 c 0 20.25 0 73.39 -4.04 126.54 c -2.67 36.7 -14.75 64.53 -41.57 69.6 c -12.06 2.52 -28.15 5.04 -46.92 5.04 c -14.75 0 -21.45 3.81 -21.45 10.12 c 0 10.12 10.73 12.65 29.5 12.65 c 49.6 0 134.08 -3.81 167.59 -3.81 c 36.21 0 120.68 3.81 205.15 3.81 c 17.43 0 28.16 -3.81 28.16 -12.65 c 0 -6.33 -6.7 -10.12 -21.45 -10.12 c -18.77 0 -48.27 -2.52 -67.04 -5.04 c -40.23 -5.04 -52.3 -32.9 -54.97 -69.6 c -4.04 -53.16 -4.04 -106.29 -4.04 -126.54 l 0 -103.77 c 0 -41.75 0 -80.98 20.12 -126.55 c 24.13 -54.42 211.84 -351.79 256.09 -402.41 c 29.51 -34.16 44.25 -49.35 72.41 -62 c 20.11 -10.12 45.58 -15.2 58.98 -15.2 c 14.76 0 25.48 -3.81 25.48 -12.65 c 0 -7.59 -9.39 -10.11 -24.14 -10.11 c -25.47 0 -113.96 3.81 -143.46 3.81 c -38.88 0 -81.78 -3.81 -126.04 -3.81 c -16.08 0 -22.79 2.52 -22.79 11.38 c 0 7.59 12.06 10.12 24.14 12.66 c 22.79 5.04 28.16 18.97 28.16 31.63 c 0 16.45 -5.34 37.96 -18.78 65.81 c -18.77 39.22 -187.7 317.62 -201.11 348 c -21.45 -35.44 -209.16 -340.41 -227.94 -378.38 c -9.38 -17.72 -16.08 -32.89 -16.08 -43.01 c 0 -10.12 6.7 -20.25 18.77 -22.78 c 20.11 -5.04 29.49 -6.33 29.49 -13.92 c 0 -7.59 -6.7 -11.38 -20.11 -11.38 c -60.33 0 -115.31 3.81 -143.46 3.81 c -44.25 0 -144.81 -3.81 -168.95 -3.81 c -16.08 0 -25.48 3.81 -25.48 11.38 c 0 8.86 9.39 11.38 20.12 11.38 c 16.08 0 38.88 7.59 56.31 16.46 c 25.48 13.91 59 45.56 92.52 92.37 c 46.93 65.81 226.6 344.21 235.98 364.45 c 17.42 36.71 30.83 64.55 30.83 132.88 l 0 103.77 l 0.02 -0.01 z" stroke-linecap="round"/>
</g>
		<g transform="matrix(0.0378 0 0 0.0378 234.3944 -41.0135)" id="path198">
<path style="stroke: none; stroke-width: 1; stroke-dasharray: none; stroke-linecap: butt; stroke-dashoffset: 0; stroke-linejoin: miter; stroke-miterlimit: 4; is-custom-font: none; font-file-url: none; fill: rgb(255,255,255); fill-rule: evenodd; opacity: 1;" vector-effect="non-scaling-stroke" transform=" translate(-16701.63, -3914.79)" d="M 16627.84 4035.02 c 0 116.42 0 216.39 -6.7 269.54 c -4.04 36.7 -12.07 64.53 -38.88 69.6 c -12.07 2.52 -28.16 5.04 -48.27 5.04 c -16.09 0 -21.45 3.81 -21.45 10.12 c 0 8.86 9.39 12.65 26.82 12.65 c 53.63 0 138.1 -3.81 168.94 -3.81 c 37.54 0 122.01 3.81 210.51 3.81 c 14.74 0 25.47 -3.81 25.47 -12.65 c 0 -6.33 -6.71 -10.12 -21.44 -10.12 c -20.11 0 -49.61 -2.52 -68.38 -5.04 c -40.22 -5.04 -48.27 -32.9 -52.29 -68.34 c -6.7 -54.42 -6.7 -154.38 -6.7 -270.8 l 0 -518.84 l 168.93 3.81 c 119.33 2.52 155.52 37.96 158.21 70.86 l 1.37 13.92 c 1.37 18.97 4.04 25.3 14.75 25.3 c 8.05 0 10.73 -7.59 12.07 -20.25 c 0 -32.91 4.04 -120.21 4.04 -146.78 c 0 -18.99 -1.37 -26.58 -10.73 -26.58 c -10.73 0 -42.91 12.65 -128.72 12.65 l -530.98 0.02 c -44.25 0 -95.19 -2.52 -134.08 -6.33 c -33.53 -2.52 -46.93 -15.19 -57.66 -15.19 c -8.05 0 -12.07 7.59 -16.09 24.04 c -2.67 10.12 -28.16 125.28 -28.16 145.52 c 0 13.93 2.67 20.25 12.07 20.25 c 8.05 0 12.06 -5.04 14.75 -15.18 c 2.67 -10.12 9.39 -25.32 22.79 -44.29 c 20.11 -27.83 52.29 -34.17 130.06 -36.7 l 199.77 -5.04 l 0 518.84 l -0.02 -0.03 z" stroke-linecap="round"/>
</g>
		<g transform="matrix(0.0378 0 0 0.0378 273.862 -40.8)" id="path200">
<path style="stroke: none; stroke-width: 1; stroke-dasharray: none; stroke-linecap: butt; stroke-dashoffset: 0; stroke-linejoin: miter; stroke-miterlimit: 4; is-custom-font: none; font-file-url: none; fill: rgb(255,255,255); fill-rule: evenodd; opacity: 1;" vector-effect="non-scaling-stroke" transform=" translate(-17745.89, -3920.44)" d="M 17542.75 4035.03 c 0 116.42 0 216.39 -6.7 269.54 c -5.34 36.7 -12.07 64.53 -38.88 69.6 c -12.07 2.52 -28.16 5.04 -48.27 5.04 c -16.09 0 -21.45 3.81 -21.45 10.12 c 0 8.86 9.39 12.65 26.82 12.65 c 53.63 0 138.1 -3.81 168.95 -3.81 c 79.1 0 168.93 7.59 371.39 7.59 c 50.95 0 63.03 0 72.41 -32.9 c 6.71 -25.3 17.44 -111.36 17.44 -140.46 c 0 -12.66 0 -22.78 -10.73 -22.78 c -9.39 0 -12.07 5.1 -14.76 18.99 c -9.39 51.88 -25.48 78.45 -60.33 93.63 c -34.86 15.19 -91.18 15.19 -126.04 15.19 c -136.76 0 -158.21 -18.99 -160.89 -106.31 c -1.37 -36.68 0 -153.11 0 -196.14 l 0 -99.96 c 0 -7.61 1.37 -12.66 8.05 -12.66 c 32.18 0 164.92 1.29 190.39 3.81 c 49.61 5.04 68.38 24.04 75.08 49.35 c 4.04 16.46 4.04 32.89 5.34 45.55 c 0 6.33 2.67 11.4 12.07 11.4 c 12.07 0 12.07 -13.93 12.07 -24.06 c 0 -8.85 2.67 -59.47 5.34 -84.78 c 4.04 -64.53 10.73 -84.78 10.73 -92.37 c 0 -7.59 -4.04 -10.12 -9.39 -10.12 c -6.7 0 -12.06 6.33 -21.45 16.45 c -12.06 12.65 -32.18 16.45 -64.36 18.97 c -30.83 2.52 -185.02 2.52 -214.53 2.52 c -8.04 0 -9.38 -5.04 -9.38 -13.92 l 0 -320.16 c 0 -8.86 2.67 -12.65 9.38 -12.65 c 26.82 0 167.61 2.52 190.4 5.04 c 67.04 7.59 80.45 22.78 89.83 45.55 c 6.71 15.19 8.05 36.7 8.05 45.56 c 0 11.38 2.67 17.71 12.06 17.71 c 9.39 0 12.07 -7.59 13.41 -13.92 c 2.67 -15.19 5.34 -70.86 6.71 -83.52 c 4.04 -58.21 10.73 -73.4 10.73 -82.25 c 0 -6.33 -1.37 -11.4 -8.05 -11.4 c -6.7 0 -14.75 3.81 -21.45 5.04 c -10.73 2.52 -32.18 5.04 -57.65 7.59 c -25.48 1.29 -292.3 1.29 -335.2 1.29 c -37.54 0 -122.01 -3.81 -193.07 -3.81 c -20.11 0 -29.5 2.52 -29.5 11.38 c 0 8.86 8.05 11.38 22.8 11.38 c 18.77 0 41.56 1.29 52.29 3.81 c 44.25 8.86 54.97 29.11 57.66 72.14 c 2.67 40.5 2.67 75.92 2.67 268.27 l 0 222.72 l 0.01 0.1 z" stroke-linecap="round"/>
</g>
		<g transform="matrix(0.0378 0 0 0.0378 313.0716 -41.0135)" id="path202">
<path style="stroke: none; stroke-width: 1; stroke-dasharray: none; stroke-linecap: butt; stroke-dashoffset: 0; stroke-linejoin: miter; stroke-miterlimit: 4; is-custom-font: none; font-file-url: none; fill: rgb(255,255,255); fill-rule: evenodd; opacity: 1;" vector-effect="non-scaling-stroke" transform=" translate(-18783.295, -3914.79)" d="M 18709.51 4035.02 c 0 116.42 0 216.39 -6.7 269.54 c -4.04 36.7 -12.06 64.53 -38.89 69.6 c -12.06 2.52 -28.15 5.04 -48.26 5.04 c -16.1 0 -21.45 3.81 -21.45 10.12 c 0 8.86 9.39 12.65 26.81 12.65 c 53.63 0 138.11 -3.81 168.93 -3.81 c 37.55 0 122.03 3.81 210.51 3.81 c 14.76 0 25.47 -3.81 25.47 -12.65 c 0 -6.33 -6.69 -10.12 -21.45 -10.12 c -20.1 0 -49.59 -2.52 -68.38 -5.04 c -40.22 -5.04 -48.26 -32.9 -52.28 -68.34 c -6.71 -54.42 -6.71 -154.38 -6.71 -270.8 l 0 -518.84 l 168.94 3.81 c 119.34 2.52 155.54 37.96 158.21 70.86 l 1.37 13.92 c 1.37 18.97 4.04 25.3 14.75 25.3 c 8.04 0 10.73 -7.59 12.06 -20.25 c 0 -32.91 4.04 -120.21 4.04 -146.78 c 0 -18.99 -1.37 -26.58 -10.73 -26.58 c -10.72 0 -42.9 12.65 -128.71 12.65 l -530.95 0.02 c -44.25 0 -95.21 -2.52 -134.08 -6.33 c -33.52 -2.52 -46.93 -15.19 -57.66 -15.19 c -8.05 0 -12.06 7.59 -16.08 24.04 c -2.67 10.12 -28.16 125.28 -28.16 145.52 c 0 13.93 2.67 20.25 12.06 20.25 c 8.05 0 12.07 -5.04 14.76 -15.18 c 2.67 -10.12 9.38 -25.32 22.79 -44.29 c 20.11 -27.83 52.29 -34.17 130.05 -36.7 l 199.79 -5.04 l 0 518.84 l -0.05 -0.03 z" stroke-linecap="round"/>
</g>
</g>
</g>
</svg>