<svg xmlns="http://www.w3.org/2000/svg" xmlns:xlink="http://www.w3.org/1999/xlink" width="100" zoomAndPan="magnify" viewBox="0 0 75 74.999997" height="100" preserveAspectRatio="xMidYMid meet" version="1.0"><defs><clipPath id="5df16fed8e"><path d="M 6.609375 0.03125 L 68.109375 0.03125 L 68.109375 74.96875 L 6.609375 74.96875 Z M 6.609375 0.03125 " clip-rule="nonzero"/></clipPath></defs><g clip-path="url(#5df16fed8e)"><path fill="#000000" d="M 15.09375 60.367188 L 15.09375 2.449219 L 65.703125 2.449219 L 65.703125 60.367188 Z M 13.890625 72.550781 C 11.210938 72.550781 9.027344 70.359375 9.027344 67.667969 C 9.027344 64.972656 11.210938 62.785156 13.890625 62.785156 L 61.503906 62.785156 C 60.34375 64.078125 59.636719 65.792969 59.636719 67.667969 C 59.636719 69.542969 60.34375 71.253906 61.507812 72.550781 Z M 9.027344 7.332031 C 9.027344 5.058594 10.589844 3.160156 12.6875 2.617188 L 12.6875 60.488281 C 11.289062 60.722656 10.035156 61.363281 9.027344 62.277344 Z M 66.90625 62.785156 C 67.570312 62.785156 68.109375 62.246094 68.109375 61.578125 L 68.109375 1.238281 C 68.109375 0.570312 67.574219 0.03125 66.90625 0.03125 L 13.890625 0.03125 C 9.882812 0.03125 6.621094 3.304688 6.621094 7.332031 L 6.621094 66.679688 C 6.621094 66.679688 6.492188 68.101562 7.09375 70.183594 C 7.800781 72.632812 10.765625 74.96875 13.890625 74.96875 L 66.90625 74.96875 C 67.570312 74.96875 68.109375 74.429688 68.109375 73.761719 C 68.109375 73.089844 67.574219 72.550781 66.90625 72.550781 C 64.226562 72.550781 62.042969 70.359375 62.042969 67.667969 C 62.042969 64.972656 64.226562 62.785156 66.90625 62.785156 " fill-opacity="1" fill-rule="nonzero"/></g></svg>