<svg xmlns="http://www.w3.org/2000/svg" xmlns:xlink="http://www.w3.org/1999/xlink" width="880" zoomAndPan="magnify" viewBox="0 0 660 576" height="768" preserveAspectRatio="xMidYMid meet" version="1.0"><defs><g/><clipPath id="75bfb4bcfa"><path d="M 4.054688 0 L 580.054688 0 L 580.054688 576 L 4.054688 576 Z M 4.054688 0 " clip-rule="nonzero"/></clipPath><clipPath id="aaecadef34"><path d="M 292.054688 0 C 132.996094 0 4.054688 128.941406 4.054688 288 C 4.054688 447.058594 132.996094 576 292.054688 576 C 451.113281 576 580.054688 447.058594 580.054688 288 C 580.054688 128.941406 451.113281 0 292.054688 0 " clip-rule="nonzero"/></clipPath><clipPath id="63de8773dd"><path d="M 55.472656 51.417969 L 528.636719 51.417969 L 528.636719 524.582031 L 55.472656 524.582031 Z M 55.472656 51.417969 " clip-rule="nonzero"/></clipPath><clipPath id="dd315da335"><path d="M 292.054688 51.417969 C 161.394531 51.417969 55.472656 157.339844 55.472656 288 C 55.472656 418.660156 161.394531 524.582031 292.054688 524.582031 C 422.714844 524.582031 528.636719 418.660156 528.636719 288 C 528.636719 157.339844 422.714844 51.417969 292.054688 51.417969 " clip-rule="nonzero"/></clipPath><clipPath id="ba5ace06ee"><path d="M 165.339844 385.777344 L 187.089844 385.777344 L 187.089844 403.777344 L 165.339844 403.777344 Z M 165.339844 385.777344 " clip-rule="nonzero"/></clipPath><clipPath id="2f2897e0c6"><path d="M 562.195312 51.417969 L 655.945312 51.417969 L 655.945312 145.167969 L 562.195312 145.167969 Z M 562.195312 51.417969 " clip-rule="nonzero"/></clipPath><clipPath id="155691a2e0"><path d="M 609.070312 51.417969 C 583.179688 51.417969 562.195312 72.402344 562.195312 98.292969 C 562.195312 124.179688 583.179688 145.167969 609.070312 145.167969 C 634.957031 145.167969 655.945312 124.179688 655.945312 98.292969 C 655.945312 72.402344 634.957031 51.417969 609.070312 51.417969 " clip-rule="nonzero"/></clipPath><clipPath id="a4054c28da"><path d="M 600.339844 254.589844 L 655.945312 254.589844 L 655.945312 310.195312 L 600.339844 310.195312 Z M 600.339844 254.589844 " clip-rule="nonzero"/></clipPath><clipPath id="66ccbcd66a"><path d="M 628.140625 254.589844 C 612.789062 254.589844 600.339844 267.039062 600.339844 282.394531 C 600.339844 297.75 612.789062 310.195312 628.140625 310.195312 C 643.496094 310.195312 655.945312 297.75 655.945312 282.394531 C 655.945312 267.039062 643.496094 254.589844 628.140625 254.589844 " clip-rule="nonzero"/></clipPath></defs><rect x="-66" width="792" fill="none" y="-57.6" height="691.2" fill-opacity="1"/><rect x="-66" width="792" fill="none" y="-57.6" height="691.2" fill-opacity="1"/><rect x="-66" width="792" fill="none" y="-57.6" height="691.2" fill-opacity="1"/><g clip-path="url(#75bfb4bcfa)"><g clip-path="url(#aaecadef34)"><path fill="#000000" d="M 4.054688 0 L 580.054688 0 L 580.054688 576 L 4.054688 576 Z M 4.054688 0 " fill-opacity="1" fill-rule="nonzero"/></g></g><g fill="#000000" fill-opacity="1"><g transform="translate(287.859804, 290.250008)"><g><path d="M 0.53125 0 L 0.53125 -4.9375 L 1.859375 -4.9375 L 1.859375 -1.078125 L 3.765625 -1.078125 L 3.765625 0 Z M 0.53125 0 "/></g></g></g><g fill="#000000" fill-opacity="1"><g transform="translate(291.870363, 290.250008)"><g><path d="M 4.109375 -1.921875 C 4.109375 -1.296875 3.9375 -0.804688 3.59375 -0.453125 C 3.257812 -0.109375 2.789062 0.0625 2.1875 0.0625 C 1.601562 0.0625 1.140625 -0.113281 0.796875 -0.46875 C 0.460938 -0.820312 0.296875 -1.304688 0.296875 -1.921875 C 0.296875 -2.546875 0.460938 -3.03125 0.796875 -3.375 C 1.128906 -3.71875 1.597656 -3.890625 2.203125 -3.890625 C 2.578125 -3.890625 2.910156 -3.804688 3.203125 -3.640625 C 3.492188 -3.484375 3.71875 -3.253906 3.875 -2.953125 C 4.03125 -2.660156 4.109375 -2.316406 4.109375 -1.921875 Z M 1.625 -1.921875 C 1.625 -1.585938 1.664062 -1.332031 1.75 -1.15625 C 1.84375 -0.988281 1.992188 -0.90625 2.203125 -0.90625 C 2.410156 -0.90625 2.554688 -0.988281 2.640625 -1.15625 C 2.722656 -1.332031 2.765625 -1.585938 2.765625 -1.921875 C 2.765625 -2.242188 2.71875 -2.488281 2.625 -2.65625 C 2.539062 -2.820312 2.394531 -2.90625 2.1875 -2.90625 C 1.988281 -2.90625 1.84375 -2.820312 1.75 -2.65625 C 1.664062 -2.488281 1.625 -2.242188 1.625 -1.921875 Z M 1.625 -1.921875 "/></g></g></g><g clip-path="url(#63de8773dd)"><g clip-path="url(#dd315da335)"><path fill="#ffffff" d="M 55.472656 51.417969 L 528.636719 51.417969 L 528.636719 524.582031 L 55.472656 524.582031 Z M 55.472656 51.417969 " fill-opacity="1" fill-rule="nonzero"/></g></g><g clip-path="url(#2f2897e0c6)"><g clip-path="url(#155691a2e0)"><path fill="#000000" d="M 562.195312 51.417969 L 655.945312 51.417969 L 655.945312 145.167969 L 562.195312 145.167969 Z M 562.195312 51.417969 " fill-opacity="1" fill-rule="nonzero"/></g></g><g clip-path="url(#a4054c28da)"><g clip-path="url(#66ccbcd66a)"><path fill="#000000" d="M 600.339844 254.589844 L 655.945312 254.589844 L 655.945312 310.195312 L 600.339844 310.195312 Z M 600.339844 254.589844 " fill-opacity="1" fill-rule="nonzero"/></g></g></svg>