<svg xmlns="http://www.w3.org/2000/svg" xmlns:xlink="http://www.w3.org/1999/xlink" version="1.1" width="1280" height="720" viewBox="0 0 1280 720" xml:space="preserve">
<desc>Created with Fabric.js 3.5.0</desc>
<defs>
</defs>
<rect x="0" y="0" width="100%" height="100%" fill="none"/>
<g transform="matrix(0.9336 0 0 0.9336 637.6488 358.5024)" id="321946">
<g style="" vector-effect="non-scaling-stroke">
		<g transform="matrix(1.3333 0 0 1.3333 8.5816 0.1779)" clip-path="url(#CLIPPATH_44)">
<clipPath id="CLIPPATH_44">
	<path transform="matrix(1 0 0 1 0 0) translate(-518.6934, -288.1406)" id="c6e46cf818" d="M 518.691406 3.007812 C 361.21875 3.007812 233.558594 130.664062 233.558594 288.140625 C 233.558594 445.617188 361.21875 573.273438 518.691406 573.273438 C 676.167969 573.273438 803.828125 445.617188 803.828125 288.140625 C 803.828125 130.664062 676.167969 3.007812 518.691406 3.007812" stroke-linecap="round"/>
</clipPath>
<path style="stroke: none; stroke-width: 1; stroke-dasharray: none; stroke-linecap: butt; stroke-dashoffset: 0; stroke-linejoin: miter; stroke-miterlimit: 4; is-custom-font: none; font-file-url: none; fill: rgb(0,0,0); fill-rule: nonzero; opacity: 1;" transform=" translate(-518.6934, -288.1406)" d="M 233.558594 3.007812 L 803.828125 3.007812 L 803.828125 573.273438 L 233.558594 573.273438 Z M 233.558594 3.007812" stroke-linecap="round"/>
</g>
		<g transform="matrix(1.3333 0 0 1.3333 4.3187 -0.0849)">
<path style="stroke: none; stroke-width: 1; stroke-dasharray: none; stroke-linecap: butt; stroke-dashoffset: 0; stroke-linejoin: miter; stroke-miterlimit: 4; is-custom-font: none; font-file-url: none; fill: rgb(0,0,0); fill-rule: nonzero; opacity: 1;" transform=" translate(-3.3281, 3.8203)" d="M 0.828125 0 L 0.828125 -7.640625 L 2.890625 -7.640625 L 2.890625 -1.671875 L 5.828125 -1.671875 L 5.828125 0 Z M 0.828125 0" stroke-linecap="round"/>
</g>
		<g transform="matrix(1.3333 0 0 1.3333 12.7259 1.061)">
<path style="stroke: none; stroke-width: 1; stroke-dasharray: none; stroke-linecap: butt; stroke-dashoffset: 0; stroke-linejoin: miter; stroke-miterlimit: 4; is-custom-font: none; font-file-url: none; fill: rgb(0,0,0); fill-rule: nonzero; opacity: 1;" transform=" translate(-3.4063, 2.9609)" d="M 6.359375 -2.96875 C 6.359375 -2 6.097656 -1.242188 5.578125 -0.703125 C 5.054688 -0.160156 4.328125 0.109375 3.390625 0.109375 C 2.492188 0.109375 1.78125 -0.164062 1.25 -0.71875 C 0.71875 -1.28125 0.453125 -2.03125 0.453125 -2.96875 C 0.453125 -3.9375 0.710938 -4.6875 1.234375 -5.21875 C 1.753906 -5.757812 2.484375 -6.03125 3.421875 -6.03125 C 4.003906 -6.03125 4.519531 -5.90625 4.96875 -5.65625 C 5.414062 -5.40625 5.757812 -5.050781 6 -4.59375 C 6.238281 -4.132812 6.359375 -3.59375 6.359375 -2.96875 Z M 2.53125 -2.96875 C 2.53125 -2.457031 2.597656 -2.066406 2.734375 -1.796875 C 2.867188 -1.535156 3.09375 -1.40625 3.40625 -1.40625 C 3.726562 -1.40625 3.953125 -1.535156 4.078125 -1.796875 C 4.210938 -2.066406 4.28125 -2.457031 4.28125 -2.96875 C 4.28125 -3.476562 4.210938 -3.859375 4.078125 -4.109375 C 3.953125 -4.367188 3.726562 -4.5 3.40625 -4.5 C 3.09375 -4.5 2.867188 -4.367188 2.734375 -4.109375 C 2.597656 -3.859375 2.53125 -3.476562 2.53125 -2.96875 Z M 2.53125 -2.96875" stroke-linecap="round"/>
</g>
		<g transform="matrix(1.3333 0 0 1.3333 8.5833 0.177)" clip-path="url(#CLIPPATH_45)">
<clipPath id="CLIPPATH_45">
	<path transform="matrix(1 0 0 1 0 0) translate(-518.6934, -288.1387)" id="295" d="M 518.691406 53.910156 C 389.332031 53.910156 284.464844 158.78125 284.464844 288.140625 C 284.464844 417.5 389.332031 522.367188 518.691406 522.367188 C 648.054688 522.367188 752.921875 417.5 752.921875 288.140625 C 752.921875 158.78125 648.054688 53.910156 518.691406 53.910156" stroke-linecap="round"/>
</clipPath>
<path style="stroke: none; stroke-width: 1; stroke-dasharray: none; stroke-linecap: butt; stroke-dashoffset: 0; stroke-linejoin: miter; stroke-miterlimit: 4; is-custom-font: none; font-file-url: none; fill: rgb(255,255,255); fill-rule: nonzero; opacity: 1;" transform=" translate(-518.6934, -288.1387)" d="M 284.464844 53.910156 L 752.921875 53.910156 L 752.921875 522.367188 L 284.464844 522.367188 Z M 284.464844 53.910156" stroke-linecap="round"/>
</g>
		<g transform="matrix(1.3333 0 0 1.3333 -144.1827 141.2627)" clip-path="url(#CLIPPATH_46)">
<clipPath id="CLIPPATH_46">
	<path transform="matrix(1 0 0 1 0 -0.002) translate(-404.1133, -393.9453)" id="510" d="M 393.238281 384.945312 L 414.988281 384.945312 L 414.988281 402.945312 L 393.238281 402.945312 Z M 393.238281 384.945312" stroke-linecap="round"/>
</clipPath>
<path style="stroke: none; stroke-width: 1; stroke-dasharray: none; stroke-linecap: butt; stroke-dashoffset: 0; stroke-linejoin: miter; stroke-miterlimit: 4; is-custom-font: none; font-file-url: none; fill: rgb(255,255,255); fill-rule: nonzero; opacity: 1;" transform=" translate(-404.1133, -393.9473)" d="M 412.941406 384.957031 L 395.289062 384.957031 C 394.160156 384.957031 393.238281 385.851562 393.238281 386.949219 L 393.238281 400.941406 C 393.238281 402.039062 394.160156 402.9375 395.289062 402.9375 L 412.941406 402.9375 C 414.070312 402.9375 414.988281 402.039062 414.988281 400.941406 L 414.988281 386.949219 C 414.988281 385.851562 414.070312 384.957031 412.941406 384.957031 Z M 394.90625 386.949219 C 394.90625 386.75 395.082031 386.578125 395.289062 386.578125 L 412.941406 386.578125 C 413.148438 386.578125 413.324219 386.75 413.324219 386.949219 L 413.324219 387.207031 L 404.3125 395.980469 C 404.203125 396.082031 404.027344 396.082031 403.917969 395.980469 L 394.90625 387.207031 Z M 413.324219 400.945312 C 413.324219 401.144531 413.148438 401.316406 412.941406 401.316406 L 395.289062 401.316406 C 395.082031 401.316406 394.90625 401.144531 394.90625 400.945312 L 394.90625 389.503906 L 402.738281 397.125 C 403.105469 397.480469 403.59375 397.679688 404.113281 397.679688 C 404.632812 397.679688 405.121094 397.480469 405.488281 397.125 L 413.316406 389.503906 L 413.316406 400.945312 Z M 413.324219 400.945312" stroke-linecap="round"/>
</g>
		<g transform="matrix(1.3333 0 0 1.3333 -106.0612 55.5458)">
<path style="stroke: none; stroke-width: 1; stroke-dasharray: none; stroke-linecap: butt; stroke-dashoffset: 0; stroke-linejoin: miter; stroke-miterlimit: 4; is-custom-font: none; font-file-url: none; fill: rgb(0,0,0); fill-rule: nonzero; opacity: 1;" transform=" translate(-4.9297, 6.1367)" d="M 8.859375 -12.527344 L 7.296875 -12.527344 L 7.296875 -4.847656 C 7.296875 -4.195312 7.296875 -3.738281 7.28125 -3.375 C 7.171875 -1.90625 6.445312 -0.980469 4.992188 -0.980469 C 3.503906 -0.980469 2.6875 -1.796875 2.597656 -3.523438 L 2.558594 -4.265625 L 1 -4.265625 L 1.015625 -3.523438 C 1.070312 -1.179688 2.449219 0.253906 4.773438 0.253906 C 7.425781 0.253906 8.695312 -1.179688 8.824219 -3.285156 C 8.859375 -3.902344 8.859375 -4.320312 8.859375 -4.792969 Z M 8.859375 -12.527344" stroke-linecap="round"/>
</g>
		<g transform="matrix(1.3333 0 0 1.3333 -93.4212 57.3141)">
<path style="stroke: none; stroke-width: 1; stroke-dasharray: none; stroke-linecap: butt; stroke-dashoffset: 0; stroke-linejoin: miter; stroke-miterlimit: 4; is-custom-font: none; font-file-url: none; fill: rgb(0,0,0); fill-rule: nonzero; opacity: 1;" transform=" translate(-4.5371, 4.8105)" d="M 6.863281 0 L 8.421875 0 C 8.277344 -1.070312 8.242188 -1.726562 8.242188 -2.449219 L 8.242188 -6.0625 C 8.242188 -6.480469 8.222656 -6.953125 8.1875 -7.335938 C 8.023438 -8.914062 7.0625 -9.875 4.773438 -9.875 C 2.652344 -9.875 1.214844 -8.695312 1.070312 -6.644531 L 2.703125 -6.644531 C 2.8125 -7.96875 3.46875 -8.679688 4.773438 -8.679688 C 6.0625 -8.679688 6.570312 -8.097656 6.644531 -7.207031 C 6.679688 -6.84375 6.679688 -6.464844 6.679688 -6.046875 L 6.679688 -5.792969 L 6.0625 -5.792969 C 2.289062 -5.792969 0.652344 -4.664062 0.652344 -2.488281 C 0.652344 -0.707031 2.015625 0.253906 3.757812 0.253906 C 4.683594 0.253906 5.519531 0.109375 6.171875 -0.34375 L 6.699219 -1.378906 Z M 4.285156 -0.945312 C 3.105469 -0.945312 2.359375 -1.453125 2.359375 -2.613281 C 2.359375 -4.265625 4.03125 -4.828125 6.679688 -4.628906 L 6.679688 -3.648438 C 6.679688 -1.90625 5.738281 -0.945312 4.285156 -0.945312 Z M 4.285156 -0.945312" stroke-linecap="round"/>
</g>
		<g transform="matrix(1.3333 0 0 1.3333 -79.7599 59.6864)">
<path style="stroke: none; stroke-width: 1; stroke-dasharray: none; stroke-linecap: butt; stroke-dashoffset: 0; stroke-linejoin: miter; stroke-miterlimit: 4; is-custom-font: none; font-file-url: none; fill: rgb(0,0,0); fill-rule: nonzero; opacity: 1;" transform=" translate(-5.1465, 3.0313)" d="M 9.75 -9.621094 L 8.1875 -9.621094 L 8.1875 -8.296875 L 7.550781 -9.242188 C 7.0625 -9.640625 6.046875 -9.875 5.246094 -9.875 C 2.757812 -9.875 0.542969 -8.222656 0.542969 -4.664062 C 0.542969 -1.851562 2.105469 0.253906 4.917969 0.253906 C 5.898438 0.253906 6.917969 -0.0546875 7.460938 -0.507812 L 8.1875 -1.542969 L 8.1875 -1.378906 C 8.1875 -1.089844 8.1875 -0.78125 8.167969 -0.328125 C 8.097656 1.523438 7.0625 2.613281 5.15625 2.613281 C 3.503906 2.613281 2.558594 1.796875 2.433594 0.617188 L 2.414062 0.453125 L 0.835938 0.453125 L 0.851562 0.636719 C 1.054688 2.667969 2.414062 3.8125 5.15625 3.8125 C 7.933594 3.8125 9.640625 2.324219 9.730469 -0.488281 C 9.75 -1.015625 9.75 -1.761719 9.75 -2.359375 Z M 5.15625 -0.945312 C 3.230469 -0.945312 2.25 -2.667969 2.25 -4.847656 C 2.25 -7.371094 3.558594 -8.679688 5.246094 -8.679688 C 6.625 -8.679688 8.1875 -7.734375 8.1875 -5.246094 L 8.1875 -4.71875 C 8.1875 -1.960938 6.753906 -0.945312 5.15625 -0.945312 Z M 5.15625 -0.945312" stroke-linecap="round"/>
</g>
		<g transform="matrix(1.3333 0 0 1.3333 -68.9097 55.2073)">
<path style="stroke: none; stroke-width: 1; stroke-dasharray: none; stroke-linecap: butt; stroke-dashoffset: 0; stroke-linejoin: miter; stroke-miterlimit: 4; is-custom-font: none; font-file-url: none; fill: rgb(0,0,0); fill-rule: nonzero; opacity: 1;" transform=" translate(-2.123, 6.3906)" d="M 2.125 -12.78125 C 1.5625 -12.78125 1.125 -12.34375 1.125 -11.78125 C 1.125 -11.21875 1.5625 -10.785156 2.125 -10.785156 C 2.6875 -10.785156 3.121094 -11.21875 3.121094 -11.78125 C 3.121094 -12.34375 2.6875 -12.78125 2.125 -12.78125 Z M 2.90625 0 L 2.90625 -9.621094 L 1.34375 -9.621094 L 1.34375 0 Z M 2.90625 0" stroke-linecap="round"/>
</g>
		<g transform="matrix(1.3333 0 0 1.3333 -59.4581 57.3141)">
<path style="stroke: none; stroke-width: 1; stroke-dasharray: none; stroke-linecap: butt; stroke-dashoffset: 0; stroke-linejoin: miter; stroke-miterlimit: 4; is-custom-font: none; font-file-url: none; fill: rgb(0,0,0); fill-rule: nonzero; opacity: 1;" transform=" translate(-4.8926, 4.8105)" d="M 9.242188 -5.082031 C 9.242188 -7.898438 7.769531 -9.875 5.121094 -9.875 C 2.488281 -9.875 0.542969 -7.898438 0.542969 -4.773438 C 0.542969 -1.378906 2.414062 0.253906 4.917969 0.253906 C 6.898438 0.253906 8.730469 -0.78125 9.113281 -3.105469 L 7.480469 -3.105469 C 7.261719 -1.726562 6.246094 -0.945312 4.992188 -0.945312 C 3.578125 -0.945312 2.378906 -1.796875 2.234375 -4.339844 L 9.203125 -4.339844 C 9.242188 -4.683594 9.242188 -4.9375 9.242188 -5.082031 Z M 5.082031 -8.679688 C 6.664062 -8.679688 7.515625 -7.535156 7.660156 -5.539062 L 2.25 -5.539062 C 2.433594 -7.589844 3.558594 -8.679688 5.082031 -8.679688 Z M 5.082031 -8.679688" stroke-linecap="round"/>
</g>
		<g transform="matrix(1.3333 0 0 1.3333 -49.1632 54.8817)">
<path style="stroke: none; stroke-width: 1; stroke-dasharray: none; stroke-linecap: butt; stroke-dashoffset: 0; stroke-linejoin: miter; stroke-miterlimit: 4; is-custom-font: none; font-file-url: none; fill: rgb(0,0,0); fill-rule: nonzero; opacity: 1;" transform=" translate(-2.6504, 6.6348)" d="M 2.832031 -13.34375 L 1.269531 -13.34375 L 1.269531 -2.703125 C 1.269531 -2.179688 1.269531 -1.761719 1.289062 -1.433594 C 1.34375 -0.21875 2.015625 0.0742188 2.921875 0.0742188 C 3.285156 0.0742188 3.683594 0.0546875 4.03125 0 L 4.03125 -1.125 C 3.175781 -1.035156 2.886719 -1.234375 2.851562 -1.851562 C 2.832031 -2.160156 2.832031 -2.46875 2.832031 -2.757812 Z M 2.832031 -13.34375" stroke-linecap="round"/>
</g>
		<g transform="matrix(1.3333 0 0 1.3333 -43.1865 54.8817)">
<path style="stroke: none; stroke-width: 1; stroke-dasharray: none; stroke-linecap: butt; stroke-dashoffset: 0; stroke-linejoin: miter; stroke-miterlimit: 4; is-custom-font: none; font-file-url: none; fill: rgb(0,0,0); fill-rule: nonzero; opacity: 1;" transform=" translate(-2.6504, 6.6348)" d="M 2.832031 -13.34375 L 1.269531 -13.34375 L 1.269531 -2.703125 C 1.269531 -2.179688 1.269531 -1.761719 1.289062 -1.433594 C 1.34375 -0.21875 2.015625 0.0742188 2.921875 0.0742188 C 3.285156 0.0742188 3.683594 0.0546875 4.03125 0 L 4.03125 -1.125 C 3.175781 -1.035156 2.886719 -1.234375 2.851562 -1.851562 C 2.832031 -2.160156 2.832031 -2.46875 2.832031 -2.757812 Z M 2.832031 -13.34375" stroke-linecap="round"/>
</g>
		<g transform="matrix(1.3333 0 0 1.3333 -33.6525 57.3141)">
<path style="stroke: none; stroke-width: 1; stroke-dasharray: none; stroke-linecap: butt; stroke-dashoffset: 0; stroke-linejoin: miter; stroke-miterlimit: 4; is-custom-font: none; font-file-url: none; fill: rgb(0,0,0); fill-rule: nonzero; opacity: 1;" transform=" translate(-5.3184, 4.8105)" d="M 5.320312 -9.875 C 2.050781 -9.875 0.542969 -7.535156 0.542969 -4.8125 C 0.542969 -2.105469 2.050781 0.253906 5.320312 0.253906 C 8.585938 0.253906 10.09375 -2.105469 10.09375 -4.8125 C 10.09375 -7.535156 8.585938 -9.875 5.320312 -9.875 Z M 5.320312 -0.945312 C 3.375 -0.945312 2.25 -2.558594 2.25 -4.8125 C 2.25 -7.082031 3.375 -8.679688 5.320312 -8.679688 C 7.261719 -8.679688 8.386719 -7.082031 8.386719 -4.8125 C 8.386719 -2.558594 7.261719 -0.945312 5.320312 -0.945312 Z M 5.320312 -0.945312" stroke-linecap="round"/>
</g>
		<g transform="matrix(1.3333 0 0 1.3333 -19.3504 57.1448)">
<path style="stroke: none; stroke-width: 1; stroke-dasharray: none; stroke-linecap: butt; stroke-dashoffset: 0; stroke-linejoin: miter; stroke-miterlimit: 4; is-custom-font: none; font-file-url: none; fill: rgb(0,0,0); fill-rule: nonzero; opacity: 1;" transform=" translate(-5.4102, 4.9375)" d="M 9.441406 -7.0625 C 9.296875 -8.75 8.113281 -9.875 6.007812 -9.875 C 5.027344 -9.875 4.320312 -9.710938 3.503906 -9.078125 L 2.90625 -7.96875 L 2.90625 -9.621094 L 1.34375 -9.621094 L 1.34375 0 L 2.90625 0 L 2.90625 -4.230469 C 2.90625 -7.515625 4.175781 -8.640625 5.683594 -8.640625 C 7.171875 -8.640625 7.789062 -7.804688 7.878906 -6.679688 C 7.914062 -6.191406 7.914062 -5.792969 7.914062 -5.300781 L 7.914062 0 L 9.476562 0 L 9.476562 -5.410156 C 9.476562 -6.191406 9.476562 -6.570312 9.441406 -7.0625 Z M 9.441406 -7.0625" stroke-linecap="round"/>
</g>
		<g transform="matrix(1.3333 0 0 1.3333 -9.3841 55.2073)">
<path style="stroke: none; stroke-width: 1; stroke-dasharray: none; stroke-linecap: butt; stroke-dashoffset: 0; stroke-linejoin: miter; stroke-miterlimit: 4; is-custom-font: none; font-file-url: none; fill: rgb(0,0,0); fill-rule: nonzero; opacity: 1;" transform=" translate(-2.123, 6.3906)" d="M 2.125 -12.78125 C 1.5625 -12.78125 1.125 -12.34375 1.125 -11.78125 C 1.125 -11.21875 1.5625 -10.785156 2.125 -10.785156 C 2.6875 -10.785156 3.121094 -11.21875 3.121094 -11.78125 C 3.121094 -12.34375 2.6875 -12.78125 2.125 -12.78125 Z M 2.90625 0 L 2.90625 -9.621094 L 1.34375 -9.621094 L 1.34375 0 Z M 2.90625 0" stroke-linecap="round"/>
</g>
		<g transform="matrix(1.3333 0 0 1.3333 -0.4065 57.3141)">
<path style="stroke: none; stroke-width: 1; stroke-dasharray: none; stroke-linecap: butt; stroke-dashoffset: 0; stroke-linejoin: miter; stroke-miterlimit: 4; is-custom-font: none; font-file-url: none; fill: rgb(0,0,0); fill-rule: nonzero; opacity: 1;" transform=" translate(-4.5371, 4.8105)" d="M 6.863281 0 L 8.421875 0 C 8.277344 -1.070312 8.242188 -1.726562 8.242188 -2.449219 L 8.242188 -6.0625 C 8.242188 -6.480469 8.222656 -6.953125 8.1875 -7.335938 C 8.023438 -8.914062 7.0625 -9.875 4.773438 -9.875 C 2.652344 -9.875 1.214844 -8.695312 1.070312 -6.644531 L 2.703125 -6.644531 C 2.8125 -7.96875 3.46875 -8.679688 4.773438 -8.679688 C 6.0625 -8.679688 6.570312 -8.097656 6.644531 -7.207031 C 6.679688 -6.84375 6.679688 -6.464844 6.679688 -6.046875 L 6.679688 -5.792969 L 6.0625 -5.792969 C 2.289062 -5.792969 0.652344 -4.664062 0.652344 -2.488281 C 0.652344 -0.707031 2.015625 0.253906 3.757812 0.253906 C 4.683594 0.253906 5.519531 0.109375 6.171875 -0.34375 L 6.699219 -1.378906 Z M 4.285156 -0.945312 C 3.105469 -0.945312 2.359375 -1.453125 2.359375 -2.613281 C 2.359375 -4.265625 4.03125 -4.828125 6.679688 -4.628906 L 6.679688 -3.648438 C 6.679688 -1.90625 5.738281 -0.945312 4.285156 -0.945312 Z M 4.285156 -0.945312" stroke-linecap="round"/>
</g>
		<g transform="matrix(1.3333 0 0 1.3333 13.6064 57.1448)">
<path style="stroke: none; stroke-width: 1; stroke-dasharray: none; stroke-linecap: butt; stroke-dashoffset: 0; stroke-linejoin: miter; stroke-miterlimit: 4; is-custom-font: none; font-file-url: none; fill: rgb(0,0,0); fill-rule: nonzero; opacity: 1;" transform=" translate(-5.4102, 4.9375)" d="M 9.441406 -7.0625 C 9.296875 -8.75 8.113281 -9.875 6.007812 -9.875 C 5.027344 -9.875 4.320312 -9.710938 3.503906 -9.078125 L 2.90625 -7.96875 L 2.90625 -9.621094 L 1.34375 -9.621094 L 1.34375 0 L 2.90625 0 L 2.90625 -4.230469 C 2.90625 -7.515625 4.175781 -8.640625 5.683594 -8.640625 C 7.171875 -8.640625 7.789062 -7.804688 7.878906 -6.679688 C 7.914062 -6.191406 7.914062 -5.792969 7.914062 -5.300781 L 7.914062 0 L 9.476562 0 L 9.476562 -5.410156 C 9.476562 -6.191406 9.476562 -6.570312 9.441406 -7.0625 Z M 9.441406 -7.0625" stroke-linecap="round"/>
</g>
		<g transform="matrix(1.3333 0 0 1.3333 34.5128 55.5458)">
<path style="stroke: none; stroke-width: 1; stroke-dasharray: none; stroke-linecap: butt; stroke-dashoffset: 0; stroke-linejoin: miter; stroke-miterlimit: 4; is-custom-font: none; font-file-url: none; fill: rgb(0,0,0); fill-rule: nonzero; opacity: 1;" transform=" translate(-6.4082, 6.1367)" d="M 11.109375 -12.527344 L 9.550781 -12.527344 L 9.550781 -4.773438 C 9.550781 -4.375 9.550781 -3.992188 9.511719 -3.667969 C 9.367188 -2.085938 8.332031 -0.980469 6.410156 -0.980469 C 4.484375 -0.980469 3.449219 -2.085938 3.304688 -3.667969 C 3.269531 -3.992188 3.269531 -4.375 3.269531 -4.773438 L 3.269531 -12.527344 L 1.707031 -12.527344 L 1.707031 -4.628906 C 1.707031 -4.230469 1.707031 -3.867188 1.742188 -3.503906 C 1.925781 -1.417969 3.339844 0.253906 6.410156 0.253906 C 9.476562 0.253906 10.894531 -1.417969 11.074219 -3.503906 C 11.109375 -3.867188 11.109375 -4.230469 11.109375 -4.628906 Z M 11.109375 -12.527344" stroke-linecap="round"/>
</g>
		<g transform="matrix(1.3333 0 0 1.3333 49.6847 57.1448)">
<path style="stroke: none; stroke-width: 1; stroke-dasharray: none; stroke-linecap: butt; stroke-dashoffset: 0; stroke-linejoin: miter; stroke-miterlimit: 4; is-custom-font: none; font-file-url: none; fill: rgb(0,0,0); fill-rule: nonzero; opacity: 1;" transform=" translate(-5.4102, 4.9375)" d="M 9.441406 -7.0625 C 9.296875 -8.75 8.113281 -9.875 6.007812 -9.875 C 5.027344 -9.875 4.320312 -9.710938 3.503906 -9.078125 L 2.90625 -7.96875 L 2.90625 -9.621094 L 1.34375 -9.621094 L 1.34375 0 L 2.90625 0 L 2.90625 -4.230469 C 2.90625 -7.515625 4.175781 -8.640625 5.683594 -8.640625 C 7.171875 -8.640625 7.789062 -7.804688 7.878906 -6.679688 C 7.914062 -6.191406 7.914062 -5.792969 7.914062 -5.300781 L 7.914062 0 L 9.476562 0 L 9.476562 -5.410156 C 9.476562 -6.191406 9.476562 -6.570312 9.441406 -7.0625 Z M 9.441406 -7.0625" stroke-linecap="round"/>
</g>
		<g transform="matrix(1.3333 0 0 1.3333 59.651 55.2073)">
<path style="stroke: none; stroke-width: 1; stroke-dasharray: none; stroke-linecap: butt; stroke-dashoffset: 0; stroke-linejoin: miter; stroke-miterlimit: 4; is-custom-font: none; font-file-url: none; fill: rgb(0,0,0); fill-rule: nonzero; opacity: 1;" transform=" translate(-2.123, 6.3906)" d="M 2.125 -12.78125 C 1.5625 -12.78125 1.125 -12.34375 1.125 -11.78125 C 1.125 -11.21875 1.5625 -10.785156 2.125 -10.785156 C 2.6875 -10.785156 3.121094 -11.21875 3.121094 -11.78125 C 3.121094 -12.34375 2.6875 -12.78125 2.125 -12.78125 Z M 2.90625 0 L 2.90625 -9.621094 L 1.34375 -9.621094 L 1.34375 0 Z M 2.90625 0" stroke-linecap="round"/>
</g>
		<g transform="matrix(1.3333 0 0 1.3333 68.7406 57.3141)">
<path style="stroke: none; stroke-width: 1; stroke-dasharray: none; stroke-linecap: butt; stroke-dashoffset: 0; stroke-linejoin: miter; stroke-miterlimit: 4; is-custom-font: none; font-file-url: none; fill: rgb(0,0,0); fill-rule: nonzero; opacity: 1;" transform=" translate(-4.6211, 4.8105)" d="M 9.222656 -9.621094 L 7.570312 -9.621094 L 4.683594 -1.144531 L 1.742188 -9.621094 L 0.0195312 -9.621094 L 3.667969 0 L 5.574219 0 Z M 9.222656 -9.621094" stroke-linecap="round"/>
</g>
		<g transform="matrix(1.3333 0 0 1.3333 81.5401 57.3141)">
<path style="stroke: none; stroke-width: 1; stroke-dasharray: none; stroke-linecap: butt; stroke-dashoffset: 0; stroke-linejoin: miter; stroke-miterlimit: 4; is-custom-font: none; font-file-url: none; fill: rgb(0,0,0); fill-rule: nonzero; opacity: 1;" transform=" translate(-4.8926, 4.8105)" d="M 9.242188 -5.082031 C 9.242188 -7.898438 7.769531 -9.875 5.121094 -9.875 C 2.488281 -9.875 0.542969 -7.898438 0.542969 -4.773438 C 0.542969 -1.378906 2.414062 0.253906 4.917969 0.253906 C 6.898438 0.253906 8.730469 -0.78125 9.113281 -3.105469 L 7.480469 -3.105469 C 7.261719 -1.726562 6.246094 -0.945312 4.992188 -0.945312 C 3.578125 -0.945312 2.378906 -1.796875 2.234375 -4.339844 L 9.203125 -4.339844 C 9.242188 -4.683594 9.242188 -4.9375 9.242188 -5.082031 Z M 5.082031 -8.679688 C 6.664062 -8.679688 7.515625 -7.535156 7.660156 -5.539062 L 2.25 -5.539062 C 2.433594 -7.589844 3.558594 -8.679688 5.082031 -8.679688 Z M 5.082031 -8.679688" stroke-linecap="round"/>
</g>
		<g transform="matrix(1.3333 0 0 1.3333 93.0459 57.1683)">
<path style="stroke: none; stroke-width: 1; stroke-dasharray: none; stroke-linecap: butt; stroke-dashoffset: 0; stroke-linejoin: miter; stroke-miterlimit: 4; is-custom-font: none; font-file-url: none; fill: rgb(0,0,0); fill-rule: nonzero; opacity: 1;" transform=" translate(-3.5586, 4.9199)" d="M 5.121094 -9.839844 C 4.664062 -9.839844 4.175781 -9.675781 3.777344 -9.402344 L 2.90625 -8.113281 L 2.90625 -9.621094 L 1.34375 -9.621094 L 1.34375 0 L 2.90625 0 L 2.90625 -5.484375 C 2.90625 -7.679688 4.140625 -8.640625 5.773438 -8.53125 L 5.773438 -9.710938 C 5.589844 -9.804688 5.375 -9.839844 5.121094 -9.839844 Z M 5.121094 -9.839844" stroke-linecap="round"/>
</g>
		<g transform="matrix(1.3333 0 0 1.3333 101.7706 57.3141)">
<path style="stroke: none; stroke-width: 1; stroke-dasharray: none; stroke-linecap: butt; stroke-dashoffset: 0; stroke-linejoin: miter; stroke-miterlimit: 4; is-custom-font: none; font-file-url: none; fill: rgb(0,0,0); fill-rule: nonzero; opacity: 1;" transform=" translate(-4.1133, 4.8105)" d="M 4.140625 -9.875 C 2.160156 -9.875 0.816406 -8.824219 0.816406 -7.0625 C 0.816406 -5.375 2.195312 -4.664062 3.921875 -4.195312 C 5.539062 -3.757812 6.191406 -3.269531 6.191406 -2.34375 C 6.191406 -1.417969 5.355469 -0.945312 4.320312 -0.945312 C 3.214844 -0.945312 2.324219 -1.433594 2.070312 -2.832031 L 0.4375 -2.832031 C 0.726562 -0.652344 2.234375 0.253906 4.210938 0.253906 C 6.246094 0.253906 7.789062 -0.652344 7.789062 -2.46875 C 7.789062 -4.101562 6.734375 -4.972656 4.519531 -5.554688 C 3.214844 -5.898438 2.414062 -6.28125 2.414062 -7.242188 C 2.414062 -8.078125 2.921875 -8.679688 4.011719 -8.679688 C 5.136719 -8.679688 5.828125 -8.007812 6.046875 -6.878906 L 7.679688 -6.878906 C 7.480469 -8.640625 6.300781 -9.875 4.140625 -9.875 Z M 4.140625 -9.875" stroke-linecap="round"/>
</g>
		<g transform="matrix(1.3333 0 0 1.3333 110.2235 55.2073)">
<path style="stroke: none; stroke-width: 1; stroke-dasharray: none; stroke-linecap: butt; stroke-dashoffset: 0; stroke-linejoin: miter; stroke-miterlimit: 4; is-custom-font: none; font-file-url: none; fill: rgb(0,0,0); fill-rule: nonzero; opacity: 1;" transform=" translate(-2.123, 6.3906)" d="M 2.125 -12.78125 C 1.5625 -12.78125 1.125 -12.34375 1.125 -11.78125 C 1.125 -11.21875 1.5625 -10.785156 2.125 -10.785156 C 2.6875 -10.785156 3.121094 -11.21875 3.121094 -11.78125 C 3.121094 -12.34375 2.6875 -12.78125 2.125 -12.78125 Z M 2.90625 0 L 2.90625 -9.621094 L 1.34375 -9.621094 L 1.34375 0 Z M 2.90625 0" stroke-linecap="round"/>
</g>
		<g transform="matrix(1.3333 0 0 1.3333 116.7351 55.9703)">
<path style="stroke: none; stroke-width: 1; stroke-dasharray: none; stroke-linecap: butt; stroke-dashoffset: 0; stroke-linejoin: miter; stroke-miterlimit: 4; is-custom-font: none; font-file-url: none; fill: rgb(0,0,0); fill-rule: nonzero; opacity: 1;" transform=" translate(-2.6875, 5.8184)" d="M 3.214844 -8.351562 L 5.011719 -8.351562 L 5.011719 -9.550781 L 3.214844 -9.550781 L 3.214844 -11.78125 L 1.652344 -11.78125 L 1.652344 -9.550781 L 0.363281 -9.550781 L 0.363281 -8.351562 L 1.652344 -8.351562 L 1.652344 -2.742188 C 1.652344 -2.195312 1.652344 -1.796875 1.671875 -1.542969 C 1.761719 -0.34375 2.378906 0.144531 3.578125 0.144531 C 4.011719 0.144531 4.449219 0.128906 4.902344 0.0546875 L 4.902344 -1.089844 C 3.683594 -0.945312 3.304688 -1.144531 3.230469 -2.070312 C 3.214844 -2.324219 3.214844 -2.488281 3.214844 -2.8125 Z M 3.214844 -8.351562" stroke-linecap="round"/>
</g>
		<g transform="matrix(1.3333 0 0 1.3333 126.874 59.8557)">
<path style="stroke: none; stroke-width: 1; stroke-dasharray: none; stroke-linecap: butt; stroke-dashoffset: 0; stroke-linejoin: miter; stroke-miterlimit: 4; is-custom-font: none; font-file-url: none; fill: rgb(0,0,0); fill-rule: nonzero; opacity: 1;" transform=" translate(-4.6113, 2.9043)" d="M 9.203125 -9.621094 L 7.496094 -9.621094 L 4.648438 -1.160156 L 1.777344 -9.621094 L 0.0195312 -9.621094 L 3.847656 0.488281 L 3.722656 0.835938 C 3.230469 2.105469 2.597656 2.523438 1.632812 2.523438 C 1.46875 2.523438 1.308594 2.523438 1.070312 2.503906 L 1.070312 3.777344 C 1.308594 3.8125 1.523438 3.8125 1.871094 3.8125 C 3.429688 3.8125 4.464844 2.851562 5.246094 0.816406 Z M 9.203125 -9.621094" stroke-linecap="round"/>
</g>
		<g transform="matrix(1.3333 0 0 1.3333 -41.4403 88.6912)">
<path style="stroke: none; stroke-width: 1; stroke-dasharray: none; stroke-linecap: butt; stroke-dashoffset: 0; stroke-linejoin: miter; stroke-miterlimit: 4; is-custom-font: none; font-file-url: none; fill: rgb(0,0,0); fill-rule: nonzero; opacity: 1;" transform=" translate(-2.123, 6.3906)" d="M 2.125 -12.78125 C 1.5625 -12.78125 1.125 -12.34375 1.125 -11.78125 C 1.125 -11.21875 1.5625 -10.785156 2.125 -10.785156 C 2.6875 -10.785156 3.121094 -11.21875 3.121094 -11.78125 C 3.121094 -12.34375 2.6875 -12.78125 2.125 -12.78125 Z M 2.90625 0 L 2.90625 -9.621094 L 1.34375 -9.621094 L 1.34375 0 Z M 2.90625 0" stroke-linecap="round"/>
</g>
		<g transform="matrix(1.3333 0 0 1.3333 -31.2985 90.6287)">
<path style="stroke: none; stroke-width: 1; stroke-dasharray: none; stroke-linecap: butt; stroke-dashoffset: 0; stroke-linejoin: miter; stroke-miterlimit: 4; is-custom-font: none; font-file-url: none; fill: rgb(0,0,0); fill-rule: nonzero; opacity: 1;" transform=" translate(-5.4102, 4.9375)" d="M 9.441406 -7.0625 C 9.296875 -8.75 8.113281 -9.875 6.007812 -9.875 C 5.027344 -9.875 4.320312 -9.710938 3.503906 -9.078125 L 2.90625 -7.96875 L 2.90625 -9.621094 L 1.34375 -9.621094 L 1.34375 0 L 2.90625 0 L 2.90625 -4.230469 C 2.90625 -7.515625 4.175781 -8.640625 5.683594 -8.640625 C 7.171875 -8.640625 7.789062 -7.804688 7.878906 -6.679688 C 7.914062 -6.191406 7.914062 -5.792969 7.914062 -5.300781 L 7.914062 0 L 9.476562 0 L 9.476562 -5.410156 C 9.476562 -6.191406 9.476562 -6.570312 9.441406 -7.0625 Z M 9.441406 -7.0625" stroke-linecap="round"/>
</g>
		<g transform="matrix(1.3333 0 0 1.3333 -10.4417 88.8604)">
<path style="stroke: none; stroke-width: 1; stroke-dasharray: none; stroke-linecap: butt; stroke-dashoffset: 0; stroke-linejoin: miter; stroke-miterlimit: 4; is-custom-font: none; font-file-url: none; fill: rgb(0,0,0); fill-rule: nonzero; opacity: 1;" transform=" translate(-6.3711, 6.2637)" d="M 6.773438 -12.78125 C 3.214844 -12.78125 0.851562 -10.019531 0.851562 -6.207031 C 0.851562 -2.542969 2.886719 0.253906 6.535156 0.253906 C 9.839844 0.253906 11.527344 -1.726562 11.765625 -3.992188 L 11.78125 -4.175781 L 10.222656 -4.175781 L 10.183594 -3.992188 C 9.820312 -2.195312 8.714844 -0.980469 6.625 -0.980469 C 4.15625 -0.980469 2.597656 -3.195312 2.597656 -6.28125 C 2.597656 -9.3125 4.175781 -11.546875 6.734375 -11.546875 C 8.824219 -11.546875 9.929688 -10.328125 10.292969 -8.53125 L 10.328125 -8.351562 L 11.890625 -8.351562 L 11.875 -8.53125 C 11.617188 -10.984375 9.949219 -12.78125 6.773438 -12.78125 Z M 6.773438 -12.78125" stroke-linecap="round"/>
</g>
		<g transform="matrix(1.3333 0 0 1.3333 2.7225 90.6522)">
<path style="stroke: none; stroke-width: 1; stroke-dasharray: none; stroke-linecap: butt; stroke-dashoffset: 0; stroke-linejoin: miter; stroke-miterlimit: 4; is-custom-font: none; font-file-url: none; fill: rgb(0,0,0); fill-rule: nonzero; opacity: 1;" transform=" translate(-3.5586, 4.9199)" d="M 5.121094 -9.839844 C 4.664062 -9.839844 4.175781 -9.675781 3.777344 -9.402344 L 2.90625 -8.113281 L 2.90625 -9.621094 L 1.34375 -9.621094 L 1.34375 0 L 2.90625 0 L 2.90625 -5.484375 C 2.90625 -7.679688 4.140625 -8.640625 5.773438 -8.53125 L 5.773438 -9.710938 C 5.589844 -9.804688 5.375 -9.839844 5.121094 -9.839844 Z M 5.121094 -9.839844" stroke-linecap="round"/>
</g>
		<g transform="matrix(1.3333 0 0 1.3333 12.0122 90.798)">
<path style="stroke: none; stroke-width: 1; stroke-dasharray: none; stroke-linecap: butt; stroke-dashoffset: 0; stroke-linejoin: miter; stroke-miterlimit: 4; is-custom-font: none; font-file-url: none; fill: rgb(0,0,0); fill-rule: nonzero; opacity: 1;" transform=" translate(-4.5371, 4.8105)" d="M 6.863281 0 L 8.421875 0 C 8.277344 -1.070312 8.242188 -1.726562 8.242188 -2.449219 L 8.242188 -6.0625 C 8.242188 -6.480469 8.222656 -6.953125 8.1875 -7.335938 C 8.023438 -8.914062 7.0625 -9.875 4.773438 -9.875 C 2.652344 -9.875 1.214844 -8.695312 1.070312 -6.644531 L 2.703125 -6.644531 C 2.8125 -7.96875 3.46875 -8.679688 4.773438 -8.679688 C 6.0625 -8.679688 6.570312 -8.097656 6.644531 -7.207031 C 6.679688 -6.84375 6.679688 -6.464844 6.679688 -6.046875 L 6.679688 -5.792969 L 6.0625 -5.792969 C 2.289062 -5.792969 0.652344 -4.664062 0.652344 -2.488281 C 0.652344 -0.707031 2.015625 0.253906 3.757812 0.253906 C 4.683594 0.253906 5.519531 0.109375 6.171875 -0.34375 L 6.699219 -1.378906 Z M 4.285156 -0.945312 C 3.105469 -0.945312 2.359375 -1.453125 2.359375 -2.613281 C 2.359375 -4.265625 4.03125 -4.828125 6.679688 -4.628906 L 6.679688 -3.648438 C 6.679688 -1.90625 5.738281 -0.945312 4.285156 -0.945312 Z M 4.285156 -0.945312" stroke-linecap="round"/>
</g>
		<g transform="matrix(1.3333 0 0 1.3333 25.2621 90.798)">
<path style="stroke: none; stroke-width: 1; stroke-dasharray: none; stroke-linecap: butt; stroke-dashoffset: 0; stroke-linejoin: miter; stroke-miterlimit: 4; is-custom-font: none; font-file-url: none; fill: rgb(0,0,0); fill-rule: nonzero; opacity: 1;" transform=" translate(-4.8379, 4.8105)" d="M 5.066406 -9.875 C 2.652344 -9.875 0.542969 -8.042969 0.542969 -4.792969 C 0.542969 -1.269531 2.394531 0.253906 4.828125 0.253906 C 6.972656 0.253906 8.570312 -0.835938 9.039062 -3.066406 L 7.40625 -3.066406 C 7.082031 -1.671875 6.191406 -0.945312 4.917969 -0.945312 C 3.484375 -0.945312 2.25 -2.105469 2.25 -4.902344 C 2.25 -7.496094 3.523438 -8.679688 5.027344 -8.679688 C 6.316406 -8.679688 7.152344 -7.933594 7.496094 -6.390625 L 9.132812 -6.390625 C 8.839844 -8.496094 7.371094 -9.875 5.066406 -9.875 Z M 5.066406 -9.875" stroke-linecap="round"/>
</g>
		<g transform="matrix(1.3333 0 0 1.3333 38.7031 90.798)">
<path style="stroke: none; stroke-width: 1; stroke-dasharray: none; stroke-linecap: butt; stroke-dashoffset: 0; stroke-linejoin: miter; stroke-miterlimit: 4; is-custom-font: none; font-file-url: none; fill: rgb(0,0,0); fill-rule: nonzero; opacity: 1;" transform=" translate(-5.3184, 4.8105)" d="M 5.320312 -9.875 C 2.050781 -9.875 0.542969 -7.535156 0.542969 -4.8125 C 0.542969 -2.105469 2.050781 0.253906 5.320312 0.253906 C 8.585938 0.253906 10.09375 -2.105469 10.09375 -4.8125 C 10.09375 -7.535156 8.585938 -9.875 5.320312 -9.875 Z M 5.320312 -0.945312 C 3.375 -0.945312 2.25 -2.558594 2.25 -4.8125 C 2.25 -7.082031 3.375 -8.679688 5.320312 -8.679688 C 7.261719 -8.679688 8.386719 -7.082031 8.386719 -4.8125 C 8.386719 -2.558594 7.261719 -0.945312 5.320312 -0.945312 Z M 5.320312 -0.945312" stroke-linecap="round"/>
</g>
		<g transform="matrix(1.3333 0 0 1.3333 55.2317 90.7981)">
<path style="stroke: none; stroke-width: 1; stroke-dasharray: none; stroke-linecap: butt; stroke-dashoffset: 0; stroke-linejoin: miter; stroke-miterlimit: 4; is-custom-font: none; font-file-url: none; fill: rgb(0,0,0); fill-rule: nonzero; opacity: 1;" transform=" translate(-7.0801, 4.8105)" d="M 14.140625 -9.621094 L 12.472656 -9.621094 L 10.238281 -1.542969 L 8.097656 -9.621094 L 6.15625 -9.621094 L 4.046875 -1.488281 L 1.816406 -9.621094 L 0.0195312 -9.621094 L 3.085938 0 L 4.9375 0 L 7.082031 -8.097656 L 9.222656 0 L 11.074219 0 Z M 14.140625 -9.621094" stroke-linecap="round"/>
</g>
		<g transform="matrix(1.3333 0 0 1.3333 -90.0837 119.63)" clip-path="url(#CLIPPATH_47)">
<clipPath id="CLIPPATH_47">
	<path transform="matrix(1 0 0 1 0 0) translate(-444.6875, -377.7227)" id="585" d="M 435.3125 369.472656 L 454.0625 369.472656 L 454.0625 385.972656 L 435.3125 385.972656 Z M 435.3125 369.472656" stroke-linecap="round"/>
</clipPath>
<path style="stroke: none; stroke-width: 1; stroke-dasharray: none; stroke-linecap: butt; stroke-dashoffset: 0; stroke-linejoin: miter; stroke-miterlimit: 4; is-custom-font: none; font-file-url: none; fill: rgb(0,0,0); fill-rule: nonzero; opacity: 1;" transform=" translate(-444.6875, -377.7227)" d="M 452.292969 369.480469 L 437.078125 369.480469 C 436.105469 369.480469 435.3125 370.300781 435.3125 371.308594 L 435.3125 384.136719 C 435.3125 385.144531 436.105469 385.964844 437.078125 385.964844 L 452.292969 385.964844 C 453.269531 385.964844 454.0625 385.144531 454.0625 384.136719 L 454.0625 371.308594 C 454.0625 370.300781 453.269531 369.480469 452.292969 369.480469 Z M 436.75 371.308594 C 436.75 371.125 436.898438 370.96875 437.078125 370.96875 L 452.292969 370.96875 C 452.472656 370.96875 452.625 371.125 452.625 371.308594 L 452.625 371.546875 L 444.855469 379.585938 C 444.761719 379.683594 444.609375 379.683594 444.515625 379.585938 L 436.75 371.546875 Z M 452.625 384.140625 C 452.625 384.324219 452.472656 384.480469 452.292969 384.480469 L 437.078125 384.480469 C 436.898438 384.480469 436.75 384.324219 436.75 384.140625 L 436.75 373.648438 L 443.5 380.636719 C 443.816406 380.964844 444.234375 381.144531 444.683594 381.144531 C 445.132812 381.144531 445.554688 380.964844 445.871094 380.636719 L 452.621094 373.648438 L 452.621094 384.140625 Z M 452.625 384.140625" stroke-linecap="round"/>
</g>
		<g transform="matrix(1.3333 0 0 1.3333 -413.5588 -298.2072)" clip-path="url(#CLIPPATH_48)">
<clipPath id="CLIPPATH_48">
	<path transform="matrix(1 0 0 1 0 0) translate(-202.082, -64.3457)" id="5" d="M 202.082031 19.527344 C 177.328125 19.527344 157.265625 39.59375 157.265625 64.34375 C 157.265625 89.097656 177.328125 109.164062 202.082031 109.164062 C 226.832031 109.164062 246.898438 89.097656 246.898438 64.34375 C 246.898438 39.59375 226.832031 19.527344 202.082031 19.527344" stroke-linecap="round"/>
</clipPath>
<path style="stroke: none; stroke-width: 1; stroke-dasharray: none; stroke-linecap: butt; stroke-dashoffset: 0; stroke-linejoin: miter; stroke-miterlimit: 4; is-custom-font: none; font-file-url: none; fill: rgb(0,0,0); fill-rule: nonzero; opacity: 1;" transform=" translate(-202.082, -64.3457)" d="M 157.265625 19.527344 L 246.898438 19.527344 L 246.898438 109.164062 L 157.265625 109.164062 Z M 157.265625 19.527344" stroke-linecap="round"/>
</g>
		<g transform="matrix(1.3333 0 0 1.3333 -75.2565 -87.7709)" clip-path="url(#CLIPPATH_49)">
<clipPath id="CLIPPATH_49">
	<path transform="matrix(1 0 0 1 0.1915 0.2492) translate(-456, -222.4219)" id="dd12989b1d" d="M 421 188.84375 L 491 188.84375 L 491 256 L 421 256 Z M 421 188.84375" stroke-linecap="round"/>
</clipPath>
<path style="stroke: none; stroke-width: 1; stroke-dasharray: none; stroke-linecap: butt; stroke-dashoffset: 0; stroke-linejoin: miter; stroke-miterlimit: 4; is-custom-font: none; font-file-url: none; fill: rgb(2,2,2); fill-rule: nonzero; opacity: 1;" transform=" translate(-455.8085, -222.1727)" d="M 469.941406 222.332031 C 466.042969 226.210938 462.179688 230.121094 458.242188 233.957031 C 450.9375 241.082031 443.585938 248.164062 436.089844 255.425781 C 432.003906 251.714844 429.011719 247.253906 426.480469 242.476562 C 421.671875 233.40625 419.71875 223.796875 422.035156 213.683594 C 425.214844 199.777344 437.4375 189.910156 451.828125 189.023438 C 466.660156 188.113281 479.25 193.222656 490.554688 202.8125 C 484.734375 208.40625 479.03125 213.882812 473.058594 219.296875 C 470.4375 216.882812 467.867188 214.960938 468.558594 210.722656 C 469.140625 207.140625 465.46875 204.242188 461.691406 204.324219 C 457.855469 204.410156 454.898438 207.5 454.96875 211.351562 C 455.039062 215.199219 458.132812 218.441406 461.992188 217.925781 C 464.6875 217.566406 466.222656 218.542969 467.75 220.335938 C 468.386719 221.082031 469.207031 221.671875 469.941406 222.332031 Z M 469.941406 222.332031" stroke-linecap="round"/>
</g>
		<g transform="matrix(1.3333 0 0 1.3333 -78.7306 -38.7431)" clip-path="url(#CLIPPATH_50)">
<clipPath id="CLIPPATH_50">
	<path transform="matrix(1 0 0 1 0.0646 -0.2716) translate(-453.2676, -258.6719)" d="M 418.535156 225 L 488 225 L 488 292.34375 L 418.535156 292.34375 Z M 418.535156 225" stroke-linecap="round"/>
</clipPath>
<path style="stroke: none; stroke-width: 1; stroke-dasharray: none; stroke-linecap: butt; stroke-dashoffset: 0; stroke-linejoin: miter; stroke-miterlimit: 4; is-custom-font: none; font-file-url: none; fill: rgb(103,201,209); fill-rule: nonzero; opacity: 1;" transform=" translate(-453.2029, -258.9435)" d="M 457.976562 286.121094 C 461.535156 283.878906 462.714844 281.121094 461.683594 277.820312 C 460.675781 274.613281 458.015625 273.015625 454.050781 273.117188 C 453.214844 273.136719 452.050781 273.082031 451.582031 272.566406 C 447.339844 267.90625 443.21875 263.136719 438.886719 258.199219 C 450.203125 247.285156 461.363281 236.515625 472.65625 225.621094 C 477.203125 229.675781 480.347656 234.414062 482.875 239.496094 C 487.566406 248.921875 489.441406 258.851562 486.367188 269.164062 C 482.621094 281.714844 473.816406 289.136719 461.167969 291.460938 C 445.335938 294.367188 431.5625 289.207031 419.402344 279.15625 C 419.191406 278.984375 419 278.785156 418.835938 278.570312 C 418.738281 278.4375 418.710938 278.25 418.535156 277.773438 C 424.09375 272.441406 429.746094 267.015625 435.683594 261.320312 C 437.390625 263.191406 438.960938 264.871094 440.488281 266.589844 C 442.949219 269.359375 445.453125 272.097656 447.785156 274.972656 C 448.339844 275.660156 448.734375 276.988281 448.457031 277.753906 C 446.722656 282.542969 451.992188 288.777344 457.976562 286.121094 Z M 457.976562 286.121094" stroke-linecap="round"/>
</g>
		<g transform="matrix(1.3333 0 0 1.3333 -1.5445 -59.6581)">
<path style="stroke: none; stroke-width: 1; stroke-dasharray: none; stroke-linecap: butt; stroke-dashoffset: 0; stroke-linejoin: miter; stroke-miterlimit: 4; is-custom-font: none; font-file-url: none; fill: rgb(16,16,16); fill-rule: nonzero; opacity: 1;" transform=" translate(-511.0918, -243.2567)" d="M 510.660156 246.433594 C 509.1875 246.378906 507.945312 246.378906 506.496094 246.378906 C 506.496094 248.746094 506.496094 250.878906 506.496094 253.285156 C 505.363281 253.339844 504.433594 253.386719 503.214844 253.445312 C 503.214844 249.914062 503.214844 246.601562 503.214844 243.289062 C 503.214844 239.964844 503.214844 236.644531 503.214844 233.109375 C 506.488281 233.109375 509.542969 232.96875 512.582031 233.152344 C 515.269531 233.316406 517.09375 234.984375 517.957031 237.46875 C 518.851562 240.046875 518.375 242.464844 516.394531 244.457031 C 515.894531 244.957031 515.269531 245.332031 514.5625 245.871094 C 516.015625 248.253906 517.453125 250.609375 518.96875 253.089844 C 516.703125 253.890625 515.265625 253.398438 514.179688 251.390625 C 513.246094 249.671875 512 248.117188 510.660156 246.433594 M 514.894531 238.503906 C 513.136719 234.378906 509.582031 236.433594 506.550781 235.796875 C 506.550781 238.507812 506.550781 240.886719 506.550781 243.492188 C 507.976562 243.492188 509.308594 243.5 510.644531 243.492188 C 514.089844 243.464844 514.960938 242.554688 514.894531 238.503906 Z M 514.894531 238.503906" stroke-linecap="round"/>
</g>
		<g transform="matrix(1.3333 0 0 1.3333 -3.5247 -105.0007)">
<path style="stroke: none; stroke-width: 1; stroke-dasharray: none; stroke-linecap: butt; stroke-dashoffset: 0; stroke-linejoin: miter; stroke-miterlimit: 4; is-custom-font: none; font-file-url: none; fill: rgb(16,16,16); fill-rule: nonzero; opacity: 1;" transform=" translate(-509.6067, -209.2497)" d="M 516.347656 201.929688 C 515.910156 202.609375 515.554688 203.105469 515.53125 203.136719 C 513.003906 202.691406 510.835938 202.023438 508.679688 202.066406 C 507.734375 202.082031 506.335938 203.417969 506.054688 204.414062 C 505.871094 205.0625 507.140625 206.542969 508.078125 206.996094 C 509.761719 207.804688 511.703125 208.050781 513.496094 208.660156 C 516.308594 209.617188 517.628906 211.460938 517.519531 214.058594 C 517.40625 216.734375 515.804688 218.636719 512.859375 219.265625 C 508.875 220.121094 505.183594 219.367188 501.6875 216.890625 C 502.117188 216.03125 502.503906 215.257812 502.917969 214.429688 C 504.6875 215.121094 506.289062 215.945312 507.992188 216.347656 C 509.253906 216.644531 510.726562 216.667969 511.957031 216.304688 C 512.777344 216.058594 513.742188 214.996094 513.882812 214.167969 C 513.996094 213.511719 513.125 212.296875 512.398438 211.964844 C 510.609375 211.140625 508.648438 210.699219 506.761719 210.078125 C 504.269531 209.257812 502.355469 207.898438 502.375 204.957031 C 502.390625 202.351562 504.226562 200.175781 507.027344 199.332031 C 510.6875 198.222656 514.773438 199.273438 516.347656 201.929688 Z M 516.347656 201.929688" stroke-linecap="round"/>
</g>
		<g transform="matrix(1.3333 0 0 1.3333 45.4858 -59.9137)">
<path style="stroke: none; stroke-width: 1; stroke-dasharray: none; stroke-linecap: butt; stroke-dashoffset: 0; stroke-linejoin: miter; stroke-miterlimit: 4; is-custom-font: none; font-file-url: none; fill: rgb(20,20,20); fill-rule: nonzero; opacity: 1;" transform=" translate(-546.3645, -243.065)" d="M 541.851562 251.695312 C 541.152344 253.484375 541.152344 253.484375 538.835938 253.113281 C 538.835938 246.394531 538.835938 239.652344 538.835938 232.617188 C 539.714844 232.574219 540.648438 232.527344 541.863281 232.464844 C 541.863281 235.210938 541.863281 237.777344 541.863281 240.519531 C 546.21875 237.4375 549.402344 237.445312 551.898438 240.351562 C 554.550781 243.441406 554.558594 248.332031 551.917969 251.304688 C 549.246094 254.3125 545.820312 254.449219 541.851562 251.695312 M 541.898438 244.460938 C 541.890625 245.179688 541.914062 245.902344 541.867188 246.617188 C 541.703125 249.019531 543.019531 250.371094 545.171875 250.839844 C 547.378906 251.320312 549.066406 250.292969 550.0625 248.328125 C 551.28125 245.921875 550.308594 242.628906 548.136719 241.449219 C 545.886719 240.226562 543.921875 241.042969 541.898438 244.460938 Z M 541.898438 244.460938" stroke-linecap="round"/>
</g>
		<g transform="matrix(1.3333 0 0 1.3333 41.0366 -14.1436)">
<path style="stroke: none; stroke-width: 1; stroke-dasharray: none; stroke-linecap: butt; stroke-dashoffset: 0; stroke-linejoin: miter; stroke-miterlimit: 4; is-custom-font: none; font-file-url: none; fill: rgb(25,25,25); fill-rule: nonzero; opacity: 1;" transform=" translate(-543.0277, -277.3926)" d="M 550.425781 279.859375 C 550.105469 284.738281 548.160156 287.613281 544.527344 287.914062 C 542.535156 288.074219 540.460938 287.242188 538.144531 286.804688 C 537.917969 286.976562 537.113281 287.585938 535.636719 288.699219 C 535.636719 281.171875 535.59375 274.617188 535.71875 268.066406 C 535.726562 267.550781 536.890625 267.058594 538.101562 266.085938 C 538.101562 269.558594 538.101562 272.132812 538.101562 275.285156 C 540.839844 273.097656 543.398438 271.625 546.4375 273.273438 C 548.9375 274.625 550.195312 276.828125 550.425781 279.859375 M 541.488281 285.707031 C 542.292969 285.722656 543.136719 285.90625 543.890625 285.71875 C 546.425781 285.097656 547.53125 283.207031 547.777344 280.792969 C 548.039062 278.238281 546.410156 275.707031 544.167969 275.082031 C 541.839844 274.433594 540.097656 275.480469 538.828125 277.300781 C 537.09375 279.785156 538.234375 283.847656 541.488281 285.707031 Z M 541.488281 285.707031" stroke-linecap="round"/>
</g>
		<g transform="matrix(1.3333 0 0 1.3333 -64.4204 -99.5509)">
<path style="stroke: none; stroke-width: 1; stroke-dasharray: none; stroke-linecap: butt; stroke-dashoffset: 0; stroke-linejoin: miter; stroke-miterlimit: 4; is-custom-font: none; font-file-url: none; fill: rgb(95,187,195); fill-rule: nonzero; opacity: 1;" transform=" translate(-463.9349, -213.337)" d="M 470.125 222.351562 C 469.207031 221.671875 468.386719 221.082031 467.75 220.335938 C 466.222656 218.542969 464.6875 217.566406 461.992188 217.925781 C 458.132812 218.441406 455.039062 215.199219 454.96875 211.351562 C 454.898438 207.5 457.855469 204.410156 461.691406 204.324219 C 465.46875 204.242188 469.140625 207.140625 468.558594 210.722656 C 467.867188 214.960938 470.4375 216.882812 472.902344 219.382812 C 472.113281 220.476562 471.207031 221.421875 470.125 222.351562 M 462.667969 207.050781 C 460.550781 206.753906 458.703125 207.5 458.074219 209.460938 C 457.671875 210.714844 457.832031 212.796875 458.644531 213.625 C 459.632812 214.632812 461.71875 215.332031 463.058594 215.015625 C 464.246094 214.738281 465.550781 213.023438 465.925781 211.695312 C 466.535156 209.53125 465.171875 207.976562 462.667969 207.050781 Z M 462.667969 207.050781" stroke-linecap="round"/>
</g>
		<g transform="matrix(1.3333 0 0 1.3333 68.5203 -56.1375)">
<path style="stroke: none; stroke-width: 1; stroke-dasharray: none; stroke-linecap: butt; stroke-dashoffset: 0; stroke-linejoin: miter; stroke-miterlimit: 4; is-custom-font: none; font-file-url: none; fill: rgb(18,18,18); fill-rule: nonzero; opacity: 1;" transform=" translate(-563.6404, -245.8971)" d="M 562.828125 253.636719 C 558.480469 252.71875 556.226562 250.351562 555.890625 246.578125 C 555.59375 243.222656 557.503906 240.03125 560.570312 238.757812 C 563.679688 237.464844 567.378906 238.242188 569.464844 240.78125 C 571.519531 243.289062 572.011719 246.140625 570.671875 249.140625 C 569.214844 252.390625 566.59375 253.816406 562.828125 253.636719 M 567.832031 247.519531 C 567.824219 246.460938 568.035156 245.347656 567.773438 244.351562 C 566.976562 241.304688 563.914062 239.96875 561.496094 241.550781 C 559.441406 242.898438 558.894531 244.941406 559.34375 247.226562 C 559.746094 249.261719 560.988281 250.652344 563.125 250.902344 C 565.410156 251.167969 566.871094 249.992188 567.832031 247.519531 Z M 567.832031 247.519531" stroke-linecap="round"/>
</g>
		<g transform="matrix(1.3333 0 0 1.3333 72.5121 -101.4168)">
<path style="stroke: none; stroke-width: 1; stroke-dasharray: none; stroke-linecap: butt; stroke-dashoffset: 0; stroke-linejoin: miter; stroke-miterlimit: 4; is-custom-font: none; font-file-url: none; fill: rgb(21,21,21); fill-rule: nonzero; opacity: 1;" transform=" translate(-566.6342, -211.9376)" d="M 561.011719 218.433594 C 558.21875 214.65625 559.628906 211.058594 564.0625 210.421875 C 565.808594 210.171875 567.621094 210.378906 569.414062 210.378906 C 569.714844 206.257812 567.503906 205.5 561.4375 207.800781 C 560.203125 206.84375 560.191406 206.109375 561.691406 205.277344 C 567.488281 202.0625 572.839844 205.054688 572.949219 211.53125 C 572.992188 214.074219 573.390625 216.617188 573.695312 219.898438 C 572.125 219.246094 570.933594 218.75 569.273438 218.0625 C 567.164062 219.53125 564.316406 220.691406 561.011719 218.433594 M 564.746094 217.296875 C 566.355469 216.5625 568.03125 215.933594 569.527344 215.011719 C 569.847656 214.8125 569.6875 212.957031 569.449219 212.886719 C 568.035156 212.476562 566.488281 212.0625 565.074219 212.261719 C 564.148438 212.390625 562.753906 213.503906 562.683594 214.273438 C 562.601562 215.1875 563.71875 216.210938 564.746094 217.296875 Z M 564.746094 217.296875" stroke-linecap="round"/>
</g>
		<g transform="matrix(1.3333 0 0 1.3333 21.2123 -56.0712)">
<path style="stroke: none; stroke-width: 1; stroke-dasharray: none; stroke-linecap: butt; stroke-dashoffset: 0; stroke-linejoin: miter; stroke-miterlimit: 4; is-custom-font: none; font-file-url: none; fill: rgb(17,17,17); fill-rule: nonzero; opacity: 1;" transform=" translate(-528.1594, -245.9468)" d="M 522.820312 251.671875 C 520.003906 248.078125 519.675781 244.632812 521.730469 241.523438 C 523.496094 238.855469 526.796875 237.605469 530.066406 238.414062 C 533.066406 239.15625 534.941406 241.050781 535.644531 244.050781 C 536.367188 247.121094 535.625 249.820312 533.210938 251.875 C 530.789062 253.933594 527.972656 254.179688 525.046875 253.070312 C 524.300781 252.785156 523.65625 252.238281 522.820312 251.671875 M 532.59375 246.691406 C 532.472656 243.1875 531.050781 241.148438 528.566406 240.917969 C 526.414062 240.722656 524.480469 242.261719 523.929688 244.605469 C 523.277344 247.386719 524.566406 250.046875 526.917969 250.78125 C 529.382812 251.546875 531.328125 250.269531 532.59375 246.691406 Z M 532.59375 246.691406" stroke-linecap="round"/>
</g>
		<g transform="matrix(1.3333 0 0 1.3333 19.9824 -101.3312)">
<path style="stroke: none; stroke-width: 1; stroke-dasharray: none; stroke-linecap: butt; stroke-dashoffset: 0; stroke-linejoin: miter; stroke-miterlimit: 4; is-custom-font: none; font-file-url: none; fill: rgb(18,18,18); fill-rule: nonzero; opacity: 1;" transform=" translate(-527.237, -212.0018)" d="M 523.714844 204.960938 C 528.894531 203.210938 533.121094 204.972656 534.527344 209.304688 C 535.949219 213.679688 533.835938 218.050781 529.6875 219.335938 C 525.878906 220.511719 521.964844 218.859375 520.304688 215.378906 C 518.519531 211.636719 519.75 207.703125 523.714844 204.960938 M 529.953125 207.84375 C 529.476562 207.597656 529.027344 207.25 528.519531 207.113281 C 525.757812 206.367188 523.375 208.058594 522.910156 211.042969 C 522.4375 214.097656 524.261719 216.734375 526.992188 216.9375 C 529.503906 217.125 531.769531 214.9375 531.605469 212.109375 C 531.527344 210.769531 530.722656 209.476562 529.953125 207.84375 Z M 529.953125 207.84375" stroke-linecap="round"/>
</g>
		<g transform="matrix(1.3333 0 0 1.3333 113.294 -56.1795)">
<path style="stroke: none; stroke-width: 1; stroke-dasharray: none; stroke-linecap: butt; stroke-dashoffset: 0; stroke-linejoin: miter; stroke-miterlimit: 4; is-custom-font: none; font-file-url: none; fill: rgb(19,19,19); fill-rule: nonzero; opacity: 1;" transform=" translate(-597.2207, -245.8656)" d="M 591.394531 250.457031 C 589.40625 247.078125 589.402344 243.90625 591.730469 240.949219 C 593.878906 238.222656 596.875 237.5625 600.035156 238.542969 C 601.59375 239.023438 602.90625 240.3125 604.328125 241.238281 C 604.144531 241.683594 603.964844 242.128906 603.785156 242.574219 C 602.519531 242.265625 601.140625 242.175781 600.015625 241.597656 C 598.003906 240.5625 595.839844 240.796875 594.40625 242.539062 C 592.886719 244.386719 592.890625 247.539062 594.464844 249.308594 C 596.058594 251.101562 597.882812 251.378906 600.074219 250.285156 C 601.226562 249.710938 602.585938 249.550781 604.5 249.027344 C 601.785156 254.710938 595.550781 255.03125 591.394531 250.457031 Z M 591.394531 250.457031" stroke-linecap="round"/>
</g>
		<g transform="matrix(1.3333 0 0 1.3333 42.4086 -101.4448)">
<path style="stroke: none; stroke-width: 1; stroke-dasharray: none; stroke-linecap: butt; stroke-dashoffset: 0; stroke-linejoin: miter; stroke-miterlimit: 4; is-custom-font: none; font-file-url: none; fill: rgb(18,18,18); fill-rule: nonzero; opacity: 1;" transform=" translate(-544.0566, -211.9166)" d="M 548.921875 215.125 C 549.742188 215.421875 550.386719 215.679688 551.058594 215.949219 C 549.109375 219.125 545.949219 220.339844 542.347656 219.398438 C 539.101562 218.546875 536.820312 215.453125 536.820312 211.890625 C 536.816406 208.351562 538.851562 205.519531 542.117188 204.515625 C 545.660156 203.429688 548.859375 204.566406 551.292969 208.402344 C 549.558594 208.183594 548.191406 208.355469 547.203125 207.824219 C 544.96875 206.617188 542.824219 206.671875 541.328125 208.402344 C 539.65625 210.335938 539.671875 213.445312 541.363281 215.371094 C 543.050781 217.289062 545.121094 217.441406 547.390625 215.84375 C 547.8125 215.546875 548.292969 215.339844 548.921875 215.125 Z M 548.921875 215.125" stroke-linecap="round"/>
</g>
		<g transform="matrix(1.3333 0 0 1.3333 134.006 -55.9972)" clip-path="url(#CLIPPATH_51)">
<clipPath id="CLIPPATH_51">
	<path transform="matrix(1 0 0 1 -0.3621 -0.0023) translate(-612.3926, -246)" id="2" d="M 606 238 L 618.785156 238 L 618.785156 254 L 606 254 Z M 606 238" stroke-linecap="round"/>
</clipPath>
<path style="stroke: none; stroke-width: 1; stroke-dasharray: none; stroke-linecap: butt; stroke-dashoffset: 0; stroke-linejoin: miter; stroke-miterlimit: 4; is-custom-font: none; font-file-url: none; fill: rgb(23,23,23); fill-rule: nonzero; opacity: 1;" transform=" translate(-612.7547, -246.0023)" d="M 606.890625 241.578125 C 609.335938 237.527344 614.160156 237.007812 618.199219 240.957031 C 617.351562 241.0625 616.492188 241.308594 615.660156 241.234375 C 614.429688 241.125 613.195312 240.535156 612 240.632812 C 611.226562 240.699219 610.523438 241.621094 609.789062 242.160156 C 610.355469 242.847656 610.789062 243.820312 611.519531 244.15625 C 612.894531 244.789062 614.460938 244.984375 615.90625 245.484375 C 617.523438 246.046875 618.75 246.957031 618.785156 248.949219 C 618.824219 251.054688 617.804688 252.417969 615.96875 253.109375 C 612.898438 254.265625 609.890625 253.824219 607.171875 252.089844 C 606.726562 251.808594 606.890625 250.574219 606.777344 249.816406 C 609.289062 250.417969 611.160156 251.074219 613.070312 251.21875 C 613.878906 251.277344 614.769531 250.25 615.621094 249.71875 C 614.984375 249.003906 614.472656 248.046875 613.679688 247.632812 C 612.503906 247.019531 611.121094 246.792969 609.832031 246.386719 C 607.566406 245.675781 606.234375 244.351562 606.890625 241.578125 Z M 606.890625 241.578125" stroke-linecap="round"/>
</g>
		<g transform="matrix(1.3333 0 0 1.3333 17.5024 -9.9195)">
<path style="stroke: none; stroke-width: 1; stroke-dasharray: none; stroke-linecap: butt; stroke-dashoffset: 0; stroke-linejoin: miter; stroke-miterlimit: 4; is-custom-font: none; font-file-url: none; fill: rgb(23,23,23); fill-rule: nonzero; opacity: 1;" transform=" translate(-525.3769, -280.5605)" d="M 527 272.75 C 530.332031 273.589844 531.554688 275.722656 531.636719 278.792969 C 531.71875 281.78125 531.949219 284.769531 532.144531 288.371094 C 530.957031 287.703125 530.011719 287.175781 528.863281 286.53125 C 527.636719 286.941406 525.933594 287.796875 524.144531 288.050781 C 521.054688 288.492188 518.617188 286.34375 518.609375 283.542969 C 518.601562 280.898438 520.777344 279.042969 523.875 279.15625 C 525.171875 279.203125 526.460938 279.550781 527.746094 279.511719 C 528.179688 279.5 528.910156 278.753906 528.960938 278.285156 C 529.195312 276.136719 527.3125 274.359375 524.980469 274.546875 C 523.921875 274.628906 522.910156 275.179688 521.851562 275.363281 C 521.207031 275.476562 520.511719 275.300781 519.839844 275.25 C 520.308594 274.714844 520.6875 273.847656 521.253906 273.699219 C 523.058594 273.226562 524.929688 273.019531 527 272.75 M 528.578125 284.273438 C 528.765625 283.265625 528.949219 282.261719 529.144531 281.199219 C 527.765625 280.882812 526.667969 280.308594 525.707031 280.484375 C 524.214844 280.753906 522.660156 281.328125 521.457031 282.210938 C 521.046875 282.515625 521.273438 284.757812 521.785156 285.03125 C 523.015625 285.691406 524.59375 285.902344 526.027344 285.902344 C 526.796875 285.898438 527.570312 285.085938 528.578125 284.273438 Z M 528.578125 284.273438" stroke-linecap="round"/>
</g>
		<g transform="matrix(1.3333 0 0 1.3333 86.7501 -59.3956)">
<path style="stroke: none; stroke-width: 1; stroke-dasharray: none; stroke-linecap: butt; stroke-dashoffset: 0; stroke-linejoin: miter; stroke-miterlimit: 4; is-custom-font: none; font-file-url: none; fill: rgb(12,12,12); fill-rule: nonzero; opacity: 1;" transform=" translate(-577.3127, -243.4536)" d="M 574.496094 234.476562 C 575.421875 233.945312 576.332031 233.652344 577.554688 233.257812 C 577.554688 235.195312 577.554688 236.617188 577.554688 238.210938 C 578.671875 238.335938 579.617188 238.445312 580.566406 238.554688 C 580.949219 240.707031 580.949219 240.707031 577.625 241.210938 C 577.625 243.660156 577.574219 246.160156 577.636719 248.660156 C 577.707031 251.320312 579.601562 250.632812 581.179688 250.398438 C 582.507812 252.167969 581.800781 252.949219 579.960938 253.402344 C 576.46875 254.261719 574.554688 252.875 574.484375 249.300781 C 574.449219 247.40625 574.503906 245.511719 574.46875 243.617188 C 574.449219 242.449219 574.960938 241.003906 573 240.695312 C 572.816406 240.667969 572.730469 238.753906 572.769531 238.75 C 575.542969 238.296875 574.136719 236.128906 574.496094 234.476562 Z M 574.496094 234.476562" stroke-linecap="round"/>
</g>
		<g transform="matrix(1.3333 0 0 1.3333 -2.5893 -13.7139)">
<path style="stroke: none; stroke-width: 1; stroke-dasharray: none; stroke-linecap: butt; stroke-dashoffset: 0; stroke-linejoin: miter; stroke-miterlimit: 4; is-custom-font: none; font-file-url: none; fill: rgb(18,18,18); fill-rule: nonzero; opacity: 1;" transform=" translate(-510.3082, -277.7148)" d="M 503.304688 278.621094 C 503.304688 274.847656 503.304688 271.347656 503.304688 267.679688 C 504.257812 267.679688 505.003906 267.679688 505.953125 267.679688 C 505.953125 273.660156 505.953125 279.488281 505.953125 285.613281 C 509.28125 285.613281 512.417969 285.675781 515.550781 285.589844 C 517.214844 285.542969 517.648438 286.152344 517.066406 287.75 C 512.574219 287.75 508.082031 287.75 503.304688 287.75 C 503.304688 284.777344 503.304688 281.835938 503.304688 278.621094 Z M 503.304688 278.621094" stroke-linecap="round"/>
</g>
		<g transform="matrix(1.3333 0 0 1.3333 91.0962 -105.1143)">
<path style="stroke: none; stroke-width: 1; stroke-dasharray: none; stroke-linecap: butt; stroke-dashoffset: 0; stroke-linejoin: miter; stroke-miterlimit: 4; is-custom-font: none; font-file-url: none; fill: rgb(16,16,16); fill-rule: nonzero; opacity: 1;" transform=" translate(-580.5723, -209.1645)" d="M 580.144531 209.175781 C 580.144531 210.796875 580.222656 212.15625 580.128906 213.503906 C 579.96875 215.757812 580.285156 217.476562 584.261719 216.335938 C 583.28125 217.925781 582.960938 219.125 582.355469 219.289062 C 580.539062 219.789062 578.519531 220.109375 577.34375 217.972656 C 577.050781 217.441406 576.90625 216.765625 576.902344 216.15625 C 576.871094 210.394531 576.886719 204.628906 576.886719 198.671875 C 577.980469 198.671875 578.910156 198.671875 580.144531 198.671875 C 580.144531 202.101562 580.144531 205.503906 580.144531 209.175781 Z M 580.144531 209.175781" stroke-linecap="round"/>
</g>
		<g transform="matrix(1.3333 0 0 1.3333 -76.2868 -10.7436)">
<path style="stroke: none; stroke-width: 1; stroke-dasharray: none; stroke-linecap: butt; stroke-dashoffset: 0; stroke-linejoin: miter; stroke-miterlimit: 4; is-custom-font: none; font-file-url: none; fill: rgb(109,203,210); fill-rule: nonzero; opacity: 1;" transform=" translate(-455.035, -279.9424)" d="M 454.609375 284.066406 C 452.296875 283.605469 450.695312 282.300781 450.921875 280.21875 C 451.085938 278.746094 452.152344 276.941406 453.378906 276.164062 C 454.34375 275.546875 456.640625 275.753906 457.484375 276.53125 C 458.546875 277.5 459.292969 279.476562 459.152344 280.921875 C 458.941406 283.09375 457.164062 284.230469 454.609375 284.066406 Z M 454.609375 284.066406" stroke-linecap="round"/>
</g>
		<g transform="matrix(1.3333 0 0 1.3333 97.8572 -56.2318)">
<path style="stroke: none; stroke-width: 1; stroke-dasharray: none; stroke-linecap: butt; stroke-dashoffset: 0; stroke-linejoin: miter; stroke-miterlimit: 4; is-custom-font: none; font-file-url: none; fill: rgb(7,7,7); fill-rule: nonzero; opacity: 1;" transform=" translate(-585.6429, -245.8264)" d="M 584.191406 240.316406 C 584.023438 237.578125 585.816406 238.660156 587.105469 238.457031 C 587.105469 243.390625 587.105469 248.230469 587.105469 253.242188 C 586.246094 253.242188 585.390625 253.242188 584.1875 253.242188 C 584.1875 249 584.1875 244.78125 584.191406 240.316406 Z M 584.191406 240.316406" stroke-linecap="round"/>
</g>
		<g transform="matrix(1.3333 0 0 1.3333 57.2603 -101.456)">
<path style="stroke: none; stroke-width: 1; stroke-dasharray: none; stroke-linecap: butt; stroke-dashoffset: 0; stroke-linejoin: miter; stroke-miterlimit: 4; is-custom-font: none; font-file-url: none; fill: rgb(8,8,8); fill-rule: nonzero; opacity: 1;" transform=" translate(-555.1953, -211.9082)" d="M 553.734375 210.835938 C 553.734375 208.609375 553.734375 206.648438 553.734375 204.539062 C 554.8125 204.539062 555.65625 204.539062 556.65625 204.539062 C 556.65625 209.453125 556.65625 214.34375 556.65625 219.277344 C 555.667969 219.277344 554.816406 219.277344 553.734375 219.277344 C 553.734375 216.460938 553.734375 213.78125 553.734375 210.835938 Z M 553.734375 210.835938" stroke-linecap="round"/>
</g>
		<g transform="matrix(1.3333 0 0 1.3333 98.1119 -71.6507)">
<path style="stroke: none; stroke-width: 1; stroke-dasharray: none; stroke-linecap: butt; stroke-dashoffset: 0; stroke-linejoin: miter; stroke-miterlimit: 4; is-custom-font: none; font-file-url: none; fill: rgb(20,20,20); fill-rule: nonzero; opacity: 1;" transform=" translate(-585.834, -234.262)" d="M 586.851562 232.5625 C 587.144531 233.679688 587.226562 234.738281 587.320312 235.964844 C 586.242188 235.964844 585.386719 235.964844 584.347656 235.964844 C 584.347656 234.90625 584.347656 233.871094 584.347656 232.632812 C 585.082031 232.589844 585.863281 232.546875 586.851562 232.5625 Z M 586.851562 232.5625" stroke-linecap="round"/>
</g>
		<g transform="matrix(1.3333 0 0 1.3333 57.2594 -116.4783)">
<path style="stroke: none; stroke-width: 1; stroke-dasharray: none; stroke-linecap: butt; stroke-dashoffset: 0; stroke-linejoin: miter; stroke-miterlimit: 4; is-custom-font: none; font-file-url: none; fill: rgb(23,23,23); fill-rule: nonzero; opacity: 1;" transform=" translate(-555.1946, -200.6413)" d="M 553.699219 200.488281 C 553.515625 197.6875 555.285156 198.601562 556.703125 198.53125 C 556.703125 199.726562 556.703125 200.78125 556.703125 202.839844 C 555.386719 201.90625 554.542969 201.304688 553.699219 200.488281 Z M 553.699219 200.488281" stroke-linecap="round"/>
</g>
		<g transform="matrix(1.3333 0 0 1.3333 -67.0446 -102.5893)">
<path style="stroke: none; stroke-width: 1; stroke-dasharray: none; stroke-linecap: butt; stroke-dashoffset: 0; stroke-linejoin: miter; stroke-miterlimit: 4; is-custom-font: none; font-file-url: none; fill: rgb(3,7,7); fill-rule: nonzero; opacity: 1;" transform=" translate(-461.9667, -211.0581)" d="M 462.878906 207.109375 C 465.171875 207.976562 466.535156 209.53125 465.925781 211.695312 C 465.550781 213.023438 464.246094 214.738281 463.058594 215.015625 C 461.71875 215.332031 459.632812 214.632812 458.644531 213.625 C 457.832031 212.796875 457.671875 210.714844 458.074219 209.460938 C 458.703125 207.5 460.550781 206.753906 462.878906 207.109375 Z M 462.878906 207.109375" stroke-linecap="round"/>
</g>
		<g transform="matrix(1.3333 0 0 1.3333 -67.7434 119.498)">
<path style="stroke: none; stroke-width: 1; stroke-dasharray: none; stroke-linecap: butt; stroke-dashoffset: 0; stroke-linejoin: miter; stroke-miterlimit: 4; is-custom-font: none; font-file-url: none; fill: rgb(0,0,0); fill-rule: nonzero; opacity: 1;" transform=" translate(-2.1074, 6.3359)" d="M 2.105469 -12.671875 C 1.546875 -12.671875 1.117188 -12.238281 1.117188 -11.683594 C 1.117188 -11.125 1.546875 -10.691406 2.105469 -10.691406 C 2.664062 -10.691406 3.097656 -11.125 3.097656 -11.683594 C 3.097656 -12.238281 2.664062 -12.671875 2.105469 -12.671875 Z M 2.878906 0 L 2.878906 -9.539062 L 1.332031 -9.539062 L 1.332031 0 Z M 2.878906 0" stroke-linecap="round"/>
</g>
		<g transform="matrix(1.3333 0 0 1.3333 -58.4456 121.5865)">
<path style="stroke: none; stroke-width: 1; stroke-dasharray: none; stroke-linecap: butt; stroke-dashoffset: 0; stroke-linejoin: miter; stroke-miterlimit: 4; is-custom-font: none; font-file-url: none; fill: rgb(0,0,0); fill-rule: nonzero; opacity: 1;" transform=" translate(-4.7969, 4.7695)" d="M 5.023438 -9.792969 C 2.628906 -9.792969 0.539062 -7.972656 0.539062 -4.753906 C 0.539062 -1.261719 2.375 0.253906 4.789062 0.253906 C 6.910156 0.253906 8.496094 -0.828125 8.964844 -3.042969 L 7.34375 -3.042969 C 7.019531 -1.65625 6.136719 -0.9375 4.878906 -0.9375 C 3.457031 -0.9375 2.230469 -2.089844 2.230469 -4.859375 C 2.230469 -7.433594 3.492188 -8.605469 4.984375 -8.605469 C 6.265625 -8.605469 7.09375 -7.867188 7.433594 -6.335938 L 9.054688 -6.335938 C 8.765625 -8.425781 7.308594 -9.792969 5.023438 -9.792969 Z M 5.023438 -9.792969" stroke-linecap="round"/>
</g>
		<g transform="matrix(1.3333 0 0 1.3333 -44.9944 119.0656)">
<path style="stroke: none; stroke-width: 1; stroke-dasharray: none; stroke-linecap: butt; stroke-dashoffset: 0; stroke-linejoin: miter; stroke-miterlimit: 4; is-custom-font: none; font-file-url: none; fill: rgb(0,0,0); fill-rule: nonzero; opacity: 1;" transform=" translate(-5.3633, 6.6602)" d="M 9.359375 -7.003906 C 9.214844 -8.675781 8.046875 -9.792969 5.957031 -9.792969 C 4.984375 -9.792969 4.285156 -9.628906 3.472656 -9 L 2.878906 -7.902344 L 2.878906 -13.320312 L 1.332031 -13.320312 L 1.332031 0 L 2.878906 0 L 2.878906 -4.195312 C 2.878906 -7.453125 4.140625 -8.53125 5.632812 -8.566406 C 7.109375 -8.605469 7.722656 -7.738281 7.8125 -6.625 C 7.847656 -6.136719 7.847656 -5.742188 7.847656 -5.257812 L 7.847656 0 L 9.394531 0 L 9.394531 -5.363281 C 9.394531 -6.136719 9.394531 -6.515625 9.359375 -7.003906 Z M 9.359375 -7.003906" stroke-linecap="round"/>
</g>
		<g transform="matrix(1.3333 0 0 1.3333 -30.8822 121.5865)">
<path style="stroke: none; stroke-width: 1; stroke-dasharray: none; stroke-linecap: butt; stroke-dashoffset: 0; stroke-linejoin: miter; stroke-miterlimit: 4; is-custom-font: none; font-file-url: none; fill: rgb(0,0,0); fill-rule: nonzero; opacity: 1;" transform=" translate(-5.2734, 4.7695)" d="M 5.273438 -9.792969 C 2.035156 -9.792969 0.539062 -7.46875 0.539062 -4.769531 C 0.539062 -2.089844 2.035156 0.253906 5.273438 0.253906 C 8.515625 0.253906 10.007812 -2.089844 10.007812 -4.769531 C 10.007812 -7.46875 8.515625 -9.792969 5.273438 -9.792969 Z M 5.273438 -0.9375 C 3.347656 -0.9375 2.230469 -2.539062 2.230469 -4.769531 C 2.230469 -7.019531 3.347656 -8.605469 5.273438 -8.605469 C 7.199219 -8.605469 8.316406 -7.019531 8.316406 -4.769531 C 8.316406 -2.539062 7.199219 -0.9375 5.273438 -0.9375 Z M 5.273438 -0.9375" stroke-linecap="round"/>
</g>
		<g transform="matrix(1.3333 0 0 1.3333 -19.1463 121.4407)">
<path style="stroke: none; stroke-width: 1; stroke-dasharray: none; stroke-linecap: butt; stroke-dashoffset: 0; stroke-linejoin: miter; stroke-miterlimit: 4; is-custom-font: none; font-file-url: none; fill: rgb(0,0,0); fill-rule: nonzero; opacity: 1;" transform=" translate(-3.5273, 4.8789)" d="M 5.074219 -9.757812 C 4.625 -9.757812 4.140625 -9.59375 3.742188 -9.324219 L 2.878906 -8.046875 L 2.878906 -9.539062 L 1.332031 -9.539062 L 1.332031 0 L 2.878906 0 L 2.878906 -5.4375 C 2.878906 -7.613281 4.105469 -8.566406 5.722656 -8.460938 L 5.722656 -9.628906 C 5.542969 -9.71875 5.328125 -9.757812 5.074219 -9.757812 Z M 5.074219 -9.757812" stroke-linecap="round"/>
</g>
		<g transform="matrix(1.3333 0 0 1.3333 -9.4634 121.5865)">
<path style="stroke: none; stroke-width: 1; stroke-dasharray: none; stroke-linecap: butt; stroke-dashoffset: 0; stroke-linejoin: miter; stroke-miterlimit: 4; is-custom-font: none; font-file-url: none; fill: rgb(0,0,0); fill-rule: nonzero; opacity: 1;" transform=" translate(-4.8496, 4.7695)" d="M 9.160156 -5.039062 C 9.160156 -7.828125 7.703125 -9.792969 5.074219 -9.792969 C 2.464844 -9.792969 0.539062 -7.828125 0.539062 -4.734375 C 0.539062 -1.367188 2.394531 0.253906 4.878906 0.253906 C 6.839844 0.253906 8.65625 -0.773438 9.035156 -3.078125 L 7.414062 -3.078125 C 7.199219 -1.710938 6.191406 -0.9375 4.949219 -0.9375 C 3.546875 -0.9375 2.359375 -1.78125 2.214844 -4.300781 L 9.125 -4.300781 C 9.160156 -4.644531 9.160156 -4.894531 9.160156 -5.039062 Z M 5.039062 -8.605469 C 6.605469 -8.605469 7.453125 -7.46875 7.597656 -5.488281 L 2.230469 -5.488281 C 2.410156 -7.523438 3.527344 -8.605469 5.039062 -8.605469 Z M 5.039062 -8.605469" stroke-linecap="round"/>
</g>
		<g transform="matrix(1.3333 0 0 1.3333 2.6839 121.5865)">
<path style="stroke: none; stroke-width: 1; stroke-dasharray: none; stroke-linecap: butt; stroke-dashoffset: 0; stroke-linejoin: miter; stroke-miterlimit: 4; is-custom-font: none; font-file-url: none; fill: rgb(0,0,0); fill-rule: nonzero; opacity: 1;" transform=" translate(-4.0781, 4.7695)" d="M 4.105469 -9.792969 C 2.140625 -9.792969 0.808594 -8.746094 0.808594 -7.003906 C 0.808594 -5.328125 2.179688 -4.625 3.886719 -4.15625 C 5.488281 -3.726562 6.136719 -3.238281 6.136719 -2.320312 C 6.136719 -1.402344 5.308594 -0.9375 4.285156 -0.9375 C 3.1875 -0.9375 2.304688 -1.421875 2.050781 -2.808594 L 0.433594 -2.808594 C 0.71875 -0.648438 2.214844 0.253906 4.175781 0.253906 C 6.191406 0.253906 7.722656 -0.648438 7.722656 -2.449219 C 7.722656 -4.066406 6.679688 -4.933594 4.480469 -5.507812 C 3.1875 -5.851562 2.394531 -6.226562 2.394531 -7.183594 C 2.394531 -8.011719 2.898438 -8.605469 3.976562 -8.605469 C 5.09375 -8.605469 5.777344 -7.9375 5.992188 -6.820312 L 7.613281 -6.820312 C 7.414062 -8.566406 6.246094 -9.792969 4.105469 -9.792969 Z M 4.105469 -9.792969" stroke-linecap="round"/>
</g>
		<g transform="matrix(1.3333 0 0 1.3333 18.39 121.2245)">
<path style="stroke: none; stroke-width: 1; stroke-dasharray: none; stroke-linecap: butt; stroke-dashoffset: 0; stroke-linejoin: miter; stroke-miterlimit: 4; is-custom-font: none; font-file-url: none; fill: rgb(0,0,0); fill-rule: nonzero; opacity: 1;" transform=" translate(-7.5957, 5.041)" d="M 11.410156 -8.371094 L 9.953125 -8.371094 L 9.648438 -7.273438 L 9.484375 -8.136719 C 9.144531 -8.515625 8.550781 -8.695312 7.902344 -8.695312 C 5.617188 -8.695312 4.015625 -6.460938 4.015625 -4.105469 C 4.015625 -1.90625 5.398438 -1.207031 6.550781 -1.207031 C 7.199219 -1.207031 7.777344 -1.421875 8.351562 -1.90625 L 8.730469 -2.644531 C 8.875 -1.726562 9.59375 -1.351562 10.53125 -1.351562 C 12.257812 -1.351562 14.21875 -2.699219 14.21875 -5.957031 C 14.21875 -9.539062 11.84375 -11.953125 8.441406 -11.953125 C 4.753906 -11.953125 0.972656 -9.125 0.972656 -4.375 C 0.972656 -0.160156 3.941406 1.871094 7.128906 1.871094 C 8.566406 1.871094 10.386719 1.457031 12.132812 0.269531 L 11.699219 -0.613281 C 10.386719 0.359375 8.640625 0.828125 7.183594 0.828125 C 4.390625 0.828125 2.089844 -0.898438 2.089844 -4.390625 C 2.089844 -8.550781 5.363281 -10.90625 8.386719 -10.90625 C 10.945312 -10.90625 13.105469 -9.234375 13.105469 -5.921875 C 13.105469 -3.511719 11.96875 -2.394531 10.890625 -2.394531 C 10.296875 -2.394531 10.207031 -2.71875 10.207031 -3.042969 C 10.207031 -3.1875 10.222656 -3.382812 10.277344 -3.617188 Z M 8.964844 -4.519531 C 8.710938 -3.4375 7.921875 -2.394531 6.929688 -2.394531 C 6.246094 -2.394531 5.707031 -2.878906 5.707031 -4.210938 C 5.707031 -5.867188 6.550781 -7.507812 8.011719 -7.507812 C 8.875 -7.507812 9.523438 -6.949219 9.125 -5.21875 Z M 8.964844 -4.519531" stroke-linecap="round"/>
</g>
		<g transform="matrix(1.3333 0 0 1.3333 35.6713 121.7558)">
<path style="stroke: none; stroke-width: 1; stroke-dasharray: none; stroke-linecap: butt; stroke-dashoffset: 0; stroke-linejoin: miter; stroke-miterlimit: 4; is-custom-font: none; font-file-url: none; fill: rgb(0,0,0); fill-rule: nonzero; opacity: 1;" transform=" translate(-5.2207, 4.6426)" d="M 9.253906 -9.539062 L 7.703125 -9.539062 L 7.703125 -5.347656 C 7.703125 -2.089844 6.515625 -0.972656 5.023438 -0.972656 C 3.726562 -0.972656 2.953125 -1.710938 2.808594 -2.789062 C 2.753906 -3.277344 2.734375 -3.796875 2.734375 -4.105469 L 2.734375 -9.539062 L 1.1875 -9.539062 L 1.1875 -3.816406 C 1.1875 -3.042969 1.207031 -2.664062 1.277344 -2.179688 C 1.492188 -0.863281 2.644531 0.253906 4.625 0.253906 C 5.597656 0.253906 6.300781 0.0898438 7.109375 -0.503906 L 7.703125 -1.621094 L 7.703125 0 L 9.253906 0 Z M 9.253906 -9.539062" stroke-linecap="round"/>
</g>
		<g transform="matrix(1.3333 0 0 1.3333 44.7674 122.0187)">
<path style="stroke: none; stroke-width: 1; stroke-dasharray: none; stroke-linecap: butt; stroke-dashoffset: 0; stroke-linejoin: miter; stroke-miterlimit: 4; is-custom-font: none; font-file-url: none; fill: rgb(0,0,0); fill-rule: nonzero; opacity: 1;" transform=" translate(-1.3867, 4.4453)" d="M 2.015625 -12.671875 C 1.457031 -12.671875 1.027344 -12.238281 1.027344 -11.683594 C 1.027344 -11.125 1.457031 -10.691406 2.015625 -10.691406 C 2.574219 -10.691406 3.007812 -11.125 3.007812 -11.683594 C 3.007812 -12.238281 2.574219 -12.671875 2.015625 -12.671875 Z M 2.789062 -9.539062 L 1.242188 -9.539062 L 1.242188 0.898438 C 1.242188 1.171875 1.242188 1.441406 1.207031 1.691406 C 1.132812 2.269531 0.757812 2.574219 -0.234375 2.484375 L -0.234375 3.742188 C 0 3.78125 0.214844 3.78125 0.503906 3.78125 C 1.980469 3.78125 2.609375 3.132812 2.734375 1.980469 C 2.773438 1.65625 2.789062 1.1875 2.789062 0.828125 Z M 2.789062 -9.539062" stroke-linecap="round"/>
</g>
		<g transform="matrix(1.3333 0 0 1.3333 50.9323 126.7481)">
<path style="stroke: none; stroke-width: 1; stroke-dasharray: none; stroke-linecap: butt; stroke-dashoffset: 0; stroke-linejoin: miter; stroke-miterlimit: 4; is-custom-font: none; font-file-url: none; fill: rgb(0,0,0); fill-rule: nonzero; opacity: 1;" transform=" translate(-1.8164, 0.8984)" d="M 1.816406 -2.050781 C 1.152344 -2.050781 0.664062 -1.566406 0.664062 -0.898438 C 0.664062 -0.234375 1.152344 0.253906 1.816406 0.253906 C 2.484375 0.253906 2.96875 -0.234375 2.96875 -0.898438 C 2.96875 -1.566406 2.484375 -2.050781 1.816406 -2.050781 Z M 1.816406 -2.050781" stroke-linecap="round"/>
</g>
		<g transform="matrix(1.3333 0 0 1.3333 60.2564 121.5865)">
<path style="stroke: none; stroke-width: 1; stroke-dasharray: none; stroke-linecap: butt; stroke-dashoffset: 0; stroke-linejoin: miter; stroke-miterlimit: 4; is-custom-font: none; font-file-url: none; fill: rgb(0,0,0); fill-rule: nonzero; opacity: 1;" transform=" translate(-4.8496, 4.7695)" d="M 9.160156 -5.039062 C 9.160156 -7.828125 7.703125 -9.792969 5.074219 -9.792969 C 2.464844 -9.792969 0.539062 -7.828125 0.539062 -4.734375 C 0.539062 -1.367188 2.394531 0.253906 4.878906 0.253906 C 6.839844 0.253906 8.65625 -0.773438 9.035156 -3.078125 L 7.414062 -3.078125 C 7.199219 -1.710938 6.191406 -0.9375 4.949219 -0.9375 C 3.546875 -0.9375 2.359375 -1.78125 2.214844 -4.300781 L 9.125 -4.300781 C 9.160156 -4.644531 9.160156 -4.894531 9.160156 -5.039062 Z M 5.039062 -8.605469 C 6.605469 -8.605469 7.453125 -7.46875 7.597656 -5.488281 L 2.230469 -5.488281 C 2.410156 -7.523438 3.527344 -8.605469 5.039062 -8.605469 Z M 5.039062 -8.605469" stroke-linecap="round"/>
</g>
		<g transform="matrix(1.3333 0 0 1.3333 73.7683 119.2948)">
<path style="stroke: none; stroke-width: 1; stroke-dasharray: none; stroke-linecap: butt; stroke-dashoffset: 0; stroke-linejoin: miter; stroke-miterlimit: 4; is-custom-font: none; font-file-url: none; fill: rgb(0,0,0); fill-rule: nonzero; opacity: 1;" transform=" translate(-5.1016, 6.4883)" d="M 9.664062 -13.230469 L 8.117188 -13.230469 L 8.117188 -8.226562 L 7.488281 -9.160156 C 7.003906 -9.558594 5.992188 -9.792969 5.203125 -9.792969 C 2.734375 -9.792969 0.539062 -8.152344 0.539062 -4.625 C 0.539062 -1.835938 2.089844 0.253906 4.878906 0.253906 C 5.851562 0.253906 6.859375 -0.0546875 7.398438 -0.503906 L 8.117188 -1.53125 L 8.117188 0 L 9.664062 0 Z M 5.113281 -0.9375 C 3.203125 -0.9375 2.230469 -2.644531 2.230469 -4.804688 C 2.230469 -7.308594 3.527344 -8.605469 5.203125 -8.605469 C 6.570312 -8.605469 8.117188 -7.667969 8.117188 -5.203125 L 8.117188 -4.679688 C 8.117188 -1.945312 6.695312 -0.9375 5.113281 -0.9375 Z M 5.113281 -0.9375" stroke-linecap="round"/>
</g>
		<g transform="matrix(1.3333 0 0 1.3333 88.6871 121.7558)">
<path style="stroke: none; stroke-width: 1; stroke-dasharray: none; stroke-linecap: butt; stroke-dashoffset: 0; stroke-linejoin: miter; stroke-miterlimit: 4; is-custom-font: none; font-file-url: none; fill: rgb(0,0,0); fill-rule: nonzero; opacity: 1;" transform=" translate(-5.2207, 4.6426)" d="M 9.253906 -9.539062 L 7.703125 -9.539062 L 7.703125 -5.347656 C 7.703125 -2.089844 6.515625 -0.972656 5.023438 -0.972656 C 3.726562 -0.972656 2.953125 -1.710938 2.808594 -2.789062 C 2.753906 -3.277344 2.734375 -3.796875 2.734375 -4.105469 L 2.734375 -9.539062 L 1.1875 -9.539062 L 1.1875 -3.816406 C 1.1875 -3.042969 1.207031 -2.664062 1.277344 -2.179688 C 1.492188 -0.863281 2.644531 0.253906 4.625 0.253906 C 5.597656 0.253906 6.300781 0.0898438 7.109375 -0.503906 L 7.703125 -1.621094 L 7.703125 0 L 9.253906 0 Z M 9.253906 -9.539062" stroke-linecap="round"/>
</g>
		<g transform="matrix(1.3333 0 0 1.3333 98.3561 126.7481)">
<path style="stroke: none; stroke-width: 1; stroke-dasharray: none; stroke-linecap: butt; stroke-dashoffset: 0; stroke-linejoin: miter; stroke-miterlimit: 4; is-custom-font: none; font-file-url: none; fill: rgb(0,0,0); fill-rule: nonzero; opacity: 1;" transform=" translate(-1.8164, 0.8984)" d="M 1.816406 -2.050781 C 1.152344 -2.050781 0.664062 -1.566406 0.664062 -0.898438 C 0.664062 -0.234375 1.152344 0.253906 1.816406 0.253906 C 2.484375 0.253906 2.96875 -0.234375 2.96875 -0.898438 C 2.96875 -1.566406 2.484375 -2.050781 1.816406 -2.050781 Z M 1.816406 -2.050781" stroke-linecap="round"/>
</g>
		<g transform="matrix(1.3333 0 0 1.3333 109.0734 123.7687)">
<path style="stroke: none; stroke-width: 1; stroke-dasharray: none; stroke-linecap: butt; stroke-dashoffset: 0; stroke-linejoin: miter; stroke-miterlimit: 4; is-custom-font: none; font-file-url: none; fill: rgb(0,0,0); fill-rule: nonzero; opacity: 1;" transform=" translate(-5.8945, 3.1328)" d="M 6.121094 -9.792969 C 5.148438 -9.792969 4.140625 -9.484375 3.601562 -9.035156 L 2.878906 -8.011719 L 2.878906 -9.539062 L 1.332031 -9.539062 L 1.332031 3.527344 L 2.878906 3.527344 L 2.878906 -1.3125 L 3.511719 -0.378906 C 3.996094 0.0195312 5.003906 0.253906 5.796875 0.253906 C 8.261719 0.253906 10.457031 -1.386719 10.457031 -4.914062 C 10.457031 -7.703125 8.910156 -9.792969 6.121094 -9.792969 Z M 5.796875 -0.9375 C 4.429688 -0.9375 2.878906 -1.871094 2.878906 -4.339844 L 2.878906 -4.859375 C 2.878906 -7.597656 4.300781 -8.605469 5.886719 -8.605469 C 7.792969 -8.605469 8.765625 -6.894531 8.765625 -4.734375 C 8.765625 -2.230469 7.46875 -0.9375 5.796875 -0.9375 Z M 5.796875 -0.9375" stroke-linecap="round"/>
</g>
		<g transform="matrix(1.3333 0 0 1.3333 119.3834 119.1724)">
<path style="stroke: none; stroke-width: 1; stroke-dasharray: none; stroke-linecap: butt; stroke-dashoffset: 0; stroke-linejoin: miter; stroke-miterlimit: 4; is-custom-font: none; font-file-url: none; fill: rgb(0,0,0); fill-rule: nonzero; opacity: 1;" transform=" translate(-2.6289, 6.5801)" d="M 2.808594 -13.230469 L 1.261719 -13.230469 L 1.261719 -2.683594 C 1.261719 -2.160156 1.261719 -1.746094 1.277344 -1.421875 C 1.332031 -0.214844 1.996094 0.0703125 2.898438 0.0703125 C 3.257812 0.0703125 3.652344 0.0546875 3.996094 0 L 3.996094 -1.117188 C 3.148438 -1.027344 2.863281 -1.222656 2.824219 -1.835938 C 2.808594 -2.140625 2.808594 -2.449219 2.808594 -2.734375 Z M 2.808594 -13.230469" stroke-linecap="round"/>
</g>
</g>
</g>
</svg>