<svg xmlns="http://www.w3.org/2000/svg" xmlns:xlink="http://www.w3.org/1999/xlink" width="880" zoomAndPan="magnify" viewBox="0 0 660 576" height="768" preserveAspectRatio="xMidYMid meet" version="1.0"><defs><g/><clipPath id="aea20dcfcd"><path d="M 75.890625 0 L 651.890625 0 L 651.890625 576 L 75.890625 576 Z M 75.890625 0 " clip-rule="nonzero"/></clipPath><clipPath id="f0f2a8bbc0"><path d="M 363.890625 0 C 204.832031 0 75.890625 128.941406 75.890625 288 C 75.890625 447.058594 204.832031 576 363.890625 576 C 522.949219 576 651.890625 447.058594 651.890625 288 C 651.890625 128.941406 522.949219 0 363.890625 0 " clip-rule="nonzero"/></clipPath><clipPath id="f93a14e0ca"><path d="M 127.308594 51.417969 L 600.472656 51.417969 L 600.472656 524.582031 L 127.308594 524.582031 Z M 127.308594 51.417969 " clip-rule="nonzero"/></clipPath><clipPath id="2025907d1f"><path d="M 363.890625 51.417969 C 233.230469 51.417969 127.308594 157.339844 127.308594 288 C 127.308594 418.660156 233.230469 524.582031 363.890625 524.582031 C 494.550781 524.582031 600.472656 418.660156 600.472656 288 C 600.472656 157.339844 494.550781 51.417969 363.890625 51.417969 " clip-rule="nonzero"/></clipPath><clipPath id="9a76834494"><path d="M 237.175781 385.777344 L 258.925781 385.777344 L 258.925781 403.777344 L 237.175781 403.777344 Z M 237.175781 385.777344 " clip-rule="nonzero"/></clipPath></defs><rect x="-66" width="792" fill="none" y="-57.6" height="691.2" fill-opacity="1"/><g clip-path="url(#aea20dcfcd)"><g clip-path="url(#f0f2a8bbc0)"><path fill="#000000" d="M 75.890625 0 L 651.890625 0 L 651.890625 576 L 75.890625 576 Z M 75.890625 0 " fill-opacity="1" fill-rule="nonzero"/></g></g><g fill="#000000" fill-opacity="1"><g transform="translate(359.69442, 290.250008)"><g><path d="M 0.53125 0 L 0.53125 -4.9375 L 1.859375 -4.9375 L 1.859375 -1.078125 L 3.765625 -1.078125 L 3.765625 0 Z M 0.53125 0 "/></g></g></g><g fill="#000000" fill-opacity="1"><g transform="translate(363.704979, 290.250008)"><g><path d="M 4.109375 -1.921875 C 4.109375 -1.296875 3.9375 -0.804688 3.59375 -0.453125 C 3.257812 -0.109375 2.789062 0.0625 2.1875 0.0625 C 1.601562 0.0625 1.140625 -0.113281 0.796875 -0.46875 C 0.460938 -0.820312 0.296875 -1.304688 0.296875 -1.921875 C 0.296875 -2.546875 0.460938 -3.03125 0.796875 -3.375 C 1.128906 -3.71875 1.597656 -3.890625 2.203125 -3.890625 C 2.578125 -3.890625 2.910156 -3.804688 3.203125 -3.640625 C 3.492188 -3.484375 3.71875 -3.253906 3.875 -2.953125 C 4.03125 -2.660156 4.109375 -2.316406 4.109375 -1.921875 Z M 1.625 -1.921875 C 1.625 -1.585938 1.664062 -1.332031 1.75 -1.15625 C 1.84375 -0.988281 1.992188 -0.90625 2.203125 -0.90625 C 2.410156 -0.90625 2.554688 -0.988281 2.640625 -1.15625 C 2.722656 -1.332031 2.765625 -1.585938 2.765625 -1.921875 C 2.765625 -2.242188 2.71875 -2.488281 2.625 -2.65625 C 2.539062 -2.820312 2.394531 -2.90625 2.1875 -2.90625 C 1.988281 -2.90625 1.84375 -2.820312 1.75 -2.65625 C 1.664062 -2.488281 1.625 -2.242188 1.625 -1.921875 Z M 1.625 -1.921875 "/></g></g></g><g clip-path="url(#f93a14e0ca)"><g clip-path="url(#2025907d1f)"><path fill="#ffffff" d="M 127.308594 51.417969 L 600.472656 51.417969 L 600.472656 524.582031 L 127.308594 524.582031 Z M 127.308594 51.417969 " fill-opacity="1" fill-rule="nonzero"/></g></g><path fill="#e65243" d="M 19.304688 495.566406 C 14.269531 495.566406 9.296875 493.300781 6 488.996094 C 0.324219 481.628906 1.675781 471.050781 9.027344 465.359375 L 56.035156 428.933594 C 62.074219 424.238281 70.53125 424.238281 76.570312 428.933594 L 113.300781 457.382812 L 149.964844 428.933594 C 156.015625 424.238281 164.460938 424.238281 170.511719 428.933594 L 207.179688 457.382812 L 243.820312 428.933594 C 249.875 424.238281 258.324219 424.21875 264.378906 428.945312 L 311.238281 465.355469 C 318.589844 471.078125 319.925781 481.660156 314.238281 489.023438 C 308.546875 496.367188 297.996094 497.726562 290.660156 492.035156 L 254.097656 463.582031 L 217.445312 492.035156 C 211.390625 496.726562 202.957031 496.726562 196.894531 492.035156 L 160.25 463.582031 L 123.578125 492.035156 C 117.523438 496.726562 109.066406 496.714844 103.046875 492.046875 L 66.300781 463.570312 L 29.554688 492.046875 C 26.515625 494.417969 22.878906 495.566406 19.304688 495.566406 " fill-opacity="1" fill-rule="nonzero"/></svg>