<svg xmlns="http://www.w3.org/2000/svg" xmlns:xlink="http://www.w3.org/1999/xlink" width="880" zoomAndPan="magnify" viewBox="0 0 660 576" height="768" preserveAspectRatio="xMidYMid meet" version="1.0"><defs><g/><clipPath id="2aa7adb3b8"><path d="M 80.53125 0 L 656.53125 0 L 656.53125 576 L 80.53125 576 Z M 80.53125 0 " clip-rule="nonzero"/></clipPath><clipPath id="9849ac8a47"><path d="M 368.53125 0 C 209.472656 0 80.53125 128.941406 80.53125 288 C 80.53125 447.058594 209.472656 576 368.53125 576 C 527.589844 576 656.53125 447.058594 656.53125 288 C 656.53125 128.941406 527.589844 0 368.53125 0 " clip-rule="nonzero"/></clipPath><clipPath id="2b5ee5102b"><path d="M 131.949219 51.417969 L 605.113281 51.417969 L 605.113281 524.582031 L 131.949219 524.582031 Z M 131.949219 51.417969 " clip-rule="nonzero"/></clipPath><clipPath id="dbc288a8c9"><path d="M 368.53125 51.417969 C 237.871094 51.417969 131.949219 157.339844 131.949219 288 C 131.949219 418.660156 237.871094 524.582031 368.53125 524.582031 C 499.191406 524.582031 605.113281 418.660156 605.113281 288 C 605.113281 157.339844 499.191406 51.417969 368.53125 51.417969 " clip-rule="nonzero"/></clipPath><clipPath id="f5bcee8de8"><path d="M 241.816406 385.777344 L 263.566406 385.777344 L 263.566406 403.777344 L 241.816406 403.777344 Z M 241.816406 385.777344 " clip-rule="nonzero"/></clipPath><clipPath id="a150458564"><path d="M 3.46875 16.6875 L 94.003906 16.6875 L 94.003906 107.222656 L 3.46875 107.222656 Z M 3.46875 16.6875 " clip-rule="nonzero"/></clipPath><clipPath id="a26ba7451b"><path d="M 48.734375 16.6875 C 23.734375 16.6875 3.46875 36.957031 3.46875 61.957031 C 3.46875 86.957031 23.734375 107.222656 48.734375 107.222656 C 73.738281 107.222656 94.003906 86.957031 94.003906 61.957031 C 94.003906 36.957031 73.738281 16.6875 48.734375 16.6875 " clip-rule="nonzero"/></clipPath></defs><rect x="-66" width="792" fill="none" y="-57.6" height="691.2" fill-opacity="1"/><rect x="-66" width="792" fill="none" y="-57.6" height="691.2" fill-opacity="1"/><g clip-path="url(#2aa7adb3b8)"><g clip-path="url(#9849ac8a47)"><path fill="#000000" d="M 80.53125 0 L 656.53125 0 L 656.53125 576 L 80.53125 576 Z M 80.53125 0 " fill-opacity="1" fill-rule="nonzero"/></g></g><g fill="#000000" fill-opacity="1"><g transform="translate(364.335835, 290.250008)"><g><path d="M 0.53125 0 L 0.53125 -4.9375 L 1.859375 -4.9375 L 1.859375 -1.078125 L 3.765625 -1.078125 L 3.765625 0 Z M 0.53125 0 "/></g></g></g><g fill="#000000" fill-opacity="1"><g transform="translate(368.346394, 290.250008)"><g><path d="M 4.109375 -1.921875 C 4.109375 -1.296875 3.9375 -0.804688 3.59375 -0.453125 C 3.257812 -0.109375 2.789062 0.0625 2.1875 0.0625 C 1.601562 0.0625 1.140625 -0.113281 0.796875 -0.46875 C 0.460938 -0.820312 0.296875 -1.304688 0.296875 -1.921875 C 0.296875 -2.546875 0.460938 -3.03125 0.796875 -3.375 C 1.128906 -3.71875 1.597656 -3.890625 2.203125 -3.890625 C 2.578125 -3.890625 2.910156 -3.804688 3.203125 -3.640625 C 3.492188 -3.484375 3.71875 -3.253906 3.875 -2.953125 C 4.03125 -2.660156 4.109375 -2.316406 4.109375 -1.921875 Z M 1.625 -1.921875 C 1.625 -1.585938 1.664062 -1.332031 1.75 -1.15625 C 1.84375 -0.988281 1.992188 -0.90625 2.203125 -0.90625 C 2.410156 -0.90625 2.554688 -0.988281 2.640625 -1.15625 C 2.722656 -1.332031 2.765625 -1.585938 2.765625 -1.921875 C 2.765625 -2.242188 2.71875 -2.488281 2.625 -2.65625 C 2.539062 -2.820312 2.394531 -2.90625 2.1875 -2.90625 C 1.988281 -2.90625 1.84375 -2.820312 1.75 -2.65625 C 1.664062 -2.488281 1.625 -2.242188 1.625 -1.921875 Z M 1.625 -1.921875 "/></g></g></g><g clip-path="url(#2b5ee5102b)"><g clip-path="url(#dbc288a8c9)"><path fill="#ffffff" d="M 131.949219 51.417969 L 605.113281 51.417969 L 605.113281 524.582031 L 131.949219 524.582031 Z M 131.949219 51.417969 " fill-opacity="1" fill-rule="nonzero"/></g></g><g clip-path="url(#a150458564)"><g clip-path="url(#a26ba7451b)"><path fill="#000000" d="M 3.46875 16.6875 L 94.003906 16.6875 L 94.003906 107.222656 L 3.46875 107.222656 Z M 3.46875 16.6875 " fill-opacity="1" fill-rule="nonzero"/></g></g></svg>