<svg xmlns="http://www.w3.org/2000/svg" xmlns:xlink="http://www.w3.org/1999/xlink" width="40" zoomAndPan="magnify" viewBox="0 0 30 202.499994" height="270" preserveAspectRatio="xMidYMid meet" version="1.0"><defs><clipPath id="c47e385746"><path d="M 0.0351562 0 L 29.960938 0 L 29.960938 202 L 0.0351562 202 Z M 0.0351562 0 " clip-rule="nonzero"/></clipPath><clipPath id="e247974e78"><path d="M 1.648438 0 L 27.832031 0 L 27.832031 202 L 1.648438 202 Z M 1.648438 0 " clip-rule="nonzero"/></clipPath></defs><g clip-path="url(#c47e385746)"><path fill="none" d="M 0.0351562 0 L 29.964844 0 L 29.964844 209.484375 L 0.0351562 209.484375 Z M 0.0351562 0 " fill-opacity="1" fill-rule="nonzero"/><path fill="none" d="M 0.0351562 0 L 29.964844 0 L 29.964844 202 L 0.0351562 202 Z M 0.0351562 0 " fill-opacity="1" fill-rule="nonzero"/><path fill="none" d="M 0.0351562 0 L 29.964844 0 L 29.964844 202 L 0.0351562 202 Z M 0.0351562 0 " fill-opacity="1" fill-rule="nonzero"/></g><g clip-path="url(#e247974e78)"><rect x="-3" width="36" fill="none" y="-20.249999" height="242.999993" fill-opacity="1"/><rect x="-3" width="36" fill="none" y="-20.249999" height="242.999993" fill-opacity="1"/><rect x="-3" width="36" fill="none" y="-20.249999" height="242.999993" fill-opacity="1"/></g><path fill="#000000" d="M 3.074219 200.597656 L 3.074219 198.316406 L 3.832031 198.316406 L 3.832031 200.597656 Z M 3.074219 197.550781 L 3.074219 195.269531 L 3.832031 195.269531 L 3.832031 197.550781 Z M 3.074219 194.503906 L 3.074219 192.222656 L 3.832031 192.222656 L 3.832031 194.503906 Z M 3.074219 191.460938 L 3.074219 189.175781 L 3.832031 189.175781 L 3.832031 191.460938 Z M 3.074219 188.414062 L 3.074219 186.132812 L 3.832031 186.132812 L 3.832031 188.414062 Z M 3.074219 185.367188 L 3.074219 183.082031 L 3.832031 183.082031 L 3.832031 185.367188 Z M 3.074219 182.320312 L 3.074219 180.035156 L 3.832031 180.035156 L 3.832031 182.320312 Z M 3.074219 179.277344 L 3.074219 176.988281 L 3.832031 176.988281 L 3.832031 179.277344 Z M 3.074219 176.230469 L 3.074219 173.945312 L 3.832031 173.945312 L 3.832031 176.230469 Z M 3.074219 173.183594 L 3.074219 170.898438 L 3.832031 170.898438 L 3.832031 173.183594 Z M 3.074219 170.136719 L 3.074219 167.851562 L 3.832031 167.851562 L 3.832031 170.136719 Z M 3.074219 167.09375 L 3.074219 164.804688 L 3.832031 164.804688 L 3.832031 167.09375 Z M 3.074219 164.046875 L 3.074219 161.761719 L 3.832031 161.761719 L 3.832031 164.046875 Z M 3.074219 161 L 3.074219 158.714844 L 3.832031 158.714844 L 3.832031 161 Z M 3.074219 157.953125 L 3.074219 155.667969 L 3.832031 155.667969 L 3.832031 157.953125 Z M 3.074219 154.910156 L 3.074219 152.621094 L 3.832031 152.621094 L 3.832031 154.910156 Z M 3.074219 151.863281 L 3.074219 149.578125 L 3.832031 149.578125 L 3.832031 151.863281 Z M 3.074219 148.816406 L 3.074219 146.53125 L 3.832031 146.53125 L 3.832031 148.816406 Z M 3.074219 145.769531 L 3.074219 143.484375 L 3.832031 143.484375 L 3.832031 145.769531 Z M 3.074219 142.726562 L 3.074219 140.4375 L 3.832031 140.4375 L 3.832031 142.726562 Z M 3.074219 139.675781 L 3.074219 137.394531 L 3.832031 137.394531 L 3.832031 139.675781 Z M 3.074219 136.628906 L 3.074219 134.347656 L 3.832031 134.347656 L 3.832031 136.628906 Z M 3.074219 133.582031 L 3.074219 131.300781 L 3.832031 131.300781 L 3.832031 133.582031 Z M 3.074219 130.539062 L 3.074219 128.253906 L 3.832031 128.253906 L 3.832031 130.539062 Z M 3.074219 127.492188 L 3.074219 125.210938 L 3.832031 125.210938 L 3.832031 127.492188 Z M 3.074219 124.445312 L 3.074219 122.160156 L 3.832031 122.160156 L 3.832031 124.445312 Z M 3.074219 121.398438 L 3.074219 119.113281 L 3.832031 119.113281 L 3.832031 121.398438 Z M 3.074219 118.351562 L 3.074219 116.066406 L 3.832031 116.066406 L 3.832031 118.351562 Z M 3.074219 115.308594 L 3.074219 113.023438 L 3.832031 113.023438 L 3.832031 115.308594 Z M 3.074219 112.261719 L 3.074219 109.976562 L 3.832031 109.976562 L 3.832031 112.261719 Z M 3.074219 109.214844 L 3.074219 106.929688 L 3.832031 106.929688 L 3.832031 109.214844 Z M 3.074219 106.167969 L 3.074219 105.625 C 3.074219 104.949219 3.222656 104.308594 3.535156 103.707031 L 4.210938 104.058594 C 3.960938 104.546875 3.832031 105.070312 3.832031 105.625 L 3.832031 106.167969 Z M 3.992188 103 C 4.542969 102.316406 5.234375 101.851562 6.066406 101.605469 L 6.285156 102.339844 C 5.601562 102.539062 5.035156 102.921875 4.585938 103.476562 Z M 6.925781 101.449219 C 7.035156 101.441406 7.148438 101.4375 7.253906 101.4375 L 9.257812 101.4375 L 9.257812 102.199219 L 7.253906 102.199219 C 7.167969 102.199219 7.074219 102.203125 6.984375 102.207031 Z M 10.019531 101.4375 L 12.300781 101.4375 L 12.300781 102.199219 L 10.019531 102.199219 Z M 13.066406 101.4375 L 15.34375 101.4375 L 15.34375 102.199219 L 13.066406 102.199219 Z M 16.105469 101.4375 L 18.390625 101.4375 L 18.390625 102.199219 L 16.105469 102.199219 Z M 19.148438 101.4375 L 21.433594 101.4375 L 21.433594 102.199219 L 19.148438 102.199219 Z M 22.195312 101.4375 L 22.578125 101.4375 C 23.179688 101.4375 23.75 101.285156 24.273438 100.988281 L 24.648438 101.648438 C 24.007812 102.011719 23.316406 102.199219 22.578125 102.199219 L 22.195312 102.199219 Z M 24.832031 100.585938 C 25.375 100.113281 25.726562 99.527344 25.898438 98.839844 L 26.640625 99.019531 C 26.429688 99.867188 25.996094 100.578125 25.335938 101.15625 Z M 26 98.121094 C 26 98.082031 26 98.046875 26 98.007812 L 26 95.84375 L 26.757812 95.84375 L 26.757812 98.007812 C 26.757812 98.054688 26.757812 98.101562 26.757812 98.148438 Z M 26 95.078125 L 26 92.796875 L 26.757812 92.796875 L 26.757812 95.078125 Z M 26 92.03125 L 26 89.75 L 26.757812 89.75 L 26.757812 92.03125 Z M 26 88.984375 L 26 86.703125 L 26.757812 86.703125 L 26.757812 88.984375 Z M 26 85.941406 L 26 83.65625 L 26.757812 83.65625 L 26.757812 85.941406 Z M 26 82.894531 L 26 80.609375 L 26.757812 80.609375 L 26.757812 82.894531 Z M 26 79.847656 L 26 77.5625 L 26.757812 77.5625 L 26.757812 79.847656 Z M 26 76.800781 L 26 74.515625 L 26.757812 74.515625 L 26.757812 76.800781 Z M 26 73.757812 L 26 71.472656 L 26.757812 71.472656 L 26.757812 73.757812 Z M 26 70.710938 L 26 68.425781 L 26.757812 68.425781 L 26.757812 70.710938 Z M 26 67.664062 L 26 65.378906 L 26.757812 65.378906 L 26.757812 67.664062 Z M 26 64.617188 L 26 62.332031 L 26.757812 62.332031 L 26.757812 64.617188 Z M 26 61.574219 L 26 59.289062 L 26.757812 59.289062 L 26.757812 61.574219 Z M 26 58.527344 L 26 56.242188 L 26.757812 56.242188 L 26.757812 58.527344 Z M 26 55.480469 L 26 53.195312 L 26.757812 53.195312 L 26.757812 55.480469 Z M 26 52.433594 L 26 50.148438 L 26.757812 50.148438 L 26.757812 52.433594 Z M 26 49.390625 L 26 47.105469 L 26.757812 47.105469 L 26.757812 49.390625 Z M 26 46.34375 L 26 44.058594 L 26.757812 44.058594 L 26.757812 46.34375 Z M 26 43.296875 L 26 41.011719 L 26.757812 41.011719 L 26.757812 43.296875 Z M 26 40.25 L 26 37.964844 L 26.757812 37.964844 L 26.757812 40.25 Z M 26 37.203125 L 26 34.921875 L 26.757812 34.921875 L 26.757812 37.203125 Z M 26 34.15625 L 26 31.875 L 26.757812 31.875 L 26.757812 34.15625 Z M 26 31.109375 L 26 28.828125 L 26.757812 28.828125 L 26.757812 31.109375 Z M 26 28.0625 L 26 25.78125 L 26.757812 25.78125 L 26.757812 28.0625 Z M 26 25.019531 L 26 22.734375 L 26.757812 22.734375 L 26.757812 25.019531 Z M 26 21.972656 L 26 19.6875 L 26.757812 19.6875 L 26.757812 21.972656 Z M 26 18.925781 L 26 16.640625 L 26.757812 16.640625 L 26.757812 18.925781 Z M 26 15.878906 L 26 13.59375 L 26.757812 13.59375 L 26.757812 15.878906 Z M 26 12.835938 L 26 10.550781 L 26.757812 10.550781 L 26.757812 12.835938 Z M 26 9.789062 L 26 7.503906 L 26.757812 7.503906 L 26.757812 9.789062 Z M 26 6.742188 L 26 4.457031 L 26.757812 4.457031 L 26.757812 6.742188 Z M 26 3.695312 L 26 3.035156 L 26.757812 3.035156 L 26.757812 3.695312 Z M 26 3.695312 " fill-opacity="1" fill-rule="nonzero"/></svg>