<svg xmlns="http://www.w3.org/2000/svg" xmlns:xlink="http://www.w3.org/1999/xlink" width="40" zoomAndPan="magnify" viewBox="0 0 30 172.499995" height="230" preserveAspectRatio="xMidYMid meet" version="1.0"><path fill="#000000" d="M 3.203125 0 L 3.203125 0.746094 L 2.449219 0.746094 L 2.449219 0 Z M 3.203125 1.496094 L 3.203125 2.242188 L 2.449219 2.242188 L 2.449219 1.496094 Z M 3.203125 2.992188 L 3.203125 3.738281 L 2.449219 3.738281 L 2.449219 2.992188 Z M 3.203125 4.488281 L 3.203125 5.234375 L 2.449219 5.234375 L 2.449219 4.488281 Z M 3.203125 5.984375 L 3.203125 6.730469 L 2.449219 6.730469 L 2.449219 5.984375 Z M 3.203125 7.476562 L 3.203125 8.226562 L 2.449219 8.226562 L 2.449219 7.476562 Z M 3.203125 8.972656 L 3.203125 9.722656 L 2.449219 9.722656 L 2.449219 8.972656 Z M 3.203125 10.46875 L 3.203125 11.21875 L 2.449219 11.21875 L 2.449219 10.46875 Z M 3.203125 11.964844 L 3.203125 12.714844 L 2.449219 12.714844 L 2.449219 11.964844 Z M 3.203125 13.460938 L 3.203125 14.207031 L 2.449219 14.207031 L 2.449219 13.460938 Z M 3.203125 14.957031 L 3.203125 15.703125 L 2.449219 15.703125 L 2.449219 14.957031 Z M 3.203125 16.453125 L 3.203125 17.199219 L 2.449219 17.199219 L 2.449219 16.453125 Z M 3.203125 17.949219 L 3.203125 18.695312 L 2.449219 18.695312 L 2.449219 17.949219 Z M 3.203125 19.445312 L 3.203125 20.191406 L 2.449219 20.191406 L 2.449219 19.445312 Z M 3.203125 20.9375 L 3.203125 21.6875 L 2.449219 21.6875 L 2.449219 20.9375 Z M 3.203125 22.433594 L 3.203125 23.183594 L 2.449219 23.183594 L 2.449219 22.433594 Z M 3.203125 23.929688 L 3.203125 24.679688 L 2.449219 24.679688 L 2.449219 23.929688 Z M 3.203125 25.425781 L 3.203125 26.175781 L 2.449219 26.175781 L 2.449219 25.425781 Z M 3.203125 26.921875 L 3.203125 27.667969 L 2.449219 27.667969 L 2.449219 26.921875 Z M 3.203125 28.417969 L 3.203125 29.164062 L 2.449219 29.164062 L 2.449219 28.417969 Z M 3.203125 29.914062 L 3.203125 30.660156 L 2.449219 30.660156 L 2.449219 29.914062 Z M 3.203125 31.410156 L 3.203125 32.15625 L 2.449219 32.15625 L 2.449219 31.410156 Z M 3.203125 32.90625 L 3.203125 33.652344 L 2.449219 33.652344 L 2.449219 32.90625 Z M 3.203125 34.398438 L 3.203125 35.148438 L 2.449219 35.148438 L 2.449219 34.398438 Z M 3.203125 35.894531 L 3.203125 36.644531 L 2.449219 36.644531 L 2.449219 35.894531 Z M 3.203125 37.390625 L 3.203125 38.140625 L 2.449219 38.140625 L 2.449219 37.390625 Z M 3.203125 38.886719 L 3.203125 39.636719 L 2.449219 39.636719 L 2.449219 38.886719 Z M 3.203125 40.382812 L 3.203125 41.128906 L 2.449219 41.128906 L 2.449219 40.382812 Z M 3.203125 41.878906 L 3.203125 42.625 L 2.449219 42.625 L 2.449219 41.878906 Z M 3.203125 43.375 L 3.203125 44.121094 L 2.449219 44.121094 L 2.449219 43.375 Z M 3.203125 44.871094 L 3.203125 45.617188 L 2.449219 45.617188 L 2.449219 44.871094 Z M 3.203125 46.367188 L 3.203125 47.113281 L 2.449219 47.113281 L 2.449219 46.367188 Z M 3.203125 47.859375 L 3.203125 48.609375 L 2.449219 48.609375 L 2.449219 47.859375 Z M 3.203125 49.355469 L 3.203125 50.105469 L 2.449219 50.105469 L 2.449219 49.355469 Z M 3.203125 50.851562 L 3.203125 51.601562 L 2.449219 51.601562 L 2.449219 50.851562 Z M 3.203125 52.347656 L 3.203125 53.097656 L 2.449219 53.097656 L 2.449219 52.347656 Z M 3.203125 53.84375 L 3.203125 54.589844 L 2.449219 54.589844 L 2.449219 53.84375 Z M 3.203125 55.339844 L 3.203125 56.085938 L 2.449219 56.085938 L 2.449219 55.339844 Z M 3.203125 56.835938 L 3.203125 57.582031 L 2.449219 57.582031 L 2.449219 56.835938 Z M 3.203125 58.332031 L 3.203125 59.078125 L 2.449219 59.078125 L 2.449219 58.332031 Z M 3.203125 59.828125 L 3.203125 60.574219 L 2.449219 60.574219 L 2.449219 59.828125 Z M 3.203125 61.320312 L 3.203125 62.070312 L 2.449219 62.070312 L 2.449219 61.320312 Z M 3.203125 62.816406 L 3.203125 63.566406 L 2.449219 63.566406 L 2.449219 62.816406 Z M 3.203125 64.3125 L 3.203125 65.0625 L 2.449219 65.0625 L 2.449219 64.3125 Z M 3.203125 65.808594 L 3.203125 66.558594 L 2.449219 66.558594 L 2.449219 65.808594 Z M 3.203125 67.304688 L 3.203125 68.054688 L 2.449219 68.054688 L 2.449219 67.304688 Z M 3.203125 68.800781 L 3.203125 69.546875 L 2.449219 69.546875 L 2.449219 68.800781 Z M 3.203125 70.296875 L 3.203125 71.042969 L 2.449219 71.042969 L 2.449219 70.296875 Z M 3.203125 71.792969 L 3.203125 72.539062 L 2.449219 72.539062 L 2.449219 71.792969 Z M 3.203125 73.289062 L 3.203125 74.035156 L 2.449219 74.035156 L 2.449219 73.289062 Z M 3.203125 74.785156 L 3.203125 75.53125 L 2.449219 75.53125 L 2.449219 74.785156 Z M 3.203125 76.277344 L 3.203125 77.027344 L 2.449219 77.027344 L 2.449219 76.277344 Z M 3.203125 77.773438 L 3.203125 78.523438 L 2.449219 78.523438 L 2.449219 77.773438 Z M 3.203125 79.269531 L 3.203125 80.019531 L 2.449219 80.019531 L 2.449219 79.269531 Z M 3.203125 80.765625 L 3.203125 81.515625 L 2.449219 81.515625 L 2.449219 80.765625 Z M 3.203125 82.261719 L 3.203125 83.007812 L 2.449219 83.007812 L 2.449219 82.261719 Z M 3.203125 83.757812 L 3.203125 84.503906 L 2.449219 84.503906 L 2.449219 83.757812 Z M 3.203125 85.253906 L 3.203125 86 L 2.449219 86 L 2.449219 85.253906 Z M 3.203125 86.75 L 3.203125 87.496094 L 2.449219 87.496094 L 2.449219 86.75 Z M 3.203125 88.246094 L 3.203125 88.992188 L 2.449219 88.992188 L 2.449219 88.246094 Z M 3.203125 89.738281 L 3.203125 90.488281 L 2.449219 90.488281 L 2.449219 89.738281 Z M 3.203125 91.234375 L 3.203125 91.984375 L 2.449219 91.984375 L 2.449219 91.234375 Z M 3.203125 92.730469 L 3.203125 93.480469 L 2.449219 93.480469 L 2.449219 92.730469 Z M 3.203125 94.226562 L 3.203125 94.976562 L 2.449219 94.976562 L 2.449219 94.226562 Z M 3.203125 95.722656 L 3.203125 96.46875 L 2.449219 96.46875 L 2.449219 95.722656 Z M 3.203125 97.21875 L 3.203125 97.964844 L 2.449219 97.964844 L 2.449219 97.21875 Z M 3.203125 98.714844 L 3.203125 99.460938 L 2.449219 99.460938 L 2.449219 98.714844 Z M 3.203125 100.210938 L 3.203125 100.957031 L 2.449219 100.957031 L 2.449219 100.210938 Z M 3.203125 101.707031 L 3.203125 102.453125 L 2.449219 102.453125 L 2.449219 101.707031 Z M 3.203125 103.199219 L 3.203125 103.949219 L 2.449219 103.949219 L 2.449219 103.199219 Z M 3.203125 104.695312 L 3.203125 105.445312 L 2.449219 105.445312 L 2.449219 104.695312 Z M 3.203125 106.191406 L 3.203125 106.941406 L 2.449219 106.941406 L 2.449219 106.191406 Z M 3.203125 107.6875 L 3.203125 108.4375 L 2.449219 108.4375 L 2.449219 107.6875 Z M 3.203125 109.183594 L 3.203125 109.929688 L 2.449219 109.929688 L 2.449219 109.183594 Z M 3.203125 110.679688 L 3.203125 111.425781 L 2.449219 111.425781 L 2.449219 110.679688 Z M 3.203125 112.175781 L 3.203125 112.921875 L 2.449219 112.921875 L 2.449219 112.175781 Z M 3.203125 113.671875 L 3.203125 114.417969 L 2.449219 114.417969 L 2.449219 113.671875 Z M 3.203125 115.167969 L 3.203125 115.914062 L 2.449219 115.914062 L 2.449219 115.167969 Z M 3.203125 116.660156 L 3.203125 117.410156 L 2.449219 117.410156 L 2.449219 116.660156 Z M 3.203125 118.15625 L 3.203125 118.90625 L 2.449219 118.90625 L 2.449219 118.15625 Z M 3.203125 119.652344 L 3.203125 120.402344 L 2.449219 120.402344 L 2.449219 119.652344 Z M 3.203125 121.148438 L 3.203125 121.898438 L 2.449219 121.898438 L 2.449219 121.148438 Z M 3.203125 122.644531 L 3.203125 123.390625 L 2.449219 123.390625 L 2.449219 122.644531 Z M 3.203125 124.140625 L 3.203125 124.886719 L 2.449219 124.886719 L 2.449219 124.140625 Z M 3.203125 125.636719 L 3.203125 126.382812 L 2.449219 126.382812 L 2.449219 125.636719 Z M 3.203125 127.132812 L 3.203125 127.878906 L 2.449219 127.878906 L 2.449219 127.132812 Z M 3.203125 128.628906 L 3.203125 129.375 L 2.449219 129.375 L 2.449219 128.628906 Z M 3.203125 130.121094 L 3.203125 130.871094 L 2.449219 130.871094 L 2.449219 130.121094 Z M 3.203125 131.617188 L 3.203125 132.367188 L 2.449219 132.367188 L 2.449219 131.617188 Z M 3.203125 133.113281 L 3.203125 133.863281 L 2.449219 133.863281 L 2.449219 133.113281 Z M 3.203125 134.609375 L 3.203125 135.359375 L 2.449219 135.359375 L 2.449219 134.609375 Z M 3.203125 136.105469 L 3.203125 136.851562 L 2.449219 136.851562 L 2.449219 136.105469 Z M 3.203125 137.601562 L 3.203125 138.347656 L 2.449219 138.347656 L 2.449219 137.601562 Z M 3.203125 139.097656 L 3.203125 139.84375 L 2.449219 139.84375 L 2.449219 139.097656 Z M 3.203125 140.59375 L 3.203125 141.339844 L 2.449219 141.339844 L 2.449219 140.59375 Z M 3.203125 142.089844 L 3.203125 142.835938 L 2.449219 142.835938 L 2.449219 142.089844 Z M 3.203125 143.582031 L 3.203125 144.332031 L 2.449219 144.332031 L 2.449219 143.582031 Z M 3.203125 145.078125 L 3.203125 145.828125 L 2.449219 145.828125 L 2.449219 145.078125 Z M 3.203125 146.574219 L 3.203125 147.324219 L 2.449219 147.324219 L 2.449219 146.574219 Z M 3.203125 148.070312 L 3.203125 148.820312 L 2.449219 148.820312 L 2.449219 148.070312 Z M 3.203125 149.566406 L 3.203125 150.3125 L 2.449219 150.3125 L 2.449219 149.566406 Z M 3.203125 151.0625 L 3.203125 151.808594 L 2.449219 151.808594 L 2.449219 151.0625 Z M 3.203125 152.558594 L 3.203125 153.304688 L 2.449219 153.304688 L 2.449219 152.558594 Z M 3.203125 154.054688 L 3.203125 154.800781 L 2.449219 154.800781 L 2.449219 154.054688 Z M 3.203125 155.550781 L 3.203125 156.296875 L 2.449219 156.296875 L 2.449219 155.550781 Z M 3.203125 157.042969 L 3.203125 157.792969 L 2.449219 157.792969 L 2.449219 157.042969 Z M 3.203125 158.539062 L 3.203125 159.289062 L 2.449219 159.289062 L 2.449219 158.539062 Z M 3.203125 160.035156 L 3.203125 160.785156 L 2.449219 160.785156 L 2.449219 160.035156 Z M 3.203125 161.53125 L 3.203125 162.28125 L 2.449219 162.28125 L 2.449219 161.53125 Z M 3.203125 163.027344 L 3.203125 163.773438 L 2.449219 163.773438 L 2.449219 163.027344 Z M 3.203125 164.523438 L 3.203125 164.898438 C 3.203125 165.015625 3.210938 165.136719 3.21875 165.257812 L 2.460938 165.3125 C 2.453125 165.171875 2.449219 165.035156 2.449219 164.898438 L 2.449219 164.523438 Z M 3.320312 165.953125 C 3.371094 166.175781 3.4375 166.398438 3.519531 166.613281 L 2.8125 166.875 C 2.714844 166.628906 2.640625 166.375 2.582031 166.113281 Z M 3.816406 167.246094 C 3.929688 167.449219 4.058594 167.644531 4.203125 167.828125 L 3.597656 168.28125 C 3.433594 168.066406 3.285156 167.839844 3.152344 167.605469 Z M 4.664062 168.351562 C 4.832031 168.515625 5.011719 168.667969 5.199219 168.804688 L 4.75 169.40625 C 4.53125 169.246094 4.324219 169.074219 4.132812 168.882812 Z M 5.796875 169.179688 C 6.003906 169.289062 6.21875 169.386719 6.441406 169.464844 L 6.179688 170.167969 C 5.925781 170.074219 5.675781 169.964844 5.4375 169.839844 Z M 7.109375 169.652344 C 7.34375 169.703125 7.578125 169.734375 7.816406 169.75 L 7.769531 170.496094 C 7.496094 170.476562 7.222656 170.441406 6.957031 170.386719 Z M 8.5625 169.757812 L 9.320312 169.757812 L 9.320312 170.503906 L 8.5625 170.503906 Z M 10.078125 169.757812 L 10.835938 169.757812 L 10.835938 170.503906 L 10.078125 170.503906 Z M 11.59375 169.757812 L 12.351562 169.757812 L 12.351562 170.503906 L 11.59375 170.503906 Z M 13.109375 169.757812 L 13.867188 169.757812 L 13.867188 170.503906 L 13.109375 170.503906 Z M 14.625 169.757812 L 15.164062 169.757812 L 15.164062 170.503906 L 14.625 170.503906 Z M 14.625 169.757812 " fill-opacity="1" fill-rule="nonzero"/></svg>