<svg xmlns="http://www.w3.org/2000/svg" xmlns:xlink="http://www.w3.org/1999/xlink" width="100" zoomAndPan="magnify" viewBox="0 0 75 74.999997" height="100" preserveAspectRatio="xMidYMid meet" version="1.0"><defs><clipPath id="2d19e35554"><path d="M 64 57 L 69.75 57 L 69.75 66 L 64 66 Z M 64 57 " clip-rule="nonzero"/></clipPath><clipPath id="71e641ff8e"><path d="M 5.25 4 L 9 4 L 9 16 L 5.25 16 Z M 5.25 4 " clip-rule="nonzero"/></clipPath></defs><path fill="#000000" d="M 65.074219 29.179688 C 65.660156 26.984375 67.132812 23.972656 66.234375 21.6875 C 65.339844 19.402344 62.722656 19.492188 60.875 20.5 C 58.882812 21.582031 57.792969 23.617188 56.949219 25.625 C 56.132812 27.496094 53.375 35.679688 52.75 35.386719 C 51.9375 35.050781 53.5625 29.644531 53.921875 27.796875 C 54.734375 23.484375 57.3125 13.019531 56.199219 9.617188 C 56.074219 9.230469 55.886719 8.875 55.640625 8.550781 C 55.394531 8.226562 55.101562 7.949219 54.765625 7.722656 C 54.425781 7.496094 54.058594 7.328125 53.664062 7.226562 C 53.273438 7.121094 52.871094 7.082031 52.464844 7.113281 C 49.675781 7.234375 48.246094 9.429688 47.300781 12.097656 C 46.359375 14.765625 42.550781 28.722656 42.007812 29.992188 C 41.488281 25.664062 41.382812 21.328125 41.679688 16.980469 C 41.847656 13.183594 41.496094 9.4375 40.632812 5.738281 C 39.980469 2.859375 36.847656 0.0859375 33.726562 2.109375 C 30.472656 4.226562 30.308594 9.902344 30.210938 13.292969 C 30.082031 18.3125 31.132812 29.632812 29.839844 29.226562 C 29.023438 29.429688 28.359375 24.085938 27.902344 21.761719 C 27.144531 17.898438 25.722656 7.445312 19.53125 8.585938 C 17.800781 8.902344 17.539062 10.976562 17.457031 12.5625 C 17.222656 17.441406 17.867188 22.378906 18.394531 27.203125 C 18.800781 30.878906 19.257812 34.523438 19.671875 38.230469 C 18.539062 37.066406 17.332031 35.980469 16.050781 34.980469 C 14.359375 33.636719 12.523438 32.132812 10.226562 32.214844 C 9.847656 32.210938 9.480469 32.265625 9.117188 32.371094 C 8.753906 32.480469 8.414062 32.640625 8.101562 32.851562 C 7.789062 33.0625 7.511719 33.316406 7.273438 33.613281 C 7.035156 33.90625 6.847656 34.230469 6.707031 34.578125 C 5.65625 38.445312 8.480469 42.378906 10.714844 45.40625 C 12.21875 47.300781 13.554688 49.3125 14.71875 51.433594 C 15.824219 53.605469 16.703125 55.890625 17.785156 58.078125 C 20.109375 62.796875 25.519531 67.375 24.460938 73.15625 C 24.410156 73.425781 24.457031 73.671875 24.597656 73.90625 C 24.742188 74.136719 24.945312 74.289062 25.207031 74.359375 C 25.46875 74.433594 25.71875 74.40625 25.960938 74.28125 C 26.203125 74.15625 26.371094 73.964844 26.460938 73.710938 C 27.976562 68.261719 24.234375 63.78125 21.453125 59.535156 C 20.09375 57.226562 18.921875 54.824219 17.945312 52.328125 C 16.824219 49.789062 15.4375 47.398438 13.789062 45.160156 C 12.164062 42.964844 10.472656 40.792969 9.59375 38.191406 C 8.472656 34.871094 10.40625 34.847656 11.34375 35.085938 C 13.78125 35.710938 16.871094 39.671875 17.597656 40.492188 C 18.867188 41.941406 19.9375 43.542969 21.109375 45.074219 C 21.246094 45.28125 21.417969 45.457031 21.628906 45.59375 C 21.835938 45.734375 22.066406 45.824219 22.3125 45.863281 C 22.558594 45.90625 22.804688 45.898438 23.046875 45.839844 C 23.289062 45.777344 23.507812 45.671875 23.707031 45.519531 C 23.90625 45.363281 24.066406 45.179688 24.183594 44.957031 C 24.304688 44.738281 24.375 44.503906 24.398438 44.253906 C 24.417969 44.003906 24.386719 43.761719 24.308594 43.523438 C 24.226562 43.289062 24.101562 43.078125 23.933594 42.894531 L 22.445312 41.167969 C 22.445312 33.578125 20.921875 26.03125 20.425781 18.476562 C 20.304688 16.582031 20.214844 14.675781 20.257812 12.78125 C 20.257812 11.765625 20.476562 10.480469 21.625 11.625 C 22.308594 12.433594 22.832031 13.335938 23.199219 14.328125 C 24.828125 18.042969 25.316406 22.152344 25.992188 26.113281 C 26.382812 28.429688 26.804688 34.457031 30.269531 34.09375 C 34.148438 33.683594 33.75 27.585938 33.816406 24.894531 C 33.929688 20.273438 33.726562 15.628906 34.101562 11.015625 C 34.230469 9.347656 34.289062 7.21875 35.148438 5.707031 C 36.011719 4.191406 36.832031 5.324219 37.363281 6.46875 C 37.914062 7.859375 38.238281 9.296875 38.328125 10.789062 C 38.589844 13.269531 38.734375 15.78125 38.769531 18.273438 C 38.824219 23.152344 38.46875 28.121094 39.828125 32.914062 C 40.144531 33.996094 41.753906 34.808594 43.324219 32.847656 C 44.699219 31.132812 49.015625 16.441406 49.699219 14.140625 C 50.089844 12.847656 51.425781 8.683594 53.214844 10.269531 C 54.417969 11.332031 53.605469 13.765625 53.402344 15.199219 C 52.800781 19.34375 51.9375 23.453125 51.1875 27.578125 C 50.683594 30.359375 49.847656 33.734375 50.515625 36.566406 C 50.75 37.597656 51.328125 38.363281 52.523438 38.132812 C 54.011719 37.851562 54.875 36.417969 55.507812 35.183594 C 57.304688 31.707031 58.191406 27.046875 60.925781 24.191406 C 61.332031 23.769531 62.976562 22.347656 63.527344 23.113281 C 63.722656 23.378906 62.714844 26.566406 62.460938 27.511719 C 61.648438 30.40625 60.964844 33.320312 60.316406 36.246094 C 58.84375 42.804688 57.964844 49.5625 55.191406 55.769531 C 53.863281 58.558594 52.019531 61.046875 50.449219 63.738281 C 48.957031 66.566406 48.144531 69.574219 48.007812 72.765625 C 47.847656 74.839844 51.140625 74.859375 51.261719 72.765625 C 51.359375 69.648438 52.207031 66.75 53.808594 64.074219 C 55.421875 61.609375 56.851562 59.042969 58.09375 56.371094 C 60.535156 50.675781 61.511719 44.585938 62.8125 38.550781 C 63.503906 35.410156 64.21875 32.277344 65.074219 29.179688 Z M 65.074219 29.179688 " fill-opacity="1" fill-rule="nonzero"/><path fill="#000000" d="M 27.660156 44.976562 C 25.714844 44.363281 24.882812 47.414062 26.84375 48.015625 C 29.734375 48.867188 32.40625 50.164062 34.863281 51.90625 C 36.859375 53.359375 38.378906 55.3125 40.039062 57.117188 C 40.964844 58.128906 42.316406 56.84375 41.820312 55.742188 C 39.175781 49.992188 33.441406 46.789062 27.660156 44.976562 Z M 27.660156 44.976562 " fill-opacity="1" fill-rule="nonzero"/><path fill="#000000" d="M 66.277344 50.082031 C 64.367188 55.65625 61.703125 60.839844 58.28125 65.632812 C 57.597656 66.5625 59.160156 67.472656 59.828125 66.539062 C 63.433594 61.664062 65.902344 56.269531 67.230469 50.351562 C 67.253906 50.226562 67.230469 50.105469 67.164062 49.996094 C 67.097656 49.886719 67 49.816406 66.875 49.78125 C 66.753906 49.746094 66.632812 49.757812 66.515625 49.816406 C 66.402344 49.871094 66.320312 49.960938 66.277344 50.082031 Z M 66.277344 50.082031 " fill-opacity="1" fill-rule="nonzero"/><g clip-path="url(#2d19e35554)"><path fill="#000000" d="M 68.601562 57.425781 C 67.863281 58.417969 67.335938 59.550781 66.691406 60.609375 C 66.050781 61.664062 65.171875 62.59375 64.578125 63.675781 C 64.453125 63.890625 64.417969 64.117188 64.464844 64.359375 C 64.511719 64.601562 64.636719 64.800781 64.832031 64.953125 C 65.027344 65.101562 65.246094 65.171875 65.496094 65.15625 C 65.742188 65.144531 65.953125 65.050781 66.128906 64.878906 C 67.117188 63.855469 67.898438 62.695312 68.472656 61.398438 C 69.121094 60.25 69.511719 59.023438 69.644531 57.710938 C 69.683594 57.09375 68.902344 57.027344 68.601562 57.425781 Z M 68.601562 57.425781 " fill-opacity="1" fill-rule="nonzero"/></g><path fill="#000000" d="M 12.164062 16.652344 C 10.765625 13.050781 11.527344 9.714844 12.976562 6.273438 C 13.125 5.917969 12.617188 5.722656 12.382812 5.925781 C 9.339844 8.65625 9.023438 13.480469 10.429688 17.125 C 10.847656 18.191406 12.585938 17.726562 12.164062 16.652344 Z M 12.164062 16.652344 " fill-opacity="1" fill-rule="nonzero"/><g clip-path="url(#71e641ff8e)"><path fill="#000000" d="M 7.894531 14.726562 C 7.699219 13.160156 7.65625 11.589844 7.753906 10.015625 C 7.910156 8.480469 8.414062 7 8.460938 5.453125 C 8.453125 5.222656 8.34375 5.0625 8.132812 4.976562 C 7.917969 4.886719 7.726562 4.921875 7.558594 5.078125 C 5.429688 7.519531 5.21875 11.984375 5.933594 14.992188 C 6.019531 15.214844 6.164062 15.382812 6.363281 15.503906 C 6.566406 15.621094 6.785156 15.667969 7.019531 15.632812 C 7.253906 15.601562 7.449219 15.5 7.613281 15.332031 C 7.777344 15.164062 7.871094 14.960938 7.894531 14.726562 Z M 7.894531 14.726562 " fill-opacity="1" fill-rule="nonzero"/></g></svg>