<svg xmlns="http://www.w3.org/2000/svg" xmlns:xlink="http://www.w3.org/1999/xlink" width="40" zoomAndPan="magnify" viewBox="0 0 30 431.999984" height="576" preserveAspectRatio="xMidYMid meet" version="1.0"><path fill="#000000" d="M 3.375 3 L 3.375 5.25 L 2.625 5.25 L 2.625 3 Z M 3.375 6 L 3.375 8.25 L 2.625 8.25 L 2.625 6 Z M 3.375 9 L 3.375 11.25 L 2.625 11.25 L 2.625 9 Z M 3.375 12 L 3.375 14.25 L 2.625 14.25 L 2.625 12 Z M 3.375 15 L 3.375 17.25 L 2.625 17.25 L 2.625 15 Z M 3.375 18 L 3.375 20.25 L 2.625 20.25 L 2.625 18 Z M 3.375 21 L 3.375 23.25 L 2.625 23.25 L 2.625 21 Z M 3.375 24 L 3.375 26.25 L 2.625 26.25 L 2.625 24 Z M 3.375 27 L 3.375 29.25 L 2.625 29.25 L 2.625 27 Z M 3.375 30 L 3.375 32.25 L 2.625 32.25 L 2.625 30 Z M 3.375 33 L 3.375 35.25 L 2.625 35.25 L 2.625 33 Z M 3.375 36 L 3.375 38.25 L 2.625 38.25 L 2.625 36 Z M 3.375 39 L 3.375 41.25 L 2.625 41.25 L 2.625 39 Z M 3.375 42 L 3.375 44.25 L 2.625 44.25 L 2.625 42 Z M 3.375 45 L 3.375 47.25 L 2.625 47.25 L 2.625 45 Z M 3.375 48 L 3.375 50.25 L 2.625 50.25 L 2.625 48 Z M 3.375 51 L 3.375 53.25 L 2.625 53.25 L 2.625 51 Z M 3.375 54 L 3.375 56.25 L 2.625 56.25 L 2.625 54 Z M 3.375 57 L 3.375 59.25 L 2.625 59.25 L 2.625 57 Z M 3.375 60 L 3.375 62.25 L 2.625 62.25 L 2.625 60 Z M 3.375 63 L 3.375 65.25 L 2.625 65.25 L 2.625 63 Z M 3.375 66 L 3.375 68.25 L 2.625 68.25 L 2.625 66 Z M 3.375 69 L 3.375 71.25 L 2.625 71.25 L 2.625 69 Z M 3.375 72 L 3.375 74.25 L 2.625 74.25 L 2.625 72 Z M 3.375 75 L 3.375 77.25 L 2.625 77.25 L 2.625 75 Z M 3.375 78 L 3.375 80.25 L 2.625 80.25 L 2.625 78 Z M 3.375 81 L 3.375 83.25 L 2.625 83.25 L 2.625 81 Z M 3.375 84 L 3.375 86.25 L 2.625 86.25 L 2.625 84 Z M 3.375 87 L 3.375 89.25 L 2.625 89.25 L 2.625 87 Z M 3.375 90 L 3.375 92.25 L 2.625 92.25 L 2.625 90 Z M 3.375 93 L 3.375 95.25 L 2.625 95.25 L 2.625 93 Z M 3.375 96 L 3.375 98.25 L 2.625 98.25 L 2.625 96 Z M 3.375 99 L 3.375 101.25 L 2.625 101.25 L 2.625 99 Z M 3.375 102 L 3.375 104.25 L 2.625 104.25 L 2.625 102 Z M 3.375 105 L 3.375 107.25 L 2.625 107.25 L 2.625 105 Z M 3.375 108 L 3.375 110.25 L 2.625 110.25 L 2.625 108 Z M 3.375 111 L 3.375 113.25 L 2.625 113.25 L 2.625 111 Z M 3.375 114 L 3.375 116.25 L 2.625 116.25 L 2.625 114 Z M 3.375 117 L 3.375 119.25 L 2.625 119.25 L 2.625 117 Z M 3.375 120 L 3.375 122.25 L 2.625 122.25 L 2.625 120 Z M 3.375 123 L 3.375 125.25 L 2.625 125.25 L 2.625 123 Z M 3.375 126 L 3.375 128.25 L 2.625 128.25 L 2.625 126 Z M 3.375 129 L 3.375 131.25 L 2.625 131.25 L 2.625 129 Z M 3.375 132 L 3.375 134.25 L 2.625 134.25 L 2.625 132 Z M 3.375 135 L 3.375 137.25 L 2.625 137.25 L 2.625 135 Z M 3.375 138 L 3.375 140.25 L 2.625 140.25 L 2.625 138 Z M 3.375 141 L 3.375 143.25 L 2.625 143.25 L 2.625 141 Z M 3.375 144 L 3.375 146.25 L 2.625 146.25 L 2.625 144 Z M 3.375 147 L 3.375 149.25 L 2.625 149.25 L 2.625 147 Z M 3.375 150 L 3.375 152.25 L 2.625 152.25 L 2.625 150 Z M 3.375 153 L 3.375 155.25 L 2.625 155.25 L 2.625 153 Z M 3.375 156 L 3.375 158.25 L 2.625 158.25 L 2.625 156 Z M 3.375 159 L 3.375 161.25 L 2.625 161.25 L 2.625 159 Z M 3.375 162 L 3.375 164.25 L 2.625 164.25 L 2.625 162 Z M 3.375 165 L 3.375 167.25 L 2.625 167.25 L 2.625 165 Z M 3.375 168 L 3.375 170.25 L 2.625 170.25 L 2.625 168 Z M 3.375 171 L 3.375 173.25 L 2.625 173.25 L 2.625 171 Z M 3.375 174 L 3.375 176.25 L 2.625 176.25 L 2.625 174 Z M 3.375 177 L 3.375 179.25 L 2.625 179.25 L 2.625 177 Z M 3.375 180 L 3.375 182.25 L 2.625 182.25 L 2.625 180 Z M 3.375 183 L 3.375 185.25 L 2.625 185.25 L 2.625 183 Z M 3.375 186 L 3.375 188.25 L 2.625 188.25 L 2.625 186 Z M 3.375 189 L 3.375 191.25 L 2.625 191.25 L 2.625 189 Z M 3.375 192 L 3.375 194.25 L 2.625 194.25 L 2.625 192 Z M 3.375 195 L 3.375 197.25 L 2.625 197.25 L 2.625 195 Z M 3.375 198 L 3.375 200.25 L 2.625 200.25 L 2.625 198 Z M 3.375 201 L 3.375 203.25 L 2.625 203.25 L 2.625 201 Z M 3.375 204 L 3.375 206.25 L 2.625 206.25 L 2.625 204 Z M 3.402344 206.996094 C 3.460938 207.722656 3.601562 208.433594 3.824219 209.125 L 3.109375 209.355469 C 2.871094 208.609375 2.71875 207.839844 2.65625 207.054688 Z M 4.066406 209.792969 C 4.34375 210.46875 4.695312 211.101562 5.117188 211.695312 L 4.507812 212.132812 C 4.050781 211.492188 3.671875 210.804688 3.375 210.078125 Z M 5.5625 212.269531 C 6.027344 212.824219 6.550781 213.320312 7.132812 213.757812 L 6.683594 214.355469 C 6.054688 213.886719 5.492188 213.351562 4.988281 212.75 Z M 7.726562 214.167969 C 8.34375 214.558594 8.992188 214.871094 9.675781 215.109375 L 9.433594 215.820312 C 8.691406 215.5625 7.988281 215.222656 7.324219 214.800781 Z M 10.359375 215.316406 C 11.070312 215.503906 11.792969 215.605469 12.53125 215.621094 L 12.511719 216.371094 C 11.71875 216.355469 10.9375 216.246094 10.171875 216.042969 Z M 13.28125 215.625 L 15.53125 215.625 L 15.53125 216.375 L 13.28125 216.375 Z M 16.28125 215.625 L 17.25 215.625 C 17.707031 215.625 18.164062 215.65625 18.613281 215.714844 L 18.511719 216.460938 C 18.097656 216.402344 17.675781 216.375 17.25 216.375 L 16.28125 216.375 Z M 19.386719 215.851562 C 20.148438 216.015625 20.882812 216.261719 21.585938 216.597656 L 21.261719 217.273438 C 20.613281 216.964844 19.933594 216.734375 19.230469 216.585938 Z M 22.28125 216.960938 C 22.960938 217.351562 23.589844 217.816406 24.164062 218.351562 L 23.652344 218.902344 C 23.121094 218.402344 22.539062 217.972656 21.910156 217.613281 Z M 24.710938 218.90625 C 25.246094 219.488281 25.703125 220.117188 26.085938 220.800781 L 25.433594 221.167969 C 25.078125 220.535156 24.652344 219.949219 24.160156 219.414062 Z M 26.445312 221.503906 C 26.769531 222.210938 27.011719 222.945312 27.167969 223.707031 L 26.433594 223.859375 C 26.289062 223.152344 26.066406 222.472656 25.761719 221.820312 Z M 27.296875 224.484375 C 27.347656 224.902344 27.375 225.324219 27.375 225.75 L 27.375 226.8125 L 26.625 226.8125 L 26.625 225.75 C 26.625 225.355469 26.601562 224.964844 26.550781 224.578125 Z M 27.375 227.5625 L 27.375 229.8125 L 26.625 229.8125 L 26.625 227.5625 Z M 27.375 230.5625 L 27.375 232.8125 L 26.625 232.8125 L 26.625 230.5625 Z M 27.375 233.5625 L 27.375 235.8125 L 26.625 235.8125 L 26.625 233.5625 Z M 27.375 236.5625 L 27.375 238.8125 L 26.625 238.8125 L 26.625 236.5625 Z M 27.375 239.5625 L 27.375 241.8125 L 26.625 241.8125 L 26.625 239.5625 Z M 27.375 242.5625 L 27.375 244.8125 L 26.625 244.8125 L 26.625 242.5625 Z M 27.375 245.5625 L 27.375 247.8125 L 26.625 247.8125 L 26.625 245.5625 Z M 27.375 248.5625 L 27.375 250.8125 L 26.625 250.8125 L 26.625 248.5625 Z M 27.375 251.5625 L 27.375 253.8125 L 26.625 253.8125 L 26.625 251.5625 Z M 27.375 254.5625 L 27.375 256.8125 L 26.625 256.8125 L 26.625 254.5625 Z M 27.375 257.5625 L 27.375 259.8125 L 26.625 259.8125 L 26.625 257.5625 Z M 27.375 260.5625 L 27.375 262.8125 L 26.625 262.8125 L 26.625 260.5625 Z M 27.375 263.5625 L 27.375 265.8125 L 26.625 265.8125 L 26.625 263.5625 Z M 27.375 266.5625 L 27.375 268.8125 L 26.625 268.8125 L 26.625 266.5625 Z M 27.375 269.5625 L 27.375 271.8125 L 26.625 271.8125 L 26.625 269.5625 Z M 27.375 272.5625 L 27.375 274.8125 L 26.625 274.8125 L 26.625 272.5625 Z M 27.375 275.5625 L 27.375 277.8125 L 26.625 277.8125 L 26.625 275.5625 Z M 27.375 278.5625 L 27.375 280.8125 L 26.625 280.8125 L 26.625 278.5625 Z M 27.375 281.5625 L 27.375 283.8125 L 26.625 283.8125 L 26.625 281.5625 Z M 27.375 284.5625 L 27.375 286.8125 L 26.625 286.8125 L 26.625 284.5625 Z M 27.375 287.5625 L 27.375 289.8125 L 26.625 289.8125 L 26.625 287.5625 Z M 27.375 290.5625 L 27.375 292.8125 L 26.625 292.8125 L 26.625 290.5625 Z M 27.375 293.5625 L 27.375 295.8125 L 26.625 295.8125 L 26.625 293.5625 Z M 27.375 296.5625 L 27.375 298.8125 L 26.625 298.8125 L 26.625 296.5625 Z M 27.375 299.5625 L 27.375 301.8125 L 26.625 301.8125 L 26.625 299.5625 Z M 27.375 302.5625 L 27.375 304.8125 L 26.625 304.8125 L 26.625 302.5625 Z M 27.375 305.5625 L 27.375 307.8125 L 26.625 307.8125 L 26.625 305.5625 Z M 27.375 308.5625 L 27.375 310.8125 L 26.625 310.8125 L 26.625 308.5625 Z M 27.375 311.5625 L 27.375 313.8125 L 26.625 313.8125 L 26.625 311.5625 Z M 27.375 314.5625 L 27.375 316.8125 L 26.625 316.8125 L 26.625 314.5625 Z M 27.375 317.5625 L 27.375 319.8125 L 26.625 319.8125 L 26.625 317.5625 Z M 27.375 320.5625 L 27.375 322.8125 L 26.625 322.8125 L 26.625 320.5625 Z M 27.375 323.5625 L 27.375 325.8125 L 26.625 325.8125 L 26.625 323.5625 Z M 27.375 326.5625 L 27.375 328.8125 L 26.625 328.8125 L 26.625 326.5625 Z M 27.375 329.5625 L 27.375 331.8125 L 26.625 331.8125 L 26.625 329.5625 Z M 27.375 332.5625 L 27.375 334.8125 L 26.625 334.8125 L 26.625 332.5625 Z M 27.375 335.5625 L 27.375 337.8125 L 26.625 337.8125 L 26.625 335.5625 Z M 27.375 338.5625 L 27.375 340.8125 L 26.625 340.8125 L 26.625 338.5625 Z M 27.375 341.5625 L 27.375 343.8125 L 26.625 343.8125 L 26.625 341.5625 Z M 27.375 344.5625 L 27.375 346.8125 L 26.625 346.8125 L 26.625 344.5625 Z M 27.375 347.5625 L 27.375 349.8125 L 26.625 349.8125 L 26.625 347.5625 Z M 27.375 350.5625 L 27.375 352.8125 L 26.625 352.8125 L 26.625 350.5625 Z M 27.375 353.5625 L 27.375 355.8125 L 26.625 355.8125 L 26.625 353.5625 Z M 27.375 356.5625 L 27.375 358.8125 L 26.625 358.8125 L 26.625 356.5625 Z M 27.375 359.5625 L 27.375 361.8125 L 26.625 361.8125 L 26.625 359.5625 Z M 27.375 362.5625 L 27.375 364.8125 L 26.625 364.8125 L 26.625 362.5625 Z M 27.375 365.5625 L 27.375 367.8125 L 26.625 367.8125 L 26.625 365.5625 Z M 27.375 368.5625 L 27.375 370.8125 L 26.625 370.8125 L 26.625 368.5625 Z M 27.375 371.5625 L 27.375 373.8125 L 26.625 373.8125 L 26.625 371.5625 Z M 27.375 374.5625 L 27.375 376.8125 L 26.625 376.8125 L 26.625 374.5625 Z M 27.375 377.5625 L 27.375 379.8125 L 26.625 379.8125 L 26.625 377.5625 Z M 27.375 380.5625 L 27.375 382.8125 L 26.625 382.8125 L 26.625 380.5625 Z M 27.375 383.5625 L 27.375 385.8125 L 26.625 385.8125 L 26.625 383.5625 Z M 27.375 386.5625 L 27.375 388.8125 L 26.625 388.8125 L 26.625 386.5625 Z M 27.375 389.5625 L 27.375 391.8125 L 26.625 391.8125 L 26.625 389.5625 Z M 27.375 392.5625 L 27.375 394.8125 L 26.625 394.8125 L 26.625 392.5625 Z M 27.375 395.5625 L 27.375 397.8125 L 26.625 397.8125 L 26.625 395.5625 Z M 27.375 398.5625 L 27.375 400.8125 L 26.625 400.8125 L 26.625 398.5625 Z M 27.375 401.5625 L 27.375 403.8125 L 26.625 403.8125 L 26.625 401.5625 Z M 27.375 404.5625 L 27.375 406.8125 L 26.625 406.8125 L 26.625 404.5625 Z M 27.375 407.5625 L 27.375 409.8125 L 26.625 409.8125 L 26.625 407.5625 Z M 27.375 410.5625 L 27.375 412.8125 L 26.625 412.8125 L 26.625 410.5625 Z M 27.375 413.5625 L 27.375 415.8125 L 26.625 415.8125 L 26.625 413.5625 Z M 27.375 416.5625 L 27.375 418.8125 L 26.625 418.8125 L 26.625 416.5625 Z M 27.375 419.5625 L 27.375 421.8125 L 26.625 421.8125 L 26.625 419.5625 Z M 27.375 422.5625 L 27.375 424.8125 L 26.625 424.8125 L 26.625 422.5625 Z M 27.375 425.5625 L 27.375 427.8125 L 26.625 427.8125 L 26.625 425.5625 Z M 27.375 428.5625 L 27.375 429 L 26.625 429 L 26.625 428.5625 Z M 27.375 428.5625 " fill-opacity="1" fill-rule="nonzero"/></svg>