<svg xmlns="http://www.w3.org/2000/svg" xmlns:xlink="http://www.w3.org/1999/xlink" version="1.1" id="Layer_1" x="0px" y="0px" enable-background="new 0 0 489 285" xml:space="preserve" viewBox="57.94 49.63 368.23 190.52">
<path fill="none" opacity="1.000000" stroke="none" d=" M289.000000,286.000000   C192.666687,286.000000 96.833366,286.000000 1.000039,286.000000   C1.000026,191.000031 1.000026,96.000069 1.000013,1.000077   C163.999939,1.000051 326.999878,1.000051 489.999878,1.000026   C489.999908,95.999916 489.999908,190.999832 489.999939,285.999878   C423.166656,286.000000 356.333344,286.000000 289.000000,286.000000  M153.134811,111.289772   C154.795105,109.547501 156.455414,107.805237 158.700607,105.750458   C169.182953,95.651138 179.665298,85.551819 190.369522,75.238731   C169.582062,57.560932 146.428864,48.141987 119.159615,49.823578   C92.692085,51.455738 70.222572,69.648399 64.370430,95.285393   C60.115559,113.925064 63.701897,131.642502 72.544205,148.366791   C77.198547,157.169968 82.702660,165.390976 90.214607,172.236877   C104.003876,158.849304 117.516594,145.793457 130.953156,132.659683   C138.190765,125.585182 145.297882,118.377213 153.134811,111.289772  M130.111313,228.993210   C119.460060,233.720001 109.769867,222.227982 112.959816,213.396881   C113.468933,211.987473 112.744896,209.537872 111.721191,208.273132   C107.431839,202.973694 102.832542,197.923508 98.304642,192.819397   C95.494469,189.651581 92.608688,186.550842 89.469215,183.104218   C78.550713,193.604874 68.156929,203.600891 57.935917,213.430740   C58.258713,214.315826 58.307655,214.661453 58.491375,214.905701   C58.789005,215.301422 59.145752,215.666016 59.528046,215.982803   C81.892227,234.515488 107.215775,244.025742 136.331406,238.664200   C159.588760,234.381439 175.784393,220.698685 182.667664,197.564148   C188.325150,178.549438 184.875595,160.248718 176.250946,142.866608   C171.603500,133.500137 165.815765,124.767906 157.455963,117.293266   C136.694321,137.374466 116.168877,157.227173 95.362190,177.351913   C103.324409,186.449463 110.904030,195.243408 118.706108,203.835327   C119.566460,204.782776 121.708069,204.886703 123.241997,204.848099   C130.536346,204.664490 135.427795,207.605179 137.276840,213.523926   C139.176483,219.604614 137.006119,224.692169 130.111313,228.993210  M227.765549,155.766083   C229.803085,158.764847 232.096344,161.625397 233.811356,164.798477   C235.811142,168.498459 238.450516,169.406570 242.616180,167.927414   C239.834366,163.357727 237.192123,159.017303 234.517319,154.623398   C235.815811,153.629745 236.969055,152.936951 237.887360,152.011124   C241.526398,148.342285 242.406982,143.885956 240.760330,139.132584   C239.172455,134.548843 235.819336,131.475937 230.871567,131.175293   C225.289124,130.836075 219.670212,131.097153 213.649033,131.097153   C213.649033,137.612061 213.649033,143.736328 213.649033,149.860596   C213.649033,155.968552 213.649033,162.076508 213.649033,168.584641   C215.888168,168.476257 217.601196,168.393341 219.682037,168.292618   C219.682037,163.850449 219.682037,159.923920 219.682037,155.554077   C222.351074,155.554077 224.630081,155.554077 227.765549,155.766083  M237.957672,73.284294   C234.901611,68.719002 227.389999,66.781685 220.659134,68.822838   C215.508820,70.384674 212.134903,74.395180 212.105011,79.198265   C212.071274,84.620758 215.588943,87.125069 220.173462,88.638161   C223.639389,89.782059 227.248413,90.598839 230.539825,92.113106   C231.875656,92.727661 233.477646,94.966942 233.270004,96.177254   C233.008469,97.701706 231.236023,99.663734 229.722504,100.112923   C227.464691,100.782997 224.757599,100.743187 222.434509,100.192253   C219.305344,99.450172 216.359482,97.935036 213.102081,96.660553   C212.343613,98.182175 211.631241,99.611290 210.842819,101.192986   C217.272980,105.763359 224.061295,107.148499 231.383102,105.576469   C236.798248,104.413803 239.745438,100.904518 239.952698,95.972786   C240.153915,91.184807 237.730560,87.788628 232.553223,86.020607   C229.261536,84.896515 225.685287,84.447372 222.595032,82.953972   C220.871414,82.121017 218.534683,79.389519 218.873444,78.192528   C219.392044,76.359917 221.958572,73.898766 223.698563,73.864357   C227.660950,73.785995 231.649292,75.020462 236.300247,75.840073   C236.340698,75.783173 236.993164,74.865685 237.957672,73.284294  M285.075470,165.358841   C291.998627,170.436981 298.291412,170.186874 303.208588,164.638153   C308.061768,159.161606 308.045593,150.141373 303.172363,144.449417   C298.585052,139.091476 292.725220,139.076157 284.716003,144.755356   C284.716003,139.697281 284.716003,134.971619 284.716003,129.909302   C282.483826,130.020477 280.768463,130.105911 279.149170,130.186569   C279.149170,143.160400 279.149170,155.586838 279.149170,167.974121   C283.409210,168.653320 283.409210,168.653320 285.075470,165.358841  M300.407562,216.882446   C300.041840,211.690979 297.728699,207.628052 293.133118,205.134705   C287.543701,202.102158 282.833923,204.811401 277.799133,208.846481   C277.799133,203.035339 277.799133,198.291855 277.799133,191.888031   C275.574738,193.678497 273.437073,194.587631 273.419281,195.536606   C273.192444,207.615051 273.269836,219.699219 273.269836,233.573242   C275.983154,231.521118 277.466309,230.399368 277.881348,230.085480   C282.142029,230.890564 285.954620,232.426208 289.616364,232.125458   C296.301025,231.576401 299.874512,226.270416 300.407562,216.882446  M323.693115,168.955185   C330.190857,169.271286 335.017548,166.639572 337.690857,160.647034   C340.157104,155.118591 339.250580,149.859375 335.472198,145.240524   C331.639740,140.555557 324.835083,139.126633 319.118134,141.508972   C313.478333,143.859177 309.967926,149.740707 310.516022,155.921417   C311.133301,162.882156 315.276459,167.247696 323.693115,168.955185  M320.209503,104.292740   C326.009918,108.201820 331.241516,106.062325 335.123444,103.355179   C338.171173,104.623611 340.367035,105.537491 343.251770,106.738083   C342.690765,100.690086 341.957794,96.006950 341.879395,91.312866   C341.679962,79.375313 331.841888,73.858788 321.179779,79.787628   C318.421265,81.321548 318.440460,82.671967 320.715851,84.435135   C331.866669,80.199547 335.930603,81.594185 335.379883,89.194054   C332.084869,89.194054 328.750397,88.807526 325.538086,89.269821   C317.386841,90.442917 314.795837,97.077736 320.209503,104.292740  M249.962280,165.576630   C251.235870,166.361282 252.424835,167.367981 253.798004,167.891373   C259.173401,169.940308 264.354370,169.486008 268.807434,165.690170   C273.249237,161.903915 274.608582,156.929047 273.286102,151.268463   C271.993591,145.736176 268.544128,142.239105 263.029327,140.874023   C257.012085,139.384598 250.941208,141.691223 247.697311,146.609375   C243.919312,152.337341 244.522339,158.690445 249.962280,165.576630  M251.009537,79.359673   C244.055252,84.257019 241.795959,91.511108 245.075928,98.411201   C248.125961,104.827591 255.322510,107.868149 262.327118,105.699883   C269.961029,103.336815 273.844208,95.273781 271.230377,87.213203   C268.639954,79.224907 260.869720,75.976646 251.009537,79.359673  M376.002899,163.382996   C383.439117,171.510941 394.905884,170.918976 399.899536,160.436859   C396.380432,161.405685 393.880524,161.702789 391.760895,162.761383   C387.728912,164.775024 384.377533,164.262222 381.444672,160.958466   C378.549347,157.696930 378.542603,151.884872 381.337860,148.476486   C383.972839,145.263489 387.953033,144.836151 391.653717,146.744736   C393.721649,147.811249 396.256470,147.972427 398.580902,148.541550   C398.914368,147.721329 399.247833,146.901093 399.581299,146.080872   C396.965149,144.377029 394.557617,142.001083 391.688995,141.110504   C385.875641,139.305771 380.370483,140.519745 376.419678,145.545578   C372.134949,150.996201 372.139740,156.845215 376.002899,163.382996  M297.376892,97.875488   C296.543365,98.334801 295.657501,98.720001 294.885040,99.265755   C290.711670,102.214401 286.900787,101.931023 283.799774,98.392059   C280.688568,94.841438 280.659332,89.110901 283.734344,85.545876   C286.485565,82.356209 290.431000,82.254951 294.538300,84.478027   C296.351624,85.459488 298.866119,85.145515 302.059113,85.544083   C297.580414,78.476242 291.697296,76.376778 285.182770,78.382881   C279.182922,80.230492 275.440582,85.453796 275.443054,91.976959   C275.445587,98.543640 279.637665,104.250381 285.609283,105.816475   C292.228790,107.552483 298.043793,105.313774 301.623962,99.462151   C300.395538,98.965660 299.208435,98.485863 297.376892,97.875488  M404.159729,147.083481   C403.087646,151.819656 405.539307,154.263382 409.702728,155.574692   C412.074310,156.321625 414.613556,156.735916 416.778107,157.870712   C418.237854,158.636017 419.175293,160.397598 420.346405,161.713547   C418.779663,162.696533 417.144562,164.591400 415.659821,164.480118   C412.146667,164.216751 408.704987,163.000259 404.086914,161.894318   C404.293854,163.295181 403.993530,165.563858 404.810089,166.086075   C409.809753,169.283417 415.342438,170.099915 420.986053,167.967392   C424.361511,166.691940 426.240814,164.180420 426.167786,160.292725   C426.098846,156.620850 423.846527,154.944458 420.873932,153.909775   C418.217865,152.985229 415.334015,152.623947 412.805847,151.459976   C411.464630,150.842484 410.665771,149.047028 409.622101,147.783310   C410.973511,146.789505 412.266022,145.084717 413.689972,144.966766   C415.884979,144.784927 418.154022,145.868958 420.422455,146.072311   C421.950653,146.209305 423.531891,145.753922 425.089417,145.563538   C417.663879,138.282669 408.787903,139.239120 404.159729,147.083481  M256.974487,204.104584   C253.581116,204.672287 250.137543,205.048904 246.823837,205.919754   C245.778229,206.194519 245.080368,207.792542 244.223358,208.784988   C245.458115,208.872452 246.735184,209.200745 247.918060,208.992966   C249.867065,208.650558 251.729385,207.639999 253.674164,207.484116   C257.964417,207.140274 261.424866,210.418335 260.993896,214.378448   C260.899811,215.242752 259.560028,216.614136 258.760590,216.638092   C256.397644,216.708878 254.023529,216.069992 251.643829,215.983719   C245.946106,215.777222 241.944824,219.192459 241.958893,224.071686   C241.973785,229.236862 246.454498,233.190735 252.140030,232.379913   C255.428879,231.910904 258.559784,230.334167 260.810242,229.576385   C262.927460,230.766357 264.661469,231.740952 266.848206,232.970001   C266.484650,226.334122 266.061340,220.825806 265.914368,215.310104   C265.763702,209.654221 263.514313,205.722275 256.974487,204.104584  M344.699707,134.045273   C344.066986,136.658875 346.653809,140.661774 341.550568,141.490814   C341.481506,141.502029 341.635803,145.026520 341.974396,145.079880   C345.583832,145.648621 344.636261,148.313522 344.676331,150.466034   C344.741333,153.958801 344.640869,157.454681 344.707336,160.947372   C344.832703,167.534302 348.352356,170.086472 354.776886,168.503708   C358.157684,167.670837 359.457886,166.228561 357.018066,162.968613   C354.111298,163.402481 350.629120,164.668427 350.502075,159.763245   C350.382721,155.156128 350.476501,150.543488 350.476501,146.028091   C356.592529,145.099319 356.592529,145.099319 355.886780,141.129486   C354.145142,140.931076 352.403503,140.732651 350.346954,140.498352   C350.346954,137.563416 350.346954,134.942200 350.346954,131.370804   C348.099518,132.097733 346.428680,132.638168 344.699707,134.045273  M213.811661,215.496796   C213.811661,220.920853 213.811661,226.344925 213.811661,231.825134   C222.600983,231.825134 230.856934,231.825134 239.121597,231.825134   C240.192123,228.880920 239.396240,227.759644 236.335739,227.843872   C230.575073,228.002411 224.806931,227.889572 218.686569,227.889572   C218.686569,216.594910 218.686569,205.854568 218.686569,194.827087   C216.939453,194.827087 215.565292,194.827087 213.811752,194.827087   C213.811752,201.587601 213.811752,208.042847 213.811661,215.496796  M355.115021,86.479889   C355.115021,80.206818 355.115021,73.933746 355.115021,67.611809   C352.841034,67.611809 351.131104,67.611809 349.118378,67.611809   C349.118378,78.590225 349.094513,89.217300 349.153473,99.843910   C349.159698,100.966896 349.424347,102.212402 349.959412,103.186745   C352.125427,107.131287 355.835999,106.536697 359.178711,105.618370   C360.290405,105.312973 360.878448,103.101311 362.685394,100.174599   C355.370605,102.272507 354.790100,99.107300 355.082886,94.954124   C355.257965,92.470596 355.115021,89.964638 355.115021,86.479889  M124.678642,225.059647   C128.972244,225.334854 132.234970,223.239059 132.626953,219.237442   C132.887589,216.576874 131.509201,212.926865 129.561340,211.141113   C128.003311,209.712708 123.783333,209.332123 122.006401,210.465103   C119.755135,211.900513 117.791580,215.230301 117.493652,217.939896   C117.071510,221.779205 120.016678,224.182327 124.678642,225.059647  M362.550018,144.842712   C362.550018,152.615585 362.550018,160.388458 362.550018,168.209824   C364.758331,168.209824 366.330811,168.209824 367.912048,168.209824   C367.912048,158.972321 367.912048,150.046097 367.912048,140.953018   C365.545532,141.327347 362.244934,139.332626 362.550018,144.842712  M306.546143,90.526230   C306.546143,95.466469 306.546143,100.406700 306.546143,105.594559   C308.538269,105.594559 310.099884,105.594559 311.919189,105.594559   C311.919189,96.498154 311.919189,87.483109 311.919189,78.426636   C310.085052,78.426636 308.531097,78.426636 306.546204,78.426636   C306.546204,82.311951 306.546204,85.928108 306.546143,90.526230  M367.057800,129.979980   C365.625977,130.059494 364.194122,130.139008 362.837738,130.214340   C362.837738,132.497131 362.837738,134.408310 362.837738,136.357697   C364.753387,136.357697 366.325317,136.357697 368.304718,136.357697   C368.132690,134.095825 367.984528,132.147110 367.057800,129.979980  M306.483398,71.360184   C308.036285,72.465637 309.589172,73.571091 312.005737,75.291359   C312.005737,71.497063 312.005737,69.552177 312.005737,67.348816   C309.396820,67.480812 306.142456,65.795624 306.483398,71.360184  z"/>
<path fill="#020202" opacity="1.000000" stroke="none" d=" M152.463882,111.229462   C145.297882,118.377213 138.190765,125.585182 130.953156,132.659683   C117.516594,145.793457 104.003876,158.849304 90.214607,172.236877   C82.702660,165.390976 77.198547,157.169968 72.544205,148.366791   C63.701897,131.642502 60.115559,113.925064 64.370430,95.285393   C70.222572,69.648399 92.692085,51.455738 119.159615,49.823578   C146.428864,48.141987 169.582062,57.560932 190.369522,75.238731   C179.665298,85.551819 169.182953,95.651138 158.200577,105.633713   C153.374557,101.178963 148.652939,97.638367 149.920059,89.827805   C150.991776,83.221764 144.242615,77.878586 137.297653,78.032104   C130.239716,78.188118 124.802887,83.883247 124.931030,90.986282   C125.058914,98.075813 130.752090,104.053123 137.849960,103.105682   C142.803696,102.444450 145.628052,104.244270 148.436340,107.550133   C149.604202,108.924942 151.111145,110.011711 152.463882,111.229462  z"/>
<path fill="#67C9D1" opacity="1.000000" stroke="none" d=" M130.465866,228.825867   C137.006119,224.692169 139.176483,219.604614 137.276840,213.523926   C135.427795,207.605179 130.536346,204.664490 123.241997,204.848099   C121.708069,204.886703 119.566460,204.782776 118.706108,203.835327   C110.904030,195.243408 103.324409,186.449463 95.362190,177.351913   C116.168877,157.227173 136.694321,137.374466 157.455963,117.293266   C165.815765,124.767906 171.603500,133.500137 176.250946,142.866608   C184.875595,160.248718 188.325150,178.549438 182.667664,197.564148   C175.784393,220.698685 159.588760,234.381439 136.331406,238.664200   C107.215775,244.025742 81.892227,234.515488 59.528046,215.982803   C59.145752,215.666016 58.789005,215.301422 58.491375,214.905701   C58.307655,214.661453 58.258713,214.315826 57.935917,213.430740   C68.156929,203.600891 78.550713,193.604874 89.469215,183.104218   C92.608688,186.550842 95.494469,189.651581 98.304642,192.819397   C102.832542,197.923508 107.431839,202.973694 111.721191,208.273132   C112.744896,209.537872 113.468933,211.987473 112.959816,213.396881   C109.769867,222.227982 119.460060,233.720001 130.465866,228.825867  z"/>
<path fill="#101010" opacity="1.000000" stroke="none" d=" M227.337326,155.660080   C224.630081,155.554077 222.351074,155.554077 219.682037,155.554077   C219.682037,159.923920 219.682037,163.850449 219.682037,168.292618   C217.601196,168.393341 215.888168,168.476257 213.649033,168.584641   C213.649033,162.076508 213.649033,155.968552 213.649033,149.860596   C213.649033,143.736328 213.649033,137.612061 213.649033,131.097153   C219.670212,131.097153 225.289124,130.836075 230.871567,131.175293   C235.819336,131.475937 239.172455,134.548843 240.760330,139.132584   C242.406982,143.885956 241.526398,148.342285 237.887360,152.011124   C236.969055,152.936951 235.815811,153.629745 234.517319,154.623398   C237.192123,159.017303 239.834366,163.357727 242.616180,167.927414   C238.450516,169.406570 235.811142,168.498459 233.811356,164.798477   C232.096344,161.625397 229.803085,158.764847 227.337326,155.660080  M235.124680,141.036972   C231.893295,133.434525 225.355118,137.224670 219.785141,136.049545   C219.785141,141.049347 219.785141,145.431305 219.785141,150.235977   C222.407593,150.235977 224.858139,150.251038 227.308472,150.233047   C233.648010,150.186493 235.247009,148.505249 235.124680,141.036972  z"/>
<path fill="#101010" opacity="1.000000" stroke="none" d=" M237.801651,73.616241   C236.993164,74.865685 236.340698,75.783173 236.300247,75.840073   C231.649292,75.020462 227.660950,73.785995 223.698563,73.864357   C221.958572,73.898766 219.392044,76.359917 218.873444,78.192528   C218.534683,79.389519 220.871414,82.121017 222.595032,82.953972   C225.685287,84.447372 229.261536,84.896515 232.553223,86.020607   C237.730560,87.788628 240.153915,91.184807 239.952698,95.972786   C239.745438,100.904518 236.798248,104.413803 231.383102,105.576469   C224.061295,107.148499 217.272980,105.763359 210.842819,101.192986   C211.631241,99.611290 212.343613,98.182175 213.102081,96.660553   C216.359482,97.935036 219.305344,99.450172 222.434509,100.192253   C224.757599,100.743187 227.464691,100.782997 229.722504,100.112923   C231.236023,99.663734 233.008469,97.701706 233.270004,96.177254   C233.477646,94.966942 231.875656,92.727661 230.539825,92.113106   C227.248413,90.598839 223.639389,89.782059 220.173462,88.638161   C215.588943,87.125069 212.071274,84.620758 212.105011,79.198265   C212.134903,74.395180 215.508820,70.384674 220.659134,68.822838   C227.389999,66.781685 234.901611,68.719002 237.801651,73.616241  z"/>
<path fill="#141414" opacity="1.000000" stroke="none" d=" M284.699829,165.357574   C283.409210,168.653320 283.409210,168.653320 279.149170,167.974121   C279.149170,155.586838 279.149170,143.160400 279.149170,130.186569   C280.768463,130.105911 282.483826,130.020477 284.716003,129.909302   C284.716003,134.971619 284.716003,139.697281 284.716003,144.755356   C292.725220,139.076157 298.585052,139.091476 303.172363,144.449417   C308.045593,150.141373 308.061768,159.161606 303.208588,164.638153   C298.291412,170.186874 291.998627,170.436981 284.699829,165.357574  M284.782440,152.021423   C284.766510,153.346741 284.812531,154.676224 284.723389,155.996597   C284.424225,160.427032 286.847198,162.917282 290.806244,163.781830   C294.861389,164.667358 297.960632,162.771011 299.792450,159.153442   C302.040100,154.714615 300.249176,148.646820 296.253815,146.471878   C292.114075,144.218338 288.507202,145.720871 284.782440,152.021423  z"/>
<path fill="#191919" opacity="1.000000" stroke="none" d=" M300.460999,217.281219   C299.874512,226.270416 296.301025,231.576401 289.616364,232.125458   C285.954620,232.426208 282.142029,230.890564 277.881348,230.085480   C277.466309,230.399368 275.983154,231.521118 273.269836,233.573242   C273.269836,219.699219 273.192444,207.615051 273.419281,195.536606   C273.437073,194.587631 275.574738,193.678497 277.799133,191.888031   C277.799133,198.291855 277.799133,203.035339 277.799133,208.846481   C282.833923,204.811401 287.543701,202.102158 293.133118,205.134705   C297.728699,207.628052 300.041840,211.690979 300.460999,217.281219  M284.028687,228.061661   C285.506958,228.087692 287.061890,228.424881 288.449463,228.082916   C293.104919,226.935608 295.142456,223.449615 295.595978,218.998962   C296.075745,214.290558 293.077850,209.624100 288.959900,208.473724   C284.673737,207.276398 281.470612,209.209656 279.134094,212.564575   C275.945312,217.143250 278.048950,224.628510 284.028687,228.061661  z"/>
<path fill="#5FBBC3" opacity="1.000000" stroke="none" d=" M152.799347,111.259613   C151.111145,110.011711 149.604202,108.924942 148.436340,107.550133   C145.628052,104.244270 142.803696,102.444450 137.849960,103.105682   C130.752090,104.053123 125.058914,98.075813 124.931030,90.986282   C124.802887,83.883247 130.239716,78.188118 137.297653,78.032104   C144.242615,77.878586 150.991776,83.221764 149.920059,89.827805   C148.652939,97.638367 153.374557,101.178963 157.908127,105.789978   C156.455414,107.805237 154.795105,109.547501 152.799347,111.259613  M139.093491,83.056778   C135.193863,82.509056 131.799515,83.887222 130.645386,87.500450   C129.906616,89.813293 130.200958,93.648537 131.694458,95.176590   C133.512482,97.036667 137.345901,98.325256 139.805176,97.742195   C141.988922,97.224464 144.391510,94.065178 145.080566,91.616821   C146.202667,87.629738 143.696564,84.763496 139.093491,83.056778  z"/>
<path fill="#121212" opacity="1.000000" stroke="none" d=" M323.272522,168.937225   C315.276459,167.247696 311.133301,162.882156 310.516022,155.921417   C309.967926,149.740707 313.478333,143.859177 319.118134,141.508972   C324.835083,139.126633 331.639740,140.555557 335.472198,145.240524   C339.250580,149.859375 340.157104,155.118591 337.690857,160.647034   C335.017548,166.639572 330.190857,169.271286 323.272522,168.937225  M332.471008,157.662643   C332.460358,155.709503 332.844421,153.653091 332.365448,151.822479   C330.895935,146.205902 325.264343,143.740723 320.821930,146.658951   C317.042175,149.141891 316.034698,152.904434 316.863770,157.123260   C317.600708,160.873047 319.884796,163.437958 323.818420,163.897675   C328.019409,164.388611 330.703583,162.215775 332.471008,157.662643  z"/>
<path fill="#151515" opacity="1.000000" stroke="none" d=" M319.928162,104.037872   C314.795837,97.077736 317.386841,90.442917 325.538086,89.269821   C328.750397,88.807526 332.084869,89.194054 335.379883,89.194054   C335.930603,81.594185 331.866669,80.199547 320.715851,84.435135   C318.440460,82.671967 318.421265,81.321548 321.179779,79.787628   C331.841888,73.858788 341.679962,79.375313 341.879395,91.312866   C341.957794,96.006950 342.690765,100.690086 343.251770,106.738083   C340.367035,105.537491 338.171173,104.623611 335.123444,103.355179   C331.241516,106.062325 326.009918,108.201820 319.928162,104.037872  M326.794342,101.941833   C329.758240,100.588562 332.841034,99.427689 335.591217,97.728485   C336.179413,97.365082 335.883911,93.942146 335.445557,93.814293   C332.843323,93.055298 330.000153,92.291542 327.397736,92.659447   C325.695831,92.900024 323.132782,94.949066 323.004669,96.372475   C322.853149,98.056679 324.907196,99.939354 326.794342,101.941833  z"/>
<path fill="#111111" opacity="1.000000" stroke="none" d=" M249.704956,165.313187   C244.522339,158.690445 243.919312,152.337341 247.697311,146.609375   C250.941208,141.691223 257.012085,139.384598 263.029327,140.874023   C268.544128,142.239105 271.993591,145.736176 273.286102,151.268463   C274.608582,156.929047 273.249237,161.903915 268.807434,165.690170   C264.354370,169.486008 259.173401,169.940308 253.798004,167.891373   C252.424835,167.367981 251.235870,166.361282 249.704956,165.313187  M267.673737,156.132095   C267.452820,149.671967 264.835663,145.913879 260.264832,145.493286   C256.310913,145.129456 252.751816,147.966064 251.741379,152.286469   C250.541824,157.415497 252.909164,162.317230 257.239319,163.670319   C261.770416,165.086166 265.349457,162.731064 267.673737,156.132095  z"/>
<path fill="#121212" opacity="1.000000" stroke="none" d=" M251.349075,79.201828   C260.869720,75.976646 268.639954,79.224907 271.230377,87.213203   C273.844208,95.273781 269.961029,103.336815 262.327118,105.699883   C255.322510,107.868149 248.125961,104.827591 245.075928,98.411201   C241.795959,91.511108 244.055252,84.257019 251.349075,79.201828  M262.814270,84.520950   C261.939667,84.061699 261.113220,83.424667 260.182495,83.172760   C255.104050,81.798180 250.719406,84.913071 249.867599,90.414589   C248.995789,96.045258 252.352234,100.903847 257.375122,101.282013   C261.989685,101.629433 266.160828,97.593300 265.858521,92.378815   C265.715576,89.913528 264.230499,87.526047 262.814270,84.520950  z"/>
<path fill="#131313" opacity="1.000000" stroke="none" d=" M375.796448,163.074265   C372.139740,156.845215 372.134949,150.996201 376.419678,145.545578   C380.370483,140.519745 385.875641,139.305771 391.688995,141.110504   C394.557617,142.001083 396.965149,144.377029 399.581299,146.080872   C399.247833,146.901093 398.914368,147.721329 398.580902,148.541550   C396.256470,147.972427 393.721649,147.811249 391.653717,146.744736   C387.953033,144.836151 383.972839,145.263489 381.337860,148.476486   C378.542603,151.884872 378.549347,157.696930 381.444672,160.958466   C384.377533,164.262222 387.728912,164.775024 391.760895,162.761383   C393.880524,161.702789 396.380432,161.405685 399.899536,160.436859   C394.905884,170.918976 383.439117,171.510941 375.796448,163.074265  z"/>
<path fill="#121212" opacity="1.000000" stroke="none" d=" M297.699097,97.940781   C299.208435,98.485863 300.395538,98.965660 301.623962,99.462151   C298.043793,105.313774 292.228790,107.552483 285.609283,105.816475   C279.637665,104.250381 275.445587,98.543640 275.443054,91.976959   C275.440582,85.453796 279.182922,80.230492 285.182770,78.382881   C291.697296,76.376778 297.580414,78.476242 302.059113,85.544083   C298.866119,85.145515 296.351624,85.459488 294.538300,84.478027   C290.431000,82.254951 286.485565,82.356209 283.734344,85.545876   C280.659332,89.110901 280.688568,94.841438 283.799774,98.392059   C286.900787,101.931023 290.711670,102.214401 294.885040,99.265755   C295.657501,98.720001 296.543365,98.334801 297.699097,97.940781  z"/>
<path fill="#171717" opacity="1.000000" stroke="none" d=" M404.290771,146.710678   C408.787903,139.239120 417.663879,138.282669 425.089417,145.563538   C423.531891,145.753922 421.950653,146.209305 420.422455,146.072311   C418.154022,145.868958 415.884979,144.784927 413.689972,144.966766   C412.266022,145.084717 410.973511,146.789505 409.622101,147.783310   C410.665771,149.047028 411.464630,150.842484 412.805847,151.459976   C415.334015,152.623947 418.217865,152.985229 420.873932,153.909775   C423.846527,154.944458 426.098846,156.620850 426.167786,160.292725   C426.240814,164.180420 424.361511,166.691940 420.986053,167.967392   C415.342438,170.099915 409.809753,169.283417 404.810089,166.086075   C403.993530,165.563858 404.293854,163.295181 404.086914,161.894318   C408.704987,163.000259 412.146667,164.216751 415.659821,164.480118   C417.144562,164.591400 418.779663,162.696533 420.346405,161.713531   C419.175293,160.397598 418.237854,158.636017 416.778107,157.870712   C414.613556,156.735916 412.074310,156.321625 409.702728,155.574692   C405.539307,154.263382 403.087646,151.819656 404.290771,146.710678  z"/>
<path fill="#171717" opacity="1.000000" stroke="none" d=" M257.384033,204.174072   C263.514313,205.722275 265.763702,209.654221 265.914368,215.310104   C266.061340,220.825806 266.484650,226.334122 266.848206,232.970001   C264.661469,231.740952 262.927460,230.766357 260.810242,229.576385   C258.559784,230.334167 255.428879,231.910904 252.140030,232.379913   C246.454498,233.190735 241.973785,229.236862 241.958893,224.071686   C241.944824,219.192459 245.946106,215.777222 251.643829,215.983719   C254.023529,216.069992 256.397644,216.708878 258.760590,216.638092   C259.560028,216.614136 260.899811,215.242752 260.993896,214.378448   C261.424866,210.418335 257.964417,207.140274 253.674164,207.484116   C251.729385,207.639999 249.867065,208.650558 247.918060,208.992966   C246.735184,209.200745 245.458115,208.872452 244.223358,208.784973   C245.080368,207.792542 245.778229,206.194519 246.823837,205.919754   C250.137543,205.048904 253.581116,204.672287 257.384033,204.174072  M260.292633,225.416306   C260.631683,223.561401 260.970764,221.706482 261.328552,219.749161   C258.794525,219.164978 256.776733,218.107666 255.010056,218.429413   C252.264633,218.929398 249.409134,219.986710 247.197632,221.617737   C246.437378,222.178421 246.853485,226.307846 247.800217,226.815613   C250.061752,228.028519 252.959061,228.420074 255.598831,228.417084   C257.016510,228.415482 258.432465,226.914520 260.292633,225.416306  z"/>
<path fill="#0C0C0C" opacity="1.000000" stroke="none" d=" M344.728760,133.611938   C346.428680,132.638168 348.099518,132.097733 350.346954,131.370804   C350.346954,134.942200 350.346954,137.563416 350.346954,140.498352   C352.403503,140.732651 354.145142,140.931076 355.887482,141.130386   C356.592529,145.099319 356.592529,145.099319 350.476501,146.028091   C350.476501,150.543488 350.382721,155.156128 350.502075,159.763245   C350.629120,164.668427 354.111298,163.402481 357.018066,162.968613   C359.457886,166.228561 358.157684,167.670837 354.776886,168.503708   C348.352356,170.086472 344.832703,167.534302 344.707336,160.947372   C344.640869,157.454681 344.741333,153.958801 344.676331,150.466034   C344.636261,148.313522 345.583832,145.648621 341.974396,145.079880   C341.635803,145.026520 341.481506,141.502029 341.550568,141.490814   C346.653809,140.661774 344.066986,136.658875 344.728760,133.611938  z"/>
<path fill="#121212" opacity="1.000000" stroke="none" d=" M213.811707,214.997437   C213.811752,208.042847 213.811752,201.587601 213.811752,194.827087   C215.565292,194.827087 216.939453,194.827087 218.686569,194.827087   C218.686569,205.854568 218.686569,216.594910 218.686569,227.889572   C224.806931,227.889572 230.575073,228.002411 236.335739,227.843872   C239.396240,227.759644 240.192123,228.880920 239.121597,231.825134   C230.856934,231.825134 222.600983,231.825134 213.811661,231.825134   C213.811661,226.344925 213.811661,220.920853 213.811707,214.997437  z"/>
<path fill="#101010" opacity="1.000000" stroke="none" d=" M355.115021,86.974327   C355.115021,89.964638 355.257965,92.470596 355.082886,94.954124   C354.790100,99.107300 355.370605,102.272507 362.685394,100.174599   C360.878448,103.101311 360.290405,105.312973 359.178711,105.618370   C355.835999,106.536697 352.125427,107.131287 349.959412,103.186745   C349.424347,102.212402 349.159698,100.966896 349.153473,99.843910   C349.094513,89.217300 349.118378,78.590225 349.118378,67.611809   C351.131104,67.611809 352.841034,67.611809 355.115021,67.611809   C355.115021,73.933746 355.115021,80.206818 355.115021,86.974327  z"/>
<path fill="#6DCBD2" opacity="1.000000" stroke="none" d=" M124.275101,225.034546   C120.016678,224.182327 117.071510,221.779205 117.493652,217.939896   C117.791580,215.230301 119.755135,211.900513 122.006401,210.465103   C123.783333,209.332123 128.003311,209.712708 129.561340,211.141113   C131.509201,212.926865 132.887589,216.576874 132.626953,219.237442   C132.234970,223.239059 128.972244,225.334854 124.275101,225.034546  z"/>
<path fill="#070707" opacity="1.000000" stroke="none" d=" M362.550354,144.379333   C362.244934,139.332626 365.545532,141.327347 367.912048,140.953018   C367.912048,150.046097 367.912048,158.972321 367.912048,168.209824   C366.330811,168.209824 364.758331,168.209824 362.550018,168.209824   C362.550018,160.388458 362.550018,152.615585 362.550354,144.379333  z"/>
<path fill="#080808" opacity="1.000000" stroke="none" d=" M306.546173,90.035248   C306.546204,85.928108 306.546204,82.311951 306.546204,78.426636   C308.531097,78.426636 310.085052,78.426636 311.919189,78.426636   C311.919189,87.483109 311.919189,96.498154 311.919189,105.594559   C310.099884,105.594559 308.538269,105.594559 306.546143,105.594559   C306.546143,100.406700 306.546143,95.466469 306.546173,90.035248  z"/>
<path fill="#141414" opacity="1.000000" stroke="none" d=" M367.447083,130.089203   C367.984528,132.147110 368.132690,134.095825 368.304718,136.357697   C366.325317,136.357697 364.753387,136.357697 362.837738,136.357697   C362.837738,134.408310 362.837738,132.497131 362.837738,130.214340   C364.194122,130.139008 365.625977,130.059494 367.447083,130.089203  z"/>
<path fill="#171717" opacity="1.000000" stroke="none" d=" M306.482361,70.961052   C306.142456,65.795624 309.396820,67.480812 312.005737,67.348816   C312.005737,69.552177 312.005737,71.497063 312.005737,75.291359   C309.589172,73.571091 308.036285,72.465637 306.482361,70.961052  z"/>
<path fill="none" opacity="1.000000" stroke="none" d=" M235.215912,141.446167   C235.247009,148.505249 233.648010,150.186493 227.308472,150.233047   C224.858139,150.251038 222.407593,150.235977 219.785141,150.235977   C219.785141,145.431305 219.785141,141.049347 219.785141,136.049545   C225.355118,137.224670 231.893295,133.434525 235.215912,141.446167  z"/>
<path fill="none" opacity="1.000000" stroke="none" d=" M284.861938,151.602859   C288.507202,145.720871 292.114075,144.218338 296.253815,146.471878   C300.249176,148.646820 302.040100,154.714615 299.792450,159.153442   C297.960632,162.771011 294.861389,164.667358 290.806244,163.781830   C286.847198,162.917282 284.424225,160.427032 284.723389,155.996597   C284.812531,154.676224 284.766510,153.346741 284.861938,151.602859  z"/>
<path fill="none" opacity="1.000000" stroke="none" d=" M283.628448,227.957703   C278.048950,224.628510 275.945312,217.143250 279.134094,212.564575   C281.470612,209.209656 284.673737,207.276398 288.959900,208.473724   C293.077850,209.624100 296.075745,214.290558 295.595978,218.998962   C295.142456,223.449615 293.104919,226.935608 288.449463,228.082916   C287.061890,228.424881 285.506958,228.087692 283.628448,227.957703  z"/>
<path fill="#030707" opacity="1.000000" stroke="none" d=" M139.477158,83.163971   C143.696564,84.763496 146.202667,87.629738 145.080566,91.616821   C144.391510,94.065178 141.988922,97.224464 139.805176,97.742195   C137.345901,98.325256 133.512482,97.036667 131.694458,95.176590   C130.200958,93.648537 129.906616,89.813293 130.645386,87.500450   C131.799515,83.887222 135.193863,82.509056 139.477158,83.163971  z"/>
<path fill="none" opacity="1.000000" stroke="none" d=" M332.335571,158.032684   C330.703583,162.215775 328.019409,164.388611 323.818420,163.897675   C319.884796,163.437958 317.600708,160.873047 316.863770,157.123260   C316.034698,152.904434 317.042175,149.141891 320.821930,146.658951   C325.264343,143.740723 330.895935,146.205902 332.365448,151.822479   C332.844421,153.653091 332.460358,155.709503 332.335571,158.032684  z"/>
<path fill="none" opacity="1.000000" stroke="none" d=" M326.399780,101.838913   C324.907196,99.939354 322.853149,98.056679 323.004669,96.372475   C323.132782,94.949066 325.695831,92.900024 327.397736,92.659447   C330.000153,92.291542 332.843323,93.055298 335.445557,93.814293   C335.883911,93.942146 336.179413,97.365082 335.591217,97.728485   C332.841034,99.427689 329.758240,100.588562 326.399780,101.838913  z"/>
<path fill="none" opacity="1.000000" stroke="none" d=" M267.604462,156.513733   C265.349457,162.731064 261.770416,165.086166 257.239319,163.670319   C252.909164,162.317230 250.541824,157.415497 251.741379,152.286469   C252.751816,147.966064 256.310913,145.129456 260.264832,145.493286   C264.835663,145.913879 267.452820,149.671967 267.604462,156.513733  z"/>
<path fill="none" opacity="1.000000" stroke="none" d=" M263.083923,84.812134   C264.230499,87.526047 265.715576,89.913528 265.858521,92.378815   C266.160828,97.593300 261.989685,101.629433 257.375122,101.282013   C252.352234,100.903847 248.995789,96.045258 249.867599,90.414589   C250.719406,84.913071 255.104050,81.798180 260.182495,83.172760   C261.113220,83.424667 261.939667,84.061699 263.083923,84.812134  z"/>
<path fill="none" opacity="1.000000" stroke="none" d=" M260.070923,225.753220   C258.432465,226.914520 257.016510,228.415482 255.598831,228.417084   C252.959061,228.420074 250.061752,228.028519 247.800217,226.815613   C246.853485,226.307846 246.437378,222.178421 247.197632,221.617737   C249.409134,219.986710 252.264633,218.929398 255.010056,218.429413   C256.776733,218.107666 258.794525,219.164978 261.328552,219.749161   C260.970764,221.706482 260.631683,223.561401 260.070923,225.753220  z"/>
</svg>