<?xml version="1.0" encoding="UTF-8" standalone="no"?>
<svg
   xmlns:dc="http://purl.org/dc/elements/1.1/"
   xmlns:cc="http://creativecommons.org/ns#"
   xmlns:rdf="http://www.w3.org/1999/02/22-rdf-syntax-ns#"
   xmlns:svg="http://www.w3.org/2000/svg"
   xmlns="http://www.w3.org/2000/svg"
   viewBox="0 0 292 132"
   height="132"
   width="292"
   xml:space="preserve"
   id="svg2"
   version="1.1"><metadata
     id="metadata8"><rdf:RDF><cc:Work
         rdf:about=""><dc:format>image/svg+xml</dc:format><dc:type
           rdf:resource="http://purl.org/dc/dcmitype/StillImage" /></cc:Work></rdf:RDF></metadata><defs
     id="defs6" /><g
     transform="matrix(1.3333333,0,0,-1.3333333,0,132)"
     id="g10"><g
       transform="scale(0.1)"
       id="g12"><path
         id="path14"
         style="fill:#cf113f;fill-opacity:1;fill-rule:evenodd;stroke:none"
         d="m 14.2539,494.332 h 488.125 V 982.457 H 14.2539 Z" /><path
         id="path16"
         style="fill:none;stroke:#cf113f;stroke-width:2.16000009;stroke-linecap:butt;stroke-linejoin:miter;stroke-miterlimit:22.92560005;stroke-dasharray:none;stroke-opacity:1"
         d="m 14.2539,494.332 h 488.125 V 982.457 H 14.2539 Z" /><path
         id="path18"
         style="fill:#ffffff;fill-opacity:1;fill-rule:nonzero;stroke:none"
         d="M 434.813,539.934 289.828,936.957 H 229.051 L 84.625,539.934 h 80.852 l 23.98,70.261 h 141.078 l 23.418,-70.261 z m -124.911,135.5 h -98.699 l 50.188,144.418 48.511,-144.418" /><path
         id="path20"
         style="fill:none;stroke:#ffffff;stroke-width:2.16000009;stroke-linecap:butt;stroke-linejoin:miter;stroke-miterlimit:22.92560005;stroke-dasharray:none;stroke-opacity:1"
         d="M 434.813,539.934 289.828,936.957 H 229.051 L 84.625,539.934 h 80.852 l 23.98,70.261 h 141.078 l 23.418,-70.261 z m -124.911,135.5 h -98.699 l 50.188,144.418 z" /><path
         id="path22"
         style="fill:#cf113f;fill-opacity:1;fill-rule:evenodd;stroke:none"
         d="M 574.805,494.332 H 1062.93 V 982.457 H 574.805 Z" /><path
         id="path24"
         style="fill:none;stroke:#cf113f;stroke-width:2.16000009;stroke-linecap:butt;stroke-linejoin:miter;stroke-miterlimit:22.92560005;stroke-dasharray:none;stroke-opacity:1"
         d="M 574.805,494.332 H 1062.93 V 982.457 H 574.805 Z" /><path
         id="path26"
         style="fill:#ffffff;fill-opacity:1;fill-rule:nonzero;stroke:none"
         d="m 967.477,662.051 h -78.625 c -7.805,-31.785 -27.879,-56.321 -66.911,-56.321 -21.187,0 -38.48,7.805 -49.632,20.633 -15.055,16.731 -19.516,35.688 -19.516,112.082 0,76.395 4.461,95.352 19.516,112.082 11.152,12.821 28.445,20.629 49.632,20.629 39.032,0 59.106,-24.531 66.911,-56.316 h 78.625 c -13.938,83.082 -71.93,125.461 -146.094,125.461 -43.496,0 -79.184,-15.61 -107.067,-43.496 -40.148,-40.145 -39.031,-89.774 -39.031,-158.36 0,-68.59 -1.117,-118.215 39.031,-158.367 27.883,-27.879 63.571,-43.586 107.067,-43.586 73.605,0 132.156,42.469 146.094,125.559" /><path
         id="path28"
         style="fill:none;stroke:#ffffff;stroke-width:2.16000009;stroke-linecap:butt;stroke-linejoin:miter;stroke-miterlimit:22.92560005;stroke-dasharray:none;stroke-opacity:1"
         d="m 967.477,662.051 h -78.625 c -7.805,-31.785 -27.879,-56.321 -66.911,-56.321 -21.187,0 -38.48,7.805 -49.632,20.633 -15.055,16.731 -19.516,35.688 -19.516,112.082 0,76.395 4.461,95.352 19.516,112.082 11.152,12.821 28.445,20.629 49.632,20.629 39.032,0 59.106,-24.531 66.911,-56.316 h 78.625 c -13.938,83.082 -71.93,125.461 -146.094,125.461 -43.496,0 -79.184,-15.61 -107.067,-43.496 -40.148,-40.145 -39.031,-89.774 -39.031,-158.36 0,-68.59 -1.117,-118.215 39.031,-158.367 27.883,-27.879 63.571,-43.586 107.067,-43.586 73.605,0 132.156,42.469 146.094,125.559 z" /><path
         id="path30"
         style="fill:#cf113f;fill-opacity:1;fill-rule:evenodd;stroke:none"
         d="m 1135.36,494.332 h 488.125 V 982.457 H 1135.36 Z" /><path
         id="path32"
         style="fill:none;stroke:#cf113f;stroke-width:2.16000009;stroke-linecap:butt;stroke-linejoin:miter;stroke-miterlimit:22.92560005;stroke-dasharray:none;stroke-opacity:1"
         d="m 1135.36,494.332 h 488.125 V 982.457 H 1135.36 Z" /><path
         id="path34"
         style="fill:#ffffff;fill-opacity:1;fill-rule:nonzero;stroke:none"
         d="m 1332.52,539.934 h 77.5078 V 936.957 H 1332.52 Z" /><path
         id="path36"
         style="fill:none;stroke:#ffffff;stroke-width:2.16000009;stroke-linecap:butt;stroke-linejoin:miter;stroke-miterlimit:22.92560005;stroke-dasharray:none;stroke-opacity:1"
         d="m 1332.52,539.934 h 77.5078 V 936.957 H 1332.52 Z" /><path
         id="path38"
         style="fill:#cf113f;fill-opacity:1;fill-rule:evenodd;stroke:none"
         d="m 1695.91,494.332 h 488.129 V 982.457 H 1695.91 Z" /><path
         id="path40"
         style="fill:none;stroke:#cf113f;stroke-width:2.16000009;stroke-linecap:butt;stroke-linejoin:miter;stroke-miterlimit:22.92560005;stroke-dasharray:none;stroke-opacity:1"
         d="m 1695.91,494.332 h 488.129 V 982.457 H 1695.91 Z" /><path
         id="path42"
         style="fill:#ffffff;fill-opacity:1;fill-rule:nonzero;stroke:none"
         d="m 2076.98,539.934 v 397.023 h -72.03 V 693.832 l -146.13,243.125 h -64.25 V 539.934 h 72.02 v 243.679 l 146.13,-243.679 h 64.26" /><path
         id="path44"
         style="fill:none;stroke:#ffffff;stroke-width:2.16000009;stroke-linecap:butt;stroke-linejoin:miter;stroke-miterlimit:22.92560005;stroke-dasharray:none;stroke-opacity:1"
         d="m 2076.98,539.934 v 397.023 h -72.03 V 693.832 l -146.13,243.125 h -64.25 V 539.934 h 72.02 v 243.679 l 146.13,-243.679 z" /><path
         id="path46"
         style="fill:#a7a5a6;fill-opacity:1;fill-rule:nonzero;stroke:none"
         d="m 32.6914,366.914 14.418,43.539 h 0.2812 l 14.4219,-43.539 z m 41.1602,-35.699 h 15.9609 l -36.2617,99.68 H 40.9531 L 4.69141,331.215 H 20.6523 l 7.6993,22.262 h 37.8007 z m 22.2578,33.742 c 0,-20.723 15.6836,-34.605 35.4216,-34.605 19.739,0 35.422,13.882 35.422,34.605 v 65.938 h -15.121 v -64.258 c 0,-13.719 -8.82,-21.141 -20.301,-21.141 -11.48,0 -20.301,7.422 -20.301,21.141 v 64.258 H 96.1094 Z M 203.07,331.215 h 15.121 v 86.242 h 27.301 v 13.438 H 175.77 v -13.438 h 27.3 z m 47.184,49.84 c 0,-23.942 1.117,-26.879 4.34,-32.758 4.758,-8.68 15.539,-17.945 31.219,-17.945 15.679,0 26.46,9.265 31.218,17.945 3.223,5.879 4.34,8.816 4.34,32.758 0,23.941 -1.117,26.879 -4.34,32.761 -4.758,8.68 -15.539,17.922 -31.218,17.922 -15.68,0 -26.461,-9.242 -31.219,-17.922 -3.223,-5.882 -4.34,-8.82 -4.34,-32.761 z m 15.121,0 c 0,20.441 1.117,23.238 5.039,28.281 3.078,3.918 8.258,7.281 15.399,7.281 7.14,0 12.32,-3.363 15.398,-7.281 3.922,-5.043 5.039,-7.84 5.039,-28.281 0,-20.442 -1.117,-23.239 -5.039,-28.282 -3.078,-3.918 -8.258,-7.277 -15.398,-7.277 -7.141,0 -12.321,3.359 -15.399,7.277 -3.922,5.043 -5.039,7.84 -5.039,28.282 z m 73.637,-49.84 h 15.121 v 62.16 h 0.281 l 20.859,-47.879 h 12.598 l 20.863,47.879 h 0.278 v -62.16 h 15.121 v 99.68 h -14.281 l -28,-64.957 -28.559,64.957 h -14.281 z m 123.761,35.699 14.418,43.539 h 0.282 l 14.422,-43.539 z m 41.161,-35.699 h 15.961 l -36.262,99.68 h -12.602 l -36.258,-99.68 h 15.961 l 7.7,22.262 h 37.8 z m 33.175,0 h 15.121 v 86.242 h 27.301 v 13.438 h -69.722 v -13.438 h 27.3 z m 53.063,0 h 15.121 v 99.68 h -15.121 z m 32.762,49.84 c 0,-23.942 1.117,-26.879 4.339,-32.758 4.758,-8.68 15.54,-17.945 31.219,-17.945 15.68,0 26.461,9.265 31.219,17.945 3.219,5.879 4.34,8.816 4.34,32.758 0,23.941 -1.121,26.879 -4.34,32.761 -4.758,8.68 -15.539,17.922 -31.219,17.922 -15.679,0 -26.461,-9.242 -31.219,-17.922 -3.222,-5.882 -4.339,-8.82 -4.339,-32.761 z m 15.121,0 c 0,20.441 1.117,23.238 5.039,28.281 3.078,3.918 8.258,7.281 15.398,7.281 7.141,0 12.321,-3.363 15.399,-7.281 3.922,-5.043 5.039,-7.84 5.039,-28.281 0,-20.442 -1.117,-23.239 -5.039,-28.282 -3.078,-3.918 -8.258,-7.277 -15.399,-7.277 -7.14,0 -12.32,3.359 -15.398,7.277 -3.922,5.043 -5.039,7.84 -5.039,28.282 z m 73.636,-49.84 h 15.122 v 70.84 h 0.281 l 45.078,-70.84 h 14.281 v 99.68 h -15.121 v -70.84 h -0.281 l -45.078,70.84 h -14.282 z m 147.7,78.398 c 0,5.18 4.199,9.524 9.8,9.524 5.602,0 9.801,-4.344 9.801,-9.524 0,-5.039 -2.941,-9.238 -12.179,-12.738 -4.34,3.922 -7.422,8.68 -7.422,12.738 z m 45.222,-78.398 h 16.797 l -16.797,20.019 c 5.598,5.879 10.078,14.282 13.02,21.563 l -12.742,5.039 c -2.098,-6.02 -4.618,-11.481 -8.68,-16.664 l -21.281,25.625 c 11.898,5.598 16.664,13.019 16.664,22.262 0,12.035 -8.961,22.679 -22.403,22.679 -13.441,0 -22.402,-10.644 -22.402,-22.679 0,-6.723 3.504,-13.446 8.262,-18.903 -12.18,-6.301 -19.039,-17.359 -19.039,-29.121 0,-16.379 12.742,-30.683 31.5,-30.683 10.636,0 19.597,4.785 27.859,10.941 z m -17.504,20.578 c -6.578,-6.297 -13.859,-8.816 -20.015,-8.816 -9.942,0 -18.485,7.699 -18.485,18.195 0,7.004 4.34,14.004 14.422,19.465 z m 129.501,7.281 c -4.2,-8.957 -10.64,-13.578 -19.04,-13.578 -7.14,0 -12.32,3.359 -15.398,7.277 -3.922,5.043 -5.043,7.84 -5.043,28.282 0,20.441 1.121,23.238 5.043,28.281 3.078,3.918 8.258,7.281 15.398,7.281 9.52,0 16.66,-6.722 19.04,-14.422 h 15.96 c -3.08,16.243 -16.1,29.543 -35,29.543 -15.679,0 -26.461,-9.242 -31.218,-17.922 -3.223,-5.882 -4.34,-8.82 -4.34,-32.761 0,-23.942 1.117,-26.879 4.34,-32.758 4.757,-8.68 15.539,-17.945 31.218,-17.945 17.08,0 31.08,10.105 35,28.722 z m 23.24,21.981 c 0,-23.942 1.12,-26.879 4.34,-32.758 4.76,-8.68 15.54,-17.945 31.22,-17.945 15.68,0 26.46,9.265 31.22,17.945 3.22,5.879 4.34,8.816 4.34,32.758 0,23.941 -1.12,26.879 -4.34,32.761 -4.76,8.68 -15.54,17.922 -31.22,17.922 -15.68,0 -26.46,-9.242 -31.22,-17.922 -3.22,-5.882 -4.34,-8.82 -4.34,-32.761 z m 15.12,0 c 0,20.441 1.12,23.238 5.04,28.281 3.08,3.918 8.26,7.281 15.4,7.281 7.14,0 12.32,-3.363 15.4,-7.281 3.92,-5.043 5.04,-7.84 5.04,-28.281 0,-20.442 -1.12,-23.239 -5.04,-28.282 -3.08,-3.918 -8.26,-7.277 -15.4,-7.277 -7.14,0 -12.32,3.359 -15.4,7.277 -3.92,5.043 -5.04,7.84 -5.04,28.282 z m 73.64,-49.84 h 15.12 v 70.84 h 0.28 l 45.08,-70.84 h 14.28 v 99.68 h -15.12 v -70.84 h -0.28 l -45.08,70.84 h -14.28 z m 112.7,0 h 15.12 v 86.242 h 27.3 v 13.438 h -69.72 v -13.438 h 27.3 z m 68.18,86.242 h 23.66 c 5.18,0 8.26,-0.984 11.06,-3.082 3.08,-2.238 5.04,-6.16 5.04,-11.34 0,-8.402 -5.6,-15.82 -16.94,-15.82 h -22.82 z m -15.12,-86.242 h 15.12 v 42.558 h 19.32 l 20.58,-42.558 h 17.92 l -23.1,44.238 c 12.04,4.203 19.32,14.703 19.32,27.582 0,8.961 -4.34,16.52 -9.94,21.281 -5.32,4.622 -11.9,6.579 -20.3,6.579 h -38.92 z m 82.04,49.84 c 0,-23.942 1.12,-26.879 4.34,-32.758 4.76,-8.68 15.54,-17.945 31.22,-17.945 15.68,0 26.46,9.265 31.22,17.945 3.22,5.879 4.34,8.816 4.34,32.758 0,23.941 -1.12,26.879 -4.34,32.761 -4.76,8.68 -15.54,17.922 -31.22,17.922 -15.68,0 -26.46,-9.242 -31.22,-17.922 -3.22,-5.882 -4.34,-8.82 -4.34,-32.761 z m 15.12,0 c 0,20.441 1.12,23.238 5.04,28.281 3.08,3.918 8.26,7.281 15.4,7.281 7.14,0 12.32,-3.363 15.4,-7.281 3.92,-5.043 5.04,-7.84 5.04,-28.281 0,-20.442 -1.12,-23.239 -5.04,-28.282 -3.08,-3.918 -8.26,-7.277 -15.4,-7.277 -7.14,0 -12.32,3.359 -15.4,7.277 -3.92,5.043 -5.04,7.84 -5.04,28.282 z m 73.64,-49.84 h 63.7 v 14.281 h -48.58 v 85.399 h -15.12 z m 111.44,0 h 15.12 v 99.68 h -15.12 z m 36.12,0 h 15.12 v 70.84 h 0.28 l 45.08,-70.84 h 14.28 v 99.68 h -15.12 v -70.84 h -0.28 l -45.08,70.84 h -14.28 z m 87.07,12.879 c 10.5,-9.239 23.39,-13.742 38.09,-13.742 21.41,0 35,10.664 35,29.003 0,13.579 -8.68,26.461 -27.3,28.7 -4.76,0.562 -8.54,1.121 -11.2,1.539 -10.09,1.543 -14.14,7.14 -14.14,12.742 0,9.519 7.41,14.281 16.66,14.281 8.82,0 17.36,-3.082 24.64,-7.703 l 8.4,12.461 c -9.1,6.02 -20.02,10.363 -32.34,10.363 -20.58,0 -32.48,-12.043 -32.48,-29.121 0,-14.422 9.24,-25.625 26.46,-28 5.18,-0.703 8.68,-1.262 13.16,-1.82 8.96,-1.121 13.02,-6.442 13.02,-13.442 0,-8.261 -7.43,-13.859 -19.74,-13.859 -10.64,0 -20.72,3.918 -28.28,9.942 z m 105.99,-12.879 h 15.12 v 86.242 h 27.3 v 13.438 h -69.73 v -13.438 h 27.31 z m 53.06,0 h 15.12 v 99.68 h -15.12 z m 53.06,0 h 15.12 v 86.242 h 27.29 v 13.438 h -69.71 v -13.438 h 27.3 z m 51.24,33.742 c 0,-20.723 15.68,-34.605 35.42,-34.605 19.74,0 35.42,13.882 35.42,34.605 v 65.938 h -15.12 v -64.258 c 0,-13.719 -8.82,-21.141 -20.3,-21.141 -11.48,0 -20.3,7.422 -20.3,21.141 v 64.258 h -15.12 z m 106.96,-33.742 h 15.12 v 86.242 h 27.3 v 13.438 h -69.72 v -13.438 h 27.3 z m 53.06,0 h 63.7 v 14.281 h -48.58 v 29.258 h 41.44 v 13.441 h -41.44 v 28.422 h 48.58 v 14.278 h -63.7 z M 15.0508,168.254 h 15.1211 v 99.68 H 15.0508 Z m 36.1211,0 h 15.1172 v 70.84 h 0.2812 l 45.0817,-70.84 h 14.278 v 99.68 h -15.117 v -70.84 h -0.282 l -45.0779,70.84 H 51.1719 Z m 87.0781,12.879 c 10.5,-9.238 23.383,-13.742 38.082,-13.742 21.418,0 35,10.664 35,29.004 0,13.578 -8.68,26.46 -27.301,28.699 -4.761,0.562 -8.539,1.121 -11.199,1.539 -10.082,1.543 -14.141,7.14 -14.141,12.742 0,9.52 7.418,14.281 16.661,14.281 8.82,0 17.359,-3.082 24.64,-7.703 l 8.399,12.461 c -9.098,6.02 -20.02,10.363 -32.34,10.363 -20.578,0 -32.481,-12.043 -32.481,-29.121 0,-14.422 9.243,-25.625 26.461,-28 5.18,-0.703 8.68,-1.261 13.16,-1.82 8.961,-1.121 13.02,-6.441 13.02,-13.441 0,-8.262 -7.422,-13.86 -19.742,-13.86 -10.637,0 -20.719,3.918 -28.278,9.942 z m 105.98,-12.879 h 15.122 v 86.242 h 27.296 v 13.438 H 216.93 v -13.438 h 27.3 z m 53.063,0 h 15.117 v 99.68 h -15.117 z m 53.059,0 h 15.117 v 86.242 h 27.301 v 13.438 h -69.719 v -13.438 h 27.301 z m 51.242,33.738 c 0,-20.719 15.679,-34.601 35.422,-34.601 19.734,0 35.418,13.882 35.418,34.601 v 65.942 h -15.121 v -64.258 c 0,-13.719 -8.821,-21.141 -20.297,-21.141 -11.481,0 -20.305,7.422 -20.305,21.141 v 64.258 h -15.117 z m 106.957,-33.738 h 15.121 v 86.242 h 27.301 v 13.438 H 481.25 v -13.438 h 27.301 z m 86.66,0 h 15.121 v 42.559 h 41.441 v 13.441 h -41.441 v 29.402 h 48.582 v 14.278 h -63.703 z m 113.543,106.539 h 15.121 v 15.121 h -15.121 z m -24.641,0 h 15.121 v 15.121 h -15.121 z m -15.539,-72.801 c 0,-20.719 15.68,-34.601 35.422,-34.601 19.738,0 35.418,13.882 35.418,34.601 v 65.942 h -15.121 v -64.258 c 0,-13.719 -8.82,-21.141 -20.297,-21.141 -11.48,0 -20.301,7.422 -20.301,21.141 v 64.258 h -15.121 z m 105.141,52.504 h 23.66 c 5.18,0 8.258,-0.98 11.059,-3.082 3.078,-2.238 5.043,-6.16 5.043,-11.34 0,-8.402 -5.602,-15.82 -16.942,-15.82 h -22.82 z m -15.121,-86.242 h 15.121 v 42.559 h 19.32 l 20.578,-42.559 h 17.922 l -23.101,44.238 c 12.039,4.203 19.32,14.703 19.32,27.582 0,8.961 -4.34,16.52 -9.938,21.281 -5.324,4.622 -11.902,6.579 -20.304,6.579 h -38.918 z m 136.636,35.699 14.422,43.539 h 0.282 l 14.418,-43.539 z m 41.165,-35.699 h 15.957 l -36.262,99.68 h -12.598 l -36.262,-99.68 h 15.961 l 7.7,22.262 h 37.8 z m 22.257,33.738 c 0,-20.719 15.68,-34.601 35.422,-34.601 19.736,0 35.416,13.882 35.416,34.601 v 65.942 h -15.12 v -64.258 c 0,-13.719 -8.82,-21.141 -20.296,-21.141 -11.48,0 -20.304,7.422 -20.304,21.141 v 64.258 h -15.118 z m 106.958,-33.738 h 15.12 v 86.242 h 27.3 v 13.438 h -69.72 v -13.438 h 27.3 z m 47.18,49.84 c 0,-23.942 1.12,-26.879 4.34,-32.758 4.76,-8.68 15.54,-17.945 31.23,-17.945 15.67,0 26.45,9.265 31.21,17.945 3.22,5.879 4.34,8.816 4.34,32.758 0,23.941 -1.12,26.879 -4.34,32.761 -4.76,8.68 -15.54,17.922 -31.21,17.922 -15.69,0 -26.47,-9.242 -31.23,-17.922 -3.22,-5.882 -4.34,-8.82 -4.34,-32.761 z m 15.12,0 c 0,20.441 1.13,23.238 5.04,28.281 3.08,3.918 8.26,7.281 15.41,7.281 7.13,0 12.31,-3.363 15.39,-7.281 3.92,-5.043 5.04,-7.84 5.04,-28.281 0,-20.438 -1.12,-23.242 -5.04,-28.281 -3.08,-3.918 -8.26,-7.278 -15.39,-7.278 -7.15,0 -12.33,3.36 -15.41,7.278 -3.91,5.039 -5.04,7.843 -5.04,28.281 z m 73.64,-49.84 h 15.12 v 62.16 h 0.28 l 20.86,-47.879 h 12.6 l 20.86,47.879 h 0.28 v -62.16 h 15.12 v 99.68 h -14.28 l -28,-64.957 -28.56,64.957 h -14.28 z m 123.76,35.699 14.42,43.539 h 0.28 l 14.42,-43.539 z m 41.16,-35.699 h 15.96 l -36.26,99.68 h -12.6 l -36.26,-99.68 h 15.96 l 7.7,22.262 h 37.8 z m 33.18,0 h 15.12 v 86.242 h 27.3 v 13.438 h -69.72 v -13.438 h 27.3 z m 53.06,0 h 15.12 v 99.68 h -15.12 z m 27.44,12.879 c 10.5,-9.238 23.38,-13.742 38.08,-13.742 21.42,0 35,10.664 35,29.004 0,13.578 -8.68,26.46 -27.3,28.699 -4.76,0.562 -8.54,1.121 -11.2,1.539 -10.08,1.543 -14.14,7.14 -14.14,12.742 0,9.52 7.42,14.281 16.66,14.281 8.82,0 17.36,-3.082 24.64,-7.703 l 8.4,12.461 c -9.09,6.02 -20.02,10.363 -32.34,10.363 -20.58,0 -32.48,-12.043 -32.48,-29.121 0,-14.422 9.24,-25.625 26.46,-28 5.18,-0.703 8.68,-1.261 13.16,-1.82 8.96,-1.121 13.02,-6.441 13.02,-13.441 0,-8.262 -7.42,-13.86 -19.74,-13.86 -10.64,0 -20.72,3.918 -28.28,9.942 z m 89.04,-12.879 h 15.12 v 99.68 h -15.12 z m 36.12,0 h 63.7 v 14.281 h -48.58 v 29.258 h 41.44 v 13.441 h -41.44 v 28.422 h 48.58 v 14.278 h -63.7 z m 92.96,86.242 h 23.66 c 5.18,0 8.26,-0.98 11.06,-3.082 3.08,-2.238 5.04,-6.16 5.04,-11.34 0,-8.402 -5.6,-15.82 -16.94,-15.82 h -22.82 z m -15.12,-86.242 h 15.12 v 42.559 h 19.32 l 20.58,-42.559 h 17.92 l -23.1,44.238 c 12.04,4.203 19.32,14.703 19.32,27.582 0,8.961 -4.34,16.52 -9.94,21.281 -5.32,4.622 -11.9,6.579 -20.3,6.579 h -38.92 z m 83.58,33.738 c 0,-20.719 15.68,-34.601 35.42,-34.601 19.74,0 35.42,13.882 35.42,34.601 v 65.942 h -15.12 v -64.258 c 0,-13.719 -8.82,-21.141 -20.3,-21.141 -11.48,0 -20.3,7.422 -20.3,21.141 v 64.258 h -15.12 z m 90.02,-33.738 h 15.12 v 70.84 h 0.28 l 45.08,-70.84 h 14.28 v 99.68 h -15.12 v -70.84 h -0.28 l -45.08,70.84 h -14.28 z m 128.1,40.601 h 20.3 v -5.179 c 0,-12.461 -8.96,-21.141 -20.44,-21.141 -7.14,0 -12.32,3.36 -15.4,7.278 -3.92,5.039 -5.04,7.843 -5.04,28.281 0,20.441 1.12,23.238 5.04,28.281 3.08,3.918 8.26,7.281 15.4,7.281 9.52,0 16.66,-6.722 19.04,-14.422 h 15.96 c -3.08,16.243 -16.1,29.543 -35,29.543 -15.68,0 -26.46,-9.242 -31.22,-17.922 -3.22,-5.882 -4.34,-8.82 -4.34,-32.761 0,-23.942 1.12,-26.879 4.34,-32.758 4.76,-8.68 15.54,-17.945 31.22,-17.945 19.88,0 35.56,15.703 35.56,35.441 v 20.305 h -35.42 z m 44.38,-27.722 c 10.5,-9.238 23.38,-13.742 38.08,-13.742 21.42,0 35,10.664 35,29.004 0,13.578 -8.68,26.46 -27.3,28.699 -4.76,0.562 -8.54,1.121 -11.2,1.539 -10.08,1.543 -14.14,7.14 -14.14,12.742 0,9.52 7.42,14.281 16.66,14.281 8.82,0 17.36,-3.082 24.64,-7.703 l 8.4,12.461 c -9.1,6.02 -20.02,10.363 -32.34,10.363 -20.58,0 -32.48,-12.043 -32.48,-29.121 0,-14.422 9.24,-25.625 26.46,-28 5.18,-0.703 8.68,-1.261 13.16,-1.82 8.96,-1.121 13.02,-6.441 13.02,-13.441 0,-8.262 -7.42,-13.86 -19.74,-13.86 -10.64,0 -20.72,3.918 -28.28,9.942 z m 85.96,18.762 h 42.14 v 14.281 h -42.14 z M 33.3906,83.6914 c 0,5.1797 4.2032,9.5234 9.8008,9.5234 5.6016,0 9.8008,-4.3437 9.8008,-9.5234 0,-5.0391 -2.9414,-9.2383 -12.1797,-12.7383 -4.3398,3.9219 -7.4219,8.6797 -7.4219,12.7383 z M 78.6133,5.29297 H 95.4102 L 78.6133,25.3125 c 5.5976,5.8789 10.0781,14.2813 13.0195,21.5625 L 78.8945,51.9141 C 76.793,45.8945 74.2734,40.4336 70.2109,35.2539 L 48.9297,60.875 c 11.9023,5.5977 16.6641,13.0195 16.6641,22.2578 0,12.0391 -8.961,22.6832 -22.4024,22.6832 -13.4414,0 -22.3984,-10.6441 -22.3984,-22.6832 0,-6.7187 3.5,-13.4414 8.2578,-18.8984 C 16.8711,57.9336 10.0117,46.875 10.0117,35.1133 c 0,-16.3789 12.7422,-30.68361 31.5,-30.68361 10.6406,0 19.6016,4.78125 27.8594,10.94141 z m -17.5,20.57813 c -6.582,-6.2969 -13.8594,-8.8164 -20.0195,-8.8164 -9.9415,0 -18.4844,7.6992 -18.4844,18.1992 0,7 4.3437,14 14.4219,19.4609 z m 93.3787,65.6641 h 23.66 c 5.18,0 8.258,-0.9805 11.059,-3.0821 3.078,-2.2383 5.043,-6.1601 5.043,-11.3398 0,-8.4024 -5.602,-15.8203 -16.941,-15.8203 H 154.492 Z M 139.371,5.29297 h 15.121 V 47.8516 h 19.321 L 194.391,5.29297 h 17.922 L 189.211,49.5313 c 12.039,4.2031 19.32,14.7031 19.32,27.582 0,8.9609 -4.34,16.5195 -9.937,21.2812 -5.324,4.6215 -11.903,6.5785 -20.305,6.5785 h -38.918 z m 85.399,0 h 63.699 V 19.5742 H 239.891 V 48.832 h 41.437 v 13.4414 h -41.437 v 28.4219 h 48.578 V 104.973 H 224.77 Z M 334.949,45.8945 h 20.301 v -5.1797 c 0,-12.4609 -8.957,-21.1406 -20.437,-21.1406 -7.141,0 -12.325,3.3594 -15.403,7.2774 -3.922,5.0429 -5.039,7.8437 -5.039,28.2812 0,20.4414 1.117,23.2383 5.039,28.2813 3.078,3.9179 8.262,7.2812 15.403,7.2812 9.515,0 16.656,-6.7226 19.039,-14.4219 h 15.957 c -3.079,16.2422 -16.098,29.5426 -34.996,29.5426 -15.684,0 -26.465,-9.2418 -31.223,-17.9215 -3.219,-5.8828 -4.34,-8.8203 -4.34,-32.7617 0,-23.9414 1.121,-26.8789 4.34,-32.7578 4.758,-8.6797 15.539,-17.94531 31.223,-17.94531 19.878,0 35.554,15.70311 35.554,35.44141 V 60.1758 H 334.949 Z M 388.008,5.29297 h 63.699 V 19.5742 H 403.129 V 48.832 h 41.437 v 13.4414 h -41.437 v 28.4219 h 48.578 v 14.2777 h -63.699 z m 77.84,0 h 63.699 V 19.5742 h -48.578 v 85.3988 h -15.121 z m 76.019,33.73833 c 0,-20.7188 15.68,-34.60161 35.422,-34.60161 19.738,0 35.418,13.88281 35.418,34.60161 V 104.973 H 597.59 V 40.7148 c 0,-13.7187 -8.824,-21.1406 -20.301,-21.1406 -11.48,0 -20.301,7.4219 -20.301,21.1406 v 64.2582 h -15.121 z m 90.02,-33.73833 h 15.121 V 76.1328 h 0.281 L 692.367,5.29297 h 14.281 V 104.973 H 691.527 V 34.1328 h -0.281 L 646.168,104.973 H 631.887 Z M 759.988,45.8945 h 20.297 v -5.1797 c 0,-12.4609 -8.957,-21.1406 -20.437,-21.1406 -7.141,0 -12.321,3.3594 -15.399,7.2774 -3.922,5.0429 -5.039,7.8437 -5.039,28.2812 0,20.4414 1.117,23.2383 5.039,28.2813 3.078,3.9179 8.258,7.2812 15.399,7.2812 9.519,0 16.66,-6.7226 19.043,-14.4219 h 15.957 c -3.082,16.2422 -16.102,29.5426 -35,29.5426 -15.68,0 -26.461,-9.2418 -31.219,-17.9215 -3.223,-5.8828 -4.34,-8.8203 -4.34,-32.7617 0,-23.9414 1.117,-26.8789 4.34,-32.7578 4.758,-8.6797 15.539,-17.94531 31.219,-17.94531 19.879,0 35.558,15.70311 35.558,35.44141 v 20.3047 h -35.418 z m 44.379,-27.7226 c 10.5,-9.23831 23.379,-13.74221 38.082,-13.74221 21.418,0 34.996,10.66411 34.996,29.00391 0,13.5781 -8.679,26.4609 -27.297,28.6992 -4.761,0.5625 -8.539,1.1211 -11.203,1.5391 -10.078,1.5429 -14.136,7.1406 -14.136,12.7422 0,9.5195 7.418,14.2812 16.66,14.2812 8.82,0 17.355,-3.082 24.64,-7.7031 l 8.399,12.4609 c -9.098,6.0199 -20.02,10.3629 -32.34,10.3629 -20.582,0 -32.48,-12.0426 -32.48,-29.1207 0,-14.4219 9.242,-25.6211 26.457,-28 5.183,-0.7031 8.679,-1.2617 13.164,-1.8203 8.961,-1.1211 13.019,-6.4414 13.019,-13.4414 0,-8.2617 -7.422,-13.8594 -19.742,-13.8594 -10.637,0 -20.719,3.918 -28.277,9.9414 z M 910.348,5.29297 h 15.117 V 91.5352 h 27.301 V 104.973 H 883.047 V 91.5352 h 27.301 z m 53.058,0 h 63.704 V 19.5742 H 978.527 V 48.832 h 41.443 v 13.4414 h -41.443 v 28.4219 h 48.583 V 104.973 H 963.406 Z M 1092.49,33.1523 c -4.2,-8.957 -10.64,-13.5781 -19.04,-13.5781 -7.14,0 -12.32,3.3594 -15.4,7.2774 -3.92,5.0429 -5.04,7.8437 -5.04,28.2812 0,20.4414 1.12,23.2383 5.04,28.2813 3.08,3.9179 8.26,7.2812 15.4,7.2812 9.52,0 16.66,-6.7226 19.04,-14.4219 h 15.96 c -3.08,16.2422 -16.1,29.5426 -35,29.5426 -15.68,0 -26.46,-9.2418 -31.22,-17.9215 -3.22,-5.8828 -4.34,-8.8203 -4.34,-32.7617 0,-23.9414 1.12,-26.8789 4.34,-32.7578 4.76,-8.6797 15.54,-17.94531 31.22,-17.94531 17.08,0 31.08,10.10551 35,28.72261 z m 81.2,-27.85933 h 15.12 V 104.973 h -15.12 V 62.2734 h -39.48 v 42.6996 h -15.12 V 5.29297 h 15.12 V 48.832 h 39.48 z m 36.11,0 h 15.13 V 76.1328 h 0.28 l 45.08,-70.83983 h 14.28 V 104.973 h -15.12 V 34.1328 h -0.28 l -45.08,70.8402 h -14.29 z m 95.77,0 h 15.12 V 104.973 h -15.12 z m 36.12,0 h 15.11 V 35.6758 l 17.51,18.3398 27.15,-48.72263 h 17.93 l -35.28,60.33983 31.92,39.3402 h -17.92 l -41.02,-51.3792 h -0.29 v 51.3792 h -15.11 V 5.29297" /></g></g></svg>