<svg xmlns="http://www.w3.org/2000/svg" xmlns:xlink="http://www.w3.org/1999/xlink" version="1.1" width="1280" height="720" viewBox="0 0 1280 720" xml:space="preserve">
<desc>Created with Fabric.js 3.5.0</desc>
<defs>
</defs>
<rect x="0" y="0" width="100%" height="100%" fill="none"></rect>
<g transform="matrix(1.7678 0 0 1.7571 639.9907 360.0019)" id="909579"  >
<g style="" vector-effect="non-scaling-stroke"   >
		<g transform="matrix(0.0378 0 0 0.0378 -195.0787 86.6628)" id="_105553336439168"  >
<rect style="stroke: none; stroke-width: 1; stroke-dasharray: none; stroke-linecap: butt; stroke-dashoffset: 0; stroke-linejoin: miter; stroke-miterlimit: 4; is-custom-font: none; font-file-url: none; fill: rgb(76,145,170); fill-rule: evenodd; opacity: 1;"  x="-3667.725" y="-699.195" rx="85.5" ry="67" width="7335.45" height="1398.39" />
</g>
		<g transform="matrix(0.0378 0 0 0.0378 -252.7912 78.897)" style="" id="_105553336439168"  >
		<text xml:space="preserve" font-family="'Helvetica'" font-size="423.33" font-style="normal" font-weight="normal" style="stroke: none; stroke-width: 1; stroke-dasharray: none; stroke-linecap: butt; stroke-dashoffset: 0; stroke-linejoin: miter; stroke-miterlimit: 4; is-custom-font: none; font-file-url: none; fill: rgb(239,239,239); fill-rule: evenodd; opacity: 1; white-space: pre;" ><tspan x="-1000.5512" y="132.9849" >Language:</tspan></text>
</g>
		<g transform="matrix(0.0378 0 0 0.0378 -222.5689 94.8968)" style="" id="_105553336439168"  >
		<text xml:space="preserve" font-family="'Helvetica'" font-size="423.33" font-style="normal" font-weight="normal" style="stroke: none; stroke-width: 1; stroke-dasharray: none; stroke-linecap: butt; stroke-dashoffset: 0; stroke-linejoin: miter; stroke-miterlimit: 4; is-custom-font: none; font-file-url: none; fill: rgb(239,239,239); fill-rule: evenodd; opacity: 1; white-space: pre;" ><tspan x="-1800.0827" y="132.9849" >&lt; words, phrases &gt;</tspan></text>
</g>
		<g transform="matrix(0.0378 0 0 0.0378 -308.8449 86.6614)" id="_105553336439168"  >
<path style="stroke: none; stroke-width: 1; stroke-dasharray: none; stroke-linecap: butt; stroke-dashoffset: 0; stroke-linejoin: miter; stroke-miterlimit: 4; is-custom-font: none; font-file-url: none; fill: rgb(239,239,239); fill-rule: nonzero; opacity: 1;"  transform=" translate(-1828.44, -6292.86)" d="M 1828.44 6382.85 c 94.53 0 170.88 -76.36 170.88 -170.89 l 0 -198.15 c 0 -94.53 -76.35 -170.88 -170.88 -170.88 c -94.53 0 -170.88 76.35 -170.88 170.88 l 0 198.15 c 0 94.53 76.35 170.89 170.88 170.89 z m -94.53 -369.04 c 0 -52.72 41.81 -94.53 94.53 -94.53 c 52.72 0 94.53 41.81 94.53 94.53 l 0 198.15 c 0 52.72 -41.81 94.53 -94.53 94.53 c -52.72 0 -94.53 -41.81 -94.53 -94.53 l 0 -89.21 l 0 -108.94 z m 396.3 198.15 c 0 -21.81 -16.36 -38.17 -38.17 -38.17 c -21.82 0 -38.18 16.36 -38.18 38.17 c 0 123.62 -101.8 225.42 -225.42 225.42 c -123.62 0 -225.42 -101.8 -225.42 -225.42 c 0 -21.81 -16.36 -38.17 -38.18 -38.17 c -21.81 0 -38.17 18.18 -38.17 38.17 c 0 152.71 114.53 279.96 263.59 298.14 l 0 156.34 l -118.16 0 c -21.81 0 -38.17 16.36 -38.17 38.17 c 0 21.82 16.36 38.18 38.17 38.18 l 310.86 0 c 21.82 0 38.18 -16.36 38.18 -38.18 c 0 -21.81 -16.36 -38.17 -38.18 -38.17 l -118.16 0 l 0 -156.34 c 149.07 -18.18 265.41 -145.43 265.41 -298.14 z" stroke-linecap="round" />
</g>
		<g transform="matrix(0.0378 0 0 0.0378 -194.8556 -29.9114)" id="_105553336439168"  >
<rect style="stroke: none; stroke-width: 1; stroke-dasharray: none; stroke-linecap: butt; stroke-dashoffset: 0; stroke-linejoin: miter; stroke-miterlimit: 4; is-custom-font: none; font-file-url: none; fill: rgb(76,145,170); fill-rule: evenodd; opacity: 1;"  x="-3676.325" y="-699.195" rx="85.7" ry="67" width="7352.65" height="1398.39" />
</g>
		<g transform="matrix(0.0376 0 0 0.0378 -253.2797 -39.0239)" style="" id="_105553336439168"  >
		<text xml:space="preserve" font-family="'Helvetica'" font-size="423.33" font-style="normal" font-weight="normal" style="stroke: rgb(239,239,239); stroke-width: 7.62; stroke-dasharray: none; stroke-linecap: butt; stroke-dashoffset: 0; stroke-linejoin: miter; stroke-miterlimit: 22.9256; is-custom-font: none; font-file-url: none; fill: rgb(239,239,239); fill-rule: evenodd; opacity: 1; white-space: pre;" ><tspan x="-917.5595" y="132.9849" >Gestures:</tspan></text>
</g>
		<g transform="matrix(0.0376 0 0 0.0378 -220.536 -23.0241)" style="" id="_105553336439168"  >
		<text xml:space="preserve" font-family="'Helvetica'" font-size="423.33" font-style="normal" font-weight="normal" style="stroke: rgb(239,239,239); stroke-width: 7.62; stroke-dasharray: none; stroke-linecap: butt; stroke-dashoffset: 0; stroke-linejoin: miter; stroke-miterlimit: 22.9256; is-custom-font: none; font-file-url: none; fill: rgb(239,239,239); fill-rule: evenodd; opacity: 1; white-space: pre;" ><tspan x="-1788.4039" y="132.9849" >&lt; type, directions &gt;</tspan></text>
</g>
		<g transform="matrix(0.0378 0 0 0.0378 -307.813 -30.1828)" id="_105553336439168"  >
<path style="stroke: rgb(239,239,239); stroke-width: 79.37; stroke-dasharray: none; stroke-linecap: round; stroke-dashoffset: 0; stroke-linejoin: round; stroke-miterlimit: 22.9256; is-custom-font: none; font-file-url: none; fill: none; fill-rule: evenodd; opacity: 1;"  transform=" translate(-1855.73, -3201.355)" d="M 1686.01 3628.1 l 339.44 0 m 190.93 -490.76 c 0 200.33 -161.47 362.73 -360.65 362.73 c -199.18 0 -360.65 -162.4 -360.65 -362.73 c 0 -200.33 161.47 -362.73 360.65 -362.73 c 199.18 0 360.65 162.4 360.65 362.73 z m -225.4 0 c 0 75.13 -60.56 136.03 -135.25 136.03 c -74.69 0 -135.24 -60.9 -135.24 -136.03 c 0 -75.12 60.55 -136.02 135.24 -136.02 c 74.69 0 135.25 60.9 135.25 136.02 z" stroke-linecap="round" />
</g>
		<g transform="matrix(0.0378 0 0 0.0378 -194.9914 28.1867)" id="_105553336439168"  >
<rect style="stroke: none; stroke-width: 1; stroke-dasharray: none; stroke-linecap: butt; stroke-dashoffset: 0; stroke-linejoin: miter; stroke-miterlimit: 4; is-custom-font: none; font-file-url: none; fill: rgb(76,145,170); fill-rule: evenodd; opacity: 1;"  x="-3670.115" y="-699.195" rx="85.55" ry="67" width="7340.23" height="1398.39" />
</g>
		<g transform="matrix(0.0374 0 0 0.0378 -261.3427 19.2095)" style="" id="_105553336439168"  >
		<text xml:space="preserve" font-family="'Helvetica'" font-size="423.33" font-style="normal" font-weight="normal" style="stroke: rgb(239,239,239); stroke-width: 7.62; stroke-dasharray: none; stroke-linecap: butt; stroke-dashoffset: 0; stroke-linejoin: miter; stroke-miterlimit: 22.9256; is-custom-font: none; font-file-url: none; fill: rgb(239,239,239); fill-rule: evenodd; opacity: 1; white-space: pre;" ><tspan x="-776.3806" y="132.9849" >Objects:</tspan></text>
</g>
		<g transform="matrix(0.0374 0 0 0.0378 -175.5238 35.2094)" style="" id="_105553336439168"  >
		<text xml:space="preserve" font-family="'Helvetica'" font-size="423.33" font-style="normal" font-weight="normal" style="stroke: rgb(239,239,239); stroke-width: 7.62; stroke-dasharray: none; stroke-linecap: butt; stroke-dashoffset: 0; stroke-linejoin: miter; stroke-miterlimit: 22.9256; is-custom-font: none; font-file-url: none; fill: rgb(239,239,239); fill-rule: evenodd; opacity: 1; white-space: pre;" ><tspan x="-3071.0028" y="132.9849" >&lt; locations, spatial relationship &gt;</tspan></text>
</g>
		<g transform="matrix(0.0378 0 0 0.0378 -308.4419 27.9963)" id="_105553336439168"  >
<path style="stroke: rgb(239,239,239); stroke-width: 79.37; stroke-dasharray: none; stroke-linecap: round; stroke-dashoffset: 0; stroke-linejoin: round; stroke-miterlimit: 22.9256; is-custom-font: none; font-file-url: none; fill: none; fill-rule: evenodd; opacity: 1;"  transform=" translate(-1839.09, -4740.675)" d="M 1670.12 5167.42 l 337.94 0 m 190.09 -490.76 c 0 200.33 -160.76 362.73 -359.06 362.73 c -198.3 0 -359.06 -162.4 -359.06 -362.73 c 0 -200.33 160.76 -362.73 359.06 -362.73 c 198.3 0 359.06 162.4 359.06 362.73 z m -224.41 0 c 0 75.13 -60.29 136.03 -134.65 136.03 c -74.36 0 -134.65 -60.9 -134.65 -136.03 c 0 -75.12 60.29 -136.02 134.65 -136.02 c 74.36 0 134.65 60.9 134.65 136.02 z" stroke-linecap="round" />
</g>
		<g transform="matrix(0.0378 0 0 0.0378 -194.284 -88.8736)" id="_105553336439168"  >
<rect style="stroke: none; stroke-width: 1; stroke-dasharray: none; stroke-linecap: butt; stroke-dashoffset: 0; stroke-linejoin: miter; stroke-miterlimit: 4; is-custom-font: none; font-file-url: none; fill: rgb(76,145,170); fill-rule: evenodd; opacity: 1;"  x="-3670.67" y="-699.195" rx="85.57" ry="67" width="7341.34" height="1398.39" />
</g>
		<g transform="matrix(0.0378 0 0 0.0378 -305.8731 -88.8746)" id="_105553336439168"  >
<path style="stroke: rgb(239,239,239); stroke-width: 79.37; stroke-dasharray: none; stroke-linecap: round; stroke-dashoffset: 0; stroke-linejoin: round; stroke-miterlimit: 22.9256; is-custom-font: none; font-file-url: none; fill: none; fill-rule: evenodd; opacity: 1;"  transform=" translate(-1907.05, -1648.47)" d="M 1704.16 1242.69 l -152.17 0 c -28.01 0 -50.72 22.71 -50.72 50.72 l 0 152.17 m 608.67 -202.89 l 152.16 0 c 28.02 0 50.73 22.71 50.73 50.72 l 0 152.17 m -811.56 405.78 l 0 152.16 c 0 28.02 22.71 50.73 50.72 50.73 l 152.17 0 m 608.67 -202.89 l 0 152.16 c 0 28.02 -22.71 50.73 -50.73 50.73 l -152.16 0 m -507.23 -405.78 c 0 0 86.95 -202.89 304.34 -202.89 c 217.38 0 304.33 202.89 304.33 202.89 c 0 0 -86.95 202.89 -304.33 202.89 c -217.39 0 -304.34 -202.89 -304.34 -202.89 z m 405.78 0 c 0 56.03 -45.42 101.44 -101.44 101.44 c -56.03 0 -101.45 -45.41 -101.45 -101.44 c 0 -56.03 45.42 -101.45 101.45 -101.45 c 56.02 0 101.44 45.42 101.44 101.45 z" stroke-linecap="round" />
</g>
		<g transform="matrix(0.0378 0 0 0.0378 -262.1724 -97.7158)" style="" id="_105553336439168"  >
		<text xml:space="preserve" font-family="'Helvetica'" font-size="423.33" font-style="normal" font-weight="normal" style="stroke: none; stroke-width: 1; stroke-dasharray: none; stroke-linecap: butt; stroke-dashoffset: 0; stroke-linejoin: miter; stroke-miterlimit: 4; is-custom-font: none; font-file-url: none; fill: rgb(239,239,239); fill-rule: evenodd; opacity: 1; white-space: pre;" ><tspan x="-564.7156" y="132.9849" >Gaze:</tspan></text>
</g>
		<g transform="matrix(0.0378 0 0 0.0378 -186.558 -81.716)" style="" id="_105553336439168"  >
		<text xml:space="preserve" font-family="'Helvetica'" font-size="423.33" font-style="normal" font-weight="normal" style="stroke: none; stroke-width: 1; stroke-dasharray: none; stroke-linecap: butt; stroke-dashoffset: 0; stroke-linejoin: miter; stroke-miterlimit: 4; is-custom-font: none; font-file-url: none; fill: rgb(239,239,239); fill-rule: evenodd; opacity: 1; white-space: pre;" ><tspan x="-2565.0945" y="132.9849" >&lt; type, duration, direction &gt;</tspan></text>
</g>
		<g transform="matrix(0.0378 0 0 0.0378 78.7492 -0.2481)" id="_105553336439168"  >
<rect style="stroke: none; stroke-width: 1; stroke-dasharray: none; stroke-linecap: butt; stroke-dashoffset: 0; stroke-linejoin: miter; stroke-miterlimit: 4; is-custom-font: none; font-file-url: none; fill: rgb(180,194,146); fill-rule: evenodd; opacity: 1;"  x="-1911.255" y="-1097.17" rx="44.55" ry="105.13" width="3822.51" height="2194.34" />
</g>
		<g transform="matrix(0.0378 0 0 0.0378 71.8207 -9.214)" style="" id="_105553336439168"  >
		<text xml:space="preserve" font-family="'Helvetica'" font-size="423.33" font-style="normal" font-weight="bold" style="stroke: none; stroke-width: 1; stroke-dasharray: none; stroke-linecap: butt; stroke-dashoffset: 0; stroke-linejoin: miter; stroke-miterlimit: 4; is-custom-font: none; font-file-url: none; fill: rgb(239,239,239); fill-rule: evenodd; opacity: 1; white-space: pre;" ><tspan x="-1517.1048" y="132.9849" >Reasoning and</tspan></text>
</g>
		<g transform="matrix(0.0378 0 0 0.0378 78.048 6.7858)" style="" id="_105553336439168"  >
		<text xml:space="preserve" font-family="'Helvetica'" font-size="423.33" font-style="normal" font-weight="bold" style="stroke: none; stroke-width: 1; stroke-dasharray: none; stroke-linecap: butt; stroke-dashoffset: 0; stroke-linejoin: miter; stroke-miterlimit: 4; is-custom-font: none; font-file-url: none; fill: rgb(239,239,239); fill-rule: evenodd; opacity: 1; white-space: pre;" ><tspan x="-1681.8479" y="132.9849" >Decision-Making</tspan></text>
</g>
		<g transform="matrix(0.0378 0 0 0.0378 255.3255 1.668)" id="_105553336439168"  >
<rect style="stroke: none; stroke-width: 1; stroke-dasharray: none; stroke-linecap: butt; stroke-dashoffset: 0; stroke-linejoin: miter; stroke-miterlimit: 4; is-custom-font: none; font-file-url: none; fill: rgb(255,0,0); fill-rule: evenodd; opacity: 1;"  x="-1936.465" y="-699.195" rx="45.14" ry="67" width="3872.93" height="1398.39" />
</g>
		<g transform="matrix(0.0378 0 0 0.0378 258.2158 0.6415)" style="" id="_105553336439168"  >
		<text xml:space="preserve" font-family="'Helvetica'" font-size="423.33" font-style="normal" font-weight="bold" style="stroke: rgb(239,239,239); stroke-width: 7.62; stroke-dasharray: none; stroke-linecap: butt; stroke-dashoffset: 0; stroke-linejoin: miter; stroke-miterlimit: 22.9256; is-custom-font: none; font-file-url: none; fill: rgb(239,239,239); fill-rule: evenodd; opacity: 1; white-space: pre;" ><tspan x="-1563.9232" y="132.9849" >Robots Actions</tspan></text>
</g>
		<g transform="matrix(0.0378 0 0 0.0378 -40.5596 -0.9633)" id="_105553336439168"  >
<polyline style="stroke: rgb(0,0,0); stroke-width: 52.92; stroke-dasharray: none; stroke-linecap: butt; stroke-dashoffset: 0; stroke-linejoin: miter; stroke-miterlimit: 22.9256; is-custom-font: none; font-file-url: none; fill: none; fill-rule: evenodd; opacity: 1;"  points="-397.035,-2357.915 419.495,-2358.655 420.995,2354.825 -420.995,2358.655 " />
</g>
		<g transform="matrix(0.0378 0 0 0.0378 -40.3041 -29.9144)" id="_105553336439168"  >
<line style="stroke: rgb(0,0,0); stroke-width: 52.92; stroke-dasharray: none; stroke-linecap: butt; stroke-dashoffset: 0; stroke-linejoin: miter; stroke-miterlimit: 22.9256; is-custom-font: none; font-file-url: none; fill: none; fill-rule: evenodd; opacity: 1;"  x1="-413.27000000000044" y1="0" x2="413.27000000000044" y2="0" />
</g>
		<g transform="matrix(0.0378 0 0 0.0378 -40.682 28.1833)" id="_105553336439168"  >
<line style="stroke: rgb(0,0,0); stroke-width: 52.92; stroke-dasharray: none; stroke-linecap: butt; stroke-dashoffset: 0; stroke-linejoin: miter; stroke-miterlimit: 22.9256; is-custom-font: none; font-file-url: none; fill: none; fill-rule: evenodd; opacity: 1;"  x1="-413.27000000000044" y1="0" x2="413.27000000000044" y2="0" />
</g>
		<g transform="matrix(0.0378 0 0 0.0378 -8.934 -1.5674)" id="_105553336439168"  >
<path style="stroke: none; stroke-width: 1; stroke-dasharray: none; stroke-linecap: butt; stroke-dashoffset: 0; stroke-linejoin: miter; stroke-miterlimit: 4; is-custom-font: none; font-file-url: none; fill: rgb(0,0,0); fill-rule: nonzero; opacity: 1;"  transform=" translate(-9763.57, -3958.51)" d="M 9990.67 3984.97 l -640.37 0 l 0 -52.92 l 640.37 0 l 0 52.92 z m 186.17 -26.46 l -370.44 158.76 l 4.81 -9.92 l 4.49 -9.93 l 4.19 -9.92 l 3.87 -9.92 l 3.57 -9.92 l 3.26 -9.93 l 2.94 -9.92 l 2.64 -9.92 l 2.32 -9.92 l 2.02 -9.93 l 1.7 -9.92 l 1.4 -9.92 l 1.08 -9.92 l 0.78 -9.93 l 0.46 -9.92 l 0.16 -9.92 l -0.16 -9.92 l -0.46 -9.92 l -0.78 -9.93 l -1.08 -9.92 l -1.4 -9.92 l -1.7 -9.92 l -2.02 -9.93 l -2.32 -9.92 l -2.64 -9.92 l -2.94 -9.92 l -3.26 -9.93 l -3.57 -9.92 l -3.87 -9.92 l -4.19 -9.92 l -4.49 -9.93 l -4.81 -9.92 l 0 0 l 370.44 158.76 z" stroke-linecap="round" />
</g>
		<g transform="matrix(0.0378 0 0 0.0378 166.5941 -0.2525)" id="_105553336439168"  >
<path style="stroke: none; stroke-width: 1; stroke-dasharray: none; stroke-linecap: butt; stroke-dashoffset: 0; stroke-linejoin: miter; stroke-miterlimit: 4; is-custom-font: none; font-file-url: none; fill: rgb(0,0,0); fill-rule: nonzero; opacity: 1;"  transform=" translate(-14407.75, -3993.3)" d="M 14634.85 4019.76 l -640.37 0 l 0 -52.92 l 640.37 0 l 0 52.92 z m 186.17 -26.46 l -370.44 158.76 l 4.81 -9.92 l 4.49 -9.93 l 4.19 -9.92 l 3.87 -9.92 l 3.57 -9.92 l 3.26 -9.93 l 2.94 -9.92 l 2.64 -9.92 l 2.32 -9.92 l 2.02 -9.93 l 1.7 -9.92 l 1.4 -9.92 l 1.08 -9.92 l 0.78 -9.93 l 0.46 -9.92 l 0.16 -9.92 l -0.16 -9.92 l -0.46 -9.92 l -0.78 -9.93 l -1.08 -9.92 l -1.4 -9.92 l -1.7 -9.92 l -2.02 -9.93 l -2.32 -9.92 l -2.64 -9.92 l -2.94 -9.92 l -3.26 -9.93 l -3.57 -9.92 l -3.87 -9.92 l -4.19 -9.92 l -4.49 -9.93 l -4.81 -9.92 l 0 0 l 370.44 158.76 z" stroke-linecap="round" />
</g>
</g>
</g>
</svg>