<svg xmlns="http://www.w3.org/2000/svg" xmlns:xlink="http://www.w3.org/1999/xlink" version="1.1" width="1920" height="480" viewBox="0 0 1920 480" xml:space="preserve">
<desc>Created with Fabric.js 3.5.0</desc>
<defs>
</defs>
<rect x="0" y="0" width="100%" height="100%" fill="rgba(0,0,0,0)"/>
<g transform="matrix(2.6765 0 0 2.6765 976.3406 240.0047)" id="114571">
<g style="" vector-effect="non-scaling-stroke">
		<g transform="matrix(0.0378 0 0 0.0378 -290.7841 -66.3178)" id="_477824">
<path style="stroke: none; stroke-width: 1; stroke-dasharray: none; stroke-linecap: butt; stroke-dashoffset: 0; stroke-linejoin: miter; stroke-miterlimit: 4; is-custom-font: none; font-file-url: none; fill: rgb(0,0,0); fill-rule: nonzero; opacity: 1;" vector-effect="non-scaling-stroke" transform=" translate(-806.2901, -745.2974)" d="M 682.15 415.53 c -184.84 57.32 -285.45 244.5 -231.63 429.34 c 21.06 76.04 101.78 173.14 170.8 208.24 c 105.29 53.81 284.28 50.3 381.38 -5.85 c 92.42 -53.81 146.23 -133.37 167.29 -245.67 c 42.12 -223.45 -124.01 -405.95 -366.17 -402.44 c -39.78 0 -93.59 7.02 -121.67 16.38 z" stroke-linecap="round"/>
</g>
		<g transform="matrix(0.0378 0 0 0.0378 -116.4295 -8.6917)" id="_477824">
<path style="stroke: none; stroke-width: 1; stroke-dasharray: none; stroke-linecap: butt; stroke-dashoffset: 0; stroke-linejoin: miter; stroke-miterlimit: 4; is-custom-font: none; font-file-url: none; fill: rgb(0,0,0); fill-rule: nonzero; opacity: 1;" vector-effect="non-scaling-stroke" transform=" translate(-5419.315, -2269.815)" d="M 4190.36 2269.81 l 0 1731.41 l 292.47 0 l 291.3 0 l 4.68 -728.83 c 3.51 -656.3 5.85 -734.68 24.57 -797.85 c 72.53 -244.5 225.79 -396.59 463.27 -458.59 c 155.59 -39.78 389.57 -21.06 514.74 43.29 c 121.67 62 215.26 193.03 257.37 357.98 c 22.23 85.4 23.4 132.2 23.4 837.63 l 0 746.38 l 293.64 0 l 292.47 0 l -4.68 -828.27 c -4.68 -869.21 -4.68 -871.55 -58.49 -1043.53 c -47.96 -149.74 -156.76 -317.04 -267.9 -411.79 c -114.65 -95.93 -225.79 -152.08 -389.57 -196.54 c -119.33 -32.76 -396.59 -44.46 -529.95 -24.57 c -232.8 37.44 -430.51 125.18 -572.07 256.2 l -50.3 46.79 l 0 -630.56 l 0 -630.56 l -292.47 0 l -292.47 0 l 0 1731.41 l -0.01 0 z" stroke-linecap="round"/>
</g>
		<g transform="matrix(0.0378 0 0 0.0378 0.1721 -0.7342)" id="_477824">
<path style="stroke: none; stroke-width: 1; stroke-dasharray: none; stroke-linecap: butt; stroke-dashoffset: 0; stroke-linejoin: miter; stroke-miterlimit: 4; is-custom-font: none; font-file-url: none; fill: rgb(0,0,0); fill-rule: nonzero; opacity: 1;" vector-effect="non-scaling-stroke" transform=" translate(-8504.3793, -2480.3712)" d="M 8442.4 867.21 c -21.06 5.85 -53.81 29.25 -73.7 51.47 c -33.93 39.78 -38.61 52.64 -38.61 111.14 c 0 59.66 5.85 73.7 49.13 116.99 l 46.79 46.79 l 0 109.97 l 0 108.8 l -248.01 7.02 c -290.13 7.02 -373.19 23.4 -541.65 107.63 c -245.67 121.67 -419.98 334.58 -499.54 608.33 c -26.91 91.25 -26.91 104.12 -26.91 631.73 c 0 486.67 2.34 545.16 21.06 614.18 c 97.1 342.77 355.64 601.31 698.41 698.41 c 69.02 18.72 128.69 21.06 678.53 21.06 l 602.48 0 l 111.14 -37.44 c 325.22 -111.14 553.35 -354.47 645.77 -689.05 c 23.4 -85.4 25.74 -126.35 30.42 -535.8 c 4.68 -486.67 -3.51 -610.67 -51.47 -754.57 c -49.13 -148.57 -115.82 -252.69 -238.65 -375.53 c -224.62 -224.62 -421.15 -292.47 -844.65 -292.47 l -184.84 0 l 0 -115.82 c 0 -108.8 2.34 -118.16 28.08 -138.04 c 37.44 -30.42 65.51 -87.74 65.51 -138.04 c 0 -112.31 -112.31 -188.35 -229.29 -156.76 z m 698.42 1065.75 c 108.8 53.81 196.54 142.72 248.01 251.52 l 37.44 79.55 l 3.51 465.61 c 3.51 508.89 0 553.35 -64.34 662.15 c -46.79 80.72 -135.71 162.61 -217.6 201.22 c -112.31 52.64 -217.6 59.66 -726.49 54.98 c -434.02 -4.68 -448.06 -5.85 -515.91 -31.59 c -153.25 -59.66 -251.52 -159.1 -310.02 -311.19 c -26.91 -67.85 -28.08 -86.57 -32.76 -462.1 c -5.85 -462.1 3.51 -566.22 58.49 -678.53 c 40.95 -84.23 118.16 -167.29 197.71 -214.09 c 107.63 -63.17 134.54 -65.51 707.77 -63.17 l 526.44 2.34 l 87.74 43.29 l 0.01 0.01 z" stroke-linecap="round"/>
</g>
		<g transform="matrix(0.0378 0 0 0.0378 -16.274 3.8438)" id="_477824">
<path style="stroke: none; stroke-width: 1; stroke-dasharray: none; stroke-linecap: butt; stroke-dashoffset: 0; stroke-linejoin: miter; stroke-miterlimit: 4; is-custom-font: none; font-file-url: none; fill: rgb(0,0,0); fill-rule: nonzero; opacity: 1;" vector-effect="non-scaling-stroke" transform=" translate(-8069.375, -2601.6783)" d="M 7993.33 2425.87 c -114.65 31.59 -187.18 102.95 -233.97 225.79 c -12.87 35.1 -23.4 79.55 -23.4 99.44 l 0 35.1 l 36.27 -25.74 c 67.85 -47.96 183.67 -80.72 291.3 -80.72 c 111.14 0 182.5 17.55 276.09 69.02 c 35.1 18.72 63.17 29.25 63.17 24.57 c 0 -38.61 -30.42 -142.72 -52.64 -182.5 c -32.76 -57.32 -111.14 -129.86 -162.61 -150.91 c -57.32 -24.57 -136.87 -29.25 -194.2 -14.04 l -0.01 -0.01 z" stroke-linecap="round"/>
</g>
		<g transform="matrix(0.0378 0 0 0.0378 16.0115 3.9034)" id="_477824">
<path style="stroke: none; stroke-width: 1; stroke-dasharray: none; stroke-linecap: butt; stroke-dashoffset: 0; stroke-linejoin: miter; stroke-miterlimit: 4; is-custom-font: none; font-file-url: none; fill: rgb(0,0,0); fill-rule: nonzero; opacity: 1;" vector-effect="non-scaling-stroke" transform=" translate(-8923.595, -2603.2536)" d="M 8861.59 2422.36 c -134.54 28.08 -236.31 149.74 -266.73 319.37 l -8.19 45.62 l 64.34 -36.27 c 92.42 -52.64 166.12 -71.36 278.43 -71.36 c 108.8 0 223.45 32.76 293.64 83.06 l 37.44 26.91 l -7.02 -59.66 c -14.04 -118.16 -90.08 -230.46 -187.18 -277.26 c -72.53 -33.93 -136.87 -43.29 -204.73 -30.42 l 0 0.01 z" stroke-linecap="round"/>
</g>
		<g transform="matrix(0.0378 0 0 0.0378 -219.8807 9.8875)" id="_477824">
<path style="stroke: none; stroke-width: 1; stroke-dasharray: none; stroke-linecap: butt; stroke-dashoffset: 0; stroke-linejoin: miter; stroke-miterlimit: 4; is-custom-font: none; font-file-url: none; fill: rgb(0,0,0); fill-rule: nonzero; opacity: 1;" vector-effect="non-scaling-stroke" transform=" translate(-2682.1739, -2761.4463)" d="M 2553.03 1504.95 c -383.72 70.19 -680.87 259.71 -882.08 562.71 c -171.97 258.54 -232.8 617.69 -164.95 970.99 c 74.87 395.42 355.64 728.83 744.04 886.76 c 271.41 111.14 596.63 139.21 892.61 77.21 c 299.49 -62 565.05 -236.31 696.07 -455.08 c 25.74 -44.46 46.79 -83.06 46.79 -87.74 c 0 -5.85 -339.26 -211.75 -416.47 -251.52 c -21.06 -11.7 -29.25 -4.68 -74.87 57.32 c -129.86 177.82 -328.73 272.58 -573.24 271.41 c -216.43 0 -382.55 -63.17 -526.44 -197.71 c -131.03 -125.18 -198.88 -267.9 -222.28 -473.8 c -40.95 -359.15 111.14 -666.83 400.1 -813.06 c 187.18 -94.76 458.59 -98.27 664.49 -7.02 c 83.06 36.27 194.2 124.01 253.86 201.22 c 37.44 49.13 60.83 69.02 72.53 64.34 c 50.3 -18.72 422.32 -246.84 422.32 -258.54 c 0 -24.57 -95.93 -160.27 -161.44 -230.46 c -156.76 -163.78 -373.19 -272.58 -637.58 -319.37 c -119.33 -19.89 -414.13 -19.89 -533.46 2.34 z" stroke-linecap="round"/>
</g>
		<g transform="matrix(0.0378 0 0 0.0378 94.2908 9.222)" id="_477824">
<path style="stroke: none; stroke-width: 1; stroke-dasharray: none; stroke-linecap: butt; stroke-dashoffset: 0; stroke-linejoin: miter; stroke-miterlimit: 4; is-custom-font: none; font-file-url: none; fill: rgb(0,0,0); fill-rule: nonzero; opacity: 1;" vector-effect="non-scaling-stroke" transform=" translate(-10994.685, -2743.84)" d="M 11445.08 1503.78 c -265.56 46.79 -459.76 157.93 -593.12 339.26 l -25.74 35.1 l -1.17 -184.84 l 0 -183.67 l -274.92 0 l -274.92 0 l 0 1245.91 l 0 1245.91 l 285.45 0 l 285.45 0 l 5.85 -687.88 c 4.68 -609.5 7.02 -696.07 25.74 -768.61 c 39.78 -156.76 115.82 -284.28 219.94 -367.34 c 127.52 -102.95 332.24 -161.44 520.59 -149.74 l 95.93 5.85 l 0 -273.75 l 0 -273.75 l -90.08 1.17 c -50.3 1.17 -131.03 8.19 -178.99 16.38 l -0.01 0 z" stroke-linecap="round"/>
</g>
		<g transform="matrix(0.0378 0 0 0.0378 172.3676 9.8114)" id="_477824">
<path style="stroke: none; stroke-width: 1; stroke-dasharray: none; stroke-linecap: butt; stroke-dashoffset: 0; stroke-linejoin: miter; stroke-miterlimit: 4; is-custom-font: none; font-file-url: none; fill: rgb(0,0,0); fill-rule: nonzero; opacity: 1;" vector-effect="non-scaling-stroke" transform=" translate(-13060.4018, -2759.4355)" d="M 12818.89 1503.78 c -395.42 72.53 -722.98 310.02 -893.78 649.28 c -173.14 343.94 -183.67 813.06 -25.74 1149.98 c 177.82 380.21 506.55 624.71 949.94 705.43 c 169.63 31.59 507.72 29.25 657.47 -3.51 c 245.67 -54.98 429.34 -147.4 577.92 -288.96 l 86.57 -83.06 l -154.42 -176.65 l -154.42 -176.65 l -74.87 62 c -95.93 78.38 -205.9 136.87 -324.05 170.8 c -125.18 35.1 -424.66 38.61 -542.82 5.85 c -269.07 -76.04 -459.76 -255.03 -532.29 -498.37 c -10.53 -35.1 -18.72 -65.51 -18.72 -67.85 c 0 -1.17 441.04 -4.68 980.35 -5.85 l 979.18 -3.51 l 3.51 -163.78 c 14.04 -663.32 -375.53 -1159.34 -1002.58 -1275.16 c -118.16 -21.06 -391.91 -21.06 -511.23 0 l -0.02 0.01 z m 511.24 487.83 c 148.57 54.98 246.84 128.69 331.07 246.84 c 54.98 78.38 105.29 195.37 118.16 273.75 l 8.19 50.3 l -708.94 0 c -643.43 0 -708.94 -1.17 -708.94 -18.72 c 0 -10.53 8.19 -51.47 18.72 -91.25 c 44.46 -170.8 174.31 -333.41 329.9 -414.13 c 79.55 -39.78 112.31 -51.47 218.77 -77.21 c 12.87 -3.51 88.91 -3.51 169.63 -2.34 c 120.5 3.51 160.27 9.36 223.45 32.76 l -0.01 0 z" stroke-linecap="round"/>
</g>
		<g transform="matrix(0.0378 0 0 0.0378 266.5941 9.7805)" id="_477824">
<path style="stroke: none; stroke-width: 1; stroke-dasharray: none; stroke-linecap: butt; stroke-dashoffset: 0; stroke-linejoin: miter; stroke-miterlimit: 4; is-custom-font: none; font-file-url: none; fill: rgb(0,0,0); fill-rule: nonzero; opacity: 1;" vector-effect="non-scaling-stroke" transform=" translate(-15553.499, -2758.6168)" d="M 15412 1492.08 c -9.36 2.34 -57.32 10.53 -105.29 17.55 c -328.73 53.81 -600.14 225.79 -706.6 452.74 c -62 128.69 -83.06 306.51 -53.81 460.93 c 32.76 174.31 161.44 332.24 341.6 417.64 c 156.76 73.7 248.01 97.1 641.09 166.12 c 291.3 50.3 367.34 70.19 442.21 112.31 c 122.84 71.36 136.87 221.11 31.59 326.39 c -183.67 183.67 -822.42 145.06 -1230.7 -76.04 c -49.13 -25.74 -90.08 -45.62 -91.25 -44.46 c -28.08 38.61 -216.43 424.66 -211.75 436.36 c 8.19 22.23 224.62 126.35 340.43 163.78 c 252.69 80.72 414.13 105.29 707.77 105.29 c 182.5 0 265.56 -5.85 345.11 -21.06 c 525.27 -104.12 795.51 -377.87 774.45 -786.15 c -7.02 -139.21 -35.1 -228.12 -97.1 -318.21 c -126.35 -183.67 -359.15 -281.94 -852.84 -360.32 c -443.38 -71.36 -584.94 -145.06 -583.77 -304.17 c 1.17 -214.09 277.26 -322.88 700.75 -274.92 c 163.78 18.72 293.64 54.98 422.32 115.82 l 118.16 56.15 l 107.63 -216.43 l 108.8 -217.6 l -28.08 -19.89 c -83.06 -63.17 -359.15 -146.23 -593.12 -178.99 c -112.31 -16.38 -467.95 -24.57 -527.61 -12.87 l 0.01 0.03 z" stroke-linecap="round"/>
</g>
		<g transform="matrix(0.0378 0 0 0.0378 -290.7002 9.6645)" id="_477824">
<polygon style="stroke: none; stroke-width: 1; stroke-dasharray: none; stroke-linecap: butt; stroke-dashoffset: 0; stroke-linejoin: miter; stroke-miterlimit: 4; is-custom-font: none; font-file-url: none; fill: rgb(0,0,0); fill-rule: nonzero; opacity: 1;" vector-effect="non-scaling-stroke" points="-292.47,0 -292.47,1245.91 0,1245.91 292.47,1245.91 292.47,0 292.47,-1245.91 0,-1245.91 -292.47,-1245.91 "/>
</g>
		<g transform="matrix(0.0378 0 0 0.0378 -0.1326 75.3674)" id="_477824">
<path style="stroke: none; stroke-width: 1; stroke-dasharray: none; stroke-linecap: butt; stroke-dashoffset: 0; stroke-linejoin: miter; stroke-miterlimit: 4; is-custom-font: none; font-file-url: none; fill: rgb(230,82,67); fill-rule: nonzero; opacity: 1;" vector-effect="non-scaling-stroke" transform=" translate(-8496.42, -4494.055)" d="M 7911.48 4493.47 l 0 326.39 l 101.78 -46.79 c 56.15 -25.74 107.63 -51.47 114.65 -56.15 c 5.85 -5.85 92.42 -51.47 191.86 -100.61 l 178.99 -88.91 l 291.3 147.4 l 291.3 147.4 l 0 -328.73 c 0 -180.16 -3.51 -327.56 -8.19 -327.56 c -5.85 0 -135.71 64.34 -290.13 142.72 l -281.94 142.72 l -283.11 -142.72 c -155.59 -78.38 -287.79 -142.72 -294.81 -142.72 c -7.02 0 -11.7 112.31 -11.7 327.56 z" stroke-linecap="round"/>
</g>
		<g transform="matrix(0.0378 0 0 0.0378 -0.0128 -55.6544)" id="_842296">
<path style="stroke: rgb(230,82,67); stroke-width: 10.33; stroke-dasharray: none; stroke-linecap: butt; stroke-dashoffset: 0; stroke-linejoin: miter; stroke-miterlimit: 22.9256; is-custom-font: none; font-file-url: none; fill: rgb(230,82,67); fill-rule: nonzero; opacity: 1;" vector-effect="non-scaling-stroke" transform=" translate(-8499.64, -1027.455)" d="M 8671.73 1027.45 c 0 93.22 -77.04 168.79 -172.1 168.79 c -95.04 0 -172.08 -75.57 -172.08 -168.79 c 0 -93.21 77.04 -168.78 172.08 -168.78 c 95.06 0 172.1 75.57 172.1 168.78 z" stroke-linecap="round"/>
</g>
</g>
</g>
</svg>