<svg xmlns="http://www.w3.org/2000/svg" xmlns:xlink="http://www.w3.org/1999/xlink" version="1.1" width="1920" height="480" viewBox="0 0 1920 480" xml:space="preserve">
<desc>Created with Fabric.js 3.5.0</desc>
<defs>
</defs>
<rect x="0" y="0" width="100%" height="100%" fill="none"/>
<g transform="matrix(0.3317 0 0 0.3317 960.0538 240.0147)" id="477824">
<g style="" vector-effect="non-scaling-stroke">
		<g transform="matrix(0.1333 0 0 -0.1333 -884.2624 -213.7584)">
<path style="stroke: none; stroke-width: 1; stroke-dasharray: none; stroke-linecap: butt; stroke-dashoffset: 0; stroke-linejoin: miter; stroke-miterlimit: 4; is-custom-font: none; font-file-url: none; fill: rgb(0,0,0); fill-rule: nonzero; opacity: 1;" transform=" translate(-2508.1115, -4103.1144)" d="M 2402 4385 c -158 -49 -244 -209 -198 -367 c 18 -65 87 -148 146 -178 c 90 -46 243 -43 326 5 c 79 46 125 114 143 210 c 36 191 -106 347 -313 344 c -34 0 -80 -6 -104 -14 z" stroke-linecap="round"/>
</g>
		<g transform="matrix(0.1333 0 0 -0.1333 -358.635 -40.0494)">
<path style="stroke: none; stroke-width: 1; stroke-dasharray: none; stroke-linecap: butt; stroke-dashoffset: 0; stroke-linejoin: miter; stroke-miterlimit: 4; is-custom-font: none; font-file-url: none; fill: rgb(0,0,0); fill-rule: nonzero; opacity: 1;" transform=" translate(-6450.5, -2800)" d="M 5400 2800 l 0 -1480 l 250 0 l 249 0 l 4 623 c 3 561 5 628 21 682 c 62 209 193 339 396 392 c 133 34 333 18 440 -37 c 104 -53 184 -165 220 -306 c 19 -73 20 -113 20 -716 l 0 -638 l 251 0 l 250 0 l -4 708 c -4 743 -4 745 -50 892 c -41 128 -134 271 -229 352 c -98 82 -193 130 -333 168 c -102 28 -339 38 -453 21 c -199 -32 -368 -107 -489 -219 l -43 -40 l 0 539 l 0 539 l -250 0 l -250 0 l 0 -1480 z" stroke-linecap="round"/>
</g>
		<g transform="matrix(0.1333 0 0 -0.1333 -7.1077 -16.0563)">
<path style="stroke: none; stroke-width: 1; stroke-dasharray: none; stroke-linecap: butt; stroke-dashoffset: 0; stroke-linejoin: miter; stroke-miterlimit: 4; is-custom-font: none; font-file-url: none; fill: rgb(0,0,0); fill-rule: nonzero; opacity: 1;" transform=" translate(-9086.9908, -2620.0756)" d="M 9034 3999 c -18 -5 -46 -25 -63 -44 c -29 -34 -33 -45 -33 -95 c 0 -51 5 -63 42 -100 l 40 -40 l 0 -94 l 0 -93 l -212 -6 c -248 -6 -319 -20 -463 -92 c -210 -104 -359 -286 -427 -520 c -23 -78 -23 -89 -23 -540 c 0 -416 2 -466 18 -525 c 83 -293 304 -514 597 -597 c 59 -16 110 -18 580 -18 l 515 0 l 95 32 c 278 95 473 303 552 589 c 20 73 22 108 26 458 c 4 416 -3 522 -44 645 c -42 127 -99 216 -204 321 c -192 192 -360 250 -722 250 l -158 0 l 0 99 c 0 93 2 101 24 118 c 32 26 56 75 56 118 c 0 96 -96 161 -196 134 z m 597 -911 c 93 -46 168 -122 212 -215 l 32 -68 l 3 -398 c 3 -435 0 -473 -55 -566 c -40 -69 -116 -139 -186 -172 c -96 -45 -186 -51 -621 -47 c -371 4 -383 5 -441 27 c -131 51 -215 136 -265 266 c -23 58 -24 74 -28 395 c -5 395 3 484 50 580 c 35 72 101 143 169 183 c 92 54 115 56 605 54 l 450 -2 l 75 -37 z" stroke-linecap="round"/>
</g>
		<g transform="matrix(0.1333 0 0 -0.1333 -56.6761 -2.2357)">
<path style="stroke: none; stroke-width: 1; stroke-dasharray: none; stroke-linecap: butt; stroke-dashoffset: 0; stroke-linejoin: miter; stroke-miterlimit: 4; is-custom-font: none; font-file-url: none; fill: rgb(0,0,0); fill-rule: nonzero; opacity: 1;" transform=" translate(-8715, -2516.7279)" d="M 8650 2667 c -98 -27 -160 -88 -200 -193 c -11 -30 -20 -68 -20 -85 l 0 -30 l 31 22 c 58 41 157 69 249 69 c 95 0 156 -15 236 -59 c 30 -16 54 -25 54 -21 c 0 33 -26 122 -45 156 c -28 49 -95 111 -139 129 c -49 21 -117 25 -166 12 z" stroke-linecap="round"/>
</g>
		<g transform="matrix(0.1333 0 0 -0.1333 40.6571 -2.054)">
<path style="stroke: none; stroke-width: 1; stroke-dasharray: none; stroke-linecap: butt; stroke-dashoffset: 0; stroke-linejoin: miter; stroke-miterlimit: 4; is-custom-font: none; font-file-url: none; fill: rgb(0,0,0); fill-rule: nonzero; opacity: 1;" transform=" translate(-9445, -2515.3644)" d="M 9392 2670 c -115 -24 -202 -128 -228 -273 l -7 -39 l 55 31 c 79 45 142 61 238 61 c 93 0 191 -28 251 -71 l 32 -23 l -6 51 c -12 101 -77 197 -160 237 c -62 29 -117 37 -175 26 z" stroke-linecap="round"/>
</g>
		<g transform="matrix(0.1333 0 0 -0.1333 -670.5156 15.9703)">
<path style="stroke: none; stroke-width: 1; stroke-dasharray: none; stroke-linecap: butt; stroke-dashoffset: 0; stroke-linejoin: miter; stroke-miterlimit: 4; is-custom-font: none; font-file-url: none; fill: rgb(0,0,0); fill-rule: nonzero; opacity: 1;" transform=" translate(-4111.3905, -2379.9502)" d="M 4001 3454 c -328 -60 -582 -222 -754 -481 c -147 -221 -199 -528 -141 -830 c 64 -338 304 -623 636 -758 c 232 -95 510 -119 763 -66 c 256 53 483 202 595 389 c 22 38 40 71 40 75 c 0 5 -290 181 -356 215 c -18 10 -25 4 -64 -49 c -111 -152 -281 -233 -490 -232 c -185 0 -327 54 -450 169 c -112 107 -170 229 -190 405 c -35 307 95 570 342 695 c 160 81 392 84 568 6 c 71 -31 166 -106 217 -172 c 32 -42 52 -59 62 -55 c 43 16 361 211 361 221 c 0 21 -82 137 -138 197 c -134 140 -319 233 -545 273 c -102 17 -354 17 -456 -2 z" stroke-linecap="round"/>
</g>
		<g transform="matrix(0.1333 0 0 -0.1333 276.6461 13.9641)">
<path style="stroke: none; stroke-width: 1; stroke-dasharray: none; stroke-linecap: butt; stroke-dashoffset: 0; stroke-linejoin: miter; stroke-miterlimit: 4; is-custom-font: none; font-file-url: none; fill: rgb(0,0,0); fill-rule: nonzero; opacity: 1;" transform=" translate(-11215, -2395)" d="M 11600 3455 c -227 -40 -393 -135 -507 -290 l -22 -30 l -1 158 l 0 157 l -235 0 l -235 0 l 0 -1065 l 0 -1065 l 244 0 l 244 0 l 5 588 c 4 521 6 595 22 657 c 34 134 99 243 188 314 c 109 88 284 138 445 128 l 82 -5 l 0 234 l 0 234 l -77 -1 c -43 -1 -112 -7 -153 -14 z" stroke-linecap="round"/>
</g>
		<g transform="matrix(0.1333 0 0 -0.1333 512.0218 15.7416)">
<path style="stroke: none; stroke-width: 1; stroke-dasharray: none; stroke-linecap: butt; stroke-dashoffset: 0; stroke-linejoin: miter; stroke-miterlimit: 4; is-custom-font: none; font-file-url: none; fill: rgb(0,0,0); fill-rule: nonzero; opacity: 1;" transform=" translate(-12980.4353, -2381.6662)" d="M 12774 3455 c -338 -62 -618 -265 -764 -555 c -148 -294 -157 -695 -22 -983 c 152 -325 433 -534 812 -603 c 145 -27 434 -25 562 3 c 210 47 367 126 494 247 l 74 71 l -132 151 l -132 151 l -64 -53 c -82 -67 -176 -117 -277 -146 c -107 -30 -363 -33 -464 -5 c -230 65 -393 218 -455 426 c -9 30 -16 56 -16 58 c 0 1 377 4 838 5 l 837 3 l 3 140 c 12 567 -321 991 -857 1090 c -101 18 -335 18 -437 0 z m 437 -417 c 127 -47 211 -110 283 -211 c 47 -67 90 -167 101 -234 l 7 -43 l -606 0 c -550 0 -606 1 -606 16 c 0 9 7 44 16 78 c 38 146 149 285 282 354 c 68 34 96 44 187 66 c 11 3 76 3 145 2 c 103 -3 137 -8 191 -28 z" stroke-linecap="round"/>
</g>
		<g transform="matrix(0.1333 0 0 -0.1333 796.096 15.6499)">
<path style="stroke: none; stroke-width: 1; stroke-dasharray: none; stroke-linecap: butt; stroke-dashoffset: 0; stroke-linejoin: miter; stroke-miterlimit: 4; is-custom-font: none; font-file-url: none; fill: rgb(0,0,0); fill-rule: nonzero; opacity: 1;" transform=" translate(-15110.952, -2382.3532)" d="M 14990 3465 c -8 -2 -49 -9 -90 -15 c -281 -46 -513 -193 -604 -387 c -53 -110 -71 -262 -46 -394 c 28 -149 138 -284 292 -357 c 134 -63 212 -83 548 -142 c 249 -43 314 -60 378 -96 c 105 -61 117 -189 27 -279 c -157 -157 -703 -124 -1052 65 c -42 22 -77 39 -78 38 c -24 -33 -185 -363 -181 -373 c 7 -19 192 -108 291 -140 c 216 -69 354 -90 605 -90 c 156 0 227 5 295 18 c 449 89 680 323 662 672 c -6 119 -30 195 -83 272 c -108 157 -307 241 -729 308 c -379 61 -500 124 -499 260 c 1 183 237 276 599 235 c 140 -16 251 -47 361 -99 l 101 -48 l 92 185 l 93 186 l -24 17 c -71 54 -307 125 -507 153 c -96 14 -400 21 -451 11 z" stroke-linecap="round"/>
</g>
		<g transform="matrix(0.1333 0 0 -0.1333 -884.0083 15.2978)">
<path style="stroke: none; stroke-width: 1; stroke-dasharray: none; stroke-linecap: butt; stroke-dashoffset: 0; stroke-linejoin: miter; stroke-miterlimit: 4; is-custom-font: none; font-file-url: none; fill: rgb(0,0,0); fill-rule: nonzero; opacity: 1;" transform=" translate(-2510, -2385)" d="M 2260 2385 l 0 -1065 l 250 0 l 250 0 l 0 1065 l 0 1065 l -250 0 l -250 0 l 0 -1065 z" stroke-linecap="round"/>
</g>
		<g transform="matrix(0.1333 0 0 -0.1333 -8.0166 213.3906)">
<path style="stroke: none; stroke-width: 1; stroke-dasharray: none; stroke-linecap: butt; stroke-dashoffset: 0; stroke-linejoin: miter; stroke-miterlimit: 4; is-custom-font: none; font-file-url: none; fill: rgb(230,82,67); fill-rule: nonzero; opacity: 1;" transform=" translate(-9080, -899.5)" d="M 8580 900 l 0 -279 l 87 40 c 48 22 92 44 98 48 c 5 5 79 44 164 86 l 153 76 l 249 -126 l 249 -126 l 0 281 c 0 154 -3 280 -7 280 c -5 0 -116 -55 -248 -122 l -241 -122 l -242 122 c -133 67 -246 122 -252 122 c -6 0 -10 -96 -10 -280 z" stroke-linecap="round"/>
</g>
</g>
</g>
<g transform="matrix(0.0781 0 0 0.0766 957.5083 179.3293)" id="842296">
<path style="stroke: rgb(230,82,67); stroke-width: 5; stroke-dasharray: none; stroke-linecap: butt; stroke-dashoffset: 0; stroke-linejoin: miter; stroke-miterlimit: 4; is-custom-font: none; font-file-url: none; fill: rgb(230,82,67); fill-rule: nonzero; opacity: 1;" vector-effect="non-scaling-stroke" transform=" translate(-67.5, -67.5)" d="M 132.5 67.5 C 132.5 103.399 103.399 132.5 67.5 132.5 C 31.6015 132.5 2.5 103.399 2.5 67.5 C 2.5 31.6015 31.6015 2.5 67.5 2.5 C 103.399 2.5 132.5 31.6015 132.5 67.5 Z" stroke-linecap="round"/>
</g>
</svg>