<?xml version="1.0" encoding="UTF-8" standalone="no"?>
<svg
   xmlns:dc="http://purl.org/dc/elements/1.1/"
   xmlns:cc="http://creativecommons.org/ns#"
   xmlns:rdf="http://www.w3.org/1999/02/22-rdf-syntax-ns#"
   xmlns:svg="http://www.w3.org/2000/svg"
   xmlns="http://www.w3.org/2000/svg"
   viewBox="0 0 997.94531 377.95334"
   height="377.95334"
   width="997.94531"
   xml:space="preserve"
   id="svg2"
   version="1.1"><metadata
     id="metadata8"><rdf:RDF><cc:Work
         rdf:about=""><dc:format>image/svg+xml</dc:format><dc:type
           rdf:resource="http://purl.org/dc/dcmitype/StillImage" /></cc:Work></rdf:RDF></metadata><defs
     id="defs6"><clipPath
       id="clipPath34"
       clipPathUnits="userSpaceOnUse"><path
         id="path32"
         d="M 0,283.465 H 748.459 V 0 H 0 Z" /></clipPath></defs><g
     transform="matrix(1.3333333,0,0,-1.3333333,0,377.95333)"
     id="g10"><path
       id="path12"
       style="fill:#ffffff;fill-opacity:1;fill-rule:nonzero;stroke:#1d1d1b;stroke-width:1;stroke-linecap:butt;stroke-linejoin:miter;stroke-miterlimit:4;stroke-dasharray:none;stroke-opacity:1"
       d="M 265.139,21.372 H 13.794 V 263.99 h 251.345 z" /><g
       transform="translate(747.4023,158.4766)"
       id="g14"><path
         id="path16"
         style="fill:#646363;fill-opacity:1;fill-rule:evenodd;stroke:none"
         d="M 0,0 V 6.78 H -34.949 V 0 h 13.699 v -42.982 h 7.551 V 0 Z" /></g><g
       transform="translate(713.9868,115.4944)"
       id="g18"><path
         id="path20"
         style="fill:#646363;fill-opacity:1;fill-rule:evenodd;stroke:none"
         d="m 0,0 -18.24,49.763 h -6.079 L -42.564,0 h 8.04 l 3.423,9.995 H -11.46 L -8.037,0 Z m -13.557,16.424 h -15.305 l 7.756,22.086 z" /></g><g
       transform="translate(672.9734,158.4766)"
       id="g22"><path
         id="path24"
         style="fill:#646363;fill-opacity:1;fill-rule:evenodd;stroke:none"
         d="M 0,0 V 6.78 H -34.944 V 0 h 13.699 v -42.982 h 7.551 V 0 Z" /></g><path
       id="path26"
       style="fill:#646363;fill-opacity:1;fill-rule:evenodd;stroke:none"
       d="m 629.438,165.257 h -7.551 v -49.763 h 7.551 z" /><g
       id="g28"><g
         clip-path="url(#clipPath34)"
         id="g30"><g
           transform="translate(611.7577,129.6827)"
           id="g36"><path
             id="path38"
             style="fill:#646363;fill-opacity:1;fill-rule:evenodd;stroke:none"
             d="m 0,0 c 0,4.263 -1.326,7.828 -4.05,10.203 -2.095,1.888 -4.683,3.005 -9.295,3.704 l -5.661,0.839 c -2.308,0.35 -4.334,1.188 -5.594,2.307 -1.328,1.188 -1.884,2.794 -1.884,4.613 0,4.402 3.213,7.756 9.084,7.756 4.194,0 7.759,-0.909 10.833,-3.843 l 4.819,4.751 c -4.26,3.985 -8.872,5.662 -15.439,5.662 -10.345,0 -16.634,-5.94 -16.634,-14.605 0,-4.055 1.187,-7.199 3.63,-9.506 2.168,-2.027 5.384,-3.425 9.436,-3.985 l 5.87,-0.838 c 2.937,-0.419 4.194,-0.908 5.454,-2.096 1.325,-1.188 1.958,-3.005 1.958,-5.173 0,-4.822 -3.777,-7.617 -10.276,-7.617 -5.1,0 -9.085,1.118 -12.717,4.752 l -5.032,-4.961 c 4.751,-4.823 10.132,-6.57 17.61,-6.57 C -7.473,-14.607 0,-9.155 0,0" /></g><g
           transform="translate(571.1642,115.4944)"
           id="g40"><path
             id="path42"
             style="fill:#646363;fill-opacity:1;fill-rule:evenodd;stroke:none"
             d="m 0,0 -11.46,22.016 c 5.591,1.537 9.924,6.079 9.924,13.209 0,8.456 -6.013,14.538 -15.444,14.538 H -36.272 V 0 h 7.547 v 20.967 h 9.436 L -8.806,0 Z m -9.087,35.156 c 0,-4.894 -3.423,-7.76 -8.455,-7.76 h -11.183 v 15.586 h 11.183 c 5.032,0 8.455,-2.936 8.455,-7.826" /></g><g
           transform="translate(524.5627,115.4944)"
           id="g44"><path
             id="path46"
             style="fill:#646363;fill-opacity:1;fill-rule:evenodd;stroke:none"
             d="m 0,0 v 6.78 h -24.251 v 14.956 h 20.689 v 6.709 H -24.251 V 42.982 H 0 v 6.781 H -31.797 V 0 Z" /></g><g
           transform="translate(485.9152,165.257)"
           id="g48"><path
             id="path50"
             style="fill:#646363;fill-opacity:1;fill-rule:evenodd;stroke:none"
             d="M 0,0 H -7.968 L -19.43,-36.204 -30.892,0 h -7.828 l 16.354,-49.763 h 5.871 z" /></g><path
           id="path52"
           style="fill:#646363;fill-opacity:1;fill-rule:evenodd;stroke:none"
           d="M 440.348,165.257 H 432.8 v -49.763 h 7.548 z" /><g
           transform="translate(419.8055,115.4944)"
           id="g54"><path
             id="path56"
             style="fill:#646363;fill-opacity:1;fill-rule:evenodd;stroke:none"
             d="M 0,0 V 49.763 H -7.548 V 14.818 L -30.541,49.763 H -37.46 V 0 h 7.547 V 35.015 L -6.918,0 Z" /></g><g
           transform="translate(370.1235,132.2693)"
           id="g58"><path
             id="path60"
             style="fill:#646363;fill-opacity:1;fill-rule:evenodd;stroke:none"
             d="M 0,0 V 32.988 H -7.549 V 0.348 c 0,-6.64 -4.124,-10.762 -10.343,-10.762 -6.221,0 -10.275,4.122 -10.275,10.762 v 32.64 h -7.547 V 0 c 0,-10.275 7.687,-17.194 17.822,-17.194 C -7.759,-17.194 0,-10.275 0,0" /></g><path
           id="path62"
           style="fill:#646363;fill-opacity:1;fill-rule:evenodd;stroke:none"
           d="m 688.196,177.975 h -6.428 v -7.548 h 6.428 z" /><path
           id="path64"
           style="fill:#646363;fill-opacity:1;fill-rule:evenodd;stroke:none"
           d="m 703.293,177.975 h -6.431 v -7.548 h 6.431 z" /><g
           transform="translate(703.662,205.1698)"
           id="g66"><path
             id="path68"
             style="fill:#646363;fill-opacity:1;fill-rule:evenodd;stroke:none"
             d="M 0,0 V 49.761 H -7.549 V 28.516 h -20.195 v 21.245 h -7.551 V 0 h 7.551 V 21.736 H -7.549 L -7.549,0 Z" /></g><g
           transform="translate(658.3006,220.0556)"
           id="g70"><path
             id="path72"
             style="fill:#646363;fill-opacity:1;fill-rule:evenodd;stroke:none"
             d="m 0,0 h -7.615 c -1.189,-5.031 -4.614,-8.525 -10.134,-8.525 -2.935,0 -5.593,1.116 -7.339,3.004 -2.446,2.656 -3.005,5.521 -3.005,15.515 0,9.994 0.559,12.859 3.005,15.516 1.746,1.886 4.404,3.004 7.339,3.004 5.52,0 8.874,-3.494 10.063,-8.526 H 0 c -1.743,9.925 -8.596,15.306 -17.749,15.306 -5.173,0 -9.646,-1.886 -13.071,-5.311 -4.893,-4.893 -4.822,-10.414 -4.822,-19.989 0,-9.575 -0.071,-15.096 4.822,-19.987 3.425,-3.426 7.898,-5.312 13.071,-5.312 9.014,0 16.072,5.381 17.749,15.305" /></g><g
           transform="translate(614.3479,219.3568)"
           id="g74"><path
             id="path76"
             style="fill:#646363;fill-opacity:1;fill-rule:evenodd;stroke:none"
             d="m 0,0 c 0,4.264 -1.328,7.828 -4.053,10.204 -2.097,1.888 -4.682,3.005 -9.297,3.704 l -5.659,0.839 c -2.304,0.35 -4.336,1.188 -5.593,2.306 -1.326,1.189 -1.885,2.795 -1.885,4.613 0,4.403 3.216,7.757 9.085,7.757 4.194,0 7.759,-0.909 10.835,-3.844 l 4.821,4.752 c -4.265,3.985 -8.872,5.662 -15.446,5.662 -10.345,0 -16.634,-5.941 -16.634,-14.606 0,-4.054 1.187,-7.199 3.636,-9.505 2.165,-2.028 5.38,-3.425 9.436,-3.985 l 5.869,-0.838 c 2.937,-0.419 4.192,-0.908 5.451,-2.096 1.329,-1.188 1.956,-3.005 1.956,-5.173 0,-4.823 -3.772,-7.616 -10.273,-7.616 -5.103,0 -9.085,1.116 -12.72,4.751 l -5.032,-4.963 c 4.751,-4.821 10.137,-6.568 17.612,-6.568 C -7.478,-14.606 0,-9.155 0,0" /></g><path
           id="path78"
           style="fill:#646363;fill-opacity:1;fill-rule:evenodd;stroke:none"
           d="m 570.251,254.931 h -7.549 V 205.17 h 7.549 z" /><g
           transform="translate(549.7093,205.1698)"
           id="g80"><path
             id="path82"
             style="fill:#646363;fill-opacity:1;fill-rule:evenodd;stroke:none"
             d="M 0,0 V 49.761 H -7.549 V 14.816 l -22.996,34.945 h -6.916 V 0 h 7.546 V 35.015 L -6.919,0 Z" /></g><g
           transform="translate(499.2477,205.1698)"
           id="g84"><path
             id="path86"
             style="fill:#646363;fill-opacity:1;fill-rule:evenodd;stroke:none"
             d="M 0,0 V 49.761 H -7.547 V 28.516 h -20.198 v 21.245 h -7.547 V 0 h 7.547 V 21.736 H -7.547 L -7.547,0 Z" /></g><g
           transform="translate(453.8901,220.0556)"
           id="g88"><path
             id="path90"
             style="fill:#646363;fill-opacity:1;fill-rule:evenodd;stroke:none"
             d="m 0,0 h -7.618 c -1.188,-5.031 -4.613,-8.525 -10.134,-8.525 -2.935,0 -5.591,1.116 -7.338,3.004 -2.447,2.656 -3.005,5.521 -3.005,15.515 0,9.994 0.558,12.859 3.005,15.516 1.747,1.886 4.403,3.004 7.338,3.004 5.521,0 8.876,-3.494 10.063,-8.526 H 0 c -1.747,9.925 -8.596,15.306 -17.752,15.306 -5.172,0 -9.645,-1.886 -13.068,-5.311 -4.894,-4.893 -4.823,-10.414 -4.823,-19.989 0,-9.575 -0.071,-15.096 4.823,-19.987 3.423,-3.426 7.896,-5.312 13.068,-5.312 9.016,0 16.075,5.381 17.752,15.305" /></g><g
           transform="translate(409.7367,205.1698)"
           id="g92"><path
             id="path94"
             style="fill:#646363;fill-opacity:1;fill-rule:evenodd;stroke:none"
             d="m 0,0 v 6.78 h -24.252 v 14.956 h 20.687 v 6.708 H -24.252 V 42.981 H 0 v 6.78 H -31.8 V 0 Z" /></g><g
           transform="translate(369.3533,248.1508)"
           id="g96"><path
             id="path98"
             style="fill:#646363;fill-opacity:1;fill-rule:evenodd;stroke:none"
             d="M 0,0 V 6.78 H -34.944 V 0 h 13.699 v -42.981 h 7.547 V 0 Z" /></g><g
           transform="translate(748.4594,205.1698)"
           id="g100"><path
             id="path102"
             style="fill:#646363;fill-opacity:1;fill-rule:evenodd;stroke:none"
             d="m 0,0 v 6.78 h -24.248 v 14.956 h 20.686 v 6.708 H -24.248 V 42.981 H 0 v 6.78 H -31.797 V 0 Z" /></g><g
           transform="translate(393.746,78.9319)"
           id="g104"><path
             id="path106"
             style="fill:#646363;fill-opacity:1;fill-rule:evenodd;stroke:none"
             d="M 0,0 H -7.968 L -16.635,-35.575 -26.629,0 H -32.71 L -42.703,-35.575 -51.37,0 h -7.967 l 13,-49.762 h 6.569 l 10.065,34.874 10.134,-34.874 H -13 Z" /></g><g
           transform="translate(501.135,29.1699)"
           id="g108"><path
             id="path110"
             style="fill:#646363;fill-opacity:1;fill-rule:evenodd;stroke:none"
             d="M 0,0 V 49.762 H -7.546 V 14.817 l -22.993,34.945 h -6.918 V 0 h 7.548 V 35.015 L -6.916,0 Z" /></g><g
           transform="translate(453.3512,29.1699)"
           id="g112"><path
             id="path114"
             style="fill:#646363;fill-opacity:1;fill-rule:evenodd;stroke:none"
             d="m 0,0 v 6.777 h -24.252 v 14.959 h 20.687 v 6.709 H -24.252 V 42.981 H 0 v 6.781 H -31.801 V 0 Z" /></g><path
           id="path116"
           style="fill:#646363;fill-opacity:1;fill-rule:evenodd;stroke:none"
           d="m 408.554,78.932 h -7.549 V 29.17 h 7.549 z" /><g
           transform="translate(255.1179,283.4646)"
           id="g118"><path
             id="path120"
             style="fill:#006699;fill-opacity:1;fill-rule:evenodd;stroke:none"
             d="m 0,0 c 15.645,0 28.289,-12.697 28.289,-28.361 l 0.058,-226.744 c 0,-15.663 -12.741,-28.36 -28.386,-28.36 H -226.77 c -15.645,0 -28.348,12.697 -28.348,28.36 l 0.02,226.744 c 0,15.664 12.663,28.361 28.308,28.361 z m -195.018,-67.545 h 30.266 v -100.577 h -30.266 z m -38.307,39.07 h 105.864 v -30.267 h -105.864 z m 63.932,-176.086 h -10.16 l -7.776,-31.46 -9.109,31.46 h -7.287 l -9.108,-31.46 -7.707,31.46 h -10.16 l 13.313,-49.886 h 8.127 l 9.179,30.268 9.179,-30.268 h 8.127 z m 168.907,-49.886 v 49.886 h -9.739 v -30.548 l -19.759,30.548 h -8.688 v -49.886 h 9.739 v 30.619 l 19.759,-30.619 z m -69.772,0 v 8.687 h -23.121 v 12.122 h 19.689 v 8.689 h -19.689 v 11.699 h 23.121 v 8.689 h -32.861 v -49.886 z m -66.22,49.886 h -9.74 v -49.887 h 9.74 z m 74.928,35.636 -1.601,0.135 c -28.375,2.963 -50.315,26.938 -50.315,56.098 v 84.217 h 30.674 l -0.049,-83.47 c 0,-12.207 8.489,-23.186 19.878,-26.076 0.501,-0.121 0.891,-0.201 1.403,-0.291 z m 9.184,30.658 c 0.461,0.083 0.802,0.138 1.251,0.246 11.394,2.89 19.883,13.868 19.883,26.076 l -0.261,83.47 h 30.871 v -83.909 c 0.029,-29.16 -22.114,-53.41 -50.493,-56.407 l -1.245,-0.129 z" /></g></g></g></g></svg>