<svg xmlns="http://www.w3.org/2000/svg" xmlns:xlink="http://www.w3.org/1999/xlink" version="1.1" width="1000" height="1000" viewBox="0 200 1000 800" xml:space="preserve">
<desc>Created with Fabric.js 3.5.0</desc>
<defs>
</defs>
<rect x="0" y="0" width="100%" height="100%" fill="none"></rect>
<g transform="matrix(1.5381 0 0 1.5381 500.0073 500.0052)" id="140477"  >
<g style="" vector-effect="non-scaling-stroke"   >
		<g transform="matrix(0.0365 0 0 0.0365 232.5262 84.6654)" id="XMLID_162_"  >
<path style="stroke: none; stroke-width: 1; stroke-dasharray: none; stroke-linecap: butt; stroke-dashoffset: 0; stroke-linejoin: miter; stroke-miterlimit: 4; is-custom-font: none; font-file-url: none; fill: rgb(0,0,0); fill-rule: nonzero; opacity: 1;"  transform=" translate(-14483.4622, -7982.06)" d="M 15499.41 4636.58 l -305.14 0 c -394.51 0 -714.62 319.98 -714.62 714.62 l 0 52.42 l 902.14 -640.73 c 0.83 -0.59 1.88 -0.69 2.73 -1.28 c -0.86 0.68 -1.7 0.84 -2.44 1.51 l -1191.39 1095.37 l -1221.58 520.27 c -180.43 76.67 -264.47 285.2 -187.73 465.61 c 57.69 135.04 188.88 216.04 326.97 216.04 c 46.38 0 93.5 -9.17 138.66 -28.57 l 1277.87 -544.07 c 37.44 -15.82 71.52 -37.87 101.26 -65.34 l 1236.22 -1136.83 c 1.05 -0.94 1.38 -2.37 2.44 -3.32 c -1.05 1.1 -1.37 2.48 -2.23 3.59 l -1092.26 1293.4 c -31.62 37.42 -70.1 65.32 -112.32 83.45 l -49.65 21.1 l -128.68 54.74 l 0.53 4163.01 c 0 235.28 190.85 425.97 425.96 425.97 c 97.1 0 185.84 -33.85 257.3 -88.75 c -54.62 -100.67 -88.7 -214.36 -88.7 -337.22 l 0 -2538.38 l 284.03 0 l 0 2538.36 c 0 235.28 190.77 425.97 425.96 425.97 c 235.12 0 425.85 -190.69 425.85 -425.97 c 0 0 3.37 -3581.17 3.37 -5550.37 c 0.02 -394.62 -319.97 -714.6 -714.55 -714.6 z" stroke-linecap="round" />
</g>
		<g transform="matrix(0.0365 0 0 0.0365 263.9668 -73.4833)" id="XMLID_161_"  >
<path style="stroke: none; stroke-width: 1; stroke-dasharray: none; stroke-linecap: butt; stroke-dashoffset: 0; stroke-linejoin: miter; stroke-miterlimit: 4; is-custom-font: none; font-file-url: none; fill: rgb(0,0,0); fill-rule: nonzero; opacity: 1;"  transform=" translate(-15347.095, -3646.9)" d="M 15347.08 4476.81 c 458.67 0 830 -371.43 830 -829.84 c 0.02 -458.55 -371.31 -829.98 -830 -829.98 c -458.33 0 -829.97 371.43 -829.97 829.98 c 0.01 458.4 371.66 829.84 829.97 829.84 z" stroke-linecap="round" />
</g>
		<g transform="matrix(0.0365 0 0 0.0365 -243.8978 116.3543)" id="_105553146808832"  >
<path style="stroke: none; stroke-width: 1; stroke-dasharray: none; stroke-linecap: butt; stroke-dashoffset: 0; stroke-linejoin: miter; stroke-miterlimit: 4; is-custom-font: none; font-file-url: none; fill: rgb(0,0,0); fill-rule: nonzero; opacity: 1;"  transform=" translate(-1414.5023, -8853.8867)" d="M 1077.86 7494.36 c -287.43 7.98 -375.25 23.95 -542.92 111.78 c -255.49 127.74 -431.14 343.32 -510.99 614.78 c -23.95 95.81 -23.95 111.78 -23.95 646.72 c 0 495.01 0 550.91 15.98 622.77 c 103.78 343.31 367.27 606.79 710.58 710.58 c 71.86 15.97 135.73 15.97 686.63 15.97 l 614.78 0 l 111.78 -39.92 c 327.35 -111.78 558.9 -359.28 654.71 -694.63 c 23.95 -87.82 23.95 -127.74 31.92 -542.91 c 7.99 -495.02 0 -622.77 -55.88 -766.48 c -47.9 -151.71 -111.78 -255.5 -239.52 -383.24 c -223.56 -223.56 -423.16 -295.42 -854.3 -295.42 c -510.99 0 -39.93 -7.98 -598.82 0 z" stroke-linecap="round" />
</g>
		<g transform="matrix(0.0365 0 0 0.0365 -245.5606 79.7884)" id="_105553146808832"  >
<path style="stroke: none; stroke-width: 1; stroke-dasharray: none; stroke-linecap: butt; stroke-dashoffset: 0; stroke-linejoin: miter; stroke-miterlimit: 4; is-custom-font: none; font-file-url: none; fill: rgb(231,81,66); fill-rule: nonzero; opacity: 1;"  transform=" translate(-1369.99, -7852.145)" d="M 817.96 7851.59 l 0 308.03 l 96.06 -44.17 c 52.99 -24.28 101.58 -48.57 108.19 -52.99 c 5.53 -5.52 87.23 -48.57 181.07 -94.95 l 168.92 -83.9 l 274.91 139.11 l 274.91 139.11 l 0 -310.24 c 0 -170.01 -3.31 -309.13 -7.72 -309.13 c -5.53 0 -128.07 60.73 -273.8 134.7 l -266.07 134.69 l -267.18 -134.69 c -146.83 -73.98 -271.59 -134.7 -278.22 -134.7 c -6.63 0 -11.04 105.99 -11.04 309.13 l -0.01 0 z" stroke-linecap="round" />
</g>
		<g transform="matrix(0.0365 0 0 0.0365 -244.2159 14.9701)" id="_105553146808832"  >
<path style="stroke: none; stroke-width: 1; stroke-dasharray: none; stroke-linecap: butt; stroke-dashoffset: 0; stroke-linejoin: miter; stroke-miterlimit: 4; is-custom-font: none; font-file-url: none; fill: rgb(0,0,0); fill-rule: nonzero; opacity: 1;"  transform=" translate(-1405.9, -6072.682)" d="M 1334.04 4707.89 l 0 103.79 l 0 95.81 l -231.53 7.98 c -279.46 7.98 -359.29 23.96 -511 103.79 c -239.52 111.78 -399.2 311.38 -479.04 574.86 c -23.95 87.84 -23.95 95.81 -23.95 598.82 c 0 455.09 7.98 510.99 23.95 574.86 c 87.83 327.36 335.33 566.88 654.7 662.69 c 71.86 15.97 127.74 15.97 646.72 15.97 l 566.87 0 l 103.8 -31.94 c 303.39 -103.78 518.96 -335.33 606.79 -654.69 c 23.95 -79.85 23.95 -119.77 31.93 -503 c 0 -463.09 -7.98 -574.86 -47.9 -710.59 c -47.91 -143.72 -111.78 -239.53 -223.57 -359.29 c -215.57 -207.58 -399.2 -271.46 -798.4 -271.46 l -175.66 0 l 0 -111.78 c -15.97 -135.73 55.89 -103.79 -143.72 -95.81 z m 950.12 1445.14 c 0 479.04 0 518.96 -63.87 622.76 c -47.91 79.84 -127.75 159.69 -207.59 191.62 c -103.79 47.91 -207.6 55.89 -686.64 55.89 c -407.19 -7.98 -423.16 -7.98 -487.03 -31.94 c -143.71 -55.88 -231.55 -151.69 -287.43 -295.42 c -23.95 -63.87 -31.93 -79.83 -31.93 -439.12 c -7.99 -431.14 0 -526.96 55.89 -638.74 c 39.92 -79.83 111.77 -151.68 183.63 -199.59 c 103.79 -55.89 127.75 -63.88 670.67 -55.89 l 495.02 0 c 447.11 7.99 351.3 534.95 359.28 790.44 z" stroke-linecap="round" />
</g>
		<g transform="matrix(0.0365 0 0 0.0365 -260.2705 14.7)" id="_105553146808832"  >
<path style="stroke: none; stroke-width: 1; stroke-dasharray: none; stroke-linecap: butt; stroke-dashoffset: 0; stroke-linejoin: miter; stroke-miterlimit: 4; is-custom-font: none; font-file-url: none; fill: rgb(0,0,0); fill-rule: nonzero; opacity: 1;"  transform=" translate(-966.77, -6066.8002)" d="M 894.92 5897.54 c -111.78 31.92 -175.64 103.78 -223.55 215.57 c -7.99 31.92 -15.98 71.85 -15.98 95.8 l 0 31.93 l 31.93 -23.95 c 63.88 -47.91 175.66 -79.83 271.47 -79.83 c 103.79 0 175.64 15.97 263.48 71.85 c 31.92 15.97 55.88 23.96 55.88 15.97 c 0 -31.93 -23.96 -127.74 -47.91 -167.66 c -31.93 -55.89 -103.78 -119.76 -151.69 -143.72 c -55.89 -23.95 -127.74 -23.95 -183.64 -15.96 z" stroke-linecap="round" />
</g>
		<g transform="matrix(0.0365 0 0 0.0365 -230.8736 14.6732)" id="_105553146808832"  >
<path style="stroke: none; stroke-width: 1; stroke-dasharray: none; stroke-linecap: butt; stroke-dashoffset: 0; stroke-linejoin: miter; stroke-miterlimit: 4; is-custom-font: none; font-file-url: none; fill: rgb(0,0,0); fill-rule: nonzero; opacity: 1;"  transform=" translate(-1773.18, -6066.0651)" d="M 1717.29 5897.54 c -127.75 23.95 -223.56 143.71 -255.49 303.39 l -7.99 39.92 l 63.88 -31.93 c 87.83 -47.9 151.69 -71.85 263.47 -71.85 c 103.79 0 207.6 31.92 271.47 79.83 l 39.92 23.95 l -7.97 -55.88 c -15.98 -111.78 -87.84 -215.57 -175.66 -255.5 c -71.86 -31.92 -127.75 -47.9 -191.62 -31.92 l 0 0 z" stroke-linecap="round" />
</g>
		<g transform="matrix(0.0365 0 0 0.0365 -244.5598 -39.0573)" id="_105553146808832"  >
<ellipse style="stroke: rgb(230,82,67); stroke-width: 20.74; stroke-dasharray: none; stroke-linecap: butt; stroke-dashoffset: 0; stroke-linejoin: miter; stroke-miterlimit: 22.9256; is-custom-font: none; font-file-url: none; fill: rgb(231,81,66); fill-rule: evenodd; opacity: 1;"  cx="0" cy="0" rx="167.67" ry="155.69" />
</g>
		<g transform="matrix(0.0365 0 0 0.0365 3.7235 106.5092)" id="_105553146808832"  >
<path style="stroke: none; stroke-width: 1; stroke-dasharray: none; stroke-linecap: butt; stroke-dashoffset: 0; stroke-linejoin: miter; stroke-miterlimit: 4; is-custom-font: none; font-file-url: none; fill: rgb(0,0,0); fill-rule: nonzero; opacity: 1;"  transform=" translate(-8204.75, -8582.5354)" d="M 10391.69 6602.02 l 719.49 1594.28 l -5777.41 -11.22 l 764.71 -1593.41 l 4293.2 10.35 z m 309.4 -382.97 l -4927.55 0 l -973.43 1953.94 l -10.62 506.3 l 676.08 3.54 c -6.17 717.86 -12.33 1435.71 -18.49 2153.57 c 198.64 133.26 404.47 123.31 615.94 0 l 18.49 -921.69 l 4311.61 0 l 0 923.92 c 211.26 130.89 417.64 154.98 615.94 0 l 0 -2155.8 l 606.72 -10.07 l 4.23 -510.38 l -918.92 -1943.33 z m -4619.58 3079.72 l 0 -615.94 l 4311.61 0 l 0 615.94 l -4311.61 0 z" stroke-linecap="round" />
</g>
		<g transform="matrix(0.0365 0 0 0.0365 -38.9131 59.6577)" id="_105553146808832"  >
<path style="stroke: none; stroke-width: 1; stroke-dasharray: none; stroke-linecap: butt; stroke-dashoffset: 0; stroke-linejoin: miter; stroke-miterlimit: 4; is-custom-font: none; font-file-url: none; fill: rgb(0,0,0); fill-rule: nonzero; opacity: 1;"  transform=" translate(-7038.6656, -7299.5594)" d="M 7664.89 7544.8 c 9.76 -5.11 16.73 -14.21 19.16 -24.95 c 2.38 -10.69 0 -21.93 -6.6 -30.7 l -573.18 -764.21 c -11.03 -14.73 -31.17 -19.28 -47.43 -10.69 l -664.46 349.99 l 618.69 824.95 l 653.82 -344.41 z" stroke-linecap="round" />
</g>
		<g transform="matrix(0.0365 0 0 0.0365 -39.9073 70.9233)" id="_105553146808832"  >
<path style="stroke: none; stroke-width: 1; stroke-dasharray: none; stroke-linecap: butt; stroke-dashoffset: 0; stroke-linejoin: miter; stroke-miterlimit: 4; is-custom-font: none; font-file-url: none; fill: rgb(0,0,0); fill-rule: nonzero; opacity: 1;"  transform=" translate(-7011.3438, -7608.719)" d="M 7690.35 7707.69 l -9.24 -8.85 l -681.49 356.03 c -21.67 5.48 -16.73 -11.5 -16.78 -37.98 c 0.81 -28.61 4.09 -55.77 8.94 -79.32 l -618.78 -825.08 c -8.25 38.65 -11.71 87.36 -6.43 139.55 l -41.16 -54.96 l 41.16 54.96 c 1.15 11.28 2.6 22.73 4.64 34.31 l 607.16 809.59 c 6.65 8.85 18.74 11.58 28.48 6.39 l 678.42 -358.54 c 6.43 -3.36 10.77 -9.62 11.8 -16.78 c 0.97 -7.11 -1.49 -14.35 -6.73 -19.33 z" stroke-linecap="round" />
</g>
		<g transform="matrix(0.0365 0 0 0.0365 -27.6213 77.8835)" id="_105553146808832"  >
<polygon style="stroke: none; stroke-width: 1; stroke-dasharray: none; stroke-linecap: butt; stroke-dashoffset: 0; stroke-linejoin: miter; stroke-miterlimit: 4; is-custom-font: none; font-file-url: none; fill: rgb(0,0,0); fill-rule: nonzero; opacity: 1;"  points="-320.61,187.085 320.61,-149.075 320.61,-187.085 -320.61,149.105 " />
</g>
		<g transform="matrix(0.0365 0 0 0.0365 51.3065 68.9567)" id="_105553146808832"  >
<path style="stroke: none; stroke-width: 1; stroke-dasharray: none; stroke-linecap: butt; stroke-dashoffset: 0; stroke-linejoin: miter; stroke-miterlimit: 4; is-custom-font: none; font-file-url: none; fill: rgb(231,81,66); fill-rule: evenodd; opacity: 1;"  transform=" translate(-9513.79, -7554.875)" d="M 9806.11 7627.96 l 0 -243.59 l 48.71 0 c 26.92 0 48.72 21.81 48.72 48.72 l 0 146.15 c 0 26.92 -21.8 48.72 -48.72 48.72 l -48.71 0 z m 105.55 85.98 c 52.49 -22.18 89.32 -74.13 89.32 -134.7 l 0 -146.15 c 0 -35.58 -12.71 -68.2 -33.85 -93.55 c -26.81 -32.15 -67.16 -52.62 -112.31 -52.62 l -49.31 0 c -0.12 -2.72 -0.27 -5.36 -0.45 -7.91 c -1.1 -16.06 -3.5 -32.13 -10.09 -48.01 c -14.84 -35.81 -43.29 -64.26 -79.1 -79.1 c -15.87 -6.58 -31.95 -8.99 -48.01 -10.09 c -15.27 -1.04 -33.71 -1.04 -55.09 -1.04 l -392.85 0 c -21.38 0 -39.82 0 -55.07 1.04 c -16.07 1.1 -32.14 3.5 -48.02 10.09 c -35.81 14.84 -64.26 43.29 -79.1 79.1 c -6.57 15.88 -8.99 31.95 -10.09 48.01 c -1.04 15.26 -1.04 33.71 -1.04 55.07 l 0 5.45 l 0 320.9 c 0 95.94 7.12 179.96 63.3 235.41 c 4.06 4.01 8.39 7.88 12.99 11.59 c 33.01 26.64 75.5 41.39 125.56 49.94 c 50.16 8.57 112.22 11.61 187.91 11.61 c 75.69 0 137.75 -3.04 187.9 -11.61 c 50.06 -8.55 92.56 -23.31 125.56 -49.94 c 53.29 -42.99 69.9 -106.95 74.6 -182.04 l 50.41 0 c 20.16 0 39.37 -4.09 56.84 -11.46 z" stroke-linecap="round" />
</g>
		<g transform="matrix(0.0365 0 0 0.0365 191.9972 -152.0838)" id="_105553146808832"  >
<path style="stroke: none; stroke-width: 1; stroke-dasharray: none; stroke-linecap: butt; stroke-dashoffset: 0; stroke-linejoin: miter; stroke-miterlimit: 4; is-custom-font: none; font-file-url: none; fill: rgb(0,0,0); fill-rule: nonzero; opacity: 1;"  transform=" translate(-13371.8285, -1489.875)" d="M 12218.59 352.61 c 292.71 -240.64 625.74 -352.72 1137.45 -352.6 c 485.69 0 850.42 104.62 1147 342.1 c 148.13 118.56 237.57 220.51 317.87 385.07 c 80.37 164.5 150.61 320.66 150.54 515.96 c 0.11 236.11 -60.39 425.33 -163.11 615.61 c -97.92 181.87 -370.5 335.05 -418.03 462.97 c -47.54 127.92 161.9 465.45 161.9 465.58 c 2.83 11.52 4.3 23.51 4.24 35.68 c 0.12 48.16 -23.02 94.5 -63.12 124.41 l -0.25 0.19 l -0.05 0.06 c -28.74 21.23 -63.36 32.1 -97.93 32.1 c -26.02 0 -52.43 -6.15 -76.25 -18.62 l -2.4 -1.19 l -2.33 -1.36 c -0.06 -0.06 -33.08 -19.11 -83.93 -48.34 c -76.18 -43.8 -192.15 -110.44 -295.67 -169.69 c -51.69 -29.59 -100.31 -57.35 -139.18 -79.36 c -38.61 -21.95 -68.39 -38.72 -79.38 -44.62 l -0.55 -0.3 l -0.75 -0.43 c -144.27 -79.47 -252.07 -171.2 -344.41 -171.67 c -383.15 -0.54 -741.43 -58.49 -1067.3 -256.16 c -162.52 -98.98 -289.71 -209.65 -389.24 -378.69 c -99.7 -168.93 -141.69 -316.42 -141.5 -553.12 c -0.8 -372.28 153.37 -663.53 446.34 -903.57 z m -157.81 1377.99 c 57.52 97.55 132.98 179.65 223.47 249.23 c 135.61 104.23 305.92 179.48 492.74 227.99 c 186.69 48.63 389.35 70.35 586.17 70.28 c 218.79 -0.87 384.43 165.09 551.42 260.11 c 86.31 49.23 373.38 255.52 468.24 310.06 c -23.14 -95.77 -173.61 -411.99 -193.69 -493.45 l 0 -0.11 c -3.32 -13.6 -5.7 -28.35 -5.77 -45.11 c -0.24 -23.63 6.02 -52.45 20.07 -76.43 c 10.38 -17.97 23.76 -32.1 35.49 -41.76 c 17.86 -14.49 31.31 -20.77 38.81 -24.77 l 7.55 -3.74 l 0.86 -0.49 c 164.22 -102.81 284.99 -230.49 366.82 -381.88 c 81.71 -151.61 124.7 -328.53 124.75 -530.98 c -0.05 -161.16 -34.56 -307.89 -98.47 -438.97 c -96.08 -196.31 -258.96 -359.14 -481.69 -475.2 c -222.55 -115.81 -505.27 -183.59 -834.39 -183.59 c -465.31 0.11 -822.1 127.08 -1060.49 323.26 c -238.08 196.85 -363.64 461.89 -364.43 766.84 c 0.18 199.91 46.1 358.56 122.53 488.7 z" stroke-linecap="round" />
</g>
		<g transform="matrix(0.0365 0 0 0.0365 187.8418 -171.5323)" style="" id="_105553146808832"  >
		<text xml:space="preserve" font-family="'Helvetica'" font-size="489.87" font-style="normal" font-weight="normal" style="stroke: none; stroke-width: 1; stroke-dasharray: none; stroke-linecap: butt; stroke-dashoffset: 0; stroke-linejoin: miter; stroke-miterlimit: 4; is-custom-font: none; font-file-url: none; fill: rgb(43,43,42); fill-rule: evenodd; opacity: 1; white-space: pre;" ><tspan x="-980.2184" y="153.8878" >Take it to</tspan></text>
</g>
		<g transform="matrix(0.0365 0 0 0.0365 195.3021 -153.6749)" style="" id="_105553146808832"  >
		<text xml:space="preserve" font-family="'Helvetica'" font-size="489.87" font-style="normal" font-weight="normal" style="stroke: none; stroke-width: 1; stroke-dasharray: none; stroke-linecap: butt; stroke-dashoffset: 0; stroke-linejoin: miter; stroke-miterlimit: 4; is-custom-font: none; font-file-url: none; fill: rgb(43,43,42); fill-rule: evenodd; opacity: 1; white-space: pre;" ><tspan x="-1184.6099" y="153.8878" >the kitchen</tspan></text>
</g>
		<g transform="matrix(0.0365 0 0 0.0365 101.9924 60.6917)" id="_105553146808832"  >
<path style="stroke: none; stroke-width: 1; stroke-dasharray: none; stroke-linecap: butt; stroke-dashoffset: 0; stroke-linejoin: miter; stroke-miterlimit: 4; is-custom-font: none; font-file-url: none; fill: rgb(76,145,170); fill-rule: nonzero; opacity: 1;"  transform=" translate(-10903.84, -7328.285)" d="M 10121.65 7455.15 l 660.22 -433.12 l 0 0 l -5.87 20.79 l -5.28 20.68 l -4.68 20.57 l -4.09 20.48 l -3.47 20.35 l -2.88 20.26 l -2.29 20.16 l -1.68 20.04 l -1.09 19.94 l -0.49 19.82 l 0.1 19.73 l 0.71 19.62 l 1.31 19.51 l 1.91 19.41 l 2.5 19.29 l 3.1 19.2 l 3.69 19.09 l 4.3 18.97 l 4.89 18.88 l 5.48 18.77 l 6.1 18.66 l 6.69 18.56 l 7.28 18.46 l 7.89 18.34 l 8.48 18.24 l 9.08 18.13 l 9.67 18.02 l 10.29 17.93 l 10.88 17.81 l 11.47 17.71 l 12.07 17.59 l 12.67 17.5 l -768.96 -179.39 z m 554.23 -151.04 l 18.12 102.08 l -204.17 36.25 l -18.12 -102.08 l 204.17 -36.25 z m 510.42 -90.62 l 18.12 102.08 l -204.17 36.25 l -18.12 -102.08 l 204.17 -36.25 z m 499.73 16.57 l -175.35 31.15 l -18.12 -102.08 l 175.35 -31.15 l 18.12 102.08 z" stroke-linecap="round" />
</g>
		<g transform="matrix(0.0365 0 0 0.0365 159.8265 -12.6155)" id="_105553146808832"  >
<path style="stroke: none; stroke-width: 1; stroke-dasharray: none; stroke-linecap: butt; stroke-dashoffset: 0; stroke-linejoin: miter; stroke-miterlimit: 4; is-custom-font: none; font-file-url: none; fill: rgb(76,145,170); fill-rule: nonzero; opacity: 1;"  transform=" translate(-12487.985, -5315.485)" d="M 9844.99 7049.38 l 438.43 -656.79 l 0 0 l 2.73 21.43 l 3.22 21.1 l 3.74 20.77 l 4.24 20.44 l 4.76 20.1 l 5.27 19.78 l 5.77 19.44 l 6.28 19.11 l 6.79 18.78 l 7.3 18.44 l 7.81 18.11 l 8.33 17.79 l 8.82 17.45 l 9.34 17.12 l 9.85 16.79 l 10.36 16.46 l 10.87 16.12 l 11.37 15.79 l 11.88 15.47 l 12.39 15.13 l 12.9 14.8 l 13.42 14.47 l 13.91 14.13 l 14.43 13.81 l 14.94 13.47 l 15.45 13.15 l 15.96 12.8 l 16.46 12.48 l 16.97 12.14 l 17.48 11.82 l 18 11.48 l 18.5 11.16 l -777.98 135.47 z m 451.11 -355.69 l 56.59 86.88 l -173.75 113.17 l -56.59 -86.88 l 173.75 -113.17 z m 434.38 -282.91 l 56.59 86.88 l -173.75 113.17 l -56.59 -86.88 l 173.75 -113.17 z m 434.38 -282.91 l 56.59 86.88 l -173.75 113.17 l -56.59 -86.88 l 173.75 -113.17 z m 434.38 -282.91 l 56.59 86.88 l -173.75 113.17 l -56.59 -86.88 l 173.75 -113.17 z m 434.39 -282.92 l 56.59 86.88 l -173.76 113.17 l -56.59 -86.88 l 173.76 -113.17 z m 434.39 -282.92 l 56.59 86.88 l -173.76 113.17 l -56.59 -86.88 l 173.76 -113.17 z m 434.39 -282.92 l 56.59 86.88 l -173.76 113.17 l -56.59 -86.88 l 173.76 -113.17 z m 434.39 -282.92 l 56.59 86.88 l -173.76 113.17 l -56.59 -86.88 l 173.76 -113.17 z m 434.39 -282.92 l 56.59 86.88 l -173.76 113.17 l -56.59 -86.88 l 173.76 -113.17 z m 434.4 -282.92 l 56.59 86.88 l -173.76 113.17 l -56.59 -86.88 l 173.76 -113.17 z m 434.4 -282.92 l 56.59 86.88 l -173.76 113.17 l -56.59 -86.88 l 173.76 -113.17 z m 434.41 -282.94 l 56.59 86.88 l -173.77 113.18 l -56.59 -86.88 l 173.77 -113.18 z" stroke-linecap="round" />
</g>
		<g transform="matrix(0.0365 0 0 0.0365 176.2636 61.7335)" style="" id="_105553146808832"  >
		<text xml:space="preserve" font-family="'Helvetica'" font-size="404.07" font-style="normal" font-weight="bold" style="stroke: none; stroke-width: 1; stroke-dasharray: none; stroke-linecap: butt; stroke-dashoffset: 0; stroke-linejoin: miter; stroke-miterlimit: 4; is-custom-font: none; font-file-url: none; fill: rgb(76,145,170); fill-rule: evenodd; opacity: 1; white-space: pre;" ><tspan x="-976.634" y="126.9345" >GESTURE</tspan></text>
</g>
		<g transform="matrix(0.0365 0 0 0.0365 195.4711 -9.8382)" style="" id="_105553146808832"  >
		<text xml:space="preserve" font-family="'Helvetica'" font-size="404.07" font-style="normal" font-weight="bold" style="stroke: none; stroke-width: 1; stroke-dasharray: none; stroke-linecap: butt; stroke-dashoffset: 0; stroke-linejoin: miter; stroke-miterlimit: 4; is-custom-font: none; font-file-url: none; fill: rgb(76,145,170); fill-rule: evenodd; opacity: 1; white-space: pre;" ><tspan x="-561.2193" y="126.9345" >GAZE</tspan></text>
</g>
		<g transform="matrix(0.0365 0 0 0.0365 227.3877 -82.725)" id="_105553146808832"  >
<path style="stroke: none; stroke-width: 1; stroke-dasharray: none; stroke-linecap: butt; stroke-dashoffset: 0; stroke-linejoin: miter; stroke-miterlimit: 4; is-custom-font: none; font-file-url: none; fill: rgb(76,145,170); fill-rule: evenodd; opacity: 1;"  transform=" translate(-14344.71, -3394.1789)" d="M 14344.71 3188.39 c 0 0 0 926.05 0 0 z" stroke-linecap="round" />
</g>
		<g transform="matrix(0.0365 0 0 0.0365 216.0809 -75.2055)" id="_105553146808832"  >
<path style="stroke: none; stroke-width: 1; stroke-dasharray: none; stroke-linecap: butt; stroke-dashoffset: 0; stroke-linejoin: miter; stroke-miterlimit: 4; is-custom-font: none; font-file-url: none; fill: rgb(76,145,170); fill-rule: evenodd; opacity: 1;"  transform=" translate(-14034.3275, -3600.33)" d="M 14036.71 3316.25 c 37.1 -26.15 97.24 -26.15 134.33 0 c 37.09 26.15 37.09 68.54 0 94.7 c -152.28 99.28 -159.69 258.77 0 378.76 c 37.09 26.15 37.09 68.55 0 94.7 c -37.09 26.15 -97.23 26.15 -134.33 0 c -222.55 -156.89 -222.55 -411.27 0 -568.17 z" stroke-linecap="round" />
</g>
		<g transform="matrix(0.0365 0 0 0.0365 202.3727 -75.1969)" id="_105553146808832"  >
<path style="stroke: none; stroke-width: 1; stroke-dasharray: none; stroke-linecap: butt; stroke-dashoffset: 0; stroke-linejoin: miter; stroke-miterlimit: 4; is-custom-font: none; font-file-url: none; fill: rgb(76,145,170); fill-rule: evenodd; opacity: 1;"  transform=" translate(-13658.21, -3600.325)" d="M 13716.24 3126.85 c 37.09 -26.15 97.22 -26.15 134.32 0 c 37.09 26.15 37.09 68.54 0 94.69 c -296.74 209.2 -296.74 548.38 0 757.57 c 37.09 26.14 37.09 68.54 0 94.69 c -37.1 26.15 -97.23 26.15 -134.32 0 c -370.93 -261.49 -370.93 -685.46 0 -946.95 z" stroke-linecap="round" />
</g>
		<g transform="matrix(0.0365 0 0 0.0365 187.1526 -75.1878)" id="_105553146808832"  >
<path style="stroke: none; stroke-width: 1; stroke-dasharray: none; stroke-linecap: butt; stroke-dashoffset: 0; stroke-linejoin: miter; stroke-miterlimit: 4; is-custom-font: none; font-file-url: none; fill: rgb(76,145,170); fill-rule: evenodd; opacity: 1;"  transform=" translate(-13240.6187, -3600.33)" d="M 13488.6 2937.46 c -37.09 -26.15 -97.23 -26.15 -134.32 0 c -519.28 366.1 -519.28 959.64 0 1325.74 c 37.09 26.15 97.23 26.15 134.32 0 c 37.09 -26.15 37.09 -68.54 0 -94.69 c -445.11 -313.8 -445.11 -822.56 0 -1136.35 c 37.09 -26.16 37.09 -68.54 0 -94.7 z" stroke-linecap="round" />
</g>
		<g transform="matrix(0.0365 0 0 0.0365 134.6748 -75.6561)" style="" id="_105553146808832"  >
		<text xml:space="preserve" font-family="'Helvetica'" font-size="404.07" font-style="normal" font-weight="bold" style="stroke: none; stroke-width: 1; stroke-dasharray: none; stroke-linecap: butt; stroke-dashoffset: 0; stroke-linejoin: miter; stroke-miterlimit: 4; is-custom-font: none; font-file-url: none; fill: rgb(76,145,170); fill-rule: evenodd; opacity: 1; white-space: pre;" ><tspan x="-830.8295" y="126.9345" >SPEECH</tspan></text>
</g>
		<g transform="matrix(0.0365 0 0 0.0365 -136.2359 -13.9654)" id="_105553146808832"  >
<line style="stroke: rgb(76,145,170); stroke-width: 103.68; stroke-dasharray: 103.680291 103.680291; stroke-linecap: butt; stroke-dashoffset: 0; stroke-linejoin: miter; stroke-miterlimit: 22.9256; is-custom-font: none; font-file-url: none; fill: none; fill-rule: evenodd; opacity: 1;"  x1="2468.6549999999997" y1="-366.18499999999995" x2="-2468.6549999999997" y2="366.18499999999995" />
</g>
		<g transform="matrix(0.0365 0 0 0.0365 -145.6 66.3512)" id="_105553146808832"  >
<line style="stroke: rgb(76,145,170); stroke-width: 103.68; stroke-dasharray: 103.680291 103.680291; stroke-linecap: butt; stroke-dashoffset: 0; stroke-linejoin: miter; stroke-miterlimit: 22.9256; is-custom-font: none; font-file-url: none; fill: none; fill-rule: evenodd; opacity: 1;"  x1="2239.71" y1="798.0549999999998" x2="-2239.71" y2="-798.0549999999998" />
</g>
		<g transform="matrix(0.0365 0 0 0.0365 -76.1654 -39.9939)" style="" id="_105553146808832"  >
		<text xml:space="preserve" font-family="'Helvetica'" font-size="349.22" font-style="normal" font-weight="bold" style="stroke: none; stroke-width: 1; stroke-dasharray: none; stroke-linecap: butt; stroke-dashoffset: 0; stroke-linejoin: miter; stroke-miterlimit: 4; is-custom-font: none; font-file-url: none; fill: rgb(76,145,170); fill-rule: evenodd; opacity: 1; white-space: pre;" ><tspan x="-2774.9178" y="109.704" >GESTURE / GAZE OBSERVATION</tspan></text>
</g>
		<g transform="matrix(0.0365 0 0 0.0365 -168.7012 109.3906)" style="" id="_105553146808832"  >
		<text xml:space="preserve" font-family="'Helvetica'" font-size="348.27" font-style="normal" font-weight="bold" style="stroke: none; stroke-width: 1; stroke-dasharray: none; stroke-linecap: butt; stroke-dashoffset: 0; stroke-linejoin: miter; stroke-miterlimit: 4; is-custom-font: none; font-file-url: none; fill: rgb(76,145,170); fill-rule: evenodd; opacity: 1; white-space: pre;" ><tspan x="-599.9495" y="109.4055" >SCENE</tspan></text>
</g>
		<g transform="matrix(0.0365 0 0 0.0365 -145.0341 122.0863)" style="" id="_105553146808832"  >
		<text xml:space="preserve" font-family="'Helvetica'" font-size="348.27" font-style="normal" font-weight="bold" style="stroke: none; stroke-width: 1; stroke-dasharray: none; stroke-linecap: butt; stroke-dashoffset: 0; stroke-linejoin: miter; stroke-miterlimit: 4; is-custom-font: none; font-file-url: none; fill: rgb(76,145,170); fill-rule: evenodd; opacity: 1; white-space: pre;" ><tspan x="-1248.3643" y="109.4055" >OBSERVATION</tspan></text>
</g>
		<g transform="matrix(0.0365 0 0 0.0365 187.1526 -75.1878)" id="_105553146808832"  >
<path style="stroke: none; stroke-width: 1; stroke-dasharray: none; stroke-linecap: butt; stroke-dashoffset: 0; stroke-linejoin: miter; stroke-miterlimit: 4; is-custom-font: none; font-file-url: none; fill: rgb(76,145,170); fill-rule: evenodd; opacity: 1;"  transform=" translate(-13240.6187, -3600.33)" d="M 13488.6 2937.46 c -37.09 -26.15 -97.23 -26.15 -134.32 0 c -519.28 366.1 -519.28 959.64 0 1325.74 c 37.09 26.15 97.23 26.15 134.32 0 c 37.09 -26.15 37.09 -68.54 0 -94.69 c -445.11 -313.8 -445.11 -822.56 0 -1136.35 c 37.09 -26.16 37.09 -68.54 0 -94.7 z" stroke-linecap="round" />
</g>
		<g transform="matrix(0.0365 0 0 0.0365 -229.4172 -44.4577)" id="_105553146808832"  >
<path style="stroke: none; stroke-width: 1; stroke-dasharray: none; stroke-linecap: butt; stroke-dashoffset: 0; stroke-linejoin: miter; stroke-miterlimit: 4; is-custom-font: none; font-file-url: none; fill: rgb(76,145,170); fill-rule: evenodd; opacity: 1;"  transform=" translate(-1813.2796, -4443.8223)" d="M 1941.42 4687.8 c -25.91 37.26 -82.44 57.83 -126.22 45.94 c -43.79 -11.88 -58.3 -51.73 -32.39 -88.99 c 109.13 -145.38 61.55 -297.78 -129.55 -355.92 c -43.79 -11.88 -58.3 -51.74 -32.39 -88.99 c 25.91 -37.25 82.43 -57.82 126.23 -45.94 c 262.78 71.31 349.79 310.35 194.32 533.9 z" stroke-linecap="round" />
</g>
		<g transform="matrix(0.0365 0 0 0.0365 -217.4978 -48.4451)" id="_105553146808832"  >
<path style="stroke: none; stroke-width: 1; stroke-dasharray: none; stroke-linecap: butt; stroke-dashoffset: 0; stroke-linejoin: miter; stroke-miterlimit: 4; is-custom-font: none; font-file-url: none; fill: rgb(76,145,170); fill-rule: evenodd; opacity: 1;"  transform=" translate(-2140.1404, -4334.21)" d="M 2307.35 4756.17 c -25.91 37.25 -82.42 57.82 -126.22 45.93 c -43.79 -11.88 -58.29 -51.72 -32.39 -88.98 c 207.3 -298.07 91.3 -616.79 -259.1 -711.88 c -43.79 -11.88 -58.3 -51.73 -32.39 -88.98 c 25.92 -37.26 82.43 -57.83 126.22 -45.94 c 437.99 118.86 582.99 517.25 323.88 889.85 z" stroke-linecap="round" />
</g>
		<g transform="matrix(0.0365 0 0 0.0365 -204.1573 -52.9496)" id="_105553146808832"  >
<path style="stroke: none; stroke-width: 1; stroke-dasharray: none; stroke-linecap: butt; stroke-dashoffset: 0; stroke-linejoin: miter; stroke-miterlimit: 4; is-custom-font: none; font-file-url: none; fill: rgb(76,145,170); fill-rule: evenodd; opacity: 1;"  transform=" translate(-2505.9824, -4210.415)" d="M 2586.04 4856.28 c 43.79 11.88 100.31 -8.69 126.22 -45.94 c 362.76 -521.63 159.75 -1079.37 -453.43 -1245.79 c -43.79 -11.88 -100.31 8.69 -126.22 45.94 c -25.91 37.25 -11.4 77.1 32.39 88.98 c 525.59 142.64 699.59 620.71 388.65 1067.81 c -25.9 37.27 -11.4 77.1 32.39 89 z" stroke-linecap="round" />
</g>
</g>
</g>
</svg>