<svg xmlns="http://www.w3.org/2000/svg" xmlns:xlink="http://www.w3.org/1999/xlink" version="1.1" width="240" height="200" viewBox="0 0 300 250" xml:space="preserve">
<desc>Created with Fabric.js 3.5.0</desc>
<defs>
</defs>
<rect x="0" y="0" width="100%" height="100%" fill="none"></rect>
<g transform="matrix(0.4977 0 0 0.4977 153.96 124.3875)" id="276065"  >
<g style="" vector-effect="non-scaling-stroke"   >
		<g transform="matrix(0.0378 0 0 0.0378 -227.8533 81.7443)" id="XMLID_162_"  >
<path style="stroke: none; stroke-width: 1; stroke-dasharray: none; stroke-linecap: butt; stroke-dashoffset: 0; stroke-linejoin: miter; stroke-miterlimit: 4; is-custom-font: none; font-file-url: none; fill: rgb(0,0,0); fill-rule: nonzero; opacity: 1;"  transform=" translate(-2471.1722, -8162.415)" d="M 1491.29 4935.69 l 294.31 0 c 380.51 0 689.25 308.62 689.25 689.25 l 0 50.56 l -870.12 -617.99 c -0.8 -0.57 -1.81 -0.67 -2.63 -1.23 c 0.83 0.66 1.64 0.81 2.35 1.46 l 1149.1 1056.49 l 1178.22 501.8 c 174.03 73.95 255.08 275.08 181.07 449.08 c -55.64 130.25 -182.18 208.37 -315.36 208.37 c -44.73 0 -90.18 -8.84 -133.74 -27.56 l -1232.51 -524.76 c -36.11 -15.26 -68.98 -36.53 -97.67 -63.02 l -1192.34 -1096.48 c -1.01 -0.91 -1.33 -2.29 -2.35 -3.2 c 1.01 1.06 1.32 2.39 2.15 3.46 l 1053.49 1247.49 c 30.5 36.09 67.61 63 108.33 80.49 l 47.89 20.35 l 124.11 52.8 l -0.51 4015.24 c 0 226.93 -184.08 410.85 -410.84 410.85 c -93.65 0 -179.24 -32.65 -248.17 -85.6 c 52.68 -97.1 85.55 -206.75 85.55 -325.25 l 0 -2448.28 l -273.95 0 l 0 2448.26 c 0 226.93 -184 410.85 -410.84 410.85 c -226.77 0 -410.73 -183.92 -410.73 -410.85 c 0 0 -3.25 -3454.05 -3.25 -5353.35 c -0.02 -380.61 308.61 -689.23 689.19 -689.23 z" stroke-linecap="round" />
</g>
		<g transform="matrix(0.0378 0 0 0.0378 -259.3401 -76.2996)" id="XMLID_161_"  >
<path style="stroke: none; stroke-width: 1; stroke-dasharray: none; stroke-linecap: butt; stroke-dashoffset: 0; stroke-linejoin: miter; stroke-miterlimit: 4; is-custom-font: none; font-file-url: none; fill: rgb(0,0,0); fill-rule: nonzero; opacity: 1;"  transform=" translate(-1638.195, -3981.14)" d="M 1638.21 4781.59 c -442.39 0 -800.54 -358.25 -800.54 -800.38 c -0.02 -442.27 358.13 -800.52 800.54 -800.52 c 442.06 0 800.51 358.25 800.51 800.52 c -0.01 442.13 -358.47 800.38 -800.51 800.38 z" stroke-linecap="round" />
</g>
		<g transform="matrix(0.0378 0 0 0.0378 234.1944 113.5165)" id="Layer_x0020_1"  >
<path style="stroke: none; stroke-width: 1; stroke-dasharray: none; stroke-linecap: butt; stroke-dashoffset: 0; stroke-linejoin: miter; stroke-miterlimit: 4; is-custom-font: none; font-file-url: none; fill: rgb(0,0,0); fill-rule: nonzero; opacity: 1;"  transform=" translate(-14696.2236, -9003.2939)" d="M 15020.92 7692.03 c 277.23 7.7 361.93 23.1 523.65 107.81 c 246.42 123.21 415.84 331.13 492.85 592.96 c 23.1 92.41 23.1 107.81 23.1 623.76 c 0 477.44 0 531.35 -15.41 600.66 c -100.1 331.12 -354.23 585.25 -685.36 685.36 c -69.31 15.4 -130.91 15.4 -662.26 15.4 l -592.96 0 l -107.81 -38.5 c -315.73 -107.81 -539.06 -346.53 -631.47 -669.97 c -23.1 -84.7 -23.1 -123.21 -30.79 -523.64 c -7.71 -477.45 0 -600.66 53.9 -739.27 c 46.2 -146.32 107.81 -246.43 231.02 -369.64 c 215.62 -215.62 408.14 -284.93 823.98 -284.93 c 492.85 0 38.51 -7.7 577.56 0 z" stroke-linecap="round" />
</g>
		<g transform="matrix(0.0378 0 0 0.0378 235.8133 76.9948)" id="Layer_x0020_1"  >
<path style="stroke: none; stroke-width: 1; stroke-dasharray: none; stroke-linecap: butt; stroke-dashoffset: 0; stroke-linejoin: miter; stroke-miterlimit: 4; is-custom-font: none; font-file-url: none; fill: rgb(231,81,66); fill-rule: nonzero; opacity: 1;"  transform=" translate(-14739.16, -8037.115)" d="M 15271.59 8036.58 l 0 297.1 l -92.65 -42.6 c -51.11 -23.42 -97.97 -46.85 -104.35 -51.11 c -5.33 -5.32 -84.13 -46.85 -174.64 -91.58 l -162.92 -80.92 l -265.15 134.17 l -265.15 134.17 l 0 -299.23 c 0 -163.98 3.19 -298.16 7.45 -298.16 c 5.33 0 123.52 58.57 264.08 129.92 l 256.63 129.91 l 257.7 -129.91 c 141.62 -71.35 261.95 -129.92 268.34 -129.92 c 6.39 0 10.65 102.23 10.65 298.16 l 0.01 0 z" stroke-linecap="round" />
</g>
		<g transform="matrix(0.0378 0 0 0.0378 234.5075 12.1314)" id="Layer_x0020_1"  >
<path style="stroke: none; stroke-width: 1; stroke-dasharray: none; stroke-linecap: butt; stroke-dashoffset: 0; stroke-linejoin: miter; stroke-miterlimit: 4; is-custom-font: none; font-file-url: none; fill: rgb(0,0,0); fill-rule: nonzero; opacity: 1;"  transform=" translate(-14704.52, -6320.8114)" d="M 14773.83 5004.47 l 0 100.11 l 0 92.41 l 223.31 7.7 c 269.54 7.7 346.54 23.11 492.86 100.11 c 231.02 107.81 385.03 300.33 462.04 554.45 c 23.1 84.72 23.1 92.41 23.1 577.56 c 0 438.94 -7.7 492.85 -23.1 554.45 c -84.71 315.74 -323.43 546.76 -631.46 639.17 c -69.31 15.4 -123.21 15.4 -623.76 15.4 l -546.75 0 l -100.12 -30.81 c -292.62 -100.1 -500.54 -323.43 -585.25 -631.45 c -23.1 -77.02 -23.1 -115.52 -30.8 -485.15 c 0 -446.65 7.7 -554.45 46.2 -685.37 c 46.21 -138.62 107.81 -231.03 215.63 -346.54 c 207.92 -200.21 385.03 -261.82 770.06 -261.82 l 169.42 0 l 0 -107.81 c 15.4 -130.91 -53.91 -100.11 138.62 -92.41 z m -916.39 1393.84 c 0 462.04 0 500.54 61.6 600.65 c 46.21 77.01 123.22 154.02 200.22 184.82 c 100.11 46.21 200.23 53.91 662.27 53.91 c 392.74 -7.7 408.14 -7.7 469.74 -30.81 c 138.61 -53.9 223.33 -146.31 277.23 -284.93 c 23.1 -61.6 30.8 -77 30.8 -423.53 c 7.71 -415.84 0 -508.25 -53.91 -616.07 c -38.5 -77 -107.8 -146.3 -177.11 -192.51 c -100.11 -53.91 -123.22 -61.61 -646.86 -53.91 l -477.45 0 c -431.24 7.71 -338.83 515.96 -346.53 762.38 z" stroke-linecap="round" />
</g>
		<g transform="matrix(0.0378 0 0 0.0378 234.8386 16.0607)" id="Layer_x0020_1"  >
<rect style="stroke: rgb(43,43,42); stroke-width: 20; stroke-dasharray: none; stroke-linecap: butt; stroke-dashoffset: 0; stroke-linejoin: miter; stroke-miterlimit: 22.9256; is-custom-font: none; font-file-url: none; fill: rgb(255,255,255); fill-rule: evenodd; opacity: 1;"  x="-858.5" y="-828.345" rx="375.15" ry="312.77" width="1717" height="1656.69" />
</g>
		<g transform="matrix(0.0378 0 0 0.0378 249.3936 11.1444)" id="Layer_x0020_1"  >
<path style="stroke: none; stroke-width: 1; stroke-dasharray: none; stroke-linecap: butt; stroke-dashoffset: 0; stroke-linejoin: miter; stroke-miterlimit: 4; is-custom-font: none; font-file-url: none; fill: rgb(0,0,0); fill-rule: nonzero; opacity: 1;"  transform=" translate(-15098.5, -6294.8437)" d="M 15167.81 6131.59 c 107.81 30.79 169.41 100.1 215.61 207.92 c 7.71 30.79 15.41 69.3 15.41 92.4 l 0 30.8 l -30.8 -23.1 c -61.61 -46.21 -169.42 -77 -261.83 -77 c -100.11 0 -169.41 15.4 -254.13 69.3 c -30.79 15.4 -53.9 23.11 -53.9 15.4 c 0 -30.8 23.11 -123.21 46.21 -161.71 c 30.8 -53.91 100.1 -115.51 146.31 -138.62 c 53.91 -23.1 123.21 -23.1 177.12 -15.39 z" stroke-linecap="round" />
</g>
		<g transform="matrix(0.0378 0 0 0.0378 220.5697 11.1446)" id="Layer_x0020_1"  >
<path style="stroke: none; stroke-width: 1; stroke-dasharray: none; stroke-linecap: butt; stroke-dashoffset: 0; stroke-linejoin: miter; stroke-miterlimit: 4; is-custom-font: none; font-file-url: none; fill: rgb(0,0,0); fill-rule: nonzero; opacity: 1;"  transform=" translate(-14335.87, -6294.847)" d="M 14389.77 6132.31 c 123.22 23.1 215.62 138.61 246.42 292.62 l 7.71 38.5 l -61.61 -30.8 c -84.71 -46.2 -146.31 -69.3 -254.12 -69.3 c -100.11 0 -200.23 30.79 -261.83 77 l -38.5 23.1 l 7.69 -53.9 c 15.41 -107.81 84.72 -207.92 169.42 -246.43 c 69.31 -30.79 123.22 -46.2 184.82 -30.79 l 0 0 z" stroke-linecap="round" />
</g>
		<g transform="matrix(0.0378 0 0 0.0378 234.7934 -41.8458)" id="Layer_x0020_1"  >
<ellipse style="stroke: rgb(230,82,67); stroke-width: 20; stroke-dasharray: none; stroke-linecap: butt; stroke-dashoffset: 0; stroke-linejoin: miter; stroke-miterlimit: 22.9256; is-custom-font: none; font-file-url: none; fill: rgb(231,81,66); fill-rule: evenodd; opacity: 1;"  cx="0" cy="0" rx="161.72" ry="150.17" />
</g>
		<g transform="matrix(0.0378 0 0 0.0378 1.0364 103.6292)" id="Layer_x0020_1"  >
<path style="stroke: none; stroke-width: 1; stroke-dasharray: none; stroke-linecap: butt; stroke-dashoffset: 0; stroke-linejoin: miter; stroke-miterlimit: 4; is-custom-font: none; font-file-url: none; fill: rgb(0,0,0); fill-rule: nonzero; opacity: 1;"  transform=" translate(-8527.01, -8741.569)" d="M 6417.7 6831.36 l -693.95 1537.69 l 5572.33 -10.82 l -737.57 -1536.85 l -4140.81 9.98 z m -298.42 -369.38 l 4752.64 0 l 938.88 1884.58 l 10.24 488.33 l -652.08 3.41 c 5.95 692.38 11.89 1384.75 17.83 2077.13 c -191.59 128.53 -390.11 118.93 -594.08 0 l -17.83 -888.97 l -4158.56 0 l 0 891.12 c -203.76 126.24 -402.82 149.48 -594.08 0 l 0 -2079.28 l -585.18 -9.71 l -4.08 -492.26 l 886.3 -1874.35 z m 4455.6 2970.4 l 0 -594.08 l -4158.56 0 l 0 594.08 l 4158.56 0 z" stroke-linecap="round" />
</g>
		<g transform="matrix(0.0378 0 0 0.0378 43.532 56.8527)" id="Layer_x0020_1"  >
<path style="stroke: none; stroke-width: 1; stroke-dasharray: none; stroke-linecap: butt; stroke-dashoffset: 0; stroke-linejoin: miter; stroke-miterlimit: 4; is-custom-font: none; font-file-url: none; fill: rgb(0,0,0); fill-rule: nonzero; opacity: 1;"  transform=" translate(-9651.7045, -7504.1546)" d="M 9047.71 7740.68 c -9.41 -4.93 -16.14 -13.71 -18.48 -24.06 c -2.3 -10.31 0 -21.15 6.37 -29.61 l 552.83 -737.08 c 10.64 -14.21 30.06 -18.6 45.75 -10.31 l 640.87 337.57 l -596.73 795.67 l -630.61 -332.18 z" stroke-linecap="round" />
</g>
		<g transform="matrix(0.0378 0 0 0.0378 44.5278 68.1216)" id="Layer_x0020_1"  >
<path style="stroke: none; stroke-width: 1; stroke-dasharray: none; stroke-linecap: butt; stroke-dashoffset: 0; stroke-linejoin: miter; stroke-miterlimit: 4; is-custom-font: none; font-file-url: none; fill: rgb(0,0,0); fill-rule: nonzero; opacity: 1;"  transform=" translate(-9678.0493, -7802.3243)" d="M 9023.15 7897.78 l 8.91 -8.54 l 657.3 343.39 c 20.9 5.29 16.14 -11.09 16.18 -36.63 c -0.78 -27.59 -3.94 -53.79 -8.62 -76.5 l 596.82 -795.79 c 7.96 37.28 11.29 84.26 6.2 134.6 l 39.7 -53.01 l -39.7 53.01 c -1.11 10.88 -2.51 21.92 -4.48 33.09 l -585.61 780.85 c -6.41 8.54 -18.07 11.17 -27.47 6.16 l -654.34 -345.81 c -6.2 -3.24 -10.39 -9.28 -11.38 -16.18 c -0.94 -6.86 1.44 -13.84 6.49 -18.64 z" stroke-linecap="round" />
</g>
		<g transform="matrix(0.0378 0 0 0.0378 32.2235 75.0947)" id="Layer_x0020_1"  >
<polygon style="stroke: none; stroke-width: 1; stroke-dasharray: none; stroke-linecap: butt; stroke-dashoffset: 0; stroke-linejoin: miter; stroke-miterlimit: 4; is-custom-font: none; font-file-url: none; fill: rgb(0,0,0); fill-rule: nonzero; opacity: 1;"  points="309.23,180.44 -309.23,-143.78 -309.23,-180.44 309.23,143.81 " />
</g>
		<g transform="matrix(0.0378 0 0 0.0378 -51.9873 67.2926)" id="Layer_x0020_1"  >
<path style="stroke: none; stroke-width: 1; stroke-dasharray: none; stroke-linecap: butt; stroke-dashoffset: 0; stroke-linejoin: miter; stroke-miterlimit: 4; is-custom-font: none; font-file-url: none; fill: rgb(231,81,66); fill-rule: evenodd; opacity: 1;"  transform=" translate(-7124.445, -7780.4)" d="M 7406.39 7850.88 l 0 -234.94 l 46.98 0 c 25.96 0 46.99 21.04 46.99 46.99 l 0 140.96 c 0 25.96 -21.03 46.99 -46.99 46.99 l -46.98 0 z m 101.8 82.93 c 50.63 -21.39 86.15 -71.5 86.15 -129.92 l 0 -140.96 c 0 -34.32 -12.26 -65.78 -32.65 -90.23 c -25.86 -31.01 -64.78 -50.75 -108.32 -50.75 l -47.56 0 c -0.12 -2.62 -0.26 -5.17 -0.43 -7.63 c -1.06 -15.49 -3.38 -30.99 -9.73 -46.31 c -14.31 -34.54 -41.75 -61.98 -76.29 -76.29 c -15.31 -6.35 -30.82 -8.67 -46.31 -9.73 c -14.73 -1 -32.51 -1 -53.13 -1 l -378.91 0 c -20.62 0 -38.41 0 -53.12 1 c -15.5 1.06 -31 3.38 -46.32 9.73 c -34.54 14.31 -61.98 41.75 -76.29 76.29 c -6.34 15.32 -8.67 30.82 -9.73 46.31 c -1 14.72 -1 32.51 -1 53.12 l 0 5.26 l 0 309.51 c 0 92.53 6.87 173.57 61.05 227.05 c 3.92 3.87 8.09 7.6 12.53 11.18 c 31.84 25.69 72.82 39.92 121.1 48.17 c 48.38 8.27 108.24 11.2 181.24 11.2 c 73 0 132.86 -2.93 181.23 -11.2 c 48.28 -8.25 89.27 -22.48 121.1 -48.17 c 51.4 -41.46 67.42 -103.15 71.95 -175.58 l 48.62 0 c 19.44 0 37.97 -3.94 54.82 -11.05 z" stroke-linecap="round" />
</g>
		<g transform="matrix(0.0378 0 0 0.0378 -187.3316 -154.9282)" id="Layer_x0020_1"  >
<path style="stroke: none; stroke-width: 1; stroke-dasharray: none; stroke-linecap: butt; stroke-dashoffset: 0; stroke-linejoin: miter; stroke-miterlimit: 4; is-custom-font: none; font-file-url: none; fill: rgb(0,0,0); fill-rule: nonzero; opacity: 1;"  transform=" translate(-3543.3264, -1900.68)" d="M 4655.65 803.78 c -282.32 -232.1 -603.53 -340.2 -1097.07 -340.08 c -468.45 0 -820.23 100.91 -1106.29 329.96 c -142.87 114.35 -229.14 212.68 -306.59 371.4 c -77.52 158.66 -145.26 309.28 -145.2 497.65 c -0.11 227.73 58.25 410.23 157.32 593.76 c 94.44 175.41 357.35 323.16 403.19 446.54 c 45.85 123.38 -156.15 448.93 -156.15 449.05 c -2.73 11.11 -4.15 22.68 -4.09 34.41 c -0.12 46.45 22.2 91.15 60.88 119.99 l 0.24 0.18 l 0.05 0.06 c 27.72 20.48 61.11 30.96 94.45 30.96 c 25.1 0 50.57 -5.93 73.54 -17.96 l 2.31 -1.15 l 2.25 -1.31 c 0.06 -0.06 31.91 -18.43 80.95 -46.62 c 73.48 -42.25 185.33 -106.52 285.17 -163.67 c 49.86 -28.54 96.75 -55.31 134.24 -76.54 c 37.24 -21.17 65.96 -37.35 76.56 -43.04 l 0.53 -0.29 l 0.72 -0.41 c 139.15 -76.65 243.12 -165.12 332.18 -165.58 c 369.55 -0.52 715.11 -56.41 1029.41 -247.07 c 156.75 -95.47 279.43 -202.21 375.42 -365.25 c 96.16 -162.93 136.66 -305.19 136.48 -533.49 c 0.77 -359.07 -147.93 -639.98 -430.5 -871.5 z m 152.21 1329.08 c -55.48 94.09 -128.26 173.27 -215.54 240.38 c -130.8 100.53 -295.06 173.11 -475.25 219.9 c -180.06 46.9 -375.53 67.85 -565.36 67.79 c -211.02 -0.84 -370.78 159.23 -531.85 250.88 c -83.25 47.48 -360.13 246.45 -451.62 299.05 c 22.32 -92.37 167.45 -397.37 186.81 -475.93 l 0 -0.11 c 3.2 -13.12 5.5 -27.34 5.57 -43.51 c 0.23 -22.79 -5.81 -50.59 -19.36 -73.72 c -10.01 -17.33 -22.92 -30.96 -34.23 -40.28 c -17.23 -13.98 -30.2 -20.03 -37.43 -23.89 l -7.28 -3.61 l -0.83 -0.47 c -158.39 -99.16 -274.87 -222.31 -353.8 -368.32 c -78.81 -146.23 -120.27 -316.87 -120.32 -512.13 c 0.05 -155.44 33.33 -296.96 94.97 -423.39 c 92.67 -189.34 249.77 -346.39 464.59 -458.33 c 214.65 -111.7 487.33 -177.07 804.77 -177.07 c 448.79 0.11 792.92 122.57 1022.85 311.79 c 229.63 189.86 350.73 445.49 351.49 739.62 c -0.17 192.81 -44.46 345.83 -118.18 471.35 z" stroke-linecap="round" />
</g>
		<g transform="matrix(0.0378 0 0 0.0378 -192.6044 -174.3259)" style="" id="Layer_x0020_1"  >
		<text xml:space="preserve" font-family="Helvetica" font-size="472.48" font-style="normal" font-weight="normal" style="stroke: none; stroke-width: 1; stroke-dasharray: none; stroke-linecap: butt; stroke-dashoffset: 0; stroke-linejoin: miter; stroke-miterlimit: 4; is-custom-font: none; font-file-url: none; fill: rgb(43,43,42); fill-rule: evenodd; opacity: 1; white-space: pre;" ><tspan x="-945.4214" y="148.4249" >Take it to</tspan></text>
</g>
		<g transform="matrix(0.0378 0 0 0.0378 -185.1526 -156.4684)" style="" id="Layer_x0020_1"  >
		<text xml:space="preserve" font-family="Helvetica" font-size="472.48" font-style="normal" font-weight="normal" style="stroke: none; stroke-width: 1; stroke-dasharray: none; stroke-linecap: butt; stroke-dashoffset: 0; stroke-linejoin: miter; stroke-miterlimit: 4; is-custom-font: none; font-file-url: none; fill: rgb(43,43,42); fill-rule: evenodd; opacity: 1; white-space: pre;" ><tspan x="-1142.5572" y="148.4249" >the kitchen</tspan></text>
</g>
		<g transform="matrix(0.0378 0 0 0.0378 -138.7359 48.731)" id="_105553395767840"  >
<path style="stroke: none; stroke-width: 1; stroke-dasharray: none; stroke-linecap: butt; stroke-dashoffset: 0; stroke-linejoin: miter; stroke-miterlimit: 4; is-custom-font: none; font-file-url: none; fill: rgb(76,145,170); fill-rule: nonzero; opacity: 1;"  transform=" translate(-4829.07, -7289.255)" d="M 6494.72 7938.44 l -761 27.7 l 0 0 l 15.23 -14.22 l 14.68 -14.43 l 14.13 -14.64 l 13.58 -14.85 l 13.04 -15.07 l 12.49 -15.27 l 11.95 -15.48 l 11.4 -15.7 l 10.85 -15.91 l 10.31 -16.11 l 9.76 -16.33 l 9.21 -16.54 l 8.67 -16.75 l 8.12 -16.96 l 7.57 -17.18 l 7.03 -17.38 l 6.48 -17.6 l 5.93 -17.8 l 5.39 -18.02 l 4.84 -18.23 l 4.29 -18.44 l 3.75 -18.65 l 3.2 -18.86 l 2.66 -19.07 l 2.11 -19.28 l 1.56 -19.5 l 1.01 -19.7 l 0.47 -19.92 l -0.08 -20.13 l -0.62 -20.34 l -1.17 -20.55 l -1.72 -20.76 l 544.88 531.97 z m -532.72 -152.11 l 36.02 -93.28 l 186.57 72.04 l -36.02 93.28 l -186.57 -72.04 z m -466.42 -180.1 l 36.02 -93.28 l 186.57 72.04 l -36.02 93.28 l -186.57 -72.04 z m -466.43 -180.11 l 36.02 -93.28 l 186.57 72.04 l -36.02 93.28 l -186.57 -72.04 z m -466.43 -180.11 l 36.02 -93.28 l 186.57 72.04 l -36.02 93.28 l -186.57 -72.04 z m -466.43 -180.12 l 36.02 -93.28 l 186.57 72.05 l -36.02 93.28 l -186.57 -72.05 z m -466.43 -180.12 l 36.02 -93.28 l 186.57 72.05 l -36.02 93.28 l -186.57 -72.05 z m -466.44 -180.12 l 36.02 -93.28 l 186.58 72.05 l -36.02 93.28 l -186.58 -72.05 z" stroke-linecap="round" />
</g>
		<g transform="matrix(0.0378 0 0 0.0378 -160.2552 -12.892)" id="_105553395770272"  >
<path style="stroke: none; stroke-width: 1; stroke-dasharray: none; stroke-linecap: butt; stroke-dashoffset: 0; stroke-linejoin: miter; stroke-miterlimit: 4; is-custom-font: none; font-file-url: none; fill: rgb(76,145,170); fill-rule: nonzero; opacity: 1;"  transform=" translate(-4259.63, -5658.695)" d="M 6532.91 7292.61 l -743.98 -162.79 l 0 0 l 18.29 -9.97 l 17.81 -10.32 l 17.34 -10.66 l 16.86 -11 l 16.38 -11.34 l 15.91 -11.68 l 15.42 -12.02 l 14.96 -12.36 l 14.47 -12.71 l 14 -13.04 l 13.52 -13.38 l 13.05 -13.73 l 12.56 -14.06 l 12.09 -14.41 l 11.62 -14.74 l 11.14 -15.09 l 10.66 -15.43 l 10.18 -15.77 l 9.71 -16.1 l 9.23 -16.45 l 8.75 -16.79 l 8.28 -17.13 l 7.8 -17.47 l 7.32 -17.81 l 6.85 -18.16 l 6.37 -18.49 l 5.89 -18.83 l 5.42 -19.18 l 4.93 -19.51 l 4.47 -19.86 l 3.98 -20.19 l 3.51 -20.54 l 395.21 651.01 z m -478.06 -280.05 l 58.12 -81.38 l 162.74 116.25 l -58.12 81.38 l -162.74 -116.25 z m -406.85 -290.63 l 58.12 -81.38 l 162.74 116.25 l -58.12 81.38 l -162.74 -116.25 z m -406.85 -290.63 l 58.12 -81.38 l 162.74 116.25 l -58.12 81.38 l -162.74 -116.25 z m -406.85 -290.63 l 58.12 -81.38 l 162.74 116.25 l -58.12 81.38 l -162.74 -116.25 z m -406.85 -290.63 l 58.12 -81.38 l 162.74 116.25 l -58.12 81.38 l -162.74 -116.25 z m -406.85 -290.63 l 58.12 -81.38 l 162.74 116.25 l -58.12 81.38 l -162.74 -116.25 z m -406.85 -290.65 l 58.12 -81.38 l 162.74 116.26 l -58.12 81.38 l -162.74 -116.26 z m -406.85 -290.65 l 58.12 -81.38 l 162.74 116.26 l -58.12 81.38 l -162.74 -116.26 z m -406.85 -290.65 l 58.12 -81.38 l 162.74 116.26 l -58.12 81.38 l -162.74 -116.26 z m -406.85 -290.65 l 58.12 -81.38 l 162.74 116.26 l -58.12 81.38 l -162.74 -116.26 z m -406.85 -290.65 l 58.12 -81.38 l 162.74 116.26 l -58.12 81.38 l -162.74 -116.26 z" stroke-linecap="round" />
</g>
		<g transform="matrix(0.0378 0 0 0.0378 -171.6366 58.9431)" style="" id="Layer_x0020_1"  >
		<text xml:space="preserve" font-family="Helvetica" font-size="389.73" font-style="normal" font-weight="bold" style="stroke: none; stroke-width: 1; stroke-dasharray: none; stroke-linecap: butt; stroke-dashoffset: 0; stroke-linejoin: miter; stroke-miterlimit: 4; is-custom-font: none; font-file-url: none; fill: rgb(76,145,170); fill-rule: evenodd; opacity: 1; white-space: pre;" ><tspan x="-941.9744" y="122.4298" >GESTURE</tspan></text>
</g>
		<g transform="matrix(0.0378 0 0 0.0378 -190.8647 -11.4952)" style="" id="Layer_x0020_1"  >
		<text xml:space="preserve" font-family="Helvetica" font-size="389.73" font-style="normal" font-weight="bold" style="stroke: none; stroke-width: 1; stroke-dasharray: none; stroke-linecap: butt; stroke-dashoffset: 0; stroke-linejoin: miter; stroke-miterlimit: 4; is-custom-font: none; font-file-url: none; fill: rgb(76,145,170); fill-rule: evenodd; opacity: 1; white-space: pre;" ><tspan x="-541.3022" y="122.4298" >GAZE</tspan></text>
</g>
		<g transform="matrix(0.0378 0 0 0.0378 -222.8031 -85.5153)" id="Layer_x0020_1"  >
<path style="stroke: none; stroke-width: 1; stroke-dasharray: none; stroke-linecap: butt; stroke-dashoffset: 0; stroke-linejoin: miter; stroke-miterlimit: 4; is-custom-font: none; font-file-url: none; fill: rgb(76,145,170); fill-rule: evenodd; opacity: 1;"  transform=" translate(-2605, -3737.3844)" d="M 2605 3538.9 c 0 0 0 893.18 0 0 z" stroke-linecap="round" />
</g>
		<g transform="matrix(0.0378 0 0 0.0378 -211.488 -77.9997)" id="Layer_x0020_1"  >
<path style="stroke: none; stroke-width: 1; stroke-dasharray: none; stroke-linecap: butt; stroke-dashoffset: 0; stroke-linejoin: miter; stroke-miterlimit: 4; is-custom-font: none; font-file-url: none; fill: rgb(76,145,170); fill-rule: evenodd; opacity: 1;"  transform=" translate(-2904.36, -3936.22)" d="M 2902.06 3662.22 c -35.78 -25.22 -93.79 -25.22 -129.56 0 c -35.77 25.22 -35.77 66.11 0 91.34 c 146.87 95.76 154.02 249.58 0 365.32 c -35.77 25.22 -35.77 66.12 0 91.34 c 35.77 25.22 93.78 25.22 129.56 0 c 214.65 -151.32 214.65 -396.67 0 -548 z" stroke-linecap="round" />
</g>
		<g transform="matrix(0.0378 0 0 0.0378 -197.7767 -77.9989)" id="Layer_x0020_1"  >
<path style="stroke: none; stroke-width: 1; stroke-dasharray: none; stroke-linecap: butt; stroke-dashoffset: 0; stroke-linejoin: miter; stroke-miterlimit: 4; is-custom-font: none; font-file-url: none; fill: rgb(76,145,170); fill-rule: evenodd; opacity: 1;"  transform=" translate(-3267.1312, -3936.22)" d="M 3211.16 3479.55 c -35.77 -25.22 -93.77 -25.22 -129.55 0 c -35.77 25.22 -35.77 66.11 0 91.33 c 286.21 201.77 286.21 528.91 0 730.68 c -35.77 25.21 -35.77 66.11 0 91.33 c 35.78 25.22 93.78 25.22 129.55 0 c 357.76 -252.21 357.76 -661.13 0 -913.34 z" stroke-linecap="round" />
</g>
		<g transform="matrix(0.0378 0 0 0.0378 -182.5537 -77.9981)" id="Layer_x0020_1"  >
<path style="stroke: none; stroke-width: 1; stroke-dasharray: none; stroke-linecap: butt; stroke-dashoffset: 0; stroke-linejoin: miter; stroke-miterlimit: 4; is-custom-font: none; font-file-url: none; fill: rgb(76,145,170); fill-rule: evenodd; opacity: 1;"  transform=" translate(-3669.9, -3936.22)" d="M 3430.72 3296.88 c 35.77 -25.22 93.78 -25.22 129.55 0 c 500.85 353.1 500.85 925.58 0 1278.68 c -35.77 25.22 -93.78 25.22 -129.55 0 c -35.77 -25.22 -35.77 -66.11 0 -91.33 c 429.31 -302.66 429.31 -793.36 0 -1096.01 c -35.77 -25.23 -35.77 -66.11 0 -91.34 z" stroke-linecap="round" />
</g>
		<g transform="matrix(0.0378 0 0 0.0378 -129.6671 -78.4473)" style="" id="Layer_x0020_1"  >
		<text xml:space="preserve" font-family="Helvetica" font-size="389.73" font-style="normal" font-weight="bold" style="stroke: none; stroke-width: 1; stroke-dasharray: none; stroke-linecap: butt; stroke-dashoffset: 0; stroke-linejoin: miter; stroke-miterlimit: 4; is-custom-font: none; font-file-url: none; fill: rgb(76,145,170); fill-rule: evenodd; opacity: 1; white-space: pre;" ><tspan x="-801.3443" y="122.4298" >SPEECH</tspan></text>
</g>
		<g transform="matrix(0.0378 0 0 0.0378 111.8674 -7.8689)" id="_105553395765792"  >
<line style="stroke: rgb(76,145,170); stroke-width: 100; stroke-dasharray: 100 100; stroke-linecap: butt; stroke-dashoffset: 0; stroke-linejoin: miter; stroke-miterlimit: 22.9256; is-custom-font: none; font-file-url: none; fill: none; fill-rule: evenodd; opacity: 1;"  x1="-1783.1950000000006" y1="-78.40499999999975" x2="1783.1950000000006" y2="78.40499999999975" />
</g>
		<g transform="matrix(0.0378 0 0 0.0378 131.0634 62.909)" id="_105553395770336"  >
<line style="stroke: rgb(76,145,170); stroke-width: 100; stroke-dasharray: 100 100; stroke-linecap: butt; stroke-dashoffset: 0; stroke-linejoin: miter; stroke-miterlimit: 22.9256; is-custom-font: none; font-file-url: none; fill: none; fill-rule: evenodd; opacity: 1;"  x1="-1348.3649999999998" y1="497.5899999999997" x2="1348.3649999999998" y2="-497.5899999999997" />
</g>
		<g transform="matrix(0.0378 0 0 0.0378 66.9005 -31.5707)" style="" id="Layer_x0020_1"  >
		<text xml:space="preserve" font-family="Helvetica" font-size="370.36" font-style="normal" font-weight="bold" style="stroke: none; stroke-width: 1; stroke-dasharray: none; stroke-linecap: butt; stroke-dashoffset: 0; stroke-linejoin: miter; stroke-miterlimit: 4; is-custom-font: none; font-file-url: none; fill: rgb(76,145,170); fill-rule: evenodd; opacity: 1; white-space: pre;" ><tspan x="-2942.8972" y="116.3449" >GESTURE / GAZE OBSERVATION</tspan></text>
</g>
		<g transform="matrix(0.0378 0 0 0.0378 151.5021 165.187)" style="" id="Layer_x0020_1"  >
		<text xml:space="preserve" font-family="Helvetica" font-size="370.36" font-style="normal" font-weight="bold" style="stroke: none; stroke-width: 1; stroke-dasharray: none; stroke-linecap: butt; stroke-dashoffset: 0; stroke-linejoin: miter; stroke-miterlimit: 4; is-custom-font: none; font-file-url: none; fill: rgb(76,145,170); fill-rule: evenodd; opacity: 1; white-space: pre;" ><tspan x="-638.003" y="116.3449" >SCENE</tspan></text>
</g>
		<g transform="matrix(0.0378 0 0 0.0378 177.5668 179.1848)" style="" id="Layer_x0020_1"  >
		<text xml:space="preserve" font-family="Helvetica" font-size="370.36" font-style="normal" font-weight="bold" style="stroke: none; stroke-width: 1; stroke-dasharray: none; stroke-linecap: butt; stroke-dashoffset: 0; stroke-linejoin: miter; stroke-miterlimit: 4; is-custom-font: none; font-file-url: none; fill: rgb(76,145,170); fill-rule: evenodd; opacity: 1; white-space: pre;" ><tspan x="-1327.5453" y="116.3449" >OBSERVATION</tspan></text>
</g>
		<g transform="matrix(0.0378 0 0 0.0378 221.5323 -46.0416)" id="Layer_x0020_1"  >
<path style="stroke: none; stroke-width: 1; stroke-dasharray: none; stroke-linecap: butt; stroke-dashoffset: 0; stroke-linejoin: miter; stroke-miterlimit: 4; is-custom-font: none; font-file-url: none; fill: rgb(76,145,170); fill-rule: evenodd; opacity: 1;"  transform=" translate(-14361.3554, -4781.7896)" d="M 14266.1 4963.15 c 19.26 27.69 61.28 42.99 93.83 34.15 c 32.55 -8.84 43.34 -38.46 24.08 -66.15 c -81.13 -108.07 -45.75 -221.36 96.3 -264.57 c 32.55 -8.84 43.33 -38.46 24.07 -66.15 c -19.26 -27.7 -61.27 -42.99 -93.83 -34.15 c -195.34 53.01 -260.01 230.69 -144.45 396.87 l 0 0 z" stroke-linecap="round" />
</g>
		<g transform="matrix(0.0378 0 0 0.0378 212.3494 -49.1206)" id="Layer_x0020_1"  >
<path style="stroke: none; stroke-width: 1; stroke-dasharray: none; stroke-linecap: butt; stroke-dashoffset: 0; stroke-linejoin: miter; stroke-miterlimit: 4; is-custom-font: none; font-file-url: none; fill: rgb(76,145,170); fill-rule: evenodd; opacity: 1;"  transform=" translate(-14118.384, -4700.305)" d="M 13994.09 5013.97 c 19.26 27.69 61.26 42.98 93.83 34.14 c 32.55 -8.83 43.32 -38.45 24.07 -66.14 c -154.09 -221.58 -67.87 -458.49 192.6 -529.18 c 32.56 -8.83 43.34 -38.45 24.08 -66.14 c -19.27 -27.7 -61.27 -42.99 -93.83 -34.15 c -325.58 88.35 -433.36 384.5 -240.75 661.47 z" stroke-linecap="round" />
</g>
		<g transform="matrix(0.0378 0 0 0.0378 202.0714 -52.598)" id="Layer_x0020_1"  >
<path style="stroke: none; stroke-width: 1; stroke-dasharray: none; stroke-linecap: butt; stroke-dashoffset: 0; stroke-linejoin: miter; stroke-miterlimit: 4; is-custom-font: none; font-file-url: none; fill: rgb(76,145,170); fill-rule: evenodd; opacity: 1;"  transform=" translate(-13846.4375, -4608.285)" d="M 13786.93 5088.39 c -32.55 8.83 -74.57 -6.46 -93.83 -34.15 c -269.65 -387.76 -118.75 -802.35 337.06 -926.06 c 32.55 -8.83 74.56 6.46 93.82 34.15 c 19.26 27.69 8.48 57.31 -24.07 66.14 c -390.7 106.04 -520.04 461.4 -288.9 793.76 c 19.25 27.7 8.48 57.31 -24.08 66.16 z" stroke-linecap="round" />
</g>
</g>
</g>
</svg>